<?xml version="1.0" standalone="no"?>
<!DOCTYPE svg PUBLIC "-//W3C//DTD SVG 1.1//EN" "http://www.w3.org/Graphics/SVG/1.1/DTD/svg11.dtd" >
<svg xmlns="http://www.w3.org/2000/svg" xmlns:xlink="http://www.w3.org/1999/xlink" version="1.1">
<metadata>
Created by FontForge 20201107 at Thu Sep 19 17:00:54 2024
 By 
Copyright (c) 2018 by Kenneth Knutsen Good Type Foundry. All rights reserved.
</metadata>
<defs>
<font id="GoodSans-LightItalic" horiz-adv-x="0" >
  <font-face 
    font-family="Good Sans Light Italic"
    font-weight="300"
    font-style="italic"
    font-stretch="normal"
    units-per-em="2048"
    panose-1="0 0 4 0 0 0 0 0 0 0"
    ascent="1638"
    descent="-410"
    x-height="1065"
    cap-height="1597"
    bbox="-1935 -612 2849 2265"
    underline-thickness="102"
    underline-position="-204"
    slope="-8"
    unicode-range="U+0020-25CA"
  />
<missing-glyph horiz-adv-x="1927" 
d="M965 -31q-173 0 -329.5 68t-268.5 182t-178 269t-66 323t67.5 323t180.5 268t269 181t325 68q168 0 322.5 -67t268 -179.5t181 -268t67.5 -325.5q0 -173 -68 -329.5t-181.5 -268.5t-268 -178t-321.5 -66zM965 143q136 0 259 52.5t212 142t141.5 213t52.5 260.5
t-52.5 260.5t-141.5 212t-212 141t-259 52.5q-183 0 -336.5 -88.5t-242.5 -242t-89 -335.5q0 -137 52.5 -260.5t142 -213t213 -142t260.5 -52.5zM748 911q-64 0 -108 43t-44 107q0 60 44.5 102.5t107.5 42.5q62 0 106.5 -42.5t44.5 -102.5q0 -64 -44.5 -107t-106.5 -43z
M1196 911q-63 0 -105 43t-42 107q0 61 42.5 103t104.5 42t106 -42.5t44 -102.5q0 -64 -44 -107t-106 -43zM965 326q-142 0 -256.5 52.5t-182 152.5t-67.5 231l147 20q3 -48 23 -92t59 -84t110.5 -64t166.5 -24q94 0 165.5 24t111 64t59 84t20.5 92l147 -20
q0 -133 -69 -233.5t-182.5 -151.5t-251.5 -51z" />
    <glyph glyph-name=".notdef" horiz-adv-x="1927" 
d="M965 -31q-173 0 -329.5 68t-268.5 182t-178 269t-66 323t67.5 323t180.5 268t269 181t325 68q168 0 322.5 -67t268 -179.5t181 -268t67.5 -325.5q0 -173 -68 -329.5t-181.5 -268.5t-268 -178t-321.5 -66zM965 143q136 0 259 52.5t212 142t141.5 213t52.5 260.5
t-52.5 260.5t-141.5 212t-212 141t-259 52.5q-183 0 -336.5 -88.5t-242.5 -242t-89 -335.5q0 -137 52.5 -260.5t142 -213t213 -142t260.5 -52.5zM748 911q-64 0 -108 43t-44 107q0 60 44.5 102.5t107.5 42.5q62 0 106.5 -42.5t44.5 -102.5q0 -64 -44.5 -107t-106.5 -43z
M1196 911q-63 0 -105 43t-42 107q0 61 42.5 103t104.5 42t106 -42.5t44 -102.5q0 -64 -44 -107t-106 -43zM965 326q-142 0 -256.5 52.5t-182 152.5t-67.5 231l147 20q3 -48 23 -92t59 -84t110.5 -64t166.5 -24q94 0 165.5 24t111 64t59 84t20.5 92l147 -20
q0 -133 -69 -233.5t-182.5 -151.5t-251.5 -51z" />
    <glyph glyph-name=".null" 
 />
    <glyph glyph-name="nonmarkingreturn" horiz-adv-x="682" 
 />
    <glyph glyph-name="space" unicode=" " horiz-adv-x="614" 
 />
    <glyph glyph-name="exclam" unicode="!" horiz-adv-x="509" 
d="M342 547h-170l150 1071h170zM182 -23q-57 0 -92 40.5t-27 97.5q7 54 50.5 90.5t99.5 36.5q55 0 89 -38.5t28 -94.5q-7 -55 -51.5 -93.5t-96.5 -38.5z" />
    <glyph glyph-name="quotedbl" unicode="&#x22;" horiz-adv-x="776" 
d="M317 1176h-84l41 442h166zM682 1176h-84l41 442h166z" />
    <glyph glyph-name="numbersign" unicode="#" horiz-adv-x="1998" 
d="M530 0h-180l176 477h-333l24 164h371l141 379h-356l22 164h393l160 434h180l-161 -434l428 2l159 432h179l-160 -432h315l-22 -164h-353l-141 -381h338l-22 -162h-375l-178 -479h-179l179 479l-428 -2zM907 1020l-141 -379h428l141 381z" />
    <glyph glyph-name="dollar" unicode="$" horiz-adv-x="1552" 
d="M1477 1120h-189q9 147 -70.5 235t-238.5 105l-80 -567q101 -12 163.5 -23t143 -40.5t122.5 -72.5t66.5 -118.5t10.5 -177.5q-29 -205 -197 -341t-438 -151l-25 -174h-167l24 178q-248 25 -374 170t-91 383h195q-17 -160 59 -259.5t236 -125.5l84 602q-87 11 -148 25
t-127.5 45t-104 75t-56.5 118t-5 172q25 178 179.5 300.5t384.5 147.5l28 197h168l-26 -195q241 -20 372.5 -159.5t100.5 -348.5zM455 1149q-8 -59 9 -102t59 -69t91.5 -40.5t120.5 -24.5l76 545q-155 -19 -247 -98.5t-109 -210.5zM1217 463q7 48 -0.5 86t-30.5 64.5t-52 45
t-74 31.5t-85.5 20.5t-97.5 14.5l-84 -590q183 10 293.5 96t130.5 232z" />
    <glyph glyph-name="percent" unicode="%" horiz-adv-x="2363" 
d="M633 866q-166 0 -259.5 115t-68.5 293q25 169 143 277t279 108q167 0 260 -114.5t68 -291.5q-23 -170 -141 -278.5t-281 -108.5zM1802 1618l-1097 -1618h-216l1098 1618h215zM639 1014q96 0 167.5 72t86.5 184q17 107 -31 175t-139 68q-97 0 -169 -72.5t-87 -185.5
q-15 -107 32.5 -174t139.5 -67zM1716 -20q-167 0 -259.5 114t-67.5 291q25 170 142 278.5t277 108.5q169 0 261.5 -114.5t66.5 -292.5q-25 -170 -142.5 -277.5t-277.5 -107.5zM1720 125q97 0 169 72.5t87 185.5q15 107 -33 174.5t-139 67.5q-97 0 -169 -72t-87 -184
q-15 -107 33 -175.5t139 -68.5z" />
    <glyph glyph-name="ampersand" unicode="&#x26;" horiz-adv-x="1761" 
d="M655 -33q-256 0 -390 126t-103 343q17 124 120 229t277 181q-165 212 -141 395q28 192 172.5 301t367.5 109q203 0 313.5 -111t84.5 -295q-22 -154 -147.5 -267t-348.5 -198l375 -383q162 195 219 471h188q-77 -373 -292 -598l264 -270h-264l-140 145
q-243 -178 -555 -178zM731 903q411 124 440 344q15 113 -44 175.5t-177 62.5q-145 0 -238 -72.5t-110 -198.5q-19 -136 129 -311zM678 135q233 0 414 133l-416 443q-305 -120 -334 -320q-15 -112 76.5 -184t259.5 -72z" />
    <glyph glyph-name="quotesingle" unicode="'" horiz-adv-x="411" 
d="M317 1176h-84l41 442h166z" />
    <glyph glyph-name="parenleft" unicode="(" horiz-adv-x="919" 
d="M612 -211h-182q-129 187 -178 460t-8 572q40 280 163.5 540.5t305.5 448.5h182q-186 -195 -315 -456.5t-168 -532.5q-39 -289 14.5 -562t185.5 -470z" />
    <glyph glyph-name="parenright" unicode=")" horiz-adv-x="919" 
d="M281 -211h-183q187 198 318 471t172 561q38 271 -18 532.5t-187 456.5h184q129 -187 179 -448t12 -541q-43 -300 -168.5 -572.5t-308.5 -459.5z" />
    <glyph glyph-name="asterisk" unicode="*" horiz-adv-x="1294" 
d="M758 721h-168l84 354l-307 -231l-74 141l360 182l-309 181l115 141l241 -229l17 358h168l-88 -358l307 229l76 -141l-363 -181l313 -182l-116 -141l-242 231z" />
    <glyph glyph-name="plus" unicode="+" horiz-adv-x="1468" 
d="M770 199h-162l60 426h-453l23 159h450l62 439h159l-59 -437h453l-23 -159h-453z" />
    <glyph glyph-name="comma" unicode="," horiz-adv-x="503" 
d="M111 -211h-117l156 426h196z" />
    <glyph glyph-name="hyphen" unicode="-" horiz-adv-x="1429" 
d="M1247 678h-1024l25 168h1024z" />
    <glyph glyph-name="period" unicode="." horiz-adv-x="503" 
d="M178 -23q-57 0 -91 40.5t-28 97.5q7 54 50.5 90.5t99.5 36.5q57 0 91 -38.5t26 -94.5q-7 -55 -51.5 -93.5t-96.5 -38.5z" />
    <glyph glyph-name="slash" unicode="/" horiz-adv-x="1169" 
d="M1280 1618l-1100 -1618h-215l1098 1618h217z" />
    <glyph glyph-name="zero" unicode="0" horiz-adv-x="1560" 
d="M719 -33q-316 0 -462 228t-89 634q54 389 255.5 605.5t508.5 216.5q309 0 452 -224.5t86 -621.5q-55 -396 -253.5 -617t-497.5 -221zM723 135q220 0 369.5 185.5t193.5 513.5q44 307 -51 478t-309 171q-224 0 -376 -175.5t-196 -486.5q-44 -324 53 -505t316 -181z" />
    <glyph glyph-name="one" unicode="1" horiz-adv-x="923" 
d="M662 0h-179l195 1389l-518 -269l24 195l584 303h121z" />
    <glyph glyph-name="two" unicode="2" horiz-adv-x="1398" 
d="M1210 0h-1136l14 102q13 92 56 174.5t105 145t139 119t160 104t165.5 92t158 90.5t135.5 92.5t99.5 104.5t48.5 121q23 160 -58.5 249t-254.5 89q-209 0 -322 -121.5t-110 -333.5h-187q15 298 179 460.5t452 162.5q266 0 395 -132.5t97 -369.5q-12 -85 -51 -159
t-95.5 -130.5t-127 -107.5t-147.5 -94t-154.5 -84.5t-151 -85t-134.5 -90t-106.5 -105t-65.5 -123.5l922 6z" />
    <glyph glyph-name="three" unicode="3" horiz-adv-x="1370" 
d="M623 -33q-173 0 -297.5 74.5t-179 204.5t-31.5 293h178q-19 -185 71 -294.5t259 -109.5q183 0 305.5 101.5t144.5 269.5q19 145 -67.5 232t-251.5 87q-81 0 -150 -26l-88 102l565 549h-802l22 168h1090l-15 -117l-579 -534q110 1 201 -32.5t152 -95.5t88 -154.5
t11 -203.5q-32 -229 -204.5 -371.5t-421.5 -142.5z" />
    <glyph glyph-name="four" unicode="4" horiz-adv-x="1472" 
d="M1063 0h-166l64 457h-873l16 133l922 1028h264l-139 -993h242l-25 -168h-242zM1104 1468l-750 -843h629z" />
    <glyph glyph-name="five" unicode="5" horiz-adv-x="1404" 
d="M627 -33q-254 0 -391.5 145t-106.5 371h184q-10 -158 76 -253t238 -95q181 0 306 115.5t148 298.5q20 155 -74 250.5t-274 95.5q-105 0 -209.5 -49t-177.5 -127l-115 55l209 844h930l-24 -168h-777l-131 -494q154 105 361 105q241 0 372 -154.5t97 -396.5
q-35 -245 -210.5 -394t-430.5 -149z" />
    <glyph glyph-name="six" unicode="6" horiz-adv-x="1437" 
d="M666 -33q-298 0 -419 212.5t-65 613.5q57 406 246.5 632t468.5 226q225 0 350.5 -126t122.5 -345h-186q-3 145 -81.5 224t-217.5 79q-188 0 -327 -181t-200 -507q67 108 193 171.5t266 63.5q241 0 372 -143.5t99 -372.5q-34 -241 -209 -394t-413 -153zM676 135
q163 0 282 105t142 268q23 158 -61.5 259t-241.5 101q-165 0 -285 -105.5t-143 -270.5q-22 -157 64 -257t243 -100z" />
    <glyph glyph-name="seven" unicode="7" horiz-adv-x="1314" 
d="M510 0h-219l870 1450h-975l25 168h1196l-12 -105z" />
    <glyph glyph-name="eight" unicode="8" horiz-adv-x="1415" 
d="M639 -33q-260 0 -401.5 136.5t-110.5 355.5q19 138 120.5 252.5t244.5 158.5q-95 45 -149.5 150t-39.5 225q26 182 178.5 294t376.5 112q227 0 353 -118.5t100 -307.5q-17 -115 -98 -216t-193 -143q127 -45 197 -164.5t49 -263.5q-29 -211 -202 -341t-425 -130zM760 934
q142 0 243.5 83t120.5 214q15 114 -59.5 184t-212.5 70q-144 0 -243.5 -74.5t-116.5 -193.5q-19 -125 55.5 -204t212.5 -79zM645 133q171 0 289 89t137 231q20 143 -68 232t-253 89q-173 0 -292 -93t-141 -243q-19 -136 71.5 -220.5t256.5 -84.5z" />
    <glyph glyph-name="nine" unicode="9" horiz-adv-x="1435" 
d="M618 -33q-227 0 -353.5 126.5t-123.5 346.5h187q1 -147 80 -226t219 -79q190 0 328 180.5t198 507.5q-65 -107 -191 -171t-264 -64q-245 0 -375.5 150.5t-95.5 404.5q31 216 206 362t409 146q298 0 423 -207.5t72 -583.5q-61 -429 -251 -661t-468 -232zM715 750
q163 0 284 105.5t144 270.5q22 157 -64.5 257t-244.5 100q-162 0 -280.5 -105t-143.5 -268q-23 -158 62.5 -259t242.5 -101z" />
    <glyph glyph-name="colon" unicode=":" horiz-adv-x="503" 
d="M285 739q-57 0 -91 40.5t-28 97.5q7 54 50 90.5t99 36.5q57 0 91 -39t26 -95q-7 -55 -51 -93t-96 -38zM178 -23q-57 0 -91 40.5t-28 97.5q7 54 50.5 90.5t99.5 36.5q57 0 91 -38.5t26 -94.5q-7 -55 -51.5 -93.5t-96.5 -38.5z" />
    <glyph glyph-name="semicolon" unicode=";" horiz-adv-x="524" 
d="M285 739q-57 0 -91 40.5t-28 97.5q7 54 50 90.5t99 36.5q57 0 91 -39t26 -95q-7 -55 -51 -93t-96 -38zM104 -211h-116l157 426h195z" />
    <glyph glyph-name="less" unicode="&#x3c;" horiz-adv-x="1427" 
d="M1180 203l-23 -170l-962 440l28 201l1086 440l-25 -170l-901 -371z" />
    <glyph glyph-name="equal" unicode="=" horiz-adv-x="1470" 
d="M1311 834l-1065 -3l20 162l1065 2zM1251 410l-1065 -2l23 159l1065 2z" />
    <glyph glyph-name="greater" unicode="&#x3e;" horiz-adv-x="1427" 
d="M1219 473l-1088 -440l25 170l901 370l-797 371l23 170l962 -440z" />
    <glyph glyph-name="question" unicode="?" horiz-adv-x="1320" 
d="M694 494h-174q12 87 48 157t84.5 116t105 85t112.5 73.5t103 70t80.5 85.5t42.5 111q19 137 -63.5 214t-248.5 77q-191 0 -298.5 -115.5t-104.5 -320.5h-188q15 284 179.5 444t442.5 160q249 0 370.5 -117.5t90.5 -333.5q-11 -78 -46.5 -143t-85 -110.5t-107 -85.5
t-114.5 -77.5t-105 -77.5t-82 -94t-42 -118zM549 -23q-57 0 -91 40.5t-26 97.5q6 54 50 90.5t100 36.5q55 0 88.5 -38.5t25.5 -94.5q-6 -55 -50 -93.5t-97 -38.5z" />
    <glyph glyph-name="at" unicode="@" horiz-adv-x="2527" 
d="M1143 -492q-237 0 -428.5 81t-314 223.5t-174.5 344.5t-19 437q33 233 140 433t267 341t370.5 221.5t442.5 81.5q230 1 417 -72.5t307.5 -204t173 -316t22.5 -402.5q-24 -175 -99.5 -315t-188 -219.5t-240.5 -80.5q-118 -1 -182.5 64t-75.5 178q-78 -143 -192.5 -219.5
t-258.5 -75.5q-149 0 -248 75t-129.5 203.5t4.5 301.5q56 247 218.5 399t379.5 152q121 0 201 -52t115 -145l39 164h176l-142 -623q-23 -127 8.5 -200.5t104.5 -73.5q123 0 222 149t130 379q31 226 -55.5 403t-272 276t-438.5 100q-265 1 -491.5 -119t-373 -335.5
t-185.5 -488.5q-27 -197 16 -366t144.5 -287.5t259 -186t352.5 -67.5q169 0 361.5 72t324.5 186l106 -117q-158 -132 -381.5 -215.5t-412.5 -83.5zM1139 160q152 0 275.5 119t166.5 307q40 179 -23.5 290t-209.5 111q-151 0 -273.5 -118t-165.5 -304q-41 -180 23 -292.5
t207 -112.5z" />
    <glyph glyph-name="A" unicode="A" horiz-adv-x="1740" 
d="M164 0h-201l942 1597h230l491 -1597h-199l-131 432h-878zM995 1417l-479 -817h731z" />
    <glyph glyph-name="B" unicode="B" horiz-adv-x="1552" 
d="M1454 1192q-19 -131 -91 -225t-179 -131q134 -30 194 -137.5t37 -264.5q-26 -193 -186 -313.5t-387 -120.5h-731l225 1597h678q233 0 350.5 -106.5t89.5 -298.5zM1268 1176q17 129 -66.5 191.5t-261.5 62.5h-448l-74 -533h456q170 0 272 71.5t122 207.5zM1233 473
q19 131 -65.5 198.5t-258.5 67.5h-516l-80 -571h508q177 0 284.5 80t127.5 225z" />
    <glyph glyph-name="C" unicode="C" horiz-adv-x="1771" 
d="M848 -33q-235 0 -405 105.5t-246.5 297t-40.5 437.5q34 240 162.5 428t326.5 291.5t432 103.5q280 0 454 -153t183 -406h-190q-12 173 -146 281t-327 110q-274 2 -470 -176t-237 -469q-28 -201 27 -356.5t181.5 -240.5t303.5 -85q137 0 261.5 51.5t217 147.5t133.5 221
h189q-56 -175 -178.5 -309.5t-286.5 -206.5t-344 -72z" />
    <glyph glyph-name="D" unicode="D" horiz-adv-x="1724" 
d="M705 0h-594l225 1597h594q384 0 576 -209t139 -587q-34 -248 -163 -430t-328.5 -276.5t-448.5 -94.5zM492 1434l-179 -1270h414q303 0 494.5 166.5t234.5 472.5q41 301 -103 466t-446 165h-415z" />
    <glyph glyph-name="E" unicode="E" horiz-adv-x="1497" 
d="M1264 0h-1153l225 1597h1143l-23 -167h-964l-74 -521h893l-23 -166h-893l-82 -575h973z" />
    <glyph glyph-name="F" unicode="F" horiz-adv-x="1409" 
d="M291 0h-180l225 1597h1141l-25 -163h-960l-72 -523h889l-25 -166h-889z" />
    <glyph glyph-name="G" unicode="G" horiz-adv-x="1808" 
d="M829 -33q-233 0 -398.5 105.5t-238 297t-36.5 437.5q34 241 161.5 428.5t325.5 291t434 103.5q184 0 327 -63.5t225 -181t89 -273.5h-188q-13 154 -149 251t-330 99q-182 1 -333 -78.5t-249 -227t-125 -339.5q-28 -202 26 -357t180.5 -240t305.5 -85q242 0 419.5 151
t213.5 373h-574l23 162h754l-117 -821h-164l37 276q-194 -309 -619 -309z" />
    <glyph glyph-name="H" unicode="H" horiz-adv-x="1716" 
d="M291 0h-180l225 1597h180l-96 -682h985l96 682h178l-225 -1597h-178l106 748h-987z" />
    <glyph glyph-name="I" unicode="I" horiz-adv-x="552" 
d="M291 0h-180l225 1597h180z" />
    <glyph glyph-name="J" unicode="J" horiz-adv-x="1343" 
d="M532 -27q-549 0 -469 570h179q-59 -402 313 -402q378 0 436 428l146 1028h178l-148 -1040q-40 -290 -200 -437t-435 -147z" />
    <glyph glyph-name="K" unicode="K" horiz-adv-x="1640" 
d="M291 0h-180l225 1597h180l-127 -905l1081 905h254l-843 -706l630 -891h-243l-537 766l-377 -317z" />
    <glyph glyph-name="L" unicode="L" horiz-adv-x="1368" 
d="M1194 0h-1083l225 1597h180l-203 -1435h904z" />
    <glyph glyph-name="M" unicode="M" horiz-adv-x="2154" 
d="M291 0h-180l225 1597h293l399 -1409l797 1409h293l-226 -1597h-178l195 1378l-805 -1378h-205l-414 1378z" />
    <glyph glyph-name="N" unicode="N" horiz-adv-x="1753" 
d="M291 0h-180l225 1597h239l768 -1366l193 1366h178l-225 -1597h-232l-774 1378z" />
    <glyph glyph-name="O" unicode="O" horiz-adv-x="1845" 
d="M850 -33q-179 0 -322 61.5t-233.5 171.5t-128 266.5t-10.5 340.5q25 181 106 334t201.5 260.5t280.5 168t339 60.5q176 0 316.5 -60.5t229.5 -168t126 -261t12 -333.5q-27 -185 -107.5 -341t-199.5 -266t-276.5 -171.5t-333.5 -61.5zM872 135q275 0 469.5 188t237.5 494
q41 289 -102 467t-418 178q-280 0 -477 -178t-238 -467q-28 -202 28 -357t185.5 -240t314.5 -85z" />
    <glyph glyph-name="P" unicode="P" horiz-adv-x="1517" 
d="M291 0h-180l225 1597h700q262 0 380 -120t87 -340q-31 -221 -184 -344t-414 -123h-520zM492 1430l-84 -592h491q188 0 291.5 77t124.5 220q21 141 -64 218t-278 77h-481z" />
    <glyph glyph-name="Q" unicode="Q" horiz-adv-x="1853" 
d="M1083 1630q176 0 316.5 -60.5t229.5 -168t126 -261t12 -333.5q-50 -335 -260 -561l209 -246h-225l-113 133q-235 -166 -528 -166q-179 0 -322 61.5t-233.5 171.5t-128 266.5t-10.5 340.5q25 181 106 334t201.5 260.5t280.5 168t339 60.5zM1579 817q41 289 -102 467
t-418 178q-280 0 -477 -178t-238 -467q-28 -202 28 -357t185.5 -240t314.5 -85q224 0 396 127l-473 557h225l375 -440q147 180 184 438z" />
    <glyph glyph-name="R" unicode="R" horiz-adv-x="1560" 
d="M291 0h-180l225 1597h700q262 0 380 -120t87 -340q-19 -136 -102.5 -241t-206.5 -146q95 -25 137.5 -88.5t42.5 -186.5q0 -73 -5.5 -151t-10.5 -123t-3.5 -95.5t13.5 -91.5l-2 -14h-182q-11 34 -12.5 83t2.5 93t9.5 112t6.5 118q1 61 -3.5 101t-17.5 72t-33 49.5t-56 29
t-80 15t-111 3.5h-504zM492 1430l-84 -592h495q369 0 412 297q21 142 -62.5 218.5t-275.5 76.5h-485z" />
    <glyph glyph-name="S" unicode="S" horiz-adv-x="1552" 
d="M707 -33q-195 0 -331.5 65.5t-200 192.5t-38.5 301h195q-20 -187 85.5 -290t319.5 -103q208 0 333 87t147 243q11 77 -17.5 129t-85.5 77.5t-133.5 39.5t-162 23t-171 20.5t-160 39t-129 71t-79.5 124t-9 191.5q28 198 212.5 325t451.5 127q271 0 423 -142.5t120 -367.5
h-189q11 163 -89 253.5t-294 90.5q-196 0 -313 -82.5t-137 -232.5q-10 -72 19 -120t86.5 -71.5t134 -37t162 -22.5t170.5 -21t159.5 -39t129 -70t79.5 -121t10 -186q-15 -105 -69 -195t-141 -156.5t-212.5 -104.5t-275.5 -38z" />
    <glyph glyph-name="T" unicode="T" horiz-adv-x="1400" 
d="M715 0h-178l198 1421h-569l27 176h1316l-26 -176h-570z" />
    <glyph glyph-name="U" unicode="U" horiz-adv-x="1710" 
d="M776 -27q-319 3 -472 189.5t-107 515.5l129 919h178l-129 -917q-37 -254 75.5 -396.5t348.5 -142.5t389 142.5t188 396.5l129 917h178l-129 -919q-47 -335 -253 -521.5t-525 -183.5z" />
    <glyph glyph-name="V" unicode="V" horiz-adv-x="1632" 
d="M850 0h-219l-422 1597h197l362 -1411l758 1411h196z" />
    <glyph glyph-name="W" unicode="W" horiz-adv-x="2408" 
d="M715 0h-230l-266 1597h201l205 -1392l600 1392h223l240 -1398l600 1398h200l-716 -1597h-230l-239 1346z" />
    <glyph glyph-name="X" unicode="X" horiz-adv-x="1701" 
d="M270 0h-223l717 799l-492 798h226l399 -649l582 649h225l-717 -798l492 -799h-224l-399 651z" />
    <glyph glyph-name="Y" unicode="Y" horiz-adv-x="1492" 
d="M760 0h-178l88 627l-482 970h207l387 -798l615 798h207l-756 -970z" />
    <glyph glyph-name="Z" unicode="Z" horiz-adv-x="1507" 
d="M1286 0h-1233l21 137l1163 1288h-995l24 172h1272l-14 -104l-1186 -1321h973z" />
    <glyph glyph-name="bracketleft" unicode="[" horiz-adv-x="1024" 
d="M711 -252l-617 -2l295 2105h617l-23 -165l-440 -3l-248 -1769h438z" />
    <glyph glyph-name="backslash" unicode="\" horiz-adv-x="1421" 
d="M1305 0h-218l-894 1618h215z" />
    <glyph glyph-name="bracketright" unicode="]" horiz-adv-x="1024" 
d="M1006 1851l-297 -2105l-617 2l25 166h438l248 1769l-438 3l24 165h617z" />
    <glyph glyph-name="asciicircum" unicode="^" horiz-adv-x="1533" 
d="M426 819h-182l544 799h269l315 -799h-174l-287 686z" />
    <glyph glyph-name="underscore" unicode="_" horiz-adv-x="1523" 
d="M1223 -162l-1119 -2l23 162l1118 2z" />
    <glyph glyph-name="grave" unicode="`" horiz-adv-x="1228" 
d="M586 1638l116 -307h-100l-223 307h207z" />
    <glyph glyph-name="a" unicode="a" horiz-adv-x="1257" 
d="M422 -33q-166 0 -246.5 93.5t-62.5 224.5q20 145 145 224t358 103l285 29l10 76q36 229 -229 229q-133 0 -214.5 -63t-96.5 -174h-164q26 185 155.5 287t339.5 102q214 0 312 -100.5t73 -284.5l-67 -471q-9 -69 6.5 -92t77.5 -17l-19 -125q-137 -40 -193.5 12t-45.5 189
q-60 -117 -169.5 -179.5t-254.5 -62.5zM477 111q142 0 259 114t143 277l-224 -27q-176 -19 -266 -65t-102 -127q-4 -31 3 -59.5t26.5 -54.5t60.5 -42t100 -16z" />
    <glyph glyph-name="b" unicode="b" horiz-adv-x="1282" 
d="M614 -33q-116 -1 -200.5 55.5t-126.5 157.5l-29 -180h-176l227 1618h176l-106 -723q151 203 375 203q215 0 330.5 -160.5t80.5 -411.5q-34 -246 -189 -402.5t-362 -156.5zM588 119q150 0 262.5 118.5t138.5 303.5q23 180 -51.5 292.5t-218.5 112.5q-149 0 -262.5 -117.5
t-139.5 -300.5q-25 -181 51.5 -295t219.5 -114z" />
    <glyph glyph-name="c" unicode="c" horiz-adv-x="1198" 
d="M561 -33q-237 0 -358 161t-84 417q33 247 191.5 400t389.5 153q184 0 298.5 -107.5t117.5 -269.5h-172q-5 101 -73 163t-179 62q-162 0 -267.5 -115t-133.5 -307q-27 -185 43 -295t225 -110q118 0 209 63t121 158h176q-48 -166 -185.5 -269.5t-318.5 -103.5z" />
    <glyph glyph-name="d" unicode="d" horiz-adv-x="1284" 
d="M508 -33q-207 0 -316.5 156.5t-74.5 402.5q34 250 194.5 411t376.5 161q110 0 191.5 -53t124.5 -150l98 723h176l-227 -1618h-177l23 180q-71 -101 -172 -157.5t-217 -55.5zM578 119q145 0 252 113.5t133 295.5q26 183 -54 300.5t-229 117.5q-144 0 -250.5 -112.5
t-134.5 -292.5q-25 -185 54.5 -303.5t228.5 -118.5z" />
    <glyph glyph-name="e" unicode="e" horiz-adv-x="1222" 
d="M561 -33q-237 0 -358 161t-84 417q33 247 191.5 400t389.5 153q96 0 177.5 -36t139 -103.5t82.5 -174t7 -237.5l-10 -62l-807 -4q-14 -172 54 -270t216 -98q114 0 203.5 57.5t118.5 128.5h176q-46 -141 -182 -236.5t-314 -95.5zM307 614l631 7q15 148 -53.5 237.5
t-192.5 89.5q-146 0 -244 -89.5t-141 -244.5z" />
    <glyph glyph-name="f" unicode="f" horiz-adv-x="829" 
d="M395 0h-176l129 911h-254l21 154h254l18 139q32 230 143.5 326.5t329.5 87.5l74 -2l-23 -146h-82q-119 0 -181 -56.5t-81 -184.5l-22 -164h313l-20 -154h-316z" />
    <glyph glyph-name="g" unicode="g" horiz-adv-x="1286" 
d="M510 -442q-220 0 -344.5 91.5t-118.5 256.5h178q-3 -102 74 -153.5t213 -51.5q152 0 250.5 92.5t124.5 272.5l16 96q-138 -183 -371 -180q-226 0 -336 154t-73 409q34 249 182 401t365 152q122 0 205 -52.5t126 -146.5l27 166h174l-141 -1010q-35 -247 -179 -372
t-372 -125zM563 129q153 0 264.5 114.5t137.5 299.5q23 182 -51 294.5t-220 112.5q-151 0 -263 -118t-138 -304q-25 -180 50.5 -289.5t219.5 -109.5z" />
    <glyph glyph-name="h" unicode="h" horiz-adv-x="1241" 
d="M258 0h-176l227 1618h176l-106 -733q153 213 403 213q196 0 282 -113.5t54 -335.5l-92 -649h-176l92 655q20 140 -32.5 215.5t-170.5 75.5q-154 0 -267.5 -119t-139.5 -305z" />
    <glyph glyph-name="i" unicode="i" horiz-adv-x="485" 
d="M352 1237q-60 0 -96 41.5t-27 101.5q6 51 47.5 86t94.5 35q59 0 94.5 -41.5t26.5 -99.5q-7 -52 -48.5 -87.5t-91.5 -35.5zM256 0h-176l149 1065h177z" />
    <glyph glyph-name="j" unicode="j" horiz-adv-x="485" 
d="M354 1237q-60 0 -96 41.5t-27 101.5q6 51 47 86t95 35q58 0 93.5 -41t27.5 -100q-7 -52 -48.5 -87.5t-91.5 -35.5zM-184 -410h-49l20 150h39q113 0 175 62.5t83 211.5l149 1051h175l-150 -1071q-30 -216 -137.5 -310t-304.5 -94z" />
    <glyph glyph-name="k" unicode="k" horiz-adv-x="1200" 
d="M258 0h-176l227 1618h176l-143 -1004l602 451h242l-563 -414l450 -651h-211l-375 549l-168 -123z" />
    <glyph glyph-name="l" unicode="l" horiz-adv-x="491" 
d="M258 0h-176l227 1618h176z" />
    <glyph glyph-name="m" unicode="m" horiz-adv-x="2013" 
d="M260 0h-176l149 1065h177l-31 -188q157 221 405 221q143 0 226.5 -62.5t105.5 -181.5q82 118 193.5 181t242.5 63q196 0 281.5 -117t54.5 -340l-90 -641h-176l90 647q19 141 -32.5 220t-168.5 79q-155 0 -269.5 -123t-139.5 -309l-74 -514h-176l90 647q20 141 -32 220
t-169 79q-154 0 -268 -122.5t-141 -309.5z" />
    <glyph glyph-name="n" unicode="n" horiz-adv-x="1243" 
d="M260 0h-176l149 1065h177l-31 -188q157 221 405 221q195 0 280.5 -117t53.5 -340l-90 -641h-176l90 647q20 141 -32 220t-169 79q-154 0 -268 -122.5t-141 -309.5z" />
    <glyph glyph-name="o" unicode="o" horiz-adv-x="1290" 
d="M575 -33q-157 0 -269.5 73.5t-161.5 205.5t-25 299q32 244 198 398.5t396 154.5q239 0 367.5 -161t93.5 -413q-34 -246 -200.5 -401.5t-398.5 -155.5zM578 119q163 0 278.5 116.5t144.5 305.5q25 183 -54 294t-238 111q-162 0 -276 -115.5t-142 -302.5
q-26 -184 52 -296.5t235 -112.5z" />
    <glyph glyph-name="p" unicode="p" horiz-adv-x="1284" 
d="M203 -410h-176l206 1475h177l-29 -170q153 206 375 203q142 0 243.5 -73.5t145.5 -206t20 -300.5q-32 -241 -187 -396t-362 -155q-116 0 -200.5 57t-126.5 156zM590 119q151 0 264 118t139 304q25 179 -49.5 292t-216.5 113q-151 0 -264 -119t-141 -307
q-23 -177 51.5 -289t216.5 -112z" />
    <glyph glyph-name="q" unicode="q" horiz-adv-x="1284" 
d="M993 -410h-176l80 590q-71 -99 -172 -156t-217 -57q-207 0 -317.5 155t-75.5 396q23 168 104.5 300.5t204 206t264.5 73.5q109 1 191 -52t125 -151l20 170h176zM573 119q145 0 252.5 112.5t135.5 292.5q25 184 -55.5 303t-229.5 119q-145 0 -251 -113.5t-132 -295.5
q-26 -183 52.5 -300.5t227.5 -117.5z" />
    <glyph glyph-name="r" unicode="r" horiz-adv-x="794" 
d="M248 0h-164l149 1065h164l-30 -199q131 211 464 211l-20 -162q-199 0 -329 -83.5t-150 -227.5z" />
    <glyph glyph-name="s" unicode="s" horiz-adv-x="1138" 
d="M510 -33q-211 0 -326 99t-96 262h166q-9 -107 59.5 -163t204.5 -56q126 0 205.5 51t91.5 137q6 45 -14 77t-58 50.5t-89 32t-107.5 24.5t-112.5 24.5t-105.5 36t-86 55t-53 86t-7.5 124.5q19 136 146.5 213.5t328.5 77.5q189 0 296 -101t96 -266h-164q9 108 -55.5 166.5
t-192.5 58.5q-122 0 -197.5 -42.5t-85.5 -120.5q-5 -43 15 -74t58.5 -48.5t90 -30.5t108 -24.5t112.5 -25t105.5 -38t85 -58t51.5 -89.5t5 -129q-17 -139 -146 -224t-329 -85z" />
    <glyph glyph-name="t" unicode="t" horiz-adv-x="899" 
d="M680 158l-12 -156q-106 -14 -187.5 -9.5t-135 30.5t-73.5 92t-2 176l88 620h-227l21 154h227l41 287h176l-41 -287h315l-20 -154h-315l-82 -577q-8 -55 -10.5 -77.5t2.5 -50.5t16.5 -35t42 -14.5t69 -5.5t107.5 7z" />
    <glyph glyph-name="u" unicode="u" horiz-adv-x="1243" 
d="M983 1065h176l-149 -1065h-176l30 188q-74 -105 -176.5 -163t-226.5 -58q-196 0 -282 117t-54 340l90 641h176l-90 -647q-20 -141 32 -220t169 -79q154 0 268 122.5t141 309.5z" />
    <glyph glyph-name="v" unicode="v" horiz-adv-x="1185" 
d="M616 0h-198l-281 1065h187l221 -875l469 875h186z" />
    <glyph glyph-name="w" unicode="w" horiz-adv-x="1869" 
d="M563 0h-182l-215 1065h188l148 -842l418 842h172l182 -842l387 842h192l-514 -1065h-180l-180 829z" />
    <glyph glyph-name="x" unicode="x" horiz-adv-x="1261" 
d="M215 0h-215l508 537l-348 528h211l262 -395l375 395h213l-500 -528l356 -537h-215l-266 403z" />
    <glyph glyph-name="y" unicode="y" horiz-adv-x="1210" 
d="M53 -410h-96l23 152h137q113 0 185 48.5t157 174.5l-312 1100h193l238 -883l446 883h190l-598 -1147q-97 -181 -228.5 -254.5t-334.5 -73.5z" />
    <glyph glyph-name="z" unicode="z" horiz-adv-x="1214" 
d="M1001 0h-974l10 88l856 821h-700l22 156h971l-12 -102l-838 -807h686z" />
    <glyph glyph-name="braceleft" unicode="{" horiz-adv-x="1198" 
d="M885 -252h-39q-68 0 -121 3.5t-100 13t-80.5 24.5t-60.5 38t-42.5 54t-24 73t-7.5 93.5t10 116.5l39 278q22 150 -40 220.5t-190 70.5l21 146q128 0 209 69.5t102 218.5l37 265q12 88 32.5 152t53 111t73 77t99.5 47.5t126 24.5t159 7h39l-23 -155h-110
q-122 0 -187.5 -67.5t-85.5 -209.5l-43 -309q-19 -135 -102.5 -206t-229.5 -99q138 -26 202 -97.5t46 -205.5l-47 -326q-20 -139 26.5 -205.5t168.5 -66.5h112z" />
    <glyph glyph-name="bar" unicode="|" horiz-adv-x="587" 
d="M250 -410h-178l284 2028h179z" />
    <glyph glyph-name="braceright" unicode="}" horiz-adv-x="1198" 
d="M131 -252h-39l23 156h110q123 0 187.5 66t85.5 206l45 326q19 134 103 205.5t228 97.5q-138 28 -201 99t-44 206l43 309q20 142 -26.5 209.5t-168.5 67.5h-110l22 155h39q68 0 120.5 -3.5t100 -13t80.5 -24.5t60 -38t42.5 -54.5t24 -73.5t7 -94t-10.5 -118l-37 -265
q-40 -288 229 -288l-20 -146q-271 0 -309 -291l-41 -278q-18 -129 -55 -210t-105 -127t-156 -62.5t-227 -16.5z" />
    <glyph glyph-name="asciitilde" unicode="~" horiz-adv-x="1382" 
d="M887 594q-59 0 -111 22t-84 48.5t-73.5 48.5t-81.5 22q-64 0 -109.5 -38t-56.5 -99h-156q17 128 112.5 207.5t231.5 79.5q55 0 105.5 -22t82.5 -48t75 -48t85 -22q61 0 105 39t53 101h164q-17 -130 -112 -210.5t-230 -80.5z" />
    <glyph glyph-name="exclamdown" unicode="&#xa1;" horiz-adv-x="509" 
d="M416 1640q52 0 84.5 -38t25.5 -93q-9 -56 -53.5 -94.5t-99.5 -38.5q-56 0 -89 36.5t-26 90.5q9 57 55 97t103 40zM94 0l152 1071h170l-152 -1071h-170z" />
    <glyph glyph-name="cent" unicode="&#xa2;" horiz-adv-x="1206" 
d="M559 119q118 0 209 63t121 158h176q-43 -149 -160 -249t-274 -120l-25 -176h-178l27 182q-187 35 -277.5 189t-58.5 379q29 221 161.5 368.5t329.5 178.5l25 178h178l-25 -178q147 -26 236 -128.5t92 -242.5h-172q-5 101 -73 163t-179 62q-162 0 -267.5 -115t-133.5 -307
q-27 -185 43 -295t225 -110z" />
    <glyph glyph-name="sterling" unicode="&#xa3;" horiz-adv-x="1529" 
d="M1372 1130h-170q20 159 -55 256t-215 97q-146 0 -239 -86.5t-115 -241.5q-5 -31 -6 -60t-1 -50t4.5 -47t7 -39.5t11.5 -38t12 -32t14 -33.5t13 -30l700 2l-22 -159l-637 -2q0 -43 -4 -68q-21 -142 -97.5 -252t-193.5 -182l895 2l-25 -168h-1118l21 180q131 52 221 156.5
t108 243.5q7 56 2 88h-237l22 159h174q-13 36 -21 59.5t-17.5 62.5t-13 74t-3 82.5t7.5 98.5q28 198 168 323.5t348 125.5q95 0 171.5 -19.5t128 -54.5t88.5 -83t53.5 -106t23 -123.5t-3.5 -134.5z" />
    <glyph glyph-name="currency" unicode="&#xa4;" horiz-adv-x="1570" 
d="M444 301l-159 -139l-109 125l154 139q-82 146 -56 332q24 175 136 309l-113 123l143 127l109 -125q156 94 330 94q189 0 315 -102l147 133l113 -127l-149 -133q74 -141 51 -320q-28 -182 -144 -317l119 -131l-143 -127l-117 135q-150 -92 -323 -92q-180 0 -304 96z
M752 371q167 0 290 109t148 278q23 159 -65.5 260.5t-250.5 101.5q-166 0 -288.5 -108t-145.5 -275q-23 -161 64.5 -263.5t247.5 -102.5z" />
    <glyph glyph-name="yen" unicode="&#xa5;" horiz-adv-x="1492" 
d="M1397 1597h207l-394 -505h246l-24 -162h-349l-204 -262h512l-25 -162h-535l-71 -506h-178l71 504h-487l24 162h459l-129 262h-289l25 162h184l-252 507h207l246 -507l367 2zM719 928l63 -129l101 131z" />
    <glyph glyph-name="brokenbar" unicode="&#xa6;" horiz-adv-x="589" 
d="M414 752h-178l122 866h179zM252 -410h-178l121 867h178z" />
    <glyph glyph-name="section" unicode="&#xa7;" horiz-adv-x="1224" 
d="M545 -80q-222 0 -341.5 104t-99.5 275h164q-9 -113 66.5 -172t220.5 -59q130 0 213.5 55t97.5 143q7 48 -14 80.5t-60.5 50.5t-93 29.5t-113 21t-118.5 21t-111 33t-90 54t-55.5 88t-7.5 130.5q12 87 67 158.5t148 116.5q-166 76 -137 268q19 148 155 241t344 93
q197 0 307 -106.5t99 -280.5h-166q10 114 -60 176.5t-202 62.5q-123 0 -204 -58t-93 -145q-7 -46 14 -78t60.5 -49t93 -28.5t113 -20.5t118.5 -21t111 -34.5t89.5 -56t55 -90.5t6.5 -134q-25 -177 -211 -268q162 -74 136 -274q-22 -148 -157.5 -237t-344.5 -89zM625 610
q127 0 214.5 52.5t98.5 134.5q12 71 -58.5 117.5t-187.5 46.5q-122 0 -208 -52.5t-97 -132.5q-11 -74 55 -120t183 -46z" />
    <glyph glyph-name="dieresis" unicode="&#xa8;" horiz-adv-x="1228" 
d="M438 1262q-56 0 -89 38.5t-27 94.5q7 55 51.5 93t101.5 38q54 0 87 -38t26 -93t-52 -94t-98 -39zM799 1262q-56 0 -89.5 38.5t-27.5 94.5q7 55 52 93t102 38q55 0 87.5 -37.5t24.5 -93.5q-6 -55 -51 -94t-98 -39z" />
    <glyph glyph-name="copyright" unicode="&#xa9;" horiz-adv-x="2086" 
d="M975 -33q-177 0 -325.5 66.5t-245.5 180.5t-141 272t-19 335q33 230 169 420.5t342.5 300t438.5 109.5q175 0 323 -66t245.5 -179.5t141.5 -271t19 -333.5q-32 -230 -170 -422t-344.5 -302t-433.5 -110zM975 113q199 0 370.5 90.5t283.5 252.5t140 365q28 197 -36 353.5
t-205.5 243.5t-335.5 87q-200 0 -372 -90t-283.5 -251t-139.5 -363q-27 -198 37 -355t205.5 -245t335.5 -88zM1040 344q-199 0 -307.5 130.5t-77.5 336.5q28 203 171.5 331t342.5 128q155 0 251.5 -85.5t101.5 -226.5h-105q-6 97 -80.5 157.5t-183.5 62.5
q-153 0 -261.5 -99.5t-131.5 -261.5q-23 -170 55.5 -274.5t228.5 -104.5q118 0 212.5 64.5t129.5 169.5h105q-45 -148 -171 -238t-280 -90z" />
    <glyph glyph-name="guillemotleft" unicode="&#xab;" horiz-adv-x="1576" 
d="M778 0h-198l-379 512l522 512h199l-516 -512zM1300 0h-198l-379 512l522 512h199l-516 -512z" />
    <glyph glyph-name="logicalnot" unicode="&#xac;" horiz-adv-x="1562" 
d="M1313 199l-160 -2l66 460l-1000 -2l25 168l1153 2z" />
    <glyph glyph-name="registered" unicode="&#xae;" horiz-adv-x="2086" 
d="M975 -33q-177 0 -325.5 66.5t-245.5 180.5t-141 272t-19 335q33 230 169 420.5t342.5 300t438.5 109.5q175 0 323.5 -66t246 -179t141.5 -271t18 -334q-24 -172 -111.5 -327t-214 -266t-289.5 -176t-333 -65zM975 113q304 0 527.5 199.5t266.5 508.5q28 197 -36 353.5
t-205.5 243.5t-335.5 87q-200 0 -372 -90t-283.5 -251t-139.5 -363q-27 -198 37 -355t205.5 -245t335.5 -88zM817 393h-100l125 891h389q147 0 212 -67t50 -191q-10 -75 -57.5 -133.5t-116.5 -81.5q53 -14 76.5 -49t23.5 -105q0 -48 -5 -108t-5.5 -80t8.5 -68l-2 -8h-102
q-7 42 -6.5 63t5 77t5.5 88q1 96 -29 122.5t-137 26.5h-283zM928 1190l-45 -330h274q207 0 229 166q11 79 -35 121.5t-153 42.5h-270z" />
    <glyph glyph-name="macron" unicode="&#xaf;" horiz-adv-x="1228" 
d="M1190 1401l-862 -2l16 123l862 2z" />
    <glyph glyph-name="degree" unicode="&#xb0;" horiz-adv-x="1155" 
d="M639 893q-160 0 -256 111.5t-74 271.5q22 151 143 256.5t273 105.5q159 0 255 -112t73 -271q-22 -150 -143 -256t-271 -106zM645 1053q94 0 166 63.5t84 155.5q12 89 -38 148t-138 59q-93 0 -165.5 -63t-86.5 -156q-13 -89 38.5 -148t139.5 -59z" />
    <glyph glyph-name="plusminus" unicode="&#xb1;" horiz-adv-x="1523" 
d="M807 199h-162l62 426h-455l22 159h453l61 439h160l-61 -437h452l-22 -159h-451zM1223 -162l-1119 -2l23 162l1118 2z" />
    <glyph glyph-name="acute" unicode="&#xb4;" horiz-adv-x="1228" 
d="M446 1331h-100l162 307h205z" />
    <glyph glyph-name="paragraph" unicode="&#xb6;" horiz-adv-x="1619" 
d="M780 -410h-178l143 1024h-73q-261 0 -389.5 141.5t-94.5 391.5q32 223 194 347t423 124h260zM1286 -410h-180l285 2028h180z" />
    <glyph glyph-name="periodcentered" unicode="&#xb7;" horiz-adv-x="503" 
d="M285 739q-57 0 -91 40.5t-28 97.5q7 54 50 90.5t99 36.5q57 0 91 -39t26 -95q-7 -55 -51 -93t-96 -38z" />
    <glyph glyph-name="cedilla" unicode="&#xb8;" horiz-adv-x="1228" 
d="M377 -612q-118 0 -175 66t-40 184h108q-11 -75 20.5 -117.5t98.5 -42.5t110 38.5t52 106.5q9 62 -23.5 101.5t-87.5 39.5q-58 0 -104 -26l-45 59l151 203h107l-133 -168q51 19 98 8.5t82.5 -37t53 -75t9.5 -105.5q-15 -112 -89.5 -173.5t-192.5 -61.5z" />
    <glyph glyph-name="guillemotright" unicode="&#xbb;" horiz-adv-x="1574" 
d="M848 512l-522 -512h-199l516 512l-373 512h199zM1370 512l-522 -512h-199l516 512l-372 512h198z" />
    <glyph glyph-name="questiondown" unicode="&#xbf;" horiz-adv-x="1320" 
d="M848 1640q58 0 92.5 -40t26.5 -97q-7 -54 -50.5 -90.5t-99.5 -36.5q-55 0 -89 38.5t-26 94.5q6 54 50 92.5t96 38.5zM705 1124h172q-12 -87 -47.5 -157t-84 -116t-104.5 -85t-112 -73.5t-103 -70t-80.5 -85.5t-42.5 -111q-19 -137 63 -214t246 -77q192 0 299.5 115.5
t106.5 320.5h188q-15 -284 -180 -444t-442 -160q-249 0 -370.5 117.5t-90.5 333.5q11 78 46.5 143t85 110.5t107 85.5t114.5 77.5t105 77.5t82 94t42 118z" />
    <glyph glyph-name="Agrave" unicode="&#xc0;" horiz-adv-x="1740" 
d="M965 2089l116 -307h-100l-223 307h207zM164 0h-201l942 1597h230l491 -1597h-199l-131 432h-878zM995 1417l-479 -817h731z" />
    <glyph glyph-name="Aacute" unicode="&#xc1;" horiz-adv-x="1740" 
d="M1112 1782h-100l162 307h204zM164 0h-201l942 1597h230l491 -1597h-199l-131 432h-878zM995 1417l-479 -817h731z" />
    <glyph glyph-name="Acircumflex" unicode="&#xc2;" horiz-adv-x="1740" 
d="M885 1782h-129l252 307h159l162 -307h-129l-127 221zM164 0h-201l942 1597h230l491 -1597h-199l-131 432h-878zM995 1417l-479 -817h731z" />
    <glyph glyph-name="Atilde" unicode="&#xc3;" horiz-adv-x="1740" 
d="M1196 1845q-43 0 -82 18t-62.5 39.5t-54.5 39.5t-61 18q-49 0 -82 -31.5t-41 -81.5h-117q12 104 83.5 170t172.5 66q41 0 79 -18t62 -39.5t56 -39.5t63 -18q46 0 78.5 32t40.5 83h121q-12 -106 -83.5 -172t-172.5 -66zM164 0h-201l942 1597h230l491 -1597h-199l-131 432
h-878zM995 1417l-479 -817h731z" />
    <glyph glyph-name="Adieresis" unicode="&#xc4;" horiz-adv-x="1740" 
d="M872 1796q-56 0 -89 38.5t-27 94.5q7 55 51.5 93t101.5 38q54 0 87 -38t26 -93t-52 -94t-98 -39zM1233 1796q-56 0 -89.5 38.5t-27.5 94.5q7 55 52 93t102 38q55 0 87.5 -37.5t24.5 -93.5q-6 -55 -51 -94t-98 -39zM164 0h-201l942 1597h230l491 -1597h-199l-131 432h-878
zM995 1417l-479 -817h731z" />
    <glyph glyph-name="Aring" unicode="&#xc5;" horiz-adv-x="1740" 
d="M1047 1769q-100 0 -159 69t-44 169q14 100 92.5 169t179.5 69q100 0 159 -69t44 -169q-14 -100 -92.5 -169t-179.5 -69zM1065 1890q47 0 87 35t46 82q8 48 -21.5 82.5t-78.5 34.5q-47 0 -87 -35t-46 -82q-8 -48 21.5 -82.5t78.5 -34.5zM164 0h-201l942 1597h230
l491 -1597h-199l-131 432h-878zM995 1417l-479 -817h731z" />
    <glyph glyph-name="AE" unicode="&#xc6;" horiz-adv-x="2598" 
d="M166 0h-207l1305 1597h1316l-24 -167h-983l-74 -521h911l-22 -164h-911l-82 -577h993l-23 -168h-1173l63 444h-723zM1337 1430l-667 -816h610l115 816h-58z" />
    <glyph glyph-name="Ccedilla" unicode="&#xc7;" horiz-adv-x="1771" 
d="M856 135q137 0 261.5 51.5t217 147.5t133.5 221h189q-77 -244 -277.5 -402t-451.5 -182l-111 -139q51 19 98.5 8.5t83 -37t53 -75t9.5 -105.5q-15 -112 -90 -173.5t-193 -61.5t-175 66t-40 184h109q-11 -75 20.5 -117.5t98.5 -42.5t109.5 38.5t51.5 106.5q9 62 -23 101.5
t-87 39.5q-59 0 -105 -26l-45 59l127 170q-345 11 -530 243.5t-133 596.5q34 240 162.5 428t326.5 291.5t432 103.5q280 0 454 -153t183 -406h-190q-12 173 -146 281t-327 110q-274 2 -470 -176t-237 -469q-28 -201 27 -356.5t181.5 -240.5t303.5 -85z" />
    <glyph glyph-name="Egrave" unicode="&#xc8;" horiz-adv-x="1497" 
d="M856 2089l117 -307h-101l-223 307h207zM1264 0h-1153l225 1597h1143l-23 -167h-964l-74 -521h893l-23 -166h-893l-82 -575h973z" />
    <glyph glyph-name="Eacute" unicode="&#xc9;" horiz-adv-x="1497" 
d="M1004 1782h-101l162 307h205zM1264 0h-1153l225 1597h1143l-23 -167h-964l-74 -521h893l-23 -166h-893l-82 -575h973z" />
    <glyph glyph-name="Ecircumflex" unicode="&#xca;" horiz-adv-x="1497" 
d="M776 1782h-129l252 307h160l162 -307h-129l-127 221zM1264 0h-1153l225 1597h1143l-23 -167h-964l-74 -521h893l-23 -166h-893l-82 -575h973z" />
    <glyph glyph-name="Edieresis" unicode="&#xcb;" horiz-adv-x="1497" 
d="M766 1796q-56 0 -89.5 38.5t-27.5 94.5q7 55 52 93t102 38q54 0 86.5 -38t25.5 -93t-51.5 -94t-97.5 -39zM1126 1796q-56 0 -89 38.5t-27 94.5q7 55 51.5 93t101.5 38q55 0 88 -37.5t25 -93.5q-6 -55 -51.5 -94t-98.5 -39zM1264 0h-1153l225 1597h1143l-23 -167h-964
l-74 -521h893l-23 -166h-893l-82 -575h973z" />
    <glyph glyph-name="Igrave" unicode="&#xcc;" horiz-adv-x="552" 
d="M369 2089l116 -307h-100l-223 307h207zM291 0h-180l225 1597h180z" />
    <glyph glyph-name="Iacute" unicode="&#xcd;" horiz-adv-x="552" 
d="M516 1782h-100l162 307h204zM291 0h-180l225 1597h180z" />
    <glyph glyph-name="Icircumflex" unicode="&#xce;" horiz-adv-x="552" 
d="M289 1782h-129l252 307h159l162 -307h-129l-127 221zM291 0h-180l225 1597h180z" />
    <glyph glyph-name="Idieresis" unicode="&#xcf;" horiz-adv-x="552" 
d="M279 1796q-56 0 -89.5 38.5t-27.5 94.5q7 55 51.5 93t101.5 38q54 0 87 -38t26 -93t-51.5 -94t-97.5 -39zM639 1796q-56 0 -89.5 38.5t-27.5 94.5q7 55 52 93t102 38q55 0 87.5 -37.5t24.5 -93.5q-6 -55 -51 -94t-98 -39zM291 0h-180l225 1597h180z" />
    <glyph glyph-name="Eth" unicode="&#xd0;" horiz-adv-x="1724" 
d="M336 1597h594q384 0 576 -209t139 -587q-34 -248 -163 -430t-328.5 -276.5t-448.5 -94.5h-594l106 750h-186l20 153h187zM1456 803q41 301 -103 466t-446 165h-415l-74 -531l741 2l-20 -153l-744 -2l-82 -586h414q303 0 494.5 166.5t234.5 472.5z" />
    <glyph glyph-name="Ntilde" unicode="&#xd1;" horiz-adv-x="1753" 
d="M1239 1845q-43 0 -82 18t-62.5 39.5t-54.5 39.5t-61 18q-49 0 -82 -31.5t-41 -81.5h-117q12 104 83.5 170t172.5 66q41 0 79 -18t62 -39.5t56 -39.5t63 -18q46 0 78.5 32t40.5 83h121q-12 -106 -83.5 -172t-172.5 -66zM291 0h-180l225 1597h239l768 -1366l193 1366h178
l-225 -1597h-232l-774 1378z" />
    <glyph glyph-name="Ograve" unicode="&#xd2;" horiz-adv-x="1845" 
d="M1053 2089l116 -307h-100l-223 307h207zM850 -33q-179 0 -322 61.5t-233.5 171.5t-128 266.5t-10.5 340.5q25 181 106 334t201.5 260.5t280.5 168t339 60.5q176 0 316.5 -60.5t229.5 -168t126 -261t12 -333.5q-27 -185 -107.5 -341t-199.5 -266t-276.5 -171.5
t-333.5 -61.5zM872 135q275 0 469.5 188t237.5 494q41 289 -102 467t-418 178q-280 0 -477 -178t-238 -467q-28 -202 28 -357t185.5 -240t314.5 -85z" />
    <glyph glyph-name="Oacute" unicode="&#xd3;" horiz-adv-x="1845" 
d="M1200 1782h-100l162 307h204zM850 -33q-179 0 -322 61.5t-233.5 171.5t-128 266.5t-10.5 340.5q25 181 106 334t201.5 260.5t280.5 168t339 60.5q176 0 316.5 -60.5t229.5 -168t126 -261t12 -333.5q-27 -185 -107.5 -341t-199.5 -266t-276.5 -171.5t-333.5 -61.5z
M872 135q275 0 469.5 188t237.5 494q41 289 -102 467t-418 178q-280 0 -477 -178t-238 -467q-28 -202 28 -357t185.5 -240t314.5 -85z" />
    <glyph glyph-name="Ocircumflex" unicode="&#xd4;" horiz-adv-x="1845" 
d="M973 1782h-129l252 307h159l162 -307h-129l-127 221zM850 -33q-179 0 -322 61.5t-233.5 171.5t-128 266.5t-10.5 340.5q25 181 106 334t201.5 260.5t280.5 168t339 60.5q176 0 316.5 -60.5t229.5 -168t126 -261t12 -333.5q-27 -185 -107.5 -341t-199.5 -266
t-276.5 -171.5t-333.5 -61.5zM872 135q275 0 469.5 188t237.5 494q41 289 -102 467t-418 178q-280 0 -477 -178t-238 -467q-28 -202 28 -357t185.5 -240t314.5 -85z" />
    <glyph glyph-name="Otilde" unicode="&#xd5;" horiz-adv-x="1845" 
d="M1284 1845q-43 0 -82 18t-62.5 39.5t-54.5 39.5t-61 18q-49 0 -82 -31.5t-41 -81.5h-117q12 104 83.5 170t172.5 66q41 0 79 -18t62 -39.5t56 -39.5t63 -18q46 0 78.5 32t40.5 83h121q-12 -106 -83.5 -172t-172.5 -66zM850 -33q-179 0 -322 61.5t-233.5 171.5t-128 266.5
t-10.5 340.5q25 181 106 334t201.5 260.5t280.5 168t339 60.5q176 0 316.5 -60.5t229.5 -168t126 -261t12 -333.5q-27 -185 -107.5 -341t-199.5 -266t-276.5 -171.5t-333.5 -61.5zM872 135q275 0 469.5 188t237.5 494q41 289 -102 467t-418 178q-280 0 -477 -178t-238 -467
q-28 -202 28 -357t185.5 -240t314.5 -85z" />
    <glyph glyph-name="Odieresis" unicode="&#xd6;" horiz-adv-x="1845" 
d="M961 1796q-56 0 -89.5 38.5t-27.5 94.5q7 55 51.5 93t101.5 38q54 0 87 -38t26 -93t-51.5 -94t-97.5 -39zM1321 1796q-56 0 -89.5 38.5t-27.5 94.5q7 55 52 93t102 38q55 0 87.5 -37.5t24.5 -93.5q-6 -55 -51 -94t-98 -39zM850 -33q-179 0 -322 61.5t-233.5 171.5
t-128 266.5t-10.5 340.5q25 181 106 334t201.5 260.5t280.5 168t339 60.5q176 0 316.5 -60.5t229.5 -168t126 -261t12 -333.5q-27 -185 -107.5 -341t-199.5 -266t-276.5 -171.5t-333.5 -61.5zM872 135q275 0 469.5 188t237.5 494q41 289 -102 467t-418 178q-280 0 -477 -178
t-238 -467q-28 -202 28 -357t185.5 -240t314.5 -85z" />
    <glyph glyph-name="multiply" unicode="&#xd7;" horiz-adv-x="1249" 
d="M639 590l-344 -303l-111 119l348 305l-262 303l131 116l263 -301l346 304l106 -119l-346 -305l258 -299l-129 -123z" />
    <glyph glyph-name="Oslash" unicode="&#xd8;" horiz-adv-x="1845" 
d="M1745 1618l96 -100l-176 -166q148 -220 102 -545q-27 -185 -107.5 -341t-199.5 -266t-276.5 -171.5t-333.5 -61.5q-296 0 -485 162l-179 -166l-98 98l182 170q-79 110 -108.5 257.5t-5.5 318.5q25 181 106 334t201.5 260.5t280.5 168t339 60.5q308 0 492 -172zM344 817
q-37 -265 72 -448l1020 960q-143 133 -377 133q-280 0 -477 -178t-238 -467zM1579 817q35 238 -57 400l-1018 -955q142 -127 368 -127q275 0 469.5 188t237.5 494z" />
    <glyph glyph-name="Ugrave" unicode="&#xd9;" horiz-adv-x="1710" 
d="M909 2109l117 -307h-100l-224 307h207zM776 -27q-319 3 -472 189.5t-107 515.5l129 919h178l-129 -917q-37 -254 75.5 -396.5t348.5 -142.5t389 142.5t188 396.5l129 917h178l-129 -919q-47 -335 -253 -521.5t-525 -183.5z" />
    <glyph glyph-name="Uacute" unicode="&#xda;" horiz-adv-x="1710" 
d="M1057 1802h-101l162 307h205zM776 -27q-319 3 -472 189.5t-107 515.5l129 919h178l-129 -917q-37 -254 75.5 -396.5t348.5 -142.5t389 142.5t188 396.5l129 917h178l-129 -919q-47 -335 -253 -521.5t-525 -183.5z" />
    <glyph glyph-name="Ucircumflex" unicode="&#xdb;" horiz-adv-x="1710" 
d="M829 1802h-129l252 307h160l162 -307h-129l-127 221zM776 -27q-319 3 -472 189.5t-107 515.5l129 919h178l-129 -917q-37 -254 75.5 -396.5t348.5 -142.5t389 142.5t188 396.5l129 917h178l-129 -919q-47 -335 -253 -521.5t-525 -183.5z" />
    <glyph glyph-name="Udieresis" unicode="&#xdc;" horiz-adv-x="1710" 
d="M817 1817q-56 0 -89.5 38.5t-27.5 94.5q7 55 52 93t102 38q54 0 87 -38t26 -93t-52 -94t-98 -39zM1178 1817q-56 0 -89.5 38.5t-27.5 94.5q7 55 51.5 93t101.5 38q55 0 88 -37.5t25 -93.5q-6 -55 -51 -94t-98 -39zM776 -27q-319 3 -472 189.5t-107 515.5l129 919h178
l-129 -917q-37 -254 75.5 -396.5t348.5 -142.5t389 142.5t188 396.5l129 917h178l-129 -919q-47 -335 -253 -521.5t-525 -183.5z" />
    <glyph glyph-name="Yacute" unicode="&#xdd;" horiz-adv-x="1492" 
d="M997 1802h-100l162 307h205zM760 0h-178l88 627l-482 970h207l387 -798l615 798h207l-756 -970z" />
    <glyph glyph-name="Thorn" unicode="&#xde;" horiz-adv-x="1497" 
d="M281 0h-179l226 1597h178l-39 -268h483q251 0 388.5 -133.5t105.5 -353.5q-31 -221 -206.5 -357.5t-426.5 -136.5h-481zM444 1161l-90 -645h447q188 0 310 85.5t144 236.5q22 152 -78.5 237.5t-293.5 85.5h-439z" />
    <glyph glyph-name="germandbls" unicode="&#xdf;" horiz-adv-x="1503" 
d="M713 -33l10 166q207 0 339 97.5t157 269.5q21 155 -64 250.5t-235 95.5q-80 0 -162 -29l-68 113l531 520h-727l-203 -1450h-180l227 1618h1173l-16 -125l-543 -510q92 -3 173.5 -36t144 -93t92 -156.5t12.5 -214.5q-32 -235 -210.5 -375.5t-450.5 -140.5z" />
    <glyph glyph-name="agrave" unicode="&#xe0;" horiz-adv-x="1257" 
d="M645 1536l117 -307h-100l-224 307h207zM422 -33q-166 0 -246.5 93.5t-62.5 224.5q20 145 145 224t358 103l285 29l10 76q36 229 -229 229q-133 0 -214.5 -63t-96.5 -174h-164q26 185 155.5 287t339.5 102q214 0 312 -100.5t73 -284.5l-67 -471q-9 -69 6.5 -92t77.5 -17
l-19 -125q-137 -40 -193.5 12t-45.5 189q-60 -117 -169.5 -179.5t-254.5 -62.5zM477 111q142 0 259 114t143 277l-224 -27q-176 -19 -266 -65t-102 -127q-4 -31 3 -59.5t26.5 -54.5t60.5 -42t100 -16z" />
    <glyph glyph-name="aacute" unicode="&#xe1;" horiz-adv-x="1257" 
d="M793 1229h-101l162 307h205zM422 -33q-166 0 -246.5 93.5t-62.5 224.5q20 145 145 224t358 103l285 29l10 76q36 229 -229 229q-133 0 -214.5 -63t-96.5 -174h-164q26 185 155.5 287t339.5 102q214 0 312 -100.5t73 -284.5l-67 -471q-9 -69 6.5 -92t77.5 -17l-19 -125
q-137 -40 -193.5 12t-45.5 189q-60 -117 -169.5 -179.5t-254.5 -62.5zM477 111q142 0 259 114t143 277l-224 -27q-176 -19 -266 -65t-102 -127q-4 -31 3 -59.5t26.5 -54.5t60.5 -42t100 -16z" />
    <glyph glyph-name="acircumflex" unicode="&#xe2;" horiz-adv-x="1257" 
d="M565 1229h-129l252 307h160l162 -307h-129l-127 221zM422 -33q-166 0 -246.5 93.5t-62.5 224.5q20 145 145 224t358 103l285 29l10 76q36 229 -229 229q-133 0 -214.5 -63t-96.5 -174h-164q26 185 155.5 287t339.5 102q214 0 312 -100.5t73 -284.5l-67 -471
q-9 -69 6.5 -92t77.5 -17l-19 -125q-137 -40 -193.5 12t-45.5 189q-60 -117 -169.5 -179.5t-254.5 -62.5zM477 111q142 0 259 114t143 277l-224 -27q-176 -19 -266 -65t-102 -127q-4 -31 3 -59.5t26.5 -54.5t60.5 -42t100 -16z" />
    <glyph glyph-name="atilde" unicode="&#xe3;" horiz-adv-x="1257" 
d="M879 1292q-43 0 -82 18t-63 39.5t-55 39.5t-61 18q-49 0 -81.5 -31.5t-40.5 -81.5h-117q12 104 83.5 170t172.5 66q41 0 79 -18t62 -39.5t56 -39.5t63 -18q46 0 78.5 32t40.5 83h121q-12 -106 -83.5 -172t-172.5 -66zM422 -33q-166 0 -246.5 93.5t-62.5 224.5
q20 145 145 224t358 103l285 29l10 76q36 229 -229 229q-133 0 -214.5 -63t-96.5 -174h-164q26 185 155.5 287t339.5 102q214 0 312 -100.5t73 -284.5l-67 -471q-9 -69 6.5 -92t77.5 -17l-19 -125q-137 -40 -193.5 12t-45.5 189q-60 -117 -169.5 -179.5t-254.5 -62.5z
M477 111q142 0 259 114t143 277l-224 -27q-176 -19 -266 -65t-102 -127q-4 -31 3 -59.5t26.5 -54.5t60.5 -42t100 -16z" />
    <glyph glyph-name="adieresis" unicode="&#xe4;" horiz-adv-x="1257" 
d="M555 1243q-56 0 -89.5 38.5t-27.5 94.5q7 55 52 93t102 38q54 0 87 -38t26 -93t-52 -94t-98 -39zM915 1243q-56 0 -89 38.5t-27 94.5q7 55 51.5 93t101.5 38q55 0 88 -37.5t25 -93.5q-6 -55 -51.5 -94t-98.5 -39zM422 -33q-166 0 -246.5 93.5t-62.5 224.5q20 145 145 224
t358 103l285 29l10 76q36 229 -229 229q-133 0 -214.5 -63t-96.5 -174h-164q26 185 155.5 287t339.5 102q214 0 312 -100.5t73 -284.5l-67 -471q-9 -69 6.5 -92t77.5 -17l-19 -125q-137 -40 -193.5 12t-45.5 189q-60 -117 -169.5 -179.5t-254.5 -62.5zM477 111
q142 0 259 114t143 277l-224 -27q-176 -19 -266 -65t-102 -127q-4 -31 3 -59.5t26.5 -54.5t60.5 -42t100 -16z" />
    <glyph glyph-name="aring" unicode="&#xe5;" horiz-adv-x="1257" 
d="M727 1217q-100 0 -159 68.5t-44 168.5q14 100 93 169t180 69q100 0 158.5 -69t43.5 -169q-14 -100 -92.5 -168.5t-179.5 -68.5zM745 1337q47 0 87.5 35t46.5 82q8 48 -22 82.5t-79 34.5q-47 0 -87 -35t-46 -82q-8 -48 21.5 -82.5t78.5 -34.5zM422 -33q-166 0 -246.5 93.5
t-62.5 224.5q20 145 145 224t358 103l285 29l10 76q36 229 -229 229q-133 0 -214.5 -63t-96.5 -174h-164q26 185 155.5 287t339.5 102q214 0 312 -100.5t73 -284.5l-67 -471q-9 -69 6.5 -92t77.5 -17l-19 -125q-137 -40 -193.5 12t-45.5 189q-60 -117 -169.5 -179.5
t-254.5 -62.5zM477 111q142 0 259 114t143 277l-224 -27q-176 -19 -266 -65t-102 -127q-4 -31 3 -59.5t26.5 -54.5t60.5 -42t100 -16z" />
    <glyph glyph-name="ae" unicode="&#xe6;" horiz-adv-x="2021" 
d="M430 -33q-115 0 -192 48t-106 121.5t-17 160.5q18 126 124.5 204t327.5 103l336 37l10 78q15 113 -38.5 170t-186.5 57q-132 0 -217 -64.5t-100 -172.5h-162q26 188 152 288.5t335 100.5q149 0 243 -52t124 -145q173 197 438 197q96 0 177.5 -36t139 -103.5t82 -174
t5.5 -237.5l-9 -62l-829 -4q-11 -170 65 -269t226 -99q115 0 203.5 57t117.5 129h176q-46 -141 -182.5 -236.5t-312.5 -95.5q-166 0 -281 80.5t-159 216.5q-68 -141 -198.5 -219t-291.5 -78zM1090 614l649 7q13 148 -54.5 237.5t-191.5 89.5q-148 0 -254.5 -91t-148.5 -243z
M469 111q146 0 266 117t146 282l-224 -27q-182 -22 -269 -64t-101 -134q-3 -31 3 -59t24.5 -55t58 -43.5t96.5 -16.5z" />
    <glyph glyph-name="ccedilla" unicode="&#xe7;" horiz-adv-x="1198" 
d="M559 119q118 0 209 63t121 158h176q-43 -150 -160.5 -250t-275.5 -119l-111 -139q51 19 98.5 8.5t83 -37t53 -75t9.5 -105.5q-15 -112 -90 -173.5t-193 -61.5t-175 66t-40 184h109q-11 -75 20.5 -117.5t98.5 -42.5t109.5 38.5t51.5 106.5q9 62 -23 101.5t-87 39.5
q-59 0 -105 -26l-45 59l129 172q-145 9 -245 84.5t-140.5 203t-17.5 288.5q33 247 191.5 400t389.5 153q184 0 298.5 -107.5t117.5 -269.5h-172q-5 101 -73 163t-179 62q-162 0 -267.5 -115t-133.5 -307q-27 -185 43 -295t225 -110z" />
    <glyph glyph-name="egrave" unicode="&#xe8;" horiz-adv-x="1222" 
d="M639 1536l117 -307h-101l-223 307h207zM561 -33q-237 0 -358 161t-84 417q33 247 191.5 400t389.5 153q96 0 177.5 -36t139 -103.5t82.5 -174t7 -237.5l-10 -62l-807 -4q-14 -172 54 -270t216 -98q114 0 203.5 57.5t118.5 128.5h176q-46 -141 -182 -236.5t-314 -95.5z
M307 614l631 7q15 148 -53.5 237.5t-192.5 89.5q-146 0 -244 -89.5t-141 -244.5z" />
    <glyph glyph-name="eacute" unicode="&#xe9;" horiz-adv-x="1222" 
d="M786 1229h-100l162 307h205zM561 -33q-237 0 -358 161t-84 417q33 247 191.5 400t389.5 153q96 0 177.5 -36t139 -103.5t82.5 -174t7 -237.5l-10 -62l-807 -4q-14 -172 54 -270t216 -98q114 0 203.5 57.5t118.5 128.5h176q-46 -141 -182 -236.5t-314 -95.5zM307 614
l631 7q15 148 -53.5 237.5t-192.5 89.5q-146 0 -244 -89.5t-141 -244.5z" />
    <glyph glyph-name="ecircumflex" unicode="&#xea;" horiz-adv-x="1222" 
d="M559 1229h-129l252 307h160l162 -307h-130l-126 221zM561 -33q-237 0 -358 161t-84 417q33 247 191.5 400t389.5 153q96 0 177.5 -36t139 -103.5t82.5 -174t7 -237.5l-10 -62l-807 -4q-14 -172 54 -270t216 -98q114 0 203.5 57.5t118.5 128.5h176q-46 -141 -182 -236.5
t-314 -95.5zM307 614l631 7q15 148 -53.5 237.5t-192.5 89.5q-146 0 -244 -89.5t-141 -244.5z" />
    <glyph glyph-name="edieresis" unicode="&#xeb;" horiz-adv-x="1222" 
d="M547 1243q-56 0 -89.5 38.5t-27.5 94.5q7 55 52 93t102 38q54 0 86.5 -38t25.5 -93t-51.5 -94t-97.5 -39zM907 1243q-56 0 -89 38.5t-27 94.5q7 55 51.5 93t101.5 38q55 0 88 -37.5t25 -93.5q-6 -55 -51.5 -94t-98.5 -39zM561 -33q-237 0 -358 161t-84 417
q33 247 191.5 400t389.5 153q96 0 177.5 -36t139 -103.5t82.5 -174t7 -237.5l-10 -62l-807 -4q-14 -172 54 -270t216 -98q114 0 203.5 57.5t118.5 128.5h176q-46 -141 -182 -236.5t-314 -95.5zM307 614l631 7q15 148 -53.5 237.5t-192.5 89.5q-146 0 -244 -89.5t-141 -244.5
z" />
    <glyph glyph-name="igrave" unicode="&#xec;" horiz-adv-x="489" 
d="M258 1536l117 -307h-101l-223 307h207zM258 0h-176l149 1065h177z" />
    <glyph glyph-name="iacute" unicode="&#xed;" horiz-adv-x="489" 
d="M406 1229h-101l162 307h205zM258 0h-176l149 1065h177z" />
    <glyph glyph-name="icircumflex" unicode="&#xee;" horiz-adv-x="489" 
d="M178 1229h-129l252 307h160l162 -307h-129l-127 221zM258 0h-176l149 1065h177z" />
    <glyph glyph-name="idieresis" unicode="&#xef;" horiz-adv-x="489" 
d="M168 1243q-56 0 -89.5 38.5t-27.5 94.5q7 55 52 93t102 38q54 0 86.5 -38t25.5 -93t-51.5 -94t-97.5 -39zM528 1243q-56 0 -89 38.5t-27 94.5q7 55 51.5 93t101.5 38q55 0 88 -37.5t25 -93.5q-6 -55 -51.5 -94t-98.5 -39zM258 0h-176l149 1065h177z" />
    <glyph glyph-name="eth" unicode="&#xf0;" horiz-adv-x="1335" 
d="M1198 1516l31 -119l-234 -58q101 -168 147 -366t19 -389q-19 -131 -68.5 -242.5t-126.5 -195.5t-187 -131.5t-240 -47.5q-162 0 -278.5 76.5t-167.5 214t-27 311.5q32 233 195 381t386 148q179 0 314 -115q-43 163 -138 313l-436 -106l-33 119l396 96q-92 121 -201 213
h209q90 -69 166 -170zM973 545q25 174 -61 287.5t-244 113.5q-163 0 -283.5 -117.5t-146.5 -302.5q-23 -178 60.5 -292.5t238.5 -114.5q165 0 287.5 121t148.5 305z" />
    <glyph glyph-name="ntilde" unicode="&#xf1;" horiz-adv-x="1243" 
d="M895 1292q-43 0 -82 18t-62.5 39.5t-54.5 39.5t-61 18q-49 0 -82 -31.5t-41 -81.5h-117q12 104 83.5 170t172.5 66q41 0 79 -18t62 -39.5t56 -39.5t63 -18q46 0 78.5 32t40.5 83h121q-12 -106 -83.5 -172t-172.5 -66zM260 0h-176l149 1065h177l-31 -188q157 221 405 221
q195 0 280.5 -117t53.5 -340l-90 -641h-176l90 647q20 141 -32 220t-169 79q-154 0 -268 -122.5t-141 -309.5z" />
    <glyph glyph-name="ograve" unicode="&#xf2;" horiz-adv-x="1290" 
d="M657 1536l117 -307h-100l-223 307h206zM575 -33q-157 0 -269.5 73.5t-161.5 205.5t-25 299q32 244 198 398.5t396 154.5q239 0 367.5 -161t93.5 -413q-34 -246 -200.5 -401.5t-398.5 -155.5zM578 119q163 0 278.5 116.5t144.5 305.5q25 183 -54 294t-238 111
q-162 0 -276 -115.5t-142 -302.5q-26 -184 52 -296.5t235 -112.5z" />
    <glyph glyph-name="oacute" unicode="&#xf3;" horiz-adv-x="1290" 
d="M805 1229h-100l161 307h205zM575 -33q-157 0 -269.5 73.5t-161.5 205.5t-25 299q32 244 198 398.5t396 154.5q239 0 367.5 -161t93.5 -413q-34 -246 -200.5 -401.5t-398.5 -155.5zM578 119q163 0 278.5 116.5t144.5 305.5q25 183 -54 294t-238 111q-162 0 -276 -115.5
t-142 -302.5q-26 -184 52 -296.5t235 -112.5z" />
    <glyph glyph-name="ocircumflex" unicode="&#xf4;" horiz-adv-x="1290" 
d="M578 1229h-129l251 307h160l162 -307h-129l-127 221zM575 -33q-157 0 -269.5 73.5t-161.5 205.5t-25 299q32 244 198 398.5t396 154.5q239 0 367.5 -161t93.5 -413q-34 -246 -200.5 -401.5t-398.5 -155.5zM578 119q163 0 278.5 116.5t144.5 305.5q25 183 -54 294
t-238 111q-162 0 -276 -115.5t-142 -302.5q-26 -184 52 -296.5t235 -112.5z" />
    <glyph glyph-name="otilde" unicode="&#xf5;" horiz-adv-x="1290" 
d="M889 1292q-43 0 -82 18t-62.5 39.5t-54.5 39.5t-61 18q-49 0 -82 -31.5t-41 -81.5h-117q12 104 83.5 170t172.5 66q41 0 79 -18t62 -39.5t56 -39.5t63 -18q46 0 78.5 32t40.5 83h121q-12 -106 -83.5 -172t-172.5 -66zM575 -33q-157 0 -269.5 73.5t-161.5 205.5t-25 299
q32 244 198 398.5t396 154.5q239 0 367.5 -161t93.5 -413q-34 -246 -200.5 -401.5t-398.5 -155.5zM578 119q163 0 278.5 116.5t144.5 305.5q25 183 -54 294t-238 111q-162 0 -276 -115.5t-142 -302.5q-26 -184 52 -296.5t235 -112.5z" />
    <glyph glyph-name="odieresis" unicode="&#xf6;" horiz-adv-x="1290" 
d="M565 1243q-56 0 -89 38.5t-27 94.5q7 55 51.5 93t101.5 38q54 0 87 -38t26 -93t-52 -94t-98 -39zM926 1243q-56 0 -89.5 38.5t-27.5 94.5q7 55 52 93t102 38q55 0 87.5 -37.5t24.5 -93.5q-6 -55 -51 -94t-98 -39zM575 -33q-157 0 -269.5 73.5t-161.5 205.5t-25 299
q32 244 198 398.5t396 154.5q239 0 367.5 -161t93.5 -413q-34 -246 -200.5 -401.5t-398.5 -155.5zM578 119q163 0 278.5 116.5t144.5 305.5q25 183 -54 294t-238 111q-162 0 -276 -115.5t-142 -302.5q-26 -184 52 -296.5t235 -112.5z" />
    <glyph glyph-name="divide" unicode="&#xf7;" horiz-adv-x="1468" 
d="M776 930q-55 0 -87.5 39.5t-26.5 97.5q7 54 48.5 90.5t94.5 36.5q54 0 86.5 -38.5t26.5 -94.5q-7 -55 -49.5 -93t-92.5 -38zM1278 608l-1065 -2l23 162l1064 2zM666 166q-58 0 -92.5 39t-26.5 96q6 54 49.5 91.5t99.5 37.5t89 -39t26 -96q-6 -53 -49.5 -91t-95.5 -38z
" />
    <glyph glyph-name="oslash" unicode="&#xf8;" horiz-adv-x="1292" 
d="M1147 989l-57 -63q119 -156 84 -402q-34 -246 -200.5 -401.5t-398.5 -155.5q-157 0 -272 76l-57 -66l-103 91l62 67q-123 161 -86 410q32 244 198 398.5t396 154.5q160 0 278 -78l56 61zM291 528q-22 -158 31 -260l561 629q-70 49 -174 49q-162 0 -276 -115.5
t-142 -302.5zM1001 541q21 147 -30 252l-559 -629q70 -45 166 -45q163 0 278.5 116.5t144.5 305.5z" />
    <glyph glyph-name="ugrave" unicode="&#xf9;" horiz-adv-x="1243" 
d="M627 1536l116 -307h-100l-223 307h207zM983 1065h176l-149 -1065h-176l30 188q-74 -105 -176.5 -163t-226.5 -58q-196 0 -282 117t-54 340l90 641h176l-90 -647q-20 -141 32 -220t169 -79q154 0 268 122.5t141 309.5z" />
    <glyph glyph-name="uacute" unicode="&#xfa;" horiz-adv-x="1243" 
d="M774 1229h-100l162 307h204zM983 1065h176l-149 -1065h-176l30 188q-74 -105 -176.5 -163t-226.5 -58q-196 0 -282 117t-54 340l90 641h176l-90 -647q-20 -141 32 -220t169 -79q154 0 268 122.5t141 309.5z" />
    <glyph glyph-name="ucircumflex" unicode="&#xfb;" horiz-adv-x="1243" 
d="M547 1229h-129l252 307h159l162 -307h-129l-127 221zM983 1065h176l-149 -1065h-176l30 188q-74 -105 -176.5 -163t-226.5 -58q-196 0 -282 117t-54 340l90 641h176l-90 -647q-20 -141 32 -220t169 -79q154 0 268 122.5t141 309.5z" />
    <glyph glyph-name="udieresis" unicode="&#xfc;" horiz-adv-x="1243" 
d="M535 1243q-56 0 -89.5 38.5t-27.5 94.5q7 55 51.5 93t101.5 38q54 0 87 -38t26 -93t-51.5 -94t-97.5 -39zM895 1243q-56 0 -89.5 38.5t-27.5 94.5q7 55 52 93t102 38q55 0 87.5 -37.5t24.5 -93.5q-6 -55 -51 -94t-98 -39zM983 1065h176l-149 -1065h-176l30 188
q-74 -105 -176.5 -163t-226.5 -58q-196 0 -282 117t-54 340l90 641h176l-90 -647q-20 -141 32 -220t169 -79q154 0 268 122.5t141 309.5z" />
    <glyph glyph-name="yacute" unicode="&#xfd;" horiz-adv-x="1210" 
d="M729 1229h-100l162 307h204zM53 -410h-96l23 152h137q113 0 185 48.5t157 174.5l-312 1100h193l238 -883l446 883h190l-598 -1147q-97 -181 -228.5 -254.5t-334.5 -73.5z" />
    <glyph glyph-name="thorn" unicode="&#xfe;" horiz-adv-x="1284" 
d="M201 -410h-176l284 2028h176l-104 -723q72 98 168 151t207 52q214 0 329 -162.5t80 -417.5q-35 -242 -189.5 -396.5t-361.5 -154.5q-117 0 -201 56.5t-126 156.5zM588 119q151 0 264 118t139 304q25 179 -49.5 292t-218.5 113q-149 0 -262 -119.5t-139 -306.5
q-26 -177 48.5 -289t217.5 -112z" />
    <glyph glyph-name="ydieresis" unicode="&#xff;" horiz-adv-x="1210" 
d="M489 1243q-56 0 -89 38.5t-27 94.5q7 55 51.5 93t101.5 38q54 0 87 -38t26 -93t-52 -94t-98 -39zM850 1243q-56 0 -89.5 38.5t-27.5 94.5q7 55 52 93t102 38q55 0 87.5 -37.5t24.5 -93.5q-6 -55 -51 -94t-98 -39zM53 -410h-96l23 152h137q113 0 185 48.5t157 174.5
l-312 1100h193l238 -883l446 883h190l-598 -1147q-97 -181 -228.5 -254.5t-334.5 -73.5z" />
    <glyph glyph-name="Amacron" unicode="&#x100;" horiz-adv-x="1740" 
d="M1491 1851l-862 -2l16 123l862 2zM164 0h-201l942 1597h230l491 -1597h-199l-131 432h-878zM995 1417l-479 -817h731z" />
    <glyph glyph-name="amacron" unicode="&#x101;" horiz-adv-x="1257" 
d="M1090 1298l-711 -2l14 123l711 2zM422 -33q-166 0 -246.5 93.5t-62.5 224.5q20 145 145 224t358 103l285 29l10 76q36 229 -229 229q-133 0 -214.5 -63t-96.5 -174h-164q26 185 155.5 287t339.5 102q214 0 312 -100.5t73 -284.5l-67 -471q-9 -69 6.5 -92t77.5 -17
l-19 -125q-137 -40 -193.5 12t-45.5 189q-60 -117 -169.5 -179.5t-254.5 -62.5zM477 111q142 0 259 114t143 277l-224 -27q-176 -19 -266 -65t-102 -127q-4 -31 3 -59.5t26.5 -54.5t60.5 -42t100 -16z" />
    <glyph glyph-name="Abreve" unicode="&#x102;" horiz-adv-x="1740" 
d="M1049 1790q-124 0 -183.5 73.5t-40.5 204.5h123q-12 -83 18.5 -129.5t96.5 -46.5t110 46.5t58 129.5h123q-19 -131 -100 -204.5t-205 -73.5zM164 0h-201l942 1597h230l491 -1597h-199l-131 432h-878zM995 1417l-479 -817h731z" />
    <glyph glyph-name="abreve" unicode="&#x103;" horiz-adv-x="1257" 
d="M729 1237q-124 0 -183 74t-40 205h123q-12 -83 18 -130t96 -47t110 47t58 130h123q-19 -131 -100 -205t-205 -74zM422 -33q-166 0 -246.5 93.5t-62.5 224.5q20 145 145 224t358 103l285 29l10 76q36 229 -229 229q-133 0 -214.5 -63t-96.5 -174h-164q26 185 155.5 287
t339.5 102q214 0 312 -100.5t73 -284.5l-67 -471q-9 -69 6.5 -92t77.5 -17l-19 -125q-137 -40 -193.5 12t-45.5 189q-60 -117 -169.5 -179.5t-254.5 -62.5zM477 111q142 0 259 114t143 277l-224 -27q-176 -19 -266 -65t-102 -127q-4 -31 3 -59.5t26.5 -54.5t60.5 -42
t100 -16z" />
    <glyph glyph-name="Aogonek" unicode="&#x104;" horiz-adv-x="1740" 
d="M1333 -178q-11 -76 43 -119t162 -43l-14 -104q-171 -15 -258.5 48t-71.5 171q12 94 69.5 165.5t149.5 110.5l-117 381h-878l-254 -432h-201l942 1597h230l491 -1597h-168q-114 -79 -125 -178zM995 1417l-479 -817h731z" />
    <glyph glyph-name="aogonek" unicode="&#x105;" horiz-adv-x="1257" 
d="M983 -8q-99 -79 -111 -170q-11 -76 43 -119t162 -43l-14 -104q-169 -15 -256.5 48t-73.5 171q21 154 160 243q-59 51 -47 191q-60 -117 -169.5 -179.5t-254.5 -62.5q-166 0 -246.5 93.5t-62.5 224.5q20 145 145 224t358 103l285 29l10 76q36 229 -229 229
q-133 0 -214.5 -63t-96.5 -174h-164q26 185 155.5 287t339.5 102q214 0 312 -100.5t73 -284.5l-67 -471q-9 -69 6.5 -92t77.5 -17l-19 -125q-52 -16 -102 -16zM477 111q142 0 259 114t143 277l-224 -27q-176 -19 -266 -65t-102 -127q-4 -31 3 -59.5t26.5 -54.5t60.5 -42
t100 -16z" />
    <glyph glyph-name="Cacute" unicode="&#x106;" horiz-adv-x="1771" 
d="M1210 1782h-100l162 307h205zM848 -33q-235 0 -405 105.5t-246.5 297t-40.5 437.5q34 240 162.5 428t326.5 291.5t432 103.5q280 0 454 -153t183 -406h-190q-12 173 -146 281t-327 110q-274 2 -470 -176t-237 -469q-28 -201 27 -356.5t181.5 -240.5t303.5 -85
q137 0 261.5 51.5t217 147.5t133.5 221h189q-56 -175 -178.5 -309.5t-286.5 -206.5t-344 -72z" />
    <glyph glyph-name="cacute" unicode="&#x107;" horiz-adv-x="1198" 
d="M791 1229h-101l162 307h205zM561 -33q-237 0 -358 161t-84 417q33 247 191.5 400t389.5 153q184 0 298.5 -107.5t117.5 -269.5h-172q-5 101 -73 163t-179 62q-162 0 -267.5 -115t-133.5 -307q-27 -185 43 -295t225 -110q118 0 209 63t121 158h176q-48 -166 -185.5 -269.5
t-318.5 -103.5z" />
    <glyph glyph-name="Cdotaccent" unicode="&#x10a;" horiz-adv-x="1771" 
d="M1149 1790q-55 0 -89 38.5t-26 94.5q6 55 51 93t101 38q55 0 87.5 -37.5t26.5 -93.5q-7 -55 -52.5 -94t-98.5 -39zM848 -33q-235 0 -405 105.5t-246.5 297t-40.5 437.5q34 240 162.5 428t326.5 291.5t432 103.5q280 0 454 -153t183 -406h-190q-12 173 -146 281t-327 110
q-274 2 -470 -176t-237 -469q-28 -201 27 -356.5t181.5 -240.5t303.5 -85q137 0 261.5 51.5t217 147.5t133.5 221h189q-56 -175 -178.5 -309.5t-286.5 -206.5t-344 -72z" />
    <glyph glyph-name="cdotaccent" unicode="&#x10b;" horiz-adv-x="1198" 
d="M729 1237q-55 0 -89 38.5t-26 94.5q6 55 51 93t101 38q55 0 88 -37.5t27 -93.5q-7 -55 -53 -94t-99 -39zM561 -33q-237 0 -358 161t-84 417q33 247 191.5 400t389.5 153q184 0 298.5 -107.5t117.5 -269.5h-172q-5 101 -73 163t-179 62q-162 0 -267.5 -115t-133.5 -307
q-27 -185 43 -295t225 -110q118 0 209 63t121 158h176q-48 -166 -185.5 -269.5t-318.5 -103.5z" />
    <glyph glyph-name="Ccaron" unicode="&#x10c;" horiz-adv-x="1771" 
d="M1221 1782h-160l-162 307h129l127 -221l188 221h130zM848 -33q-235 0 -405 105.5t-246.5 297t-40.5 437.5q34 240 162.5 428t326.5 291.5t432 103.5q280 0 454 -153t183 -406h-190q-12 173 -146 281t-327 110q-274 2 -470 -176t-237 -469q-28 -201 27 -356.5
t181.5 -240.5t303.5 -85q137 0 261.5 51.5t217 147.5t133.5 221h189q-56 -175 -178.5 -309.5t-286.5 -206.5t-344 -72z" />
    <glyph glyph-name="ccaron" unicode="&#x10d;" horiz-adv-x="1198" 
d="M801 1229h-160l-162 307h129l127 -221l189 221h129zM561 -33q-237 0 -358 161t-84 417q33 247 191.5 400t389.5 153q184 0 298.5 -107.5t117.5 -269.5h-172q-5 101 -73 163t-179 62q-162 0 -267.5 -115t-133.5 -307q-27 -185 43 -295t225 -110q118 0 209 63t121 158h176
q-48 -166 -185.5 -269.5t-318.5 -103.5z" />
    <glyph glyph-name="Dcaron" unicode="&#x10e;" horiz-adv-x="1724" 
d="M1020 1802h-160l-162 307h129l127 -221l189 221h129zM705 0h-594l225 1597h594q384 0 576 -209t139 -587q-34 -248 -163 -430t-328.5 -276.5t-448.5 -94.5zM492 1434l-179 -1270h414q303 0 494.5 166.5t234.5 472.5q41 301 -103 466t-446 165h-415z" />
    <glyph glyph-name="dcaron" unicode="&#x10f;" horiz-adv-x="1542" 
d="M508 -33q-207 0 -316.5 156.5t-74.5 402.5q34 250 194.5 411t376.5 161q110 0 191.5 -53t124.5 -150l98 723h176l-227 -1618h-177l23 180q-71 -101 -172 -157.5t-217 -55.5zM1405 1311h-100l161 307h205zM578 119q145 0 252 113.5t133 295.5q26 183 -54 300.5t-229 117.5
q-144 0 -250.5 -112.5t-134.5 -292.5q-25 -185 54.5 -303.5t228.5 -118.5z" />
    <glyph glyph-name="Dcroat" unicode="&#x110;" horiz-adv-x="1724" 
d="M336 1597h594q384 0 576 -209t139 -587q-34 -248 -163 -430t-328.5 -276.5t-448.5 -94.5h-594l106 750h-186l20 153h187zM1456 803q41 301 -103 466t-446 165h-415l-74 -531l741 2l-20 -153l-744 -2l-82 -586h414q303 0 494.5 166.5t234.5 472.5z" />
    <glyph glyph-name="dcroat" unicode="&#x111;" horiz-adv-x="1284" 
d="M1243 1372h96l-18 -151h-98l-172 -1221h-177l23 180q-71 -101 -172 -157.5t-217 -55.5q-207 0 -316.5 156.5t-74.5 402.5q34 250 194.5 411t376.5 161q110 0 191.5 -53t124.5 -150l45 326l-734 -2l21 151l733 2l33 246h176zM963 528q26 183 -54 300.5t-229 117.5
q-144 0 -250.5 -112.5t-134.5 -292.5q-25 -185 54.5 -303.5t228.5 -118.5q145 0 252 113.5t133 295.5z" />
    <glyph glyph-name="Emacron" unicode="&#x112;" horiz-adv-x="1497" 
d="M1382 1851l-862 -2l17 123l862 2zM1264 0h-1153l225 1597h1143l-23 -167h-964l-74 -521h893l-23 -166h-893l-82 -575h973z" />
    <glyph glyph-name="emacron" unicode="&#x113;" horiz-adv-x="1222" 
d="M1083 1298l-710 -2l14 123l711 2zM561 -33q-237 0 -358 161t-84 417q33 247 191.5 400t389.5 153q96 0 177.5 -36t139 -103.5t82.5 -174t7 -237.5l-10 -62l-807 -4q-14 -172 54 -270t216 -98q114 0 203.5 57.5t118.5 128.5h176q-46 -141 -182 -236.5t-314 -95.5zM307 614
l631 7q15 148 -53.5 237.5t-192.5 89.5q-146 0 -244 -89.5t-141 -244.5z" />
    <glyph glyph-name="Edotaccent" unicode="&#x116;" horiz-adv-x="1497" 
d="M942 1790q-55 0 -89 38.5t-26 94.5q6 55 51 93t101 38q55 0 88 -37.5t27 -93.5q-7 -55 -53 -94t-99 -39zM1264 0h-1153l225 1597h1143l-23 -167h-964l-74 -521h893l-23 -166h-893l-82 -575h973z" />
    <glyph glyph-name="edotaccent" unicode="&#x117;" horiz-adv-x="1222" 
d="M725 1237q-55 0 -89 38.5t-26 94.5q6 55 51 93t101 38q55 0 88 -37.5t27 -93.5q-7 -55 -53 -94t-99 -39zM561 -33q-237 0 -358 161t-84 417q33 247 191.5 400t389.5 153q96 0 177.5 -36t139 -103.5t82.5 -174t7 -237.5l-10 -62l-807 -4q-14 -172 54 -270t216 -98
q114 0 203.5 57.5t118.5 128.5h176q-46 -141 -182 -236.5t-314 -95.5zM307 614l631 7q15 148 -53.5 237.5t-192.5 89.5q-146 0 -244 -89.5t-141 -244.5z" />
    <glyph glyph-name="Eogonek" unicode="&#x118;" horiz-adv-x="1497" 
d="M1479 1597l-23 -167h-964l-74 -521h893l-23 -166h-893l-82 -575h973l-22 -168h-484q-114 -79 -125 -178q-11 -76 43 -119t162 -43l-14 -104q-171 -15 -258.5 48t-71.5 171q18 139 131 225h-536l225 1597h1143z" />
    <glyph glyph-name="eogonek" unicode="&#x119;" horiz-adv-x="1222" 
d="M700 1098q96 0 177.5 -36t139 -103.5t82.5 -174t7 -237.5l-10 -62l-807 -4q-14 -172 54 -270t216 -98q114 0 203.5 57.5t118.5 128.5h176q-44 -138 -174.5 -232t-302.5 -100q-72 -66 -84 -145q-9 -76 44.5 -119t159.5 -43l-14 -104q-169 -15 -256.5 48t-73.5 171
q14 116 105 200q-190 34 -282 188.5t-60 381.5q33 247 191.5 400t389.5 153zM307 614l631 7q15 148 -53.5 237.5t-192.5 89.5q-146 0 -244 -89.5t-141 -244.5z" />
    <glyph glyph-name="Ecaron" unicode="&#x11a;" horiz-adv-x="1497" 
d="M1014 1782h-160l-162 307h129l127 -221l189 221h129zM1264 0h-1153l225 1597h1143l-23 -167h-964l-74 -521h893l-23 -166h-893l-82 -575h973z" />
    <glyph glyph-name="ecaron" unicode="&#x11b;" horiz-adv-x="1222" 
d="M797 1229h-160l-162 307h129l127 -221l189 221h129zM561 -33q-237 0 -358 161t-84 417q33 247 191.5 400t389.5 153q96 0 177.5 -36t139 -103.5t82.5 -174t7 -237.5l-10 -62l-807 -4q-14 -172 54 -270t216 -98q114 0 203.5 57.5t118.5 128.5h176q-46 -141 -182 -236.5
t-314 -95.5zM307 614l631 7q15 148 -53.5 237.5t-192.5 89.5q-146 0 -244 -89.5t-141 -244.5z" />
    <glyph glyph-name="Gbreve" unicode="&#x11e;" horiz-adv-x="1808" 
d="M1135 1790q-124 0 -183.5 73.5t-40.5 204.5h123q-12 -83 18.5 -129.5t96.5 -46.5t110 46.5t58 129.5h123q-19 -131 -100 -204.5t-205 -73.5zM829 -33q-233 0 -398.5 105.5t-238 297t-36.5 437.5q34 241 161.5 428.5t325.5 291t434 103.5q184 0 327 -63.5t225 -181
t89 -273.5h-188q-13 154 -149 251t-330 99q-182 1 -333 -78.5t-249 -227t-125 -339.5q-28 -202 26 -357t180.5 -240t305.5 -85q242 0 419.5 151t213.5 373h-574l23 162h754l-117 -821h-164l37 276q-194 -309 -619 -309z" />
    <glyph glyph-name="gbreve" unicode="&#x11f;" horiz-adv-x="1286" 
d="M737 1196q-124 0 -183 74t-40 205h123q-12 -83 18.5 -130t96.5 -47t110 47t58 130h122q-19 -131 -100 -205t-205 -74zM510 -442q-220 0 -344.5 91.5t-118.5 256.5h178q-3 -102 74 -153.5t213 -51.5q152 0 250.5 92.5t124.5 272.5l16 96q-138 -183 -371 -180
q-226 0 -336 154t-73 409q34 249 182 401t365 152q122 0 205 -52.5t126 -146.5l27 166h174l-141 -1010q-35 -247 -179 -372t-372 -125zM563 129q153 0 264.5 114.5t137.5 299.5q23 182 -51 294.5t-220 112.5q-151 0 -263 -118t-138 -304q-25 -180 50.5 -289.5t219.5 -109.5z
" />
    <glyph glyph-name="Gdotaccent" unicode="&#x120;" horiz-adv-x="1808" 
d="M1137 1790q-55 0 -89 38.5t-26 94.5q6 55 51 93t101 38q55 0 87.5 -37.5t26.5 -93.5q-7 -55 -52.5 -94t-98.5 -39zM829 -33q-233 0 -398.5 105.5t-238 297t-36.5 437.5q34 241 161.5 428.5t325.5 291t434 103.5q184 0 327 -63.5t225 -181t89 -273.5h-188
q-13 154 -149 251t-330 99q-182 1 -333 -78.5t-249 -227t-125 -339.5q-28 -202 26 -357t180.5 -240t305.5 -85q242 0 419.5 151t213.5 373h-574l23 162h754l-117 -821h-164l37 276q-194 -309 -619 -309z" />
    <glyph glyph-name="gdotaccent" unicode="&#x121;" horiz-adv-x="1286" 
d="M739 1196q-55 0 -88.5 38.5t-25.5 94.5q6 55 50.5 93t100.5 38q55 0 88 -37.5t27 -93.5q-7 -55 -53 -94t-99 -39zM510 -442q-220 0 -344.5 91.5t-118.5 256.5h178q-3 -102 74 -153.5t213 -51.5q152 0 250.5 92.5t124.5 272.5l16 96q-138 -183 -371 -180q-226 0 -336 154
t-73 409q34 249 182 401t365 152q122 0 205 -52.5t126 -146.5l27 166h174l-141 -1010q-35 -247 -179 -372t-372 -125zM563 129q153 0 264.5 114.5t137.5 299.5q23 182 -51 294.5t-220 112.5q-151 0 -263 -118t-138 -304q-25 -180 50.5 -289.5t219.5 -109.5z" />
    <glyph glyph-name="uni0122" unicode="&#x122;" horiz-adv-x="1808" 
d="M829 -33q-233 0 -398.5 105.5t-238 297t-36.5 437.5q34 241 161.5 428.5t325.5 291t434 103.5q184 0 327 -63.5t225 -181t89 -273.5h-188q-13 154 -149 251t-330 99q-182 1 -333 -78.5t-249 -227t-125 -339.5q-28 -202 26 -357t180.5 -240t305.5 -85q242 0 419.5 151
t213.5 373h-574l23 162h754l-117 -821h-164l37 276q-194 -309 -619 -309zM764 -602h-115l156 426h196z" />
    <glyph glyph-name="uni0123" unicode="&#x123;" horiz-adv-x="1286" 
d="M864 1655h115l-156 -426h-196zM510 -442q-220 0 -344.5 91.5t-118.5 256.5h178q-3 -102 74 -153.5t213 -51.5q152 0 250.5 92.5t124.5 272.5l16 96q-138 -183 -371 -180q-226 0 -336 154t-73 409q34 249 182 401t365 152q122 0 205 -52.5t126 -146.5l27 166h174
l-141 -1010q-35 -247 -179 -372t-372 -125zM563 129q153 0 264.5 114.5t137.5 299.5q23 182 -51 294.5t-220 112.5q-151 0 -263 -118t-138 -304q-25 -180 50.5 -289.5t219.5 -109.5z" />
    <glyph glyph-name="Hbar" unicode="&#x126;" horiz-adv-x="1716" 
d="M1645 1350h198l-22 -160h-199l-168 -1190h-178l106 748h-987l-104 -748h-180l168 1188h-220l23 160h219l35 249h180l-35 -249l985 2l35 247h178zM420 915h985l39 275l-985 -2z" />
    <glyph glyph-name="hbar" unicode="&#x127;" horiz-adv-x="1241" 
d="M782 1098q196 0 282 -113.5t54 -335.5l-92 -649h-176l92 655q20 140 -32.5 215.5t-170.5 75.5q-154 0 -267.5 -119t-139.5 -305l-74 -522h-176l172 1219h-162l19 151h163l35 248h176l-36 -248l667 2l-20 -151l-668 -2l-49 -334q153 213 403 213z" />
    <glyph glyph-name="Imacron" unicode="&#x12a;" horiz-adv-x="552" 
d="M895 1851l-862 -2l16 123l862 2zM291 0h-180l225 1597h180z" />
    <glyph glyph-name="imacron" unicode="&#x12b;" horiz-adv-x="489" 
d="M635 1298l-584 -2l12 123l584 2zM258 0h-176l149 1065h177z" />
    <glyph glyph-name="Iogonek" unicode="&#x12e;" horiz-adv-x="552" 
d="M113 -178q-9 -76 44.5 -119t159.5 -43l-14 -104q-169 -15 -256.5 48t-73.5 171q18 140 138 229l225 1593h180l-225 -1597h-53q-110 -76 -125 -178z" />
    <glyph glyph-name="iogonek" unicode="&#x12f;" horiz-adv-x="485" 
d="M371 1501q59 0 94.5 -41.5t26.5 -99.5q-7 -52 -48.5 -87.5t-91.5 -35.5q-60 0 -96 41.5t-27 101.5q6 51 47.5 86t94.5 35zM256 0h-41q-110 -76 -125 -178q-11 -76 43 -119t162 -43l-14 -104q-169 -15 -256.5 48t-73.5 171q18 137 133 225h-4l149 1065h177z" />
    <glyph glyph-name="Idotaccent" unicode="&#x130;" horiz-adv-x="552" 
d="M455 1790q-55 0 -89 38.5t-26 94.5q6 55 51 93t101 38q55 0 87.5 -37.5t26.5 -93.5q-7 -55 -52.5 -94t-98.5 -39zM291 0h-180l225 1597h180z" />
    <glyph glyph-name="dotlessi" unicode="&#x131;" horiz-adv-x="489" 
d="M258 0h-176l149 1065h177z" />
    <glyph glyph-name="uni0136" unicode="&#x136;" horiz-adv-x="1640" 
d="M291 0h-180l225 1597h180l-127 -905l1081 905h254l-843 -706l630 -891h-243l-537 766l-377 -317zM672 -602h-115l156 426h196z" />
    <glyph glyph-name="uni0137" unicode="&#x137;" horiz-adv-x="1200" 
d="M258 0h-176l227 1618h176l-143 -1004l602 451h242l-563 -414l450 -651h-211l-375 549l-168 -123zM399 -602h-114l155 426h197z" />
    <glyph glyph-name="Lacute" unicode="&#x139;" horiz-adv-x="1368" 
d="M555 1802h-100l161 307h205zM1194 0h-1083l225 1597h180l-203 -1435h904z" />
    <glyph glyph-name="lacute" unicode="&#x13a;" horiz-adv-x="491" 
d="M483 1782h-100l162 307h205zM258 0h-176l227 1618h176z" />
    <glyph glyph-name="uni013B" unicode="&#x13b;" horiz-adv-x="1368" 
d="M1194 0h-1083l225 1597h180l-203 -1435h904zM631 -602h-115l156 426h196z" />
    <glyph glyph-name="uni013C" unicode="&#x13c;" horiz-adv-x="491" 
d="M258 0h-176l227 1618h176zM57 -602h-114l155 426h197z" />
    <glyph glyph-name="Lcaron" unicode="&#x13d;" horiz-adv-x="1368" 
d="M565 1802h-159l-162 307h129l127 -221l188 221h129zM1194 0h-1083l225 1597h180l-203 -1435h904z" />
    <glyph glyph-name="lcaron" unicode="&#x13e;" horiz-adv-x="491" 
d="M494 1782h-160l-162 307h129l127 -221l188 221h129zM258 0h-176l227 1618h176z" />
    <glyph glyph-name="Lslash" unicode="&#x141;" horiz-adv-x="1368" 
d="M410 846l-97 -684h904l-23 -162h-1083l100 719l-102 -68l-89 135l222 144l94 667h180l-76 -538l428 276l88 -135z" />
    <glyph glyph-name="lslash" unicode="&#x142;" horiz-adv-x="491" 
d="M580 1311l61 -94l-233 -150l-150 -1067h-176l133 942l-162 -104l-63 92l246 157l73 531h176l-57 -406z" />
    <glyph glyph-name="Nacute" unicode="&#x143;" horiz-adv-x="1753" 
d="M1155 1782h-100l162 307h204zM291 0h-180l225 1597h239l768 -1366l193 1366h178l-225 -1597h-232l-774 1378z" />
    <glyph glyph-name="nacute" unicode="&#x144;" horiz-adv-x="1243" 
d="M809 1229h-100l161 307h205zM260 0h-176l149 1065h177l-31 -188q157 221 405 221q195 0 280.5 -117t53.5 -340l-90 -641h-176l90 647q20 141 -32 220t-169 79q-154 0 -268 -122.5t-141 -309.5z" />
    <glyph glyph-name="uni0145" unicode="&#x145;" horiz-adv-x="1753" 
d="M291 0h-180l225 1597h239l768 -1366l193 1366h178l-225 -1597h-232l-774 1378zM717 -602h-115l156 426h196z" />
    <glyph glyph-name="uni0146" unicode="&#x146;" horiz-adv-x="1243" 
d="M260 0h-176l149 1065h177l-31 -188q157 221 405 221q195 0 280.5 -117t53.5 -340l-90 -641h-176l90 647q20 141 -32 220t-169 79q-154 0 -268 -122.5t-141 -309.5zM459 -602h-115l156 426h196z" />
    <glyph glyph-name="Ncaron" unicode="&#x147;" horiz-adv-x="1753" 
d="M1165 1782h-159l-162 307h129l127 -221l188 221h129zM291 0h-180l225 1597h239l768 -1366l193 1366h178l-225 -1597h-232l-774 1378z" />
    <glyph glyph-name="ncaron" unicode="&#x148;" horiz-adv-x="1243" 
d="M819 1229h-160l-161 307h129l127 -221l188 221h129zM260 0h-176l149 1065h177l-31 -188q157 221 405 221q195 0 280.5 -117t53.5 -340l-90 -641h-176l90 647q20 141 -32 220t-169 79q-154 0 -268 -122.5t-141 -309.5z" />
    <glyph glyph-name="Eng" unicode="&#x14a;" horiz-adv-x="1753" 
d="M1343 231l193 1366h178l-225 -1597q-28 -203 -154 -307t-336 -101h-61l20 142h39q277 -3 314 266h-54l-774 1378l-192 -1378h-180l225 1597h239z" />
    <glyph glyph-name="eng" unicode="&#x14b;" horiz-adv-x="1245" 
d="M784 1098q195 0 280.5 -117t53.5 -340l-90 -641q-29 -214 -153 -314.5t-353 -95.5h-35l21 158h65q115 -2 188.5 64t90.5 188l90 647q20 141 -32 220t-169 79q-154 0 -268 -122.5t-141 -309.5l-72 -514h-176l149 1065h177l-31 -188q157 221 405 221z" />
    <glyph glyph-name="Omacron" unicode="&#x14c;" horiz-adv-x="1845" 
d="M1579 1851l-862 -2l16 123l862 2zM850 -33q-179 0 -322 61.5t-233.5 171.5t-128 266.5t-10.5 340.5q25 181 106 334t201.5 260.5t280.5 168t339 60.5q176 0 316.5 -60.5t229.5 -168t126 -261t12 -333.5q-27 -185 -107.5 -341t-199.5 -266t-276.5 -171.5t-333.5 -61.5z
M872 135q275 0 469.5 188t237.5 494q41 289 -102 467t-418 178q-280 0 -477 -178t-238 -467q-28 -202 28 -357t185.5 -240t314.5 -85z" />
    <glyph glyph-name="omacron" unicode="&#x14d;" horiz-adv-x="1290" 
d="M1102 1298l-711 -2l15 123l710 2zM575 -33q-157 0 -269.5 73.5t-161.5 205.5t-25 299q32 244 198 398.5t396 154.5q239 0 367.5 -161t93.5 -413q-34 -246 -200.5 -401.5t-398.5 -155.5zM578 119q163 0 278.5 116.5t144.5 305.5q25 183 -54 294t-238 111
q-162 0 -276 -115.5t-142 -302.5q-26 -184 52 -296.5t235 -112.5z" />
    <glyph glyph-name="Ohungarumlaut" unicode="&#x150;" horiz-adv-x="1845" 
d="M1028 1782h-98l164 307h196zM1317 1782h-96l163 307h197zM850 -33q-179 0 -322 61.5t-233.5 171.5t-128 266.5t-10.5 340.5q25 181 106 334t201.5 260.5t280.5 168t339 60.5q176 0 316.5 -60.5t229.5 -168t126 -261t12 -333.5q-27 -185 -107.5 -341t-199.5 -266
t-276.5 -171.5t-333.5 -61.5zM872 135q275 0 469.5 188t237.5 494q41 289 -102 467t-418 178q-280 0 -477 -178t-238 -467q-28 -202 28 -357t185.5 -240t314.5 -85z" />
    <glyph glyph-name="ohungarumlaut" unicode="&#x151;" horiz-adv-x="1290" 
d="M635 1229h-98l163 307h197zM924 1229h-97l164 307h197zM575 -33q-157 0 -269.5 73.5t-161.5 205.5t-25 299q32 244 198 398.5t396 154.5q239 0 367.5 -161t93.5 -413q-34 -246 -200.5 -401.5t-398.5 -155.5zM578 119q163 0 278.5 116.5t144.5 305.5q25 183 -54 294
t-238 111q-162 0 -276 -115.5t-142 -302.5q-26 -184 52 -296.5t235 -112.5z" />
    <glyph glyph-name="OE" unicode="&#x152;" horiz-adv-x="2867" 
d="M2849 1597l-23 -167h-964l-74 -521h893l-23 -166h-893l-82 -575h975l-24 -168h-1151l37 260q-126 -140 -298.5 -216.5t-371.5 -76.5q-179 0 -322 61.5t-233.5 171.5t-128 266.5t-10.5 340.5q25 181 106 334t201.5 260.5t280.5 168t339 60.5q199 0 350 -75.5t238 -213.5
l37 256h1141zM872 135q275 0 469.5 188t237.5 494q41 289 -102 467t-418 178q-280 0 -477 -178t-238 -467q-28 -202 28 -357t185.5 -240t314.5 -85z" />
    <glyph glyph-name="oe" unicode="&#x153;" horiz-adv-x="2113" 
d="M1591 1098q97 0 178.5 -36t139.5 -103.5t82.5 -174t5.5 -237.5l-8 -62l-809 -4q-14 -172 54 -270t216 -98q115 0 204 57t118 129h176q-46 -141 -182 -236.5t-312 -95.5q-147 0 -250 62.5t-155 177.5q-84 -114 -207 -177t-267 -63q-157 0 -269.5 73.5t-161.5 205.5
t-25 299q32 244 198 398.5t396 154.5q145 0 252.5 -63t164.5 -175q78 112 197 175t264 63zM1200 614l629 7q15 148 -53.5 237.5t-192.5 89.5q-146 0 -244 -89.5t-139 -244.5zM578 119q163 0 278.5 116.5t144.5 305.5q25 183 -54 294t-238 111q-162 0 -276 -115.5
t-142 -302.5q-26 -184 52 -296.5t235 -112.5z" />
    <glyph glyph-name="Racute" unicode="&#x154;" horiz-adv-x="1560" 
d="M1053 1782h-101l162 307h205zM291 0h-180l225 1597h700q262 0 380 -120t87 -340q-19 -136 -102.5 -241t-206.5 -146q95 -25 137.5 -88.5t42.5 -186.5q0 -73 -5.5 -151t-10.5 -123t-3.5 -95.5t13.5 -91.5l-2 -14h-182q-11 34 -12.5 83t2.5 93t9.5 112t6.5 118
q1 61 -3.5 101t-17.5 72t-33 49.5t-56 29t-80 15t-111 3.5h-504zM492 1430l-84 -592h495q369 0 412 297q21 142 -62.5 218.5t-275.5 76.5h-485z" />
    <glyph glyph-name="racute" unicode="&#x155;" horiz-adv-x="794" 
d="M596 1229h-100l161 307h205zM248 0h-164l149 1065h164l-30 -199q131 211 464 211l-20 -162q-199 0 -329 -83.5t-150 -227.5z" />
    <glyph glyph-name="uni0156" unicode="&#x156;" horiz-adv-x="1560" 
d="M291 0h-180l225 1597h700q262 0 380 -120t87 -340q-19 -136 -102.5 -241t-206.5 -146q95 -25 137.5 -88.5t42.5 -186.5q0 -73 -5.5 -151t-10.5 -123t-3.5 -95.5t13.5 -91.5l-2 -14h-182q-11 34 -12.5 83t2.5 93t9.5 112t6.5 118q1 61 -3.5 101t-17.5 72t-33 49.5t-56 29
t-80 15t-111 3.5h-504zM492 1430l-84 -592h495q369 0 412 297q21 142 -62.5 218.5t-275.5 76.5h-485zM625 -602h-115l156 426h196z" />
    <glyph glyph-name="uni0157" unicode="&#x157;" horiz-adv-x="794" 
d="M248 0h-164l149 1065h164l-30 -199q131 211 464 211l-20 -162q-199 0 -329 -83.5t-150 -227.5zM74 -602h-115l156 426h196z" />
    <glyph glyph-name="Rcaron" unicode="&#x158;" horiz-adv-x="1560" 
d="M1063 1782h-160l-162 307h129l127 -221l189 221h129zM291 0h-180l225 1597h700q262 0 380 -120t87 -340q-19 -136 -102.5 -241t-206.5 -146q95 -25 137.5 -88.5t42.5 -186.5q0 -73 -5.5 -151t-10.5 -123t-3.5 -95.5t13.5 -91.5l-2 -14h-182q-11 34 -12.5 83t2.5 93
t9.5 112t6.5 118q1 61 -3.5 101t-17.5 72t-33 49.5t-56 29t-80 15t-111 3.5h-504zM492 1430l-84 -592h495q369 0 412 297q21 142 -62.5 218.5t-275.5 76.5h-485z" />
    <glyph glyph-name="rcaron" unicode="&#x159;" horiz-adv-x="794" 
d="M606 1229h-160l-161 307h129l127 -221l188 221h129zM248 0h-164l149 1065h164l-30 -199q131 211 464 211l-20 -162q-199 0 -329 -83.5t-150 -227.5z" />
    <glyph glyph-name="Sacute" unicode="&#x15a;" horiz-adv-x="1552" 
d="M1063 1782h-100l161 307h205zM707 -33q-195 0 -331.5 65.5t-200 192.5t-38.5 301h195q-20 -187 85.5 -290t319.5 -103q208 0 333 87t147 243q11 77 -17.5 129t-85.5 77.5t-133.5 39.5t-162 23t-171 20.5t-160 39t-129 71t-79.5 124t-9 191.5q28 198 212.5 325t451.5 127
q271 0 423 -142.5t120 -367.5h-189q11 163 -89 253.5t-294 90.5q-196 0 -313 -82.5t-137 -232.5q-10 -72 19 -120t86.5 -71.5t134 -37t162 -22.5t170.5 -21t159.5 -39t129 -70t79.5 -121t10 -186q-15 -105 -69 -195t-141 -156.5t-212.5 -104.5t-275.5 -38z" />
    <glyph glyph-name="sacute" unicode="&#x15b;" horiz-adv-x="1138" 
d="M739 1229h-100l162 307h205zM510 -33q-211 0 -326 99t-96 262h166q-9 -107 59.5 -163t204.5 -56q126 0 205.5 51t91.5 137q6 45 -14 77t-58 50.5t-89 32t-107.5 24.5t-112.5 24.5t-105.5 36t-86 55t-53 86t-7.5 124.5q19 136 146.5 213.5t328.5 77.5q189 0 296 -101
t96 -266h-164q9 108 -55.5 166.5t-192.5 58.5q-122 0 -197.5 -42.5t-85.5 -120.5q-5 -43 15 -74t58.5 -48.5t90 -30.5t108 -24.5t112.5 -25t105.5 -38t85 -58t51.5 -89.5t5 -129q-17 -139 -146 -224t-329 -85z" />
    <glyph glyph-name="Scedilla" unicode="&#x15e;" horiz-adv-x="1552" 
d="M1477 1120h-189q11 163 -89 253.5t-294 90.5q-196 0 -313 -82.5t-137 -232.5q-10 -72 19 -120t86.5 -71.5t134 -37t162 -22.5t170.5 -21t159.5 -39t129 -70t79.5 -121t10 -186q-27 -194 -181 -327.5t-403 -160.5l-112 -141q51 19 98 8.5t82.5 -37t53 -75t9.5 -105.5
q-15 -112 -89.5 -173.5t-192.5 -61.5t-175 66t-40 184h108q-11 -75 20.5 -117.5t98.5 -42.5t110 38.5t52 106.5q9 62 -23.5 101.5t-87.5 39.5q-58 0 -104 -26l-45 59l127 170h-4q-195 0 -331.5 65.5t-200 192.5t-38.5 301h195q-20 -187 85.5 -290t319.5 -103q208 0 333 87
t147 243q11 77 -17.5 129t-85.5 77.5t-133.5 39.5t-162 23t-171 20.5t-160 39t-129 71t-79.5 124t-9 191.5q28 198 212.5 325t451.5 127q271 0 423 -142.5t120 -367.5z" />
    <glyph glyph-name="scedilla" unicode="&#x15f;" horiz-adv-x="1138" 
d="M1049 731h-164q9 108 -55.5 166.5t-192.5 58.5q-122 0 -197.5 -42.5t-85.5 -120.5q-5 -43 15 -74t58.5 -48.5t90 -30.5t108 -24.5t112.5 -25t105.5 -38t85 -58t51.5 -89.5t5 -129q-15 -126 -123.5 -209t-281.5 -98l-109 -137q51 19 98.5 8.5t83 -37t53 -75t9.5 -105.5
q-15 -112 -90 -173.5t-193 -61.5t-175 66t-40 184h109q-11 -75 20 -117.5t98 -42.5t110 38.5t52 106.5q9 62 -23 101.5t-87 39.5q-59 0 -105 -26l-45 59l127 170q-194 9 -298 107t-87 254h166q-9 -107 59.5 -163t204.5 -56q126 0 205.5 51t91.5 137q6 45 -14 77t-58 50.5
t-89 32t-107.5 24.5t-112.5 24.5t-105.5 36t-86 55t-53 86t-7.5 124.5q19 136 146.5 213.5t328.5 77.5q189 0 296 -101t96 -266z" />
    <glyph glyph-name="Scaron" unicode="&#x160;" horiz-adv-x="1552" 
d="M1073 1782h-160l-161 307h129l127 -221l188 221h129zM707 -33q-195 0 -331.5 65.5t-200 192.5t-38.5 301h195q-20 -187 85.5 -290t319.5 -103q208 0 333 87t147 243q11 77 -17.5 129t-85.5 77.5t-133.5 39.5t-162 23t-171 20.5t-160 39t-129 71t-79.5 124t-9 191.5
q28 198 212.5 325t451.5 127q271 0 423 -142.5t120 -367.5h-189q11 163 -89 253.5t-294 90.5q-196 0 -313 -82.5t-137 -232.5q-10 -72 19 -120t86.5 -71.5t134 -37t162 -22.5t170.5 -21t159.5 -39t129 -70t79.5 -121t10 -186q-15 -105 -69 -195t-141 -156.5t-212.5 -104.5
t-275.5 -38z" />
    <glyph glyph-name="scaron" unicode="&#x161;" horiz-adv-x="1138" 
d="M750 1229h-160l-162 307h129l127 -221l188 221h129zM510 -33q-211 0 -326 99t-96 262h166q-9 -107 59.5 -163t204.5 -56q126 0 205.5 51t91.5 137q6 45 -14 77t-58 50.5t-89 32t-107.5 24.5t-112.5 24.5t-105.5 36t-86 55t-53 86t-7.5 124.5q19 136 146.5 213.5
t328.5 77.5q189 0 296 -101t96 -266h-164q9 108 -55.5 166.5t-192.5 58.5q-122 0 -197.5 -42.5t-85.5 -120.5q-5 -43 15 -74t58.5 -48.5t90 -30.5t108 -24.5t112.5 -25t105.5 -38t85 -58t51.5 -89.5t5 -129q-17 -139 -146 -224t-329 -85z" />
    <glyph glyph-name="uni0162" unicode="&#x162;" horiz-adv-x="1400" 
d="M166 1421l27 176h1316l-26 -176h-570l-198 -1421h30l-133 -168q51 19 98 8.5t82 -37t52.5 -75t9.5 -105.5q-15 -112 -90 -173.5t-193 -61.5q-117 0 -173.5 66t-39.5 184h107q-9 -75 22.5 -117.5t98.5 -42.5t110 38.5t52 106.5q9 62 -23.5 101.5t-87.5 39.5
q-59 0 -105 -26l-45 59l152 203h-102l198 1421h-569z" />
    <glyph glyph-name="uni0163" unicode="&#x163;" horiz-adv-x="899" 
d="M850 911h-315l-82 -577q-8 -55 -10.5 -77.5t2.5 -50.5t16.5 -35t42 -14.5t69 -5.5t107.5 7l-12 -156q-98 -10 -164 -10l-115 -160q94 34 165 -29.5t56 -179.5q-13 -112 -81 -173.5t-175 -61.5q-106 0 -157.5 66t-36.5 184h96q-8 -76 20 -118t89 -42t99.5 38.5t47.5 106.5
q7 62 -21.5 101.5t-78.5 39.5q-52 0 -95 -26l-41 59l138 203q-93 18 -129.5 85t-14.5 206l88 620h-227l21 154h227l41 287h176l-41 -287h315z" />
    <glyph glyph-name="Tcaron" unicode="&#x164;" horiz-adv-x="1400" 
d="M973 1802h-160l-162 307h129l127 -221l189 221h129zM715 0h-178l198 1421h-569l27 176h1316l-26 -176h-570z" />
    <glyph glyph-name="tcaron" unicode="&#x165;" horiz-adv-x="899" 
d="M764 1311h-98l159 307h205zM680 158l-12 -156q-106 -14 -187.5 -9.5t-135 30.5t-73.5 92t-2 176l88 620h-227l21 154h227l41 287h176l-41 -287h315l-20 -154h-315l-82 -577q-8 -55 -10.5 -77.5t2.5 -50.5t16.5 -35t42 -14.5t69 -5.5t107.5 7z" />
    <glyph glyph-name="Tbar" unicode="&#x166;" horiz-adv-x="1400" 
d="M1509 1597l-26 -176h-570l-71 -516h547l-21 -153h-549l-104 -752h-178l104 750h-381l21 153h383l71 518h-569l27 176h1316z" />
    <glyph glyph-name="tbar" unicode="&#x167;" horiz-adv-x="899" 
d="M870 1065l-20 -154h-315l-37 -256h274l-12 -153h-283l-24 -168q-8 -55 -10.5 -77.5t2.5 -50.5t16.5 -35t42 -14.5t69 -5.5t107.5 7l-12 -156q-106 -14 -187.5 -9.5t-135 30.5t-73.5 92t-2 176l31 209h-182l12 153h191l36 258h-227l21 154h227l41 287h176l-41 -287h315z
" />
    <glyph glyph-name="Umacron" unicode="&#x16a;" horiz-adv-x="1710" 
d="M1436 1872l-863 -2l17 123l862 2zM776 -27q-319 3 -472 189.5t-107 515.5l129 919h178l-129 -917q-37 -254 75.5 -396.5t348.5 -142.5t389 142.5t188 396.5l129 917h178l-129 -919q-47 -335 -253 -521.5t-525 -183.5z" />
    <glyph glyph-name="umacron" unicode="&#x16b;" horiz-adv-x="1243" 
d="M1071 1298l-711 -2l15 123l710 2zM983 1065h176l-149 -1065h-176l30 188q-74 -105 -176.5 -163t-226.5 -58q-196 0 -282 117t-54 340l90 641h176l-90 -647q-20 -141 32 -220t169 -79q154 0 268 122.5t141 309.5z" />
    <glyph glyph-name="Uring" unicode="&#x16e;" horiz-adv-x="1710" 
d="M991 1790q-100 0 -159 69t-44 169q13 100 92.5 168.5t180.5 68.5q100 0 159 -68.5t44 -168.5q-14 -100 -93 -169t-180 -69zM1010 1911q47 0 87 35t46 82q8 47 -22 81.5t-79 34.5q-47 0 -87 -34.5t-46 -81.5q-8 -48 22 -82.5t79 -34.5zM776 -27q-319 3 -472 189.5
t-107 515.5l129 919h178l-129 -917q-37 -254 75.5 -396.5t348.5 -142.5t389 142.5t188 396.5l129 917h178l-129 -919q-47 -335 -253 -521.5t-525 -183.5z" />
    <glyph glyph-name="uring" unicode="&#x16f;" horiz-adv-x="1243" 
d="M709 1217q-100 0 -159 68.5t-44 168.5q14 100 92.5 169t179.5 69q100 0 159 -69t44 -169q-14 -100 -92.5 -168.5t-179.5 -68.5zM727 1337q47 0 87 35t46 82q8 48 -21.5 82.5t-78.5 34.5q-47 0 -87 -35t-46 -82q-8 -48 21.5 -82.5t78.5 -34.5zM983 1065h176l-149 -1065
h-176l30 188q-74 -105 -176.5 -163t-226.5 -58q-196 0 -282 117t-54 340l90 641h176l-90 -647q-20 -141 32 -220t169 -79q154 0 268 122.5t141 309.5z" />
    <glyph glyph-name="Uhungarumlaut" unicode="&#x170;" horiz-adv-x="1710" 
d="M885 1802h-99l164 307h197zM1174 1802h-97l164 307h197zM776 -27q-319 3 -472 189.5t-107 515.5l129 919h178l-129 -917q-37 -254 75.5 -396.5t348.5 -142.5t389 142.5t188 396.5l129 917h178l-129 -919q-47 -335 -253 -521.5t-525 -183.5z" />
    <glyph glyph-name="uhungarumlaut" unicode="&#x171;" horiz-adv-x="1243" 
d="M602 1229h-98l164 307h196zM891 1229h-96l163 307h197zM983 1065h176l-149 -1065h-176l30 188q-74 -105 -176.5 -163t-226.5 -58q-196 0 -282 117t-54 340l90 641h176l-90 -647q-20 -141 32 -220t169 -79q154 0 268 122.5t141 309.5z" />
    <glyph glyph-name="Uogonek" unicode="&#x172;" horiz-adv-x="1710" 
d="M1376 680l129 917h178l-129 -919q-46 -325 -242.5 -511t-502.5 -194q-78 -69 -90 -151q-11 -76 43 -119t162 -43l-15 -104q-169 -15 -256 48t-73 171q15 120 106 202q-275 29 -403.5 213t-85.5 488l129 919h178l-129 -917q-37 -254 75.5 -396.5t348.5 -142.5t389 142.5
t188 396.5z" />
    <glyph glyph-name="uogonek" unicode="&#x173;" horiz-adv-x="1243" 
d="M1010 0h-103q-110 -76 -125 -178q-11 -76 43 -119t162 -43l-14 -104q-169 -15 -256.5 48t-73.5 171q12 88 64 156.5t133 109.5l24 147q-74 -105 -176.5 -163t-226.5 -58q-196 0 -282 117t-54 340l90 641h176l-90 -647q-20 -141 32 -220t169 -79q154 0 268 122.5
t141 309.5l72 514h176z" />
    <glyph glyph-name="Wcircumflex" unicode="&#x174;" horiz-adv-x="2408" 
d="M1231 1802h-129l252 307h159l162 -307h-129l-127 221zM715 0h-230l-266 1597h201l205 -1392l600 1392h223l240 -1398l600 1398h200l-716 -1597h-230l-239 1346z" />
    <glyph glyph-name="wcircumflex" unicode="&#x175;" horiz-adv-x="1869" 
d="M860 1229h-129l252 307h160l162 -307h-129l-127 221zM563 0h-182l-215 1065h188l148 -842l418 842h172l182 -842l387 842h192l-514 -1065h-180l-180 829z" />
    <glyph glyph-name="Ycircumflex" unicode="&#x176;" horiz-adv-x="1492" 
d="M770 1802h-129l252 307h160l161 -307h-129l-127 221zM760 0h-178l88 627l-482 970h207l387 -798l615 798h207l-756 -970z" />
    <glyph glyph-name="ycircumflex" unicode="&#x177;" horiz-adv-x="1210" 
d="M502 1229h-129l252 307h159l162 -307h-129l-127 221zM53 -410h-96l23 152h137q113 0 185 48.5t157 174.5l-312 1100h193l238 -883l446 883h190l-598 -1147q-97 -181 -228.5 -254.5t-334.5 -73.5z" />
    <glyph glyph-name="Ydieresis" unicode="&#x178;" horiz-adv-x="1492" 
d="M758 1817q-56 0 -89.5 38.5t-27.5 94.5q7 55 52 93t102 38q54 0 86.5 -38t25.5 -93t-51.5 -94t-97.5 -39zM1118 1817q-56 0 -89.5 38.5t-27.5 94.5q7 55 52 93t102 38q55 0 88 -37.5t25 -93.5q-6 -55 -51.5 -94t-98.5 -39zM760 0h-178l88 627l-482 970h207l387 -798
l615 798h207l-756 -970z" />
    <glyph glyph-name="Zacute" unicode="&#x179;" horiz-adv-x="1507" 
d="M1014 1802h-101l162 307h205zM1286 0h-1233l21 137l1163 1288h-995l24 172h1272l-14 -104l-1186 -1321h973z" />
    <glyph glyph-name="zacute" unicode="&#x17a;" horiz-adv-x="1214" 
d="M750 1229h-101l162 307h205zM1001 0h-974l10 88l856 821h-700l22 156h971l-12 -102l-838 -807h686z" />
    <glyph glyph-name="Zdotaccent" unicode="&#x17b;" horiz-adv-x="1507" 
d="M952 1810q-55 0 -88.5 39t-25.5 95q6 55 50.5 93t100.5 38q55 0 88 -37.5t27 -93.5q-7 -55 -53 -94.5t-99 -39.5zM1286 0h-1233l21 137l1163 1288h-995l24 172h1272l-14 -104l-1186 -1321h973z" />
    <glyph glyph-name="zdotaccent" unicode="&#x17c;" horiz-adv-x="1214" 
d="M688 1237q-55 0 -89 38.5t-26 94.5q6 55 51 93t101 38q55 0 88 -37.5t27 -93.5q-7 -55 -53 -94t-99 -39zM1001 0h-974l10 88l856 821h-700l22 156h971l-12 -102l-838 -807h686z" />
    <glyph glyph-name="Zcaron" unicode="&#x17d;" horiz-adv-x="1507" 
d="M1024 1802h-160l-162 307h129l127 -221l189 221h129zM1286 0h-1233l21 137l1163 1288h-995l24 172h1272l-14 -104l-1186 -1321h973z" />
    <glyph glyph-name="zcaron" unicode="&#x17e;" horiz-adv-x="1214" 
d="M760 1229h-160l-162 307h129l127 -221l189 221h129zM1001 0h-974l10 88l856 821h-700l22 156h971l-12 -102l-838 -807h686z" />
    <glyph glyph-name="uni0218" unicode="&#x218;" horiz-adv-x="1552" 
d="M707 -33q-195 0 -331.5 65.5t-200 192.5t-38.5 301h195q-20 -187 85.5 -290t319.5 -103q208 0 333 87t147 243q11 77 -17.5 129t-85.5 77.5t-133.5 39.5t-162 23t-171 20.5t-160 39t-129 71t-79.5 124t-9 191.5q28 198 212.5 325t451.5 127q271 0 423 -142.5t120 -367.5
h-189q11 163 -89 253.5t-294 90.5q-196 0 -313 -82.5t-137 -232.5q-10 -72 19 -120t86.5 -71.5t134 -37t162 -22.5t170.5 -21t159.5 -39t129 -70t79.5 -121t10 -186q-15 -105 -69 -195t-141 -156.5t-212.5 -104.5t-275.5 -38zM637 -602h-115l156 426h196z" />
    <glyph glyph-name="uni0219" unicode="&#x219;" horiz-adv-x="1138" 
d="M510 -33q-211 0 -326 99t-96 262h166q-9 -107 59.5 -163t204.5 -56q126 0 205.5 51t91.5 137q6 45 -14 77t-58 50.5t-89 32t-107.5 24.5t-112.5 24.5t-105.5 36t-86 55t-53 86t-7.5 124.5q19 136 146.5 213.5t328.5 77.5q189 0 296 -101t96 -266h-164q9 108 -55.5 166.5
t-192.5 58.5q-122 0 -197.5 -42.5t-85.5 -120.5q-5 -43 15 -74t58.5 -48.5t90 -30.5t108 -24.5t112.5 -25t105.5 -38t85 -58t51.5 -89.5t5 -129q-17 -139 -146 -224t-329 -85zM399 -602h-114l155 426h197z" />
    <glyph glyph-name="uni021A" unicode="&#x21a;" horiz-adv-x="1400" 
d="M715 0h-178l198 1421h-569l27 176h1316l-26 -176h-570zM602 -602h-117l158 426h195z" />
    <glyph glyph-name="uni021B" unicode="&#x21b;" horiz-adv-x="899" 
d="M680 158l-12 -156q-106 -14 -187.5 -9.5t-135 30.5t-73.5 92t-2 176l88 620h-227l21 154h227l41 287h176l-41 -287h315l-20 -154h-315l-82 -577q-8 -55 -10.5 -77.5t2.5 -50.5t16.5 -35t42 -14.5t69 -5.5t107.5 7zM315 -602h-114l155 426h197z" />
    <glyph glyph-name="circumflex" unicode="&#x2c6;" horiz-adv-x="1228" 
d="M473 1331h-129l252 307h160l162 -307h-130l-126 221z" />
    <glyph glyph-name="caron" unicode="&#x2c7;" horiz-adv-x="1228" 
d="M709 1331h-160l-162 307h129l127 -221l188 221h130z" />
    <glyph glyph-name="breve" unicode="&#x2d8;" horiz-adv-x="1228" 
d="M594 1339q-124 0 -183 74t-40 205h123q-12 -83 18 -129.5t96 -46.5t110 46.5t58 129.5h123q-19 -131 -100 -205t-205 -74z" />
    <glyph glyph-name="dotaccent" unicode="&#x2d9;" horiz-adv-x="1228" 
d="M446 1237q-55 0 -88.5 38.5t-25.5 94.5q6 55 50.5 93t100.5 38q55 0 88 -37.5t27 -93.5q-7 -55 -53 -94t-99 -39z" />
    <glyph glyph-name="ring" unicode="&#x2da;" horiz-adv-x="1228" 
d="M526 1202q-100 0 -158.5 69t-43.5 169q14 100 92.5 168.5t179.5 68.5q100 0 159 -68.5t44 -168.5q-14 -100 -93 -169t-180 -69zM545 1323q47 0 87 35t46 82q8 48 -21.5 82t-78.5 34q-48 0 -88 -34.5t-46 -81.5q-8 -48 22 -82.5t79 -34.5z" />
    <glyph glyph-name="ogonek" unicode="&#x2db;" horiz-adv-x="1228" 
d="M463 -340l-14 -104q-169 -15 -256.5 48t-73.5 171q15 111 92.5 190t196.5 109l-17 -68q-118 -77 -133 -184q-11 -76 43 -119t162 -43z" />
    <glyph glyph-name="tilde" unicode="&#x2dc;" horiz-adv-x="1228" 
d="M842 1395q-43 0 -82 18t-62.5 39t-54.5 39t-61 18q-49 0 -82 -31t-41 -81h-117q12 104 83.5 169.5t172.5 65.5q41 0 79 -18t62 -39t56 -39t63 -18q46 0 78.5 31.5t40.5 82.5h121q-12 -106 -83.5 -171.5t-172.5 -65.5z" />
    <glyph glyph-name="hungarumlaut" unicode="&#x2dd;" horiz-adv-x="1228" 
d="M444 1331h-98l164 307h197zM733 1331h-96l164 307h196z" />
    <glyph glyph-name="gravecomb" unicode="&#x300;" 
d="M-240 1638l117 -307h-100l-223 307h206z" />
    <glyph glyph-name="acutecomb" unicode="&#x301;" 
d="M-336 1331h-100l162 307h204z" />
    <glyph glyph-name="uni0302" unicode="&#x302;" 
d="M-563 1331h-129l252 307h159l162 -307h-129l-127 221z" />
    <glyph glyph-name="tildecomb" unicode="&#x303;" 
d="M-322 1395q-43 0 -82 18t-62.5 39t-54.5 39t-61 18q-49 0 -82 -31t-41 -81h-116q12 104 83.5 169.5t172.5 65.5q41 0 79 -18t62 -39t56 -39t63 -18q46 0 78.5 31.5t40.5 82.5h120q-12 -106 -83.5 -171.5t-172.5 -65.5z" />
    <glyph glyph-name="uni0304" unicode="&#x304;" 
d="M-82 1401l-862 -2l16 123l862 2z" />
    <glyph glyph-name="uni0306" unicode="&#x306;" 
d="M-373 1339q-124 0 -183 74t-40 205h123q-12 -83 18.5 -129.5t96.5 -46.5t110 46.5t58 129.5h122q-19 -131 -100 -205t-205 -74z" />
    <glyph glyph-name="uni0307" unicode="&#x307;" 
d="M-248 1237q-55 0 -88.5 38.5t-25.5 94.5q6 55 50.5 93t100.5 38q55 0 88 -37.5t27 -93.5q-7 -55 -53 -94t-99 -39z" />
    <glyph glyph-name="uni0308" unicode="&#x308;" 
d="M-592 1262q-56 0 -89.5 38.5t-27.5 94.5q7 55 52 93t102 38q54 0 87 -38t26 -93t-52 -94t-98 -39zM-231 1262q-56 0 -89.5 38.5t-27.5 94.5q7 55 51.5 93t101.5 38q55 0 88 -37.5t25 -93.5q-6 -55 -51 -94t-98 -39z" />
    <glyph glyph-name="uni030A" unicode="&#x30a;" 
d="M-342 1202q-100 0 -159 69t-44 169q13 100 92.5 168.5t180.5 68.5q100 0 158.5 -68.5t43.5 -168.5q-14 -100 -92.5 -169t-179.5 -69zM-324 1323q47 0 87.5 35t46.5 82q8 47 -22 81.5t-79 34.5q-47 0 -87 -34.5t-46 -81.5q-8 -48 21.5 -82.5t78.5 -34.5z" />
    <glyph glyph-name="uni030B" unicode="&#x30b;" 
d="M-623 1331h-98l164 307h197zM-334 1331h-96l164 307h196z" />
    <glyph glyph-name="uni030C" unicode="&#x30c;" 
d="M-328 1331h-159l-162 307h129l127 -221l188 221h129z" />
    <glyph glyph-name="uni0312" unicode="&#x312;" 
d="M-168 1690h115l-156 -426h-197z" />
    <glyph glyph-name="uni0326" unicode="&#x326;" 
d="M-547 -602h-115l156 426h197z" />
    <glyph glyph-name="uni0327" unicode="&#x327;" 
d="M-696 -612q-118 0 -175 66t-40 184h108q-11 -75 20.5 -117.5t98.5 -42.5t110 38.5t52 106.5q9 62 -23.5 101.5t-87.5 39.5q-58 0 -104 -26l-45 59l151 203h107l-133 -168q51 19 98 8.5t82.5 -37t53 -75t9.5 -105.5q-15 -112 -89.5 -173.5t-192.5 -61.5z" />
    <glyph glyph-name="uni0328" unicode="&#x328;" 
d="M-328 -340l-14 -104q-169 -15 -256.5 48t-73.5 171q15 111 92.5 190t196.5 109l-16 -68q-118 -77 -133 -184q-11 -76 42.5 -119t161.5 -43z" />
    <glyph glyph-name="uni0335" unicode="&#x335;" 
d="M-174 752l-1108 -2l20 153l1108 2z" />
    <glyph glyph-name="uni0336" unicode="&#x336;" 
d="M-174 756l-1761 -2l22 159l1761 2z" />
    <glyph glyph-name="uni0337" unicode="&#x337;" 
d="M-231 848l-820 -795l-129 129l822 797z" />
    <glyph glyph-name="uni0338" unicode="&#x338;" 
d="M-139 1522l-1653 -1555l-98 99l1654 1556z" />
    <glyph glyph-name="Wgrave" unicode="&#x1e80;" horiz-adv-x="2408" 
d="M1311 2109l116 -307h-100l-223 307h207zM715 0h-230l-266 1597h201l205 -1392l600 1392h223l240 -1398l600 1398h200l-716 -1597h-230l-239 1346z" />
    <glyph glyph-name="wgrave" unicode="&#x1e81;" horiz-adv-x="1869" 
d="M940 1536l117 -307h-101l-223 307h207zM563 0h-182l-215 1065h188l148 -842l418 842h172l182 -842l387 842h192l-514 -1065h-180l-180 829z" />
    <glyph glyph-name="Wacute" unicode="&#x1e82;" horiz-adv-x="2408" 
d="M1458 1802h-100l162 307h204zM715 0h-230l-266 1597h201l205 -1392l600 1392h223l240 -1398l600 1398h200l-716 -1597h-230l-239 1346z" />
    <glyph glyph-name="wacute" unicode="&#x1e83;" horiz-adv-x="1869" 
d="M1087 1229h-100l162 307h205zM563 0h-182l-215 1065h188l148 -842l418 842h172l182 -842l387 842h192l-514 -1065h-180l-180 829z" />
    <glyph glyph-name="Wdieresis" unicode="&#x1e84;" horiz-adv-x="2408" 
d="M1219 1817q-56 0 -89.5 38.5t-27.5 94.5q7 55 51.5 93t101.5 38q54 0 87 -38t26 -93t-51.5 -94t-97.5 -39zM1579 1817q-56 0 -89.5 38.5t-27.5 94.5q7 55 52 93t102 38q55 0 88 -37.5t25 -93.5q-6 -55 -51.5 -94t-98.5 -39zM715 0h-230l-266 1597h201l205 -1392l600 1392
h223l240 -1398l600 1398h200l-716 -1597h-230l-239 1346z" />
    <glyph glyph-name="wdieresis" unicode="&#x1e85;" horiz-adv-x="1869" 
d="M848 1243q-56 0 -89.5 38.5t-27.5 94.5q7 55 52 93t102 38q54 0 86.5 -38t25.5 -93t-51.5 -94t-97.5 -39zM1208 1243q-56 0 -89 38.5t-27 94.5q7 55 51.5 93t101.5 38q55 0 88 -37.5t25 -93.5q-6 -55 -51.5 -94t-98.5 -39zM563 0h-182l-215 1065h188l148 -842l418 842
h172l182 -842l387 842h192l-514 -1065h-180l-180 829z" />
    <glyph glyph-name="Ygrave" unicode="&#x1ef2;" horiz-adv-x="1492" 
d="M848 2109l117 -307h-101l-223 307h207zM760 0h-178l88 627l-482 970h207l387 -798l615 798h207l-756 -970z" />
    <glyph glyph-name="ygrave" unicode="&#x1ef3;" horiz-adv-x="1210" 
d="M580 1536l116 -307h-100l-223 307h207zM53 -410h-96l23 152h137q113 0 185 48.5t157 174.5l-312 1100h193l238 -883l446 883h190l-598 -1147q-97 -181 -228.5 -254.5t-334.5 -73.5z" />
    <glyph glyph-name="endash" unicode="&#x2013;" horiz-adv-x="1777" 
d="M1595 678h-1372l25 168h1372z" />
    <glyph glyph-name="emdash" unicode="&#x2014;" horiz-adv-x="2310" 
d="M2128 678h-1905l25 168h1904z" />
    <glyph glyph-name="quoteleft" unicode="&#x2018;" horiz-adv-x="509" 
d="M438 1618h117l-156 -426h-196z" />
    <glyph glyph-name="quoteright" unicode="&#x2019;" horiz-adv-x="507" 
d="M301 1192h-117l156 426h197z" />
    <glyph glyph-name="quotesinglbase" unicode="&#x201a;" horiz-adv-x="507" 
d="M111 -211h-117l156 426h196z" />
    <glyph glyph-name="quotedblleft" unicode="&#x201c;" horiz-adv-x="927" 
d="M471 1618h117l-209 -426h-195zM858 1618h115l-207 -426h-197z" />
    <glyph glyph-name="quotedblright" unicode="&#x201d;" horiz-adv-x="894" 
d="M301 1192h-117l156 426h197zM686 1192h-115l156 426h197z" />
    <glyph glyph-name="quotedblbase" unicode="&#x201e;" horiz-adv-x="964" 
d="M111 -211h-117l156 426h196zM496 -211h-115l156 426h196z" />
    <glyph glyph-name="dagger" unicode="&#x2020;" horiz-adv-x="1515" 
d="M717 -410h-180l178 1266h-463l22 166h463l84 596h180l-83 -594h462l-22 -166h-465z" />
    <glyph glyph-name="daggerdbl" unicode="&#x2021;" horiz-adv-x="1517" 
d="M717 -410h-180l104 748h-463l23 166h463l51 352h-463l22 166h463l84 596h180l-83 -594h462l-22 -166h-465l-47 -352h463l-25 -166h-465z" />
    <glyph glyph-name="bullet" unicode="&#x2022;" horiz-adv-x="1247" 
d="M659 281q-188 0 -315.5 129.5t-126.5 318.5q2 175 129 297.5t307 122.5q121 0 222 -59t158.5 -160.5t56.5 -222.5q-1 -116 -61.5 -215t-159.5 -155t-210 -56z" />
    <glyph glyph-name="ellipsis" unicode="&#x2026;" horiz-adv-x="1542" 
d="M178 -23q-57 0 -91 40.5t-28 97.5q7 54 50.5 90.5t99.5 36.5q57 0 91 -38.5t26 -94.5q-7 -55 -51.5 -93.5t-96.5 -38.5zM698 -23q-57 0 -91.5 40.5t-26.5 97.5q7 54 50 90.5t99 36.5q57 0 91 -38.5t26 -94.5q-7 -55 -51.5 -93.5t-96.5 -38.5zM1217 -23q-57 0 -92 40.5
t-27 97.5q7 54 50 90.5t99 36.5q55 0 89 -38.5t28 -94.5q-7 -55 -51 -93.5t-96 -38.5z" />
    <glyph glyph-name="perthousand" unicode="&#x2030;" horiz-adv-x="2951" 
d="M1055 1253q-23 -170 -141 -278.5t-281 -108.5q-166 0 -259.5 115t-68.5 293q25 169 143 277t279 108q167 0 260 -114.5t68 -291.5zM489 0l1098 1618h215l-1097 -1618h-216zM467 1255q-15 -107 32.5 -174t139.5 -67q96 0 167.5 72t86.5 184q17 107 -31 175t-139 68
q-97 0 -169 -72.5t-87 -185.5zM2398 772q168 0 260.5 -114.5t67.5 -292.5q-25 -170 -143 -277.5t-279 -107.5q-92 0 -163.5 36.5t-115.5 102.5q-123 -139 -309 -139q-167 0 -259.5 114t-67.5 291q25 170 142 278.5t277 108.5q92 0 164.5 -36.5t114.5 -102.5q60 66 140 102.5
t171 36.5zM1720 125q93 0 164 69t90 177l2 14q0 6 2 10q10 103 -38 166.5t-136 63.5q-97 0 -169 -72t-87 -184q-15 -107 33 -175.5t139 -68.5zM2564 383q17 107 -31 174.5t-139 67.5q-96 0 -167.5 -71.5t-88.5 -184.5q-17 -107 31 -175.5t139 -68.5q96 0 167.5 72.5
t88.5 185.5z" />
    <glyph glyph-name="guilsinglleft" unicode="&#x2039;" horiz-adv-x="1054" 
d="M778 0h-198l-379 512l522 512h199l-516 -512z" />
    <glyph glyph-name="guilsinglright" unicode="&#x203a;" horiz-adv-x="1052" 
d="M848 512l-522 -512h-199l516 512l-373 512h199z" />
    <glyph glyph-name="fraction" unicode="&#x2044;" horiz-adv-x="1314" 
d="M1266 1618l-1098 -1618h-217l1100 1618h215z" />
    <glyph glyph-name="Euro" unicode="&#x20ac;" horiz-adv-x="1990" 
d="M1075 135q137 0 262 51.5t217.5 147.5t133.5 221h190q-84 -264 -310 -426t-499 -162q-279 0 -463 146t-229 397h-279l27 160h240q0 59 10 137q9 67 24 127h-227l27 162h260q113 247 336.5 390.5t502.5 143.5q278 0 452 -153t183 -406h-188q-12 173 -146.5 281t-328.5 110
q-198 1 -361 -96t-256 -270l719 2l-26 -162l-756 -2q-17 -64 -25 -117q-11 -71 -8 -147l743 2l-28 -160l-694 -2q45 -175 175 -275t322 -100z" />
    <glyph glyph-name="trademark" unicode="&#x2122;" horiz-adv-x="2586" 
d="M547 522h-121l135 961h-385l19 121h890l-18 -121h-385zM1313 522h-121l151 1082h199l270 -955l539 955h199l-154 -1082h-121l133 934l-544 -934h-140l-280 934z" />
    <glyph glyph-name="arrowleft" unicode="&#x2190;" horiz-adv-x="2074" 
d="M571 920l1327 -2v-175h-1327l482 -481l-125 -121l-688 688l688 689l123 -121z" />
    <glyph glyph-name="arrowup" unicode="&#x2191;" horiz-adv-x="1781" 
d="M1038 0h-174l-2 1325l-477 -477l-121 123l688 688l688 -688l-120 -125l-482 479v-1325z" />
    <glyph glyph-name="arrowright" unicode="&#x2192;" horiz-adv-x="2074" 
d="M252 743v175l1325 2l-479 477l123 121l690 -689l-690 -688l-125 121l481 481h-1325z" />
    <glyph glyph-name="arrowdown" unicode="&#x2193;" horiz-adv-x="1781" 
d="M815 293l2 1325h176v-1325l482 479l120 -125l-688 -688l-690 688l123 123z" />
    <glyph glyph-name="arrowboth" unicode="&#x2194;" horiz-adv-x="2555" 
d="M1585 1397l125 121l688 -689l-688 -688l-123 121l479 477h-1486l479 -477l-125 -121l-688 688l688 689l127 -121l-481 -482h1486z" />
    <glyph glyph-name="arrowupdn" unicode="&#x2195;" horiz-adv-x="1865" 
d="M1063 150l477 479l121 -123l-688 -690l-688 690l121 125l481 -481v1318l-481 -479l-121 125l688 688l688 -688l-121 -123l-477 477v-1318z" />
    <glyph glyph-name="uni2196" unicode="&#x2196;" horiz-adv-x="1796" 
d="M545 1446l936 -938l-125 -125l-938 938v-680l-174 2v975h975v-174z" />
    <glyph glyph-name="uni2197" unicode="&#x2197;" horiz-adv-x="1619" 
d="M315 383l-125 125l938 938l-675 -2v174h974v-975l-174 -2v680z" />
    <glyph glyph-name="uni2198" unicode="&#x2198;" horiz-adv-x="1794" 
d="M305 1112l125 125l938 -938l-2 676h174v-975h-975l-2 174h680z" />
    <glyph glyph-name="uni2199" unicode="&#x2199;" horiz-adv-x="1622" 
d="M1382 1235l123 -125l-936 -938l676 2v-174h-975v975l174 2v-680z" />
    <glyph glyph-name="partialdiff" unicode="&#x2202;" horiz-adv-x="1437" 
d="M612 -33q-156 0 -270.5 69t-167.5 194t-31 284q32 229 204 372.5t413 143.5q140 0 248.5 -64t144.5 -171q31 327 -56.5 507.5t-275.5 180.5q-139 0 -241 -79t-144 -224h-186q59 219 219.5 345t384.5 126q279 0 405.5 -226t69.5 -632q-56 -400 -237.5 -613t-479.5 -213z
M649 135q158 0 272.5 100t137.5 257q22 166 -69 271t-255 105q-156 0 -268.5 -100.5t-134.5 -259.5q-23 -163 66 -268t251 -105z" />
    <glyph glyph-name="emptyset" unicode="&#x2205;" horiz-adv-x="1292" 
d="M1147 989l-57 -63q119 -156 84 -402q-34 -246 -200.5 -401.5t-398.5 -155.5q-157 0 -272 76l-57 -66l-103 91l62 67q-123 161 -86 410q32 244 198 398.5t396 154.5q160 0 278 -78l56 61zM291 528q-22 -158 31 -260l561 629q-70 49 -174 49q-162 0 -276 -115.5
t-142 -302.5zM1001 541q21 147 -30 252l-559 -629q70 -45 166 -45q163 0 278.5 116.5t144.5 305.5z" />
    <glyph glyph-name="product" unicode="&#x220f;" horiz-adv-x="2244" 
d="M627 -410h-178l262 1860h-381l24 168h1839l-22 -168h-381l-262 -1860h-178l262 1860h-723z" />
    <glyph glyph-name="summation" unicode="&#x2211;" horiz-adv-x="1542" 
d="M1223 -307h-1135l21 168l739 733l-531 733l25 168h1135l-27 -168h-903l532 -733l-735 -733h901z" />
    <glyph glyph-name="minus" unicode="&#x2212;" horiz-adv-x="1468" 
d="M1280 627l-1065 -2l23 159l1065 2z" />
    <glyph glyph-name="radical" unicode="&#x221a;" horiz-adv-x="1886" 
d="M664 -225h-183l-241 1024h168l188 -783l711 1485h514l-25 -168h-393z" />
    <glyph glyph-name="infinity" unicode="&#x221e;" horiz-adv-x="2240" 
d="M635 309q-196 0 -313 125.5t-91 310.5q26 180 171.5 301t334.5 121q250 0 430 -272q137 139 255.5 205.5t238.5 66.5q196 0 312.5 -127t90.5 -315q-25 -177 -170.5 -296.5t-334.5 -119.5q-253 0 -433 271q-143 -138 -258 -204.5t-233 -66.5zM633 489q201 0 440 254
q-57 75 -107 124t-114.5 81.5t-132.5 32.5q-126 0 -212 -71t-101 -185q-15 -108 45.5 -172t181.5 -64zM1577 489q126 0 212 70.5t101 185.5q15 106 -46.5 171t-180.5 65q-107 0 -210 -63.5t-230 -190.5q170 -238 354 -238z" />
    <glyph glyph-name="integral" unicode="&#x222b;" horiz-adv-x="1150" 
d="M125 -535h-72l23 164h39q135 -2 204 62.5t89 210.5l190 1333q34 236 127 322t309 81h72l-25 -163h-39q-133 1 -201.5 -63t-90.5 -210l-187 -1333q-35 -236 -129 -322.5t-309 -81.5z" />
    <glyph glyph-name="approxequal" unicode="&#x2248;" horiz-adv-x="1400" 
d="M907 745q-48 0 -90.5 14.5t-73.5 35.5t-59.5 42t-61 35.5t-65.5 14.5q-64 0 -109.5 -38t-56.5 -99h-155q17 127 113 206.5t231 79.5q45 0 86 -14.5t71.5 -35t59.5 -40.5t62.5 -34.5t68.5 -14.5q61 0 104.5 38.5t52.5 100.5h164q-17 -130 -112 -210.5t-230 -80.5zM862 315
q-48 0 -90.5 14.5t-73.5 35.5t-59 42t-60.5 35.5t-66.5 14.5q-64 0 -109.5 -38.5t-54.5 -99.5h-158q17 127 113.5 207t231.5 80q46 0 87 -14.5t72 -35t59.5 -40.5t62 -34.5t67.5 -14.5q62 0 105 38.5t54 100.5h162q-17 -131 -111.5 -211t-230.5 -80z" />
    <glyph glyph-name="notequal" unicode="&#x2260;" horiz-adv-x="1470" 
d="M1331 995l-20 -161h-416l-180 -267l559 2l-23 -159l-645 -2l-278 -408h-187l277 408h-232l23 159h317l181 264h-461l20 162l551 2l273 402h188l-274 -402h327z" />
    <glyph glyph-name="lessequal" unicode="&#x2264;" horiz-adv-x="1579" 
d="M1331 203l-24 -170l-963 440l29 201l1087 440l-24 -170l-901 -371zM1303 -2l-25 -162l-1051 2l25 162z" />
    <glyph glyph-name="greaterequal" unicode="&#x2265;" horiz-adv-x="1456" 
d="M1219 473l-1088 -440l25 170l901 370l-797 371l23 170l962 -440zM1157 -162l-1051 -2l21 162l1051 2z" />
    <glyph glyph-name="lozenge" unicode="&#x25ca;" horiz-adv-x="1556" 
d="M856 0h-293l-321 809l542 809h293l316 -809zM426 809l295 -688l487 688l-288 688z" />
    <glyph glyph-name="G.ss01" horiz-adv-x="1789" 
d="M840 -33q-140 0 -259 39.5t-205.5 112.5t-143.5 177t-74 232.5t2 278.5q34 241 161 428.5t325 291t435 103.5q278 0 453.5 -141.5t185.5 -376.5h-188q-12 154 -148 251t-331 99q-275 2 -469.5 -175.5t-235.5 -469.5q-28 -202 25.5 -357t179.5 -240t305 -85
q243 0 418 143.5t211 364.5h-572l23 160h772q-56 -397 -282 -616.5t-588 -219.5z" />
    <glyph glyph-name="Gbreve.ss01" horiz-adv-x="1789" 
d="M1110 1790q-124 0 -183 73.5t-40 204.5h123q-12 -83 18 -129.5t96 -46.5t110 46.5t58 129.5h123q-19 -131 -100 -204.5t-205 -73.5zM840 -33q-140 0 -259 39.5t-205.5 112.5t-143.5 177t-74 232.5t2 278.5q34 241 161 428.5t325 291t435 103.5q278 0 453.5 -141.5
t185.5 -376.5h-188q-12 154 -148 251t-331 99q-275 2 -469.5 -175.5t-235.5 -469.5q-28 -202 25.5 -357t179.5 -240t305 -85q243 0 418 143.5t211 364.5h-572l23 160h772q-56 -397 -282 -616.5t-588 -219.5z" />
    <glyph glyph-name="uni0122.ss01" horiz-adv-x="1789" 
d="M840 -33q-140 0 -259 39.5t-205.5 112.5t-143.5 177t-74 232.5t2 278.5q34 241 161 428.5t325 291t435 103.5q278 0 453.5 -141.5t185.5 -376.5h-188q-12 154 -148 251t-331 99q-275 2 -469.5 -175.5t-235.5 -469.5q-28 -202 25.5 -357t179.5 -240t305 -85
q243 0 418 143.5t211 364.5h-572l23 160h772q-56 -397 -282 -616.5t-588 -219.5zM739 -602h-114l155 426h197z" />
    <glyph glyph-name="Gdotaccent.ss01" horiz-adv-x="1789" 
d="M1112 1790q-55 0 -89 38.5t-26 94.5q6 55 51 93t101 38q55 0 88 -37.5t27 -93.5q-7 -55 -53 -94t-99 -39zM840 -33q-140 0 -259 39.5t-205.5 112.5t-143.5 177t-74 232.5t2 278.5q34 241 161 428.5t325 291t435 103.5q278 0 453.5 -141.5t185.5 -376.5h-188
q-12 154 -148 251t-331 99q-275 2 -469.5 -175.5t-235.5 -469.5q-28 -202 25.5 -357t179.5 -240t305 -85q243 0 418 143.5t211 364.5h-572l23 160h772q-56 -397 -282 -616.5t-588 -219.5z" />
    <glyph glyph-name="K.ss01" horiz-adv-x="1615" 
d="M291 0h-180l227 1597h178l-98 -686l1012 686h272l-1096 -747l881 -850h-258l-826 795z" />
    <glyph glyph-name="uni0136.ss01" horiz-adv-x="1615" 
d="M291 0h-180l227 1597h178l-98 -686l1012 686h272l-1096 -747l881 -850h-258l-826 795zM666 -602h-115l156 426h196z" />
    <glyph glyph-name="R.ss01" horiz-adv-x="1505" 
d="M291 0h-180l227 1597h623q266 0 400 -123t105 -341q-25 -171 -138 -286t-296 -153l281 -694h-195l-268 674h-465zM492 1430l-84 -592h417q193 0 313 79.5t140 219.5q20 138 -79 215.5t-296 77.5h-411z" />
    <glyph glyph-name="Racute.ss01" horiz-adv-x="1505" 
d="M1001 1782h-100l162 307h205zM291 0h-180l227 1597h623q266 0 400 -123t105 -341q-25 -171 -138 -286t-296 -153l281 -694h-195l-268 674h-465zM492 1430l-84 -592h417q193 0 313 79.5t140 219.5q20 138 -79 215.5t-296 77.5h-411z" />
    <glyph glyph-name="Rcaron.ss01" horiz-adv-x="1505" 
d="M1012 1782h-160l-162 307h129l127 -221l189 221h129zM291 0h-180l227 1597h623q266 0 400 -123t105 -341q-25 -171 -138 -286t-296 -153l281 -694h-195l-268 674h-465zM492 1430l-84 -592h417q193 0 313 79.5t140 219.5q20 138 -79 215.5t-296 77.5h-411z" />
    <glyph glyph-name="uni0156.ss01" horiz-adv-x="1505" 
d="M291 0h-180l227 1597h623q266 0 400 -123t105 -341q-25 -171 -138 -286t-296 -153l281 -694h-195l-268 674h-465zM492 1430l-84 -592h417q193 0 313 79.5t140 219.5q20 138 -79 215.5t-296 77.5h-411zM625 -602h-115l156 426h196z" />
    <glyph glyph-name="i.loclTRK" horiz-adv-x="489" 
d="M344 1237q-55 0 -89 38.5t-26 94.5q6 55 51 93t101 38q55 0 88 -37.5t27 -93.5q-7 -55 -53 -94t-99 -39zM258 0h-176l149 1065h177z" />
    <glyph glyph-name="a.ss01" horiz-adv-x="1280" 
d="M530 -33q-224 0 -334.5 161t-74.5 419q36 248 184.5 399.5t366.5 151.5q121 0 203.5 -52.5t125.5 -146.5l25 166h176l-149 -1065h-176l24 158q-137 -194 -371 -191zM563 119q152 0 264 118t138 304q26 181 -49.5 293t-223.5 112t-259.5 -117t-137.5 -301
q-26 -183 48.5 -296t219.5 -113z" />
    <glyph glyph-name="aacute.ss01" horiz-adv-x="1280" 
d="M780 1229h-100l162 307h205zM530 -33q-224 0 -334.5 161t-74.5 419q36 248 184.5 399.5t366.5 151.5q121 0 203.5 -52.5t125.5 -146.5l25 166h176l-149 -1065h-176l24 158q-137 -194 -371 -191zM563 119q152 0 264 118t138 304q26 181 -49.5 293t-223.5 112t-259.5 -117
t-137.5 -301q-26 -183 48.5 -296t219.5 -113z" />
    <glyph glyph-name="abreve.ss01" horiz-adv-x="1280" 
d="M717 1237q-124 0 -183 74t-40 205h122q-12 -83 18.5 -130t96.5 -47t110 47t58 130h123q-19 -131 -100 -205t-205 -74zM530 -33q-224 0 -334.5 161t-74.5 419q36 248 184.5 399.5t366.5 151.5q121 0 203.5 -52.5t125.5 -146.5l25 166h176l-149 -1065h-176l24 158
q-137 -194 -371 -191zM563 119q152 0 264 118t138 304q26 181 -49.5 293t-223.5 112t-259.5 -117t-137.5 -301q-26 -183 48.5 -296t219.5 -113z" />
    <glyph glyph-name="acircumflex.ss01" horiz-adv-x="1280" 
d="M553 1229h-129l252 307h160l161 -307h-129l-127 221zM530 -33q-224 0 -334.5 161t-74.5 419q36 248 184.5 399.5t366.5 151.5q121 0 203.5 -52.5t125.5 -146.5l25 166h176l-149 -1065h-176l24 158q-137 -194 -371 -191zM563 119q152 0 264 118t138 304q26 181 -49.5 293
t-223.5 112t-259.5 -117t-137.5 -301q-26 -183 48.5 -296t219.5 -113z" />
    <glyph glyph-name="adieresis.ss01" horiz-adv-x="1280" 
d="M541 1243q-56 0 -89.5 38.5t-27.5 94.5q7 55 52 93t102 38q54 0 86.5 -38t25.5 -93t-51.5 -94t-97.5 -39zM901 1243q-56 0 -89.5 38.5t-27.5 94.5q7 55 52 93t102 38q55 0 88 -37.5t25 -93.5q-6 -55 -51.5 -94t-98.5 -39zM530 -33q-224 0 -334.5 161t-74.5 419
q36 248 184.5 399.5t366.5 151.5q121 0 203.5 -52.5t125.5 -146.5l25 166h176l-149 -1065h-176l24 158q-137 -194 -371 -191zM563 119q152 0 264 118t138 304q26 181 -49.5 293t-223.5 112t-259.5 -117t-137.5 -301q-26 -183 48.5 -296t219.5 -113z" />
    <glyph glyph-name="agrave.ss01" horiz-adv-x="1280" 
d="M633 1536l117 -307h-101l-223 307h207zM530 -33q-224 0 -334.5 161t-74.5 419q36 248 184.5 399.5t366.5 151.5q121 0 203.5 -52.5t125.5 -146.5l25 166h176l-149 -1065h-176l24 158q-137 -194 -371 -191zM563 119q152 0 264 118t138 304q26 181 -49.5 293t-223.5 112
t-259.5 -117t-137.5 -301q-26 -183 48.5 -296t219.5 -113z" />
    <glyph glyph-name="amacron.ss01" horiz-adv-x="1280" 
d="M1075 1298l-710 -2l14 123l711 2zM530 -33q-224 0 -334.5 161t-74.5 419q36 248 184.5 399.5t366.5 151.5q121 0 203.5 -52.5t125.5 -146.5l25 166h176l-149 -1065h-176l24 158q-137 -194 -371 -191zM563 119q152 0 264 118t138 304q26 181 -49.5 293t-223.5 112
t-259.5 -117t-137.5 -301q-26 -183 48.5 -296t219.5 -113z" />
    <glyph glyph-name="aogonek.ss01" horiz-adv-x="1280" 
d="M1053 0h-86q-110 -76 -125 -178q-11 -76 43 -119t162 -43l-15 -104q-169 -15 -256.5 48t-73.5 171q10 81 57.5 147.5t121.5 108.5l20 127q-137 -194 -371 -191q-224 0 -334.5 161t-74.5 419q36 248 184.5 399.5t366.5 151.5q121 0 203.5 -52.5t125.5 -146.5l25 166h176z
M563 119q152 0 264 118t138 304q26 181 -49.5 293t-223.5 112t-259.5 -117t-137.5 -301q-26 -183 48.5 -296t219.5 -113z" />
    <glyph glyph-name="aring.ss01" horiz-adv-x="1280" 
d="M715 1217q-100 0 -159 68.5t-44 168.5q14 100 92.5 169t179.5 69q100 0 159 -69t44 -169q-14 -100 -92.5 -168.5t-179.5 -68.5zM733 1337q47 0 87 35t46 82q8 48 -21.5 82.5t-78.5 34.5q-47 0 -87 -35t-46 -82q-8 -48 21.5 -82.5t78.5 -34.5zM530 -33q-224 0 -334.5 161
t-74.5 419q36 248 184.5 399.5t366.5 151.5q121 0 203.5 -52.5t125.5 -146.5l25 166h176l-149 -1065h-176l24 158q-137 -194 -371 -191zM563 119q152 0 264 118t138 304q26 181 -49.5 293t-223.5 112t-259.5 -117t-137.5 -301q-26 -183 48.5 -296t219.5 -113z" />
    <glyph glyph-name="atilde.ss01" horiz-adv-x="1280" 
d="M864 1292q-43 0 -82 18t-62.5 39.5t-54.5 39.5t-61 18q-49 0 -82 -31.5t-41 -81.5h-116q12 104 83.5 170t172.5 66q41 0 79 -18t62 -39.5t56 -39.5t63 -18q46 0 78 32t40 83h121q-12 -106 -83.5 -172t-172.5 -66zM530 -33q-224 0 -334.5 161t-74.5 419
q36 248 184.5 399.5t366.5 151.5q121 0 203.5 -52.5t125.5 -146.5l25 166h176l-149 -1065h-176l24 158q-137 -194 -371 -191zM563 119q152 0 264 118t138 304q26 181 -49.5 293t-223.5 112t-259.5 -117t-137.5 -301q-26 -183 48.5 -296t219.5 -113z" />
    <glyph glyph-name="k.ss01" horiz-adv-x="1210" 
d="M258 0h-176l227 1618h176l-135 -952l586 399h258l-690 -463l577 -602h-239l-506 537z" />
    <glyph glyph-name="uni0137.ss01" horiz-adv-x="1210" 
d="M258 0h-176l227 1618h176l-135 -952l586 399h258l-690 -463l577 -602h-239l-506 537zM401 -602h-114l155 426h197z" />
    <glyph glyph-name="t.ss01" horiz-adv-x="884" 
d="M424 0h-176l129 911h-281l21 154h280l33 246l191 104l-48 -350h363l-21 -154h-362z" />
    <glyph glyph-name="tbar.ss01" horiz-adv-x="884" 
d="M936 1065l-21 -154h-362l-37 -264h272l-12 -153h-282l-70 -494h-176l69 492h-182l12 153h193l37 266h-281l21 154h280l33 246l191 104l-48 -350h363z" />
    <glyph glyph-name="tcaron.ss01" horiz-adv-x="884" 
d="M809 1311h-100l159 307h207zM424 0h-176l129 911h-281l21 154h280l33 246l191 104l-48 -350h363l-21 -154h-362z" />
    <glyph glyph-name="uni0163.ss01" horiz-adv-x="884" 
d="M621 1415l-48 -350h363l-21 -154h-362l-129 -911h-27l-133 -168q51 19 98.5 8.5t83 -37t53 -75t9.5 -105.5q-15 -112 -90 -173.5t-193 -61.5t-175 66t-40 184h109q-11 -75 20.5 -117.5t98.5 -42.5t109.5 38.5t51.5 106.5q9 62 -23 101.5t-87 39.5q-59 0 -105 -26l-45 59
l152 203h-43l129 911h-281l21 154h280l33 246z" />
    <glyph glyph-name="uni021B.ss01" horiz-adv-x="884" 
d="M424 0h-176l129 911h-281l21 154h280l33 246l191 104l-48 -350h363l-21 -154h-362zM195 -602h-115l156 426h196z" />
    <glyph glyph-name="zero.tf" horiz-adv-x="1638" 
d="M971 1651q308 0 451.5 -224.5t86.5 -621.5q-56 -396 -254 -617t-499 -221q-315 0 -460.5 228t-88.5 634q54 389 254.5 605.5t509.5 216.5zM393 821q-40 -277 29 -454l782 1032q-90 84 -239 84q-225 0 -377 -176t-195 -486zM1325 834q34 245 -20 407l-779 -1028
q93 -78 236 -78q218 0 367.5 185.5t195.5 513.5z" />
    <glyph glyph-name="one.tf" horiz-adv-x="1638" 
d="M1096 1618l-203 -1446h410l-23 -172h-1036l24 172h447l170 1217l-518 -269l24 195l584 303h121z" />
    <glyph glyph-name="two.tf" horiz-adv-x="1638" 
d="M1321 0h-1135l15 102q13 92 56 174.5t104.5 145t138.5 119t160 104t165.5 92t158 90.5t135.5 92.5t100 104.5t49 121q22 160 -60 249t-254 89q-209 0 -323 -122t-111 -333h-184q15 299 178 461t451 162q266 0 395.5 -132.5t95.5 -369.5q-15 -107 -73.5 -198t-142 -156
t-182 -123t-199 -111.5t-188 -108.5t-154 -127t-91.5 -155l922 6z" />
    <glyph glyph-name="three.tf" horiz-adv-x="1638" 
d="M741 -33q-173 0 -297.5 74.5t-179 204.5t-31.5 293h179q-19 -186 70.5 -295t258.5 -109q183 0 306 101.5t145 269.5q19 145 -68 232t-252 87q-80 0 -149 -26l-88 102l565 549h-803l23 168h1089l-14 -117l-580 -534q110 1 201 -33t152.5 -95.5t88.5 -154t11 -203.5
q-32 -228 -205 -371t-422 -143z" />
    <glyph glyph-name="four.tf" horiz-adv-x="1638" 
d="M1112 0h-166l64 457h-873l17 133l921 1028h264l-139 -993h242l-25 -168h-241zM1153 1468l-750 -843h629z" />
    <glyph glyph-name="five.tf" horiz-adv-x="1638" 
d="M725 -33q-253 0 -390 145t-106 371h185q-10 -158 75.5 -253t237.5 -95q181 0 306.5 115.5t148.5 298.5q20 155 -74 250.5t-274 95.5q-107 0 -211 -49t-177 -127l-114 55l209 844h927l-22 -168h-776l-131 -494q154 105 360 105q241 0 371 -154.5t96 -396.5
q-34 -245 -210 -394t-431 -149z" />
    <glyph glyph-name="six.tf" horiz-adv-x="1638" 
d="M743 -33q-296 0 -417.5 213t-65.5 613q57 405 247 631.5t468 226.5q225 0 350.5 -126t122.5 -345h-186q-3 145 -81.5 224t-217.5 79q-188 0 -327 -181t-200 -507q67 108 193 171.5t266 63.5q159 0 274 -65t167 -182.5t30 -268.5q-34 -241 -209 -394t-414 -153zM756 135
q161 0 280 105t142 268q23 158 -62 259t-242 101q-165 0 -285 -105.5t-143 -270.5q-22 -157 65 -257t245 -100z" />
    <glyph glyph-name="seven.tf" horiz-adv-x="1638" 
d="M651 0h-219l871 1450h-975l22 168h1198l-12 -105z" />
    <glyph glyph-name="eight.tf" horiz-adv-x="1638" 
d="M733 -33q-260 0 -400.5 136.5t-111.5 355.5q19 138 120.5 252.5t246.5 158.5q-96 45 -151 150.5t-38 224.5q26 182 178.5 294t374.5 112q227 0 353 -118.5t100 -307.5q-17 -115 -98 -216t-193 -143q126 -45 197 -164.5t51 -263.5q-29 -211 -203 -341t-426 -130zM856 934
q142 0 243 83t120 214q15 114 -60 184t-213 70q-144 0 -243.5 -74.5t-116.5 -193.5q-17 -125 57 -204t213 -79zM739 133q171 0 289 89t137 231q20 143 -68 232t-253 89q-171 0 -290.5 -93t-141.5 -243q-19 -135 71.5 -220t255.5 -85z" />
    <glyph glyph-name="nine.tf" horiz-adv-x="1638" 
d="M729 -33q-227 0 -353.5 126.5t-123.5 346.5h188q0 -147 78 -226t219 -79q191 0 330 181t197 507q-65 -107 -191 -171t-264 -64q-246 0 -375.5 150.5t-93.5 404.5q19 141 104.5 257t219 183.5t288.5 67.5q298 0 423.5 -207.5t72.5 -583.5q-61 -429 -251 -661t-468 -232z
M825 750q165 0 285 105.5t143 270.5q22 157 -64.5 257t-244.5 100q-162 0 -280.5 -105t-143.5 -268q-22 -158 63 -259t242 -101z" />
    <glyph glyph-name="GoodTypeFoundry" horiz-adv-x="1943" 
d="M1012 -31q-173 0 -329.5 68t-268.5 182t-178 269t-66 323t67.5 323t180.5 268t269 181t325 68q168 0 322.5 -67t268 -179.5t181 -268t67.5 -325.5q0 -173 -68 -329.5t-181.5 -268.5t-268 -178t-321.5 -66zM1012 143q136 0 259 52.5t212 142t141.5 213t52.5 260.5
t-52.5 260.5t-141.5 212t-212 141t-259 52.5q-183 0 -336.5 -88.5t-242.5 -242t-89 -335.5q0 -137 52.5 -260.5t142 -213t213 -142t260.5 -52.5zM795 911q-64 0 -108 43t-44 107q0 60 44.5 102.5t107.5 42.5q62 0 106.5 -42.5t44.5 -102.5q0 -64 -44.5 -107t-106.5 -43z
M1243 911q-63 0 -105 43t-42 107q0 61 42 103t105 42q62 0 106 -42.5t44 -102.5q0 -64 -44 -107t-106 -43zM1012 324q-142 0 -256.5 52.5t-182 152.5t-67.5 231l147 20q3 -48 23 -92t59 -84t110.5 -64t166.5 -24q94 0 165.5 24t111 64t59 84t20.5 92l148 -20
q0 -133 -69.5 -233.5t-183 -151.5t-251.5 -51z" />
    </font>
</defs>
</svg>
