<?xml version="1.0" standalone="no"?>
<!DOCTYPE svg PUBLIC "-//W3C//DTD SVG 1.1//EN" "http://www.w3.org/Graphics/SVG/1.1/DTD/svg11.dtd" >
<svg xmlns="http://www.w3.org/2000/svg" xmlns:xlink="http://www.w3.org/1999/xlink" version="1.1">
<metadata>
Created by FontForge 20201107 at Thu Sep 19 17:00:54 2024
 By 
Copyright (c) 2018 by Kenneth Knutsen Good Type Foundry. All rights reserved.
</metadata>
<defs>
<font id="GoodSans-Bold" horiz-adv-x="0" >
  <font-face 
    font-family="Good Sans Bold"
    font-weight="700"
    font-stretch="normal"
    units-per-em="2048"
    panose-1="0 0 8 0 0 0 0 0 0 0"
    ascent="1638"
    descent="-410"
    x-height="1065"
    cap-height="1597"
    bbox="-1964 -690 2902 2300"
    underline-thickness="102"
    underline-position="-204"
    unicode-range="U+0020-25CA"
  />
<missing-glyph horiz-adv-x="1927" 
d="M965 -31q-173 0 -329.5 68t-268.5 182t-178 269t-66 323t67.5 323t180.5 268t269 181t325 68q168 0 322.5 -67t268 -179.5t181 -268t67.5 -325.5q0 -173 -68 -329.5t-181.5 -268.5t-268 -178t-321.5 -66zM965 143q136 0 259 52.5t212 142t141.5 213t52.5 260.5
t-52.5 260.5t-141.5 212t-212 141t-259 52.5q-183 0 -336.5 -88.5t-242.5 -242t-89 -335.5q0 -137 52.5 -260.5t142 -213t213 -142t260.5 -52.5zM748 911q-64 0 -108 43t-44 107q0 60 44.5 102.5t107.5 42.5q62 0 106.5 -42.5t44.5 -102.5q0 -64 -44.5 -107t-106.5 -43z
M1196 911q-63 0 -105 43t-42 107q0 61 42.5 103t104.5 42t106 -42.5t44 -102.5q0 -64 -44 -107t-106 -43zM965 324q-142 0 -256.5 52.5t-182 152.5t-67.5 231l147 20q3 -48 23 -92t59 -84t110.5 -64t166.5 -24q94 0 165.5 24t111 64t59 84t20.5 92l147 -20
q0 -133 -69 -233.5t-182.5 -151.5t-251.5 -51z" />
    <glyph glyph-name=".notdef" horiz-adv-x="1927" 
d="M965 -31q-173 0 -329.5 68t-268.5 182t-178 269t-66 323t67.5 323t180.5 268t269 181t325 68q168 0 322.5 -67t268 -179.5t181 -268t67.5 -325.5q0 -173 -68 -329.5t-181.5 -268.5t-268 -178t-321.5 -66zM965 143q136 0 259 52.5t212 142t141.5 213t52.5 260.5
t-52.5 260.5t-141.5 212t-212 141t-259 52.5q-183 0 -336.5 -88.5t-242.5 -242t-89 -335.5q0 -137 52.5 -260.5t142 -213t213 -142t260.5 -52.5zM748 911q-64 0 -108 43t-44 107q0 60 44.5 102.5t107.5 42.5q62 0 106.5 -42.5t44.5 -102.5q0 -64 -44.5 -107t-106.5 -43z
M1196 911q-63 0 -105 43t-42 107q0 61 42.5 103t104.5 42t106 -42.5t44 -102.5q0 -64 -44 -107t-106 -43zM965 324q-142 0 -256.5 52.5t-182 152.5t-67.5 231l147 20q3 -48 23 -92t59 -84t110.5 -64t166.5 -24q94 0 165.5 24t111 64t59 84t20.5 92l147 -20
q0 -133 -69 -233.5t-182.5 -151.5t-251.5 -51z" />
    <glyph glyph-name=".null" 
 />
    <glyph glyph-name="nonmarkingreturn" horiz-adv-x="682" 
 />
    <glyph glyph-name="space" unicode=" " horiz-adv-x="614" 
 />
    <glyph glyph-name="exclam" unicode="!" horiz-adv-x="626" 
d="M465 547h-301l-8 1071h317zM315 -29q-85 0 -139.5 54t-54.5 137t54.5 136.5t139.5 53.5q84 0 138.5 -53.5t54.5 -136.5t-55 -137t-138 -54z" />
    <glyph glyph-name="quotedbl" unicode="&#x22;" horiz-adv-x="940" 
d="M342 1128h-178l-41 490h260zM776 1128h-178l-41 490h260z" />
    <glyph glyph-name="numbersign" unicode="#" horiz-adv-x="1882" 
d="M594 0h-320l95 408h-260v272h321l62 270h-281v273h342l90 395h320l-91 -395l334 2l90 393h318l-88 -393h248v-273h-312l-61 -272h270v-270h-332l-94 -410h-317l92 410l-332 -2zM811 950l-61 -270h331l64 272z" />
    <glyph glyph-name="dollar" unicode="$" horiz-adv-x="1591" 
d="M1477 483q0 -208 -146.5 -346t-406.5 -164v-178h-260v182q-252 34 -400.5 184.5t-148.5 387.5h358q3 -98 52 -165.5t139 -98.5v403q-60 7 -107 16t-101.5 25t-94.5 37.5t-79.5 55t-64.5 76t-40 101.5t-15 131q0 201 133.5 331t368.5 161v201h260v-201
q243 -30 388.5 -169.5t145.5 -354.5h-352q-6 83 -52.5 139.5t-129.5 81.5v-379q66 -7 114.5 -14t110 -22.5t105 -36.5t88.5 -55.5t72.5 -78.5t45 -108t17.5 -142zM492 1135q0 -68 44 -104.5t128 -55.5v346q-172 -41 -172 -186zM924 655v-385q107 19 164 73t57 136
q0 79 -56.5 118t-164.5 58z" />
    <glyph glyph-name="percent" unicode="%" horiz-adv-x="2557" 
d="M575 844q-164 0 -274.5 115t-110.5 292q0 176 110.5 292t274.5 116q165 0 276.5 -116t111.5 -292q0 -177 -111 -292t-277 -115zM1892 1618l-1161 -1618h-391l1161 1618h391zM575 1083q64 0 106 47t42 121t-42 121t-106 47t-105.5 -47t-41.5 -121t41.5 -121t105.5 -47z
M1982 -20q-165 0 -276 115.5t-111 291.5q0 177 111 292.5t276 115.5q164 0 274.5 -115.5t110.5 -292.5t-110.5 -292t-274.5 -115zM1982 219q64 0 106 47t42 121t-42 121t-106 47t-105.5 -47t-41.5 -121t41.5 -121t105.5 -47z" />
    <glyph glyph-name="ampersand" unicode="&#x26;" horiz-adv-x="1794" 
d="M698 -33q-248 0 -402.5 127t-154.5 332q0 128 76.5 228.5t231.5 187.5q-92 100 -140.5 193.5t-48.5 195.5q0 188 151.5 304t393.5 116q218 0 359 -121t141 -297q0 -150 -85 -253t-288 -218l266 -244q118 160 133 397h328q-24 -351 -236 -608l332 -307h-407l-134 121
q-228 -154 -516 -154zM711 967q151 58 218.5 108.5t67.5 126.5q0 72 -53.5 113t-146.5 41q-101 0 -158 -44t-57 -122q0 -94 129 -223zM727 276q145 0 252 64l-317 293q-193 -89 -193 -197q0 -73 69.5 -116.5t188.5 -43.5z" />
    <glyph glyph-name="quotesingle" unicode="'" horiz-adv-x="505" 
d="M342 1128h-178l-41 490h260z" />
    <glyph glyph-name="parenleft" unicode="(" horiz-adv-x="1040" 
d="M850 -211h-330q-155 188 -242.5 460.5t-87.5 571.5q0 279 87 540t243 449h330q-159 -195 -251.5 -456.5t-92.5 -532.5q0 -288 92.5 -561t251.5 -471z" />
    <glyph glyph-name="parenright" unicode=")" horiz-adv-x="1067" 
d="M547 -211h-330q159 198 251.5 471t92.5 561q0 271 -92.5 532.5t-251.5 456.5h330q156 -188 243 -449t87 -540q0 -299 -87.5 -571.5t-242.5 -460.5z" />
    <glyph glyph-name="asterisk" unicode="*" horiz-adv-x="1294" 
d="M776 721h-258l51 295l-213 -211l-149 211l319 153l-319 150l149 213l213 -213l-51 299h258l-51 -301l215 215l150 -213l-320 -150l320 -153l-150 -211l-215 215z" />
    <glyph glyph-name="plus" unicode="+" horiz-adv-x="1445" 
d="M860 199l-272 -2v374h-398v273h396v379h272v-377h397v-273h-395v-374z" />
    <glyph glyph-name="comma" unicode="," horiz-adv-x="604" 
d="M285 -211h-209l125 508h325z" />
    <glyph glyph-name="hyphen" unicode="-" horiz-adv-x="1404" 
d="M1214 590h-1024v303h1024v-303z" />
    <glyph glyph-name="period" unicode="." horiz-adv-x="598" 
d="M301 -29q-85 0 -141 54t-56 137t56 136.5t141 53.5q84 0 138.5 -53.5t54.5 -136.5t-55 -137t-138 -54z" />
    <glyph glyph-name="slash" unicode="/" horiz-adv-x="1634" 
d="M1593 1618l-1161 -1618h-391l1159 1618h393z" />
    <glyph glyph-name="zero" unicode="0" horiz-adv-x="1632" 
d="M821 -33q-338 0 -527.5 224.5t-189.5 625.5q0 393 189.5 613.5t527.5 220.5q333 0 520 -220.5t187 -613.5q0 -401 -187 -625.5t-520 -224.5zM821 276q178 0 277.5 145.5t99.5 405.5q0 243 -99.5 378.5t-277.5 135.5q-183 0 -286 -135.5t-103 -378.5q0 -259 103 -405
t286 -146z" />
    <glyph glyph-name="one" unicode="1" horiz-adv-x="980" 
d="M823 0h-319v1219l-465 -248v344l563 303h221v-1618z" />
    <glyph glyph-name="two" unicode="2" horiz-adv-x="1441" 
d="M1335 0h-1206v143q0 114 30 208.5t80.5 159.5t116 118t138 90t145.5 70t138.5 64.5t116 66t80.5 81.5t30 105q0 102 -73.5 168.5t-201.5 66.5q-149 0 -224.5 -83t-53.5 -230h-330q-26 292 138 457.5t476 165.5q284 0 441 -137.5t157 -391.5q0 -94 -27 -172t-73 -133
t-105.5 -100t-125.5 -77.5t-132.5 -61.5t-126.5 -56.5t-106.5 -56.5t-75 -68t-29.5 -86h803v-311z" />
    <glyph glyph-name="three" unicode="3" horiz-adv-x="1419" 
d="M715 -33q-281 0 -458 160.5t-177 411.5h326q5 -122 87 -192.5t220 -70.5q142 0 224.5 64.5t82.5 175.5q0 106 -78.5 169t-214.5 63q-81 0 -145 -25l-164 178l387 408h-666v309h1184v-205l-461 -438q76 -6 145 -26.5t130 -59.5t105.5 -93.5t70.5 -132t26 -169.5
q0 -232 -174 -379.5t-450 -147.5z" />
    <glyph glyph-name="four" unicode="4" horiz-adv-x="1501" 
d="M1225 0h-303v397h-848v287l719 934h432v-911h217v-310h-217v-397zM922 1286l-435 -579h435v579z" />
    <glyph glyph-name="five" unicode="5" horiz-adv-x="1458" 
d="M725 -33q-271 0 -440 145.5t-179 393.5h330q14 -105 91.5 -167.5t195.5 -62.5q142 0 224.5 71t82.5 190q0 117 -87.5 185.5t-237.5 68.5q-85 0 -170.5 -32t-149.5 -87l-192 102l79 844h1010v-309h-739l-37 -314q122 88 307 88q248 0 397.5 -146t149.5 -380
q0 -281 -172 -435.5t-463 -154.5z" />
    <glyph glyph-name="six" unicode="6" horiz-adv-x="1445" 
d="M735 -33q-158 0 -278.5 59t-195.5 168t-112.5 256.5t-37.5 331.5q0 410 175 639.5t462 229.5q254 0 407.5 -131t175.5 -363l-330 -2q-12 87 -81.5 136.5t-180.5 49.5q-129 0 -213 -112.5t-112 -319.5q59 68 152 106t200 38q259 0 409 -142t150 -387q0 -122 -45.5 -226.5
t-124.5 -177t-188 -113t-232 -40.5zM735 276q118 0 193.5 69.5t75.5 178.5t-74 179.5t-191 70.5q-118 0 -192 -70.5t-74 -181.5q0 -108 73.5 -177t188.5 -69z" />
    <glyph glyph-name="seven" unicode="7" horiz-adv-x="1347" 
d="M662 0h-386l607 1309h-836v309h1256v-174z" />
    <glyph glyph-name="eight" unicode="8" horiz-adv-x="1464" 
d="M733 -33q-286 0 -456.5 130t-170.5 352q0 154 89.5 270t207.5 149q-88 31 -163.5 133.5t-75.5 233.5q0 190 157 303t412 113q253 0 410 -113t157 -303q0 -131 -75.5 -233.5t-163.5 -133.5q118 -33 207.5 -149t89.5 -270q0 -222 -170.5 -352t-454.5 -130zM733 993
q101 0 169.5 52t68.5 135q0 78 -69 127t-169 49q-102 0 -170.5 -49t-68.5 -127q0 -83 68.5 -135t170.5 -52zM733 262q129 0 208 59t79 158q0 102 -79.5 164t-207.5 62q-130 0 -209.5 -62t-79.5 -164q0 -99 79.5 -158t209.5 -59z" />
    <glyph glyph-name="nine" unicode="9" horiz-adv-x="1447" 
d="M686 -33q-254 0 -408 131t-176 363l330 2q12 -88 82 -137.5t180 -49.5q126 0 212 114.5t114 318.5q-59 -68 -152 -106t-200 -38q-260 0 -409.5 144t-149.5 397q0 117 45.5 219t124 173.5t187.5 112t232 40.5q210 0 356 -100t215.5 -275t69.5 -414q0 -209 -49.5 -379
t-136.5 -282.5t-206.5 -173t-260.5 -60.5zM694 844q118 0 192.5 70.5t74.5 181.5q0 107 -74 176t-189 69q-118 0 -193 -69t-75 -178t74 -179.5t190 -70.5z" />
    <glyph glyph-name="colon" unicode=":" horiz-adv-x="598" 
d="M301 733q-85 0 -141 54t-56 137t56 136.5t141 53.5q84 0 138.5 -53.5t54.5 -136.5t-55 -137t-138 -54zM301 -29q-85 0 -141 54t-56 137t56 136.5t141 53.5q84 0 138.5 -53.5t54.5 -136.5t-55 -137t-138 -54z" />
    <glyph glyph-name="semicolon" unicode=";" horiz-adv-x="600" 
d="M301 733q-85 0 -141 54t-56 137t56 136.5t141 53.5q84 0 138.5 -53.5t54.5 -136.5t-55 -137t-138 -54zM229 -211h-209l125 508h324z" />
    <glyph glyph-name="less" unicode="&#x3c;" horiz-adv-x="1404" 
d="M1214 313v-315l-1024 405v340l1024 406v-315l-624 -261z" />
    <glyph glyph-name="equal" unicode="=" horiz-adv-x="1445" 
d="M1255 770l-1065 -2v272l1065 2v-272zM1255 369l-1065 -2v270l1065 2v-270z" />
    <glyph glyph-name="greater" unicode="&#x3e;" horiz-adv-x="1404" 
d="M1214 403l-1024 -405v315l625 260l-625 261v315l1024 -406v-340z" />
    <glyph glyph-name="question" unicode="?" horiz-adv-x="1409" 
d="M821 526h-319q-3 77 21 138.5t65 102t91 74.5t101 64t93.5 61t69 74.5t26.5 96.5q0 92 -72.5 148t-196.5 56q-147 0 -221 -81t-53 -226h-328q-26 289 137.5 453t471.5 164q283 0 435 -120t152 -364q0 -77 -27 -142t-69.5 -109t-94 -82.5t-102.5 -71.5t-92.5 -66.5
t-66 -76.5t-21.5 -93zM664 -29q-85 0 -140 54t-55 137t55 136.5t140 53.5t138.5 -53.5t53.5 -136.5t-54.5 -137t-137.5 -54z" />
    <glyph glyph-name="at" unicode="@" horiz-adv-x="2562" 
d="M1300 -514q-249 0 -459.5 81.5t-356 226t-227 348t-81.5 442.5q0 235 83.5 437t231 344.5t356.5 223.5t453 82q236 1 438.5 -72t345 -202t223.5 -312.5t81 -398.5q0 -133 -36.5 -248.5t-100.5 -197.5t-155.5 -129t-197.5 -48q-253 -3 -321 213q-114 -271 -408 -268
q-102 0 -192.5 42.5t-155 116.5t-97.5 181.5t-22 229.5q22 248 162.5 404.5t345.5 156.5q228 0 344 -154l11 121h305l-58 -586q-5 -87 21 -148t82 -61q88 0 151 119.5t62 296.5q-1 204 -107 362t-293.5 244.5t-427.5 87.5q-184 1 -341.5 -61t-268.5 -172t-174 -266t-63 -338
q0 -184 63 -342t174 -269t268.5 -174t341.5 -63q157 0 323.5 63t268.5 162l179 -184q-136 -130 -355 -210.5t-416 -80.5zM1237 270q113 0 193 86t90 219q12 132 -52 217t-178 85t-193 -84.5t-91 -217.5q-11 -134 53.5 -219.5t177.5 -85.5z" />
    <glyph glyph-name="A" unicode="A" horiz-adv-x="1835" 
d="M377 0h-344l706 1597h357l706 -1597h-344l-145 338h-789zM920 1245l-263 -598h523z" />
    <glyph glyph-name="B" unicode="B" horiz-adv-x="1591" 
d="M1167 838q144 -31 220.5 -136.5t76.5 -255.5q0 -194 -143.5 -320t-368.5 -126h-794v1597h741q233 0 365.5 -106.5t132.5 -298.5q0 -130 -61 -222.5t-169 -131.5zM784 1288h-307v-336h318q142 0 210 42t68 130q0 91 -68.5 127.5t-220.5 36.5zM477 309h367
q150 0 221.5 47.5t71.5 143.5q0 91 -69.5 133.5t-215.5 42.5h-375v-367z" />
    <glyph glyph-name="C" unicode="C" horiz-adv-x="1761" 
d="M922 -33q-240 0 -428.5 105.5t-294 297t-105.5 437.5q0 180 61.5 333.5t170 261t261.5 168t331 60.5q190 0 345.5 -70t258.5 -209t127 -327h-330q-26 138 -136 216.5t-270 80.5q-227 2 -359 -132.5t-132 -371.5q0 -252 130.5 -396.5t352.5 -144.5q175 0 291.5 86
t140.5 240h330q-31 -197 -139 -342.5t-264.5 -219t-341.5 -73.5z" />
    <glyph glyph-name="D" unicode="D" horiz-adv-x="1765" 
d="M844 0h-686v1597h686q384 0 605.5 -209t221.5 -587q0 -248 -103 -430t-289 -276.5t-435 -94.5zM477 1311v-1024h367q236 0 367.5 134.5t131.5 381.5q0 243 -131.5 375.5t-367.5 132.5h-367z" />
    <glyph glyph-name="E" unicode="E" horiz-adv-x="1521" 
d="M1380 0h-1222v1597h1212v-309h-893v-332h821v-294h-821v-353h903v-309z" />
    <glyph glyph-name="F" unicode="F" horiz-adv-x="1443" 
d="M477 0h-319v1597h1198v-286h-879v-340h807v-295h-807v-676z" />
    <glyph glyph-name="G" unicode="G" horiz-adv-x="1810" 
d="M881 -33q-236 0 -415.5 106t-275.5 296.5t-96 437.5q0 240 105 428t292.5 291.5t426.5 103.5q187 0 341.5 -63.5t259.5 -193t130 -308.5h-330q-26 119 -136 186.5t-270 69.5q-227 2 -359 -132.5t-132 -371.5q0 -253 129.5 -397t353.5 -144q188 0 304.5 90.5t119.5 231.5
h-438v270h784v-868h-264l-6 219q-72 -129 -196.5 -190.5t-327.5 -61.5z" />
    <glyph glyph-name="H" unicode="H" horiz-adv-x="1728" 
d="M477 0h-319v1597h319v-606h774v606h320v-1597h-320v684h-774v-684z" />
    <glyph glyph-name="I" unicode="I" horiz-adv-x="634" 
d="M477 0h-319v1597h319v-1597z" />
    <glyph glyph-name="J" unicode="J" horiz-adv-x="1378" 
d="M641 -27q-278 0 -429 157.5t-151 447.5h320q0 -143 66.5 -219t193.5 -76q128 0 196 85.5t68 247.5v981h320v-993q0 -302 -152 -466.5t-432 -164.5z" />
    <glyph glyph-name="K" unicode="K" horiz-adv-x="1675" 
d="M477 0h-319v1597h319v-669l725 669h436l-764 -696l777 -901h-424l-578 692l-172 -162v-530z" />
    <glyph glyph-name="L" unicode="L" horiz-adv-x="1355" 
d="M1276 0h-1118v1597h319v-1318h799v-279z" />
    <glyph glyph-name="M" unicode="M" horiz-adv-x="2189" 
d="M477 0h-319v1597h485l453 -1136l450 1136h486v-1597h-318v1151l-475 -1151h-287l-475 1151v-1151z" />
    <glyph glyph-name="N" unicode="N" horiz-adv-x="1800" 
d="M477 0h-319v1597h340l825 -1091v1091h317v-1597h-335l-828 1104v-1104z" />
    <glyph glyph-name="O" unicode="O" horiz-adv-x="1822" 
d="M918 -33q-246 0 -433.5 106t-289 296.5t-101.5 437.5q0 242 101.5 428.5t289 290.5t433.5 104q241 0 426 -104t285 -290.5t100 -428.5q0 -247 -100 -437.5t-285 -296.5t-426 -106zM918 276q223 0 352 144t129 397q0 234 -129 369t-352 135q-229 0 -362.5 -135
t-133.5 -369q0 -253 133 -397t363 -144z" />
    <glyph glyph-name="P" unicode="P" horiz-adv-x="1540" 
d="M477 0h-319v1597h749q264 0 408.5 -132t144.5 -369q0 -241 -146 -386t-407 -145h-430v-565zM477 1288v-416h363q141 0 215.5 55t74.5 154q0 98 -77.5 152.5t-223.5 54.5h-352z" />
    <glyph glyph-name="Q" unicode="Q" horiz-adv-x="1865" 
d="M1602 322l323 -322h-401l-115 115q-209 -148 -491 -148q-246 0 -433.5 106t-289 296.5t-101.5 437.5q0 242 101.5 428.5t289 290.5t433.5 104q241 0 426 -104t285 -290.5t100 -428.5q0 -279 -127 -485zM918 276q151 0 260 68l-478 475h400l256 -254q43 107 43 252
q0 234 -129 369t-352 135q-229 0 -362.5 -135t-133.5 -369q0 -253 133 -397t363 -144z" />
    <glyph glyph-name="R" unicode="R" horiz-adv-x="1619" 
d="M477 0h-319v1597h749q264 0 408.5 -132t144.5 -369q0 -294 -241 -402q83 -25 128 -83.5t62 -164.5q10 -68 17.5 -140t11 -106.5t16 -81t35.5 -98.5v-20h-338q-12 28 -20.5 56.5t-16.5 70.5t-11 63t-11.5 83.5t-10.5 80.5q-7 55 -13.5 87.5t-19 62.5t-28.5 45t-43.5 26.5
t-62 15t-87.5 3.5h-350v-594zM477 1288v-416h377q139 0 207.5 54t68.5 155q0 99 -71 153t-215 54h-367z" />
    <glyph glyph-name="S" unicode="S" horiz-adv-x="1591" 
d="M809 -33q-205 0 -361.5 68t-244.5 201t-88 313h358q5 -136 94.5 -211.5t249.5 -75.5q156 0 242 58t86 159q0 59 -33.5 97t-90.5 56.5t-131 28.5t-155 18.5t-162.5 21t-155.5 41.5t-131 74.5t-90.5 125t-33.5 188.5q0 230 172 365t465 135q294 0 476.5 -144.5
t182.5 -387.5h-352q-9 113 -90 175t-223 62q-146 0 -223.5 -52t-77.5 -148q0 -44 21 -75.5t51 -50t84.5 -31t99.5 -18.5t117 -13q63 -6 96 -9.5t93 -13.5t94.5 -20t85.5 -29t80.5 -41.5t64.5 -57t53.5 -75.5t31.5 -96.5t13 -121.5q0 -231 -179 -373.5t-489 -142.5z" />
    <glyph glyph-name="T" unicode="T" horiz-adv-x="1517" 
d="M920 0h-320v1286h-551v311h1421v-311h-550v-1286z" />
    <glyph glyph-name="U" unicode="U" horiz-adv-x="1687" 
d="M844 -27q-331 3 -517 189.5t-186 515.5v919h318v-917q0 -187 101.5 -292t283.5 -105q181 0 282 104.5t101 292.5v917h319v-919q0 -334 -186 -521t-516 -184z" />
    <glyph glyph-name="V" unicode="V" horiz-adv-x="1695" 
d="M1022 0h-346l-629 1597h330l471 -1226l473 1226h328z" />
    <glyph glyph-name="W" unicode="W" horiz-adv-x="2514" 
d="M891 0h-352l-482 1597h353l309 -1173l338 1173h389l348 -1175l311 1175h353l-482 -1597h-352l-371 1139z" />
    <glyph glyph-name="X" unicode="X" horiz-adv-x="1695" 
d="M438 0h-391l604 799l-604 798h393l408 -538l407 538h394l-605 -798l605 -799h-392l-409 541z" />
    <glyph glyph-name="Y" unicode="Y" horiz-adv-x="1597" 
d="M958 0h-319v627l-612 970h352l420 -682l420 682h352l-613 -970v-627z" />
    <glyph glyph-name="Z" unicode="Z" horiz-adv-x="1495" 
d="M1374 0h-1268v219l816 1090h-828v288h1307v-174l-830 -1134h803v-289z" />
    <glyph glyph-name="bracketleft" unicode="[" horiz-adv-x="1091" 
d="M901 -252l-711 -2v2105h711v-301h-391v-1501h391v-301z" />
    <glyph glyph-name="backslash" unicode="\" horiz-adv-x="1634" 
d="M1593 0h-393l-1159 1618h391z" />
    <glyph glyph-name="bracketright" unicode="]" horiz-adv-x="1091" 
d="M901 1851v-2105l-711 2v301h392v1501h-392v301h711z" />
    <glyph glyph-name="asciicircum" unicode="^" horiz-adv-x="1603" 
d="M510 819h-320l433 799h362l428 -799h-319l-291 520z" />
    <glyph glyph-name="underscore" unicode="_" horiz-adv-x="1544" 
d="M1354 -272l-1164 -2v272l1164 2v-272z" />
    <glyph glyph-name="grave" unicode="`" horiz-adv-x="1228" 
d="M489 1638l105 -307h-207l-244 307h346z" />
    <glyph glyph-name="a" unicode="a" horiz-adv-x="1288" 
d="M500 -33q-99 0 -175.5 26.5t-122 72t-68.5 101t-23 118.5q0 145 120.5 234t343.5 116l250 29v32q2 67 -46 103.5t-142 36.5q-88 0 -136 -38.5t-48 -107.5h-299q0 192 128.5 300t358.5 108q232 0 359.5 -106t127.5 -296v-360q0 -69 20 -93t81 -18v-217q-170 -38 -264 10.5
t-115 163.5q-86 -215 -350 -215zM561 193q105 0 171.5 70t80.5 181l-104 -12q-156 -20 -224.5 -48t-68.5 -83q0 -50 37.5 -79t107.5 -29z" />
    <glyph glyph-name="b" unicode="b" horiz-adv-x="1347" 
d="M797 -33q-242 0 -359 172v-139h-303v1618h303v-692q117 172 359 172q201 0 329.5 -157.5t128.5 -403.5q0 -250 -128.5 -410t-329.5 -160zM692 229q114 0 186 86t72 220q0 132 -72 216.5t-186 84.5q-112 0 -184 -84.5t-72 -216.5q0 -134 72 -220t184 -86z" />
    <glyph glyph-name="c" unicode="c" horiz-adv-x="1224" 
d="M645 -33q-245 0 -398 159t-153 409q0 248 153 405.5t398 157.5q196 0 334.5 -119t161.5 -305h-303q-11 71 -67.5 116.5t-137.5 45.5q-105 0 -169.5 -84t-64.5 -217q0 -135 64.5 -220.5t169.5 -85.5q84 0 140.5 44t64.5 114h303q-23 -185 -161.5 -302.5t-334.5 -117.5z
" />
    <glyph glyph-name="d" unicode="d" horiz-adv-x="1349" 
d="M551 -33q-201 0 -329 159.5t-128 410.5q0 246 128 403.5t329 157.5q241 0 358 -172v692h305v-1618h-305v139q-117 -172 -358 -172zM655 229q112 0 184 86t72 220q0 132 -72 216.5t-184 84.5q-114 0 -186 -84.5t-72 -216.5q0 -134 72 -220t186 -86z" />
    <glyph glyph-name="e" unicode="e" horiz-adv-x="1239" 
d="M645 -33q-244 0 -397.5 159t-153.5 409q0 248 153.5 405.5t397.5 157.5q216 0 358 -153t142 -404v-99h-742q23 -227 244 -227q78 0 129 37t60 94h305q-25 -172 -162 -275.5t-334 -103.5zM406 629h434q-5 92 -59 149.5t-148 57.5q-197 0 -227 -207z" />
    <glyph glyph-name="f" unicode="f" horiz-adv-x="913" 
d="M588 0h-305v788h-250v277h250v100q-3 210 106.5 333t312.5 120h156v-277h-70q-110 0 -154.5 -42.5t-45.5 -163.5v-70h291v-277h-291v-788z" />
    <glyph glyph-name="g" unicode="g" horiz-adv-x="1361" 
d="M666 -442q-489 0 -523 366h306q7 -69 69 -103t162 -34q126 0 186 70t58 215v75q-112 -153 -357 -153q-207 0 -332.5 145t-125.5 391q0 252 126.5 410t331.5 158q243 0 357 -168v135h305v-993q0 -514 -563 -514zM670 244q114 0 185 83.5t71 215.5q0 134 -71 219.5
t-185 85.5t-186 -85.5t-72 -219.5q0 -132 72 -215.5t186 -83.5z" />
    <glyph glyph-name="h" unicode="h" horiz-adv-x="1316" 
d="M438 0h-303v1618h303v-705q118 185 361 185q395 0 395 -494v-604h-307v590q0 117 -55 181.5t-154 64.5q-110 0 -175 -78t-65 -209v-549z" />
    <glyph glyph-name="i" unicode="i" horiz-adv-x="571" 
d="M287 1196q-85 0 -140 55t-55 138t55 135.5t140 52.5q84 0 138 -52.5t54 -135.5t-54.5 -138t-137.5 -55zM438 0h-305v1065h305v-1065z" />
    <glyph glyph-name="j" unicode="j" horiz-adv-x="571" 
d="M287 1196q-83 0 -139 55t-56 138t55.5 135.5t139.5 52.5q85 0 139.5 -52.5t54.5 -135.5t-55.5 -138t-138.5 -55zM-49 -410h-45v254h45q94 0 141 49.5t47 163.5v1008h303v-1067q0 -114 -33 -194t-98.5 -126.5t-153 -67t-206.5 -20.5z" />
    <glyph glyph-name="k" unicode="k" horiz-adv-x="1288" 
d="M438 0h-303v1618h303v-899l404 346h389l-504 -426l545 -639h-375l-377 463l-82 -68v-395z" />
    <glyph glyph-name="l" unicode="l" horiz-adv-x="573" 
d="M438 0h-303v1618h303v-1618z" />
    <glyph glyph-name="m" unicode="m" horiz-adv-x="2072" 
d="M438 0h-303v1065h303v-154q117 187 361 187q253 0 342 -203q146 203 413 203q398 0 398 -496v-602h-310v586q0 117 -55 183.5t-153 66.5q-110 0 -175 -79.5t-65 -211.5v-545h-307v586q0 117 -55.5 183.5t-153.5 66.5q-110 0 -175 -79.5t-65 -211.5v-545z" />
    <glyph glyph-name="n" unicode="n" horiz-adv-x="1316" 
d="M438 0h-303v1065h303v-154q117 187 361 187q395 0 395 -496v-602h-307v586q0 117 -55.5 183.5t-153.5 66.5q-110 0 -175 -79.5t-65 -211.5v-545z" />
    <glyph glyph-name="o" unicode="o" horiz-adv-x="1325" 
d="M662 -33q-250 0 -409 159.5t-159 408.5q0 248 159 405.5t409 157.5t409.5 -157.5t159.5 -405.5q0 -249 -159.5 -408.5t-409.5 -159.5zM662 229q117 0 190.5 86t73.5 220q0 132 -73.5 216.5t-190.5 84.5q-115 0 -189 -84.5t-74 -216.5q0 -134 74 -220t189 -86z" />
    <glyph glyph-name="p" unicode="p" horiz-adv-x="1347" 
d="M438 -410h-303v1475h303v-139q117 172 359 172q201 0 329.5 -160t128.5 -410q0 -246 -128.5 -403.5t-329.5 -157.5q-242 0 -359 172v-549zM692 229q114 0 186 84.5t72 216.5q0 134 -72 220t-186 86q-112 0 -184 -86t-72 -220q0 -132 72 -216.5t184 -84.5z" />
    <glyph glyph-name="q" unicode="q" horiz-adv-x="1347" 
d="M1214 -410h-305v549q-117 -172 -358 -172q-201 0 -329 157.5t-128 403.5q0 251 128 410.5t329 159.5q241 0 358 -172v139h305v-1475zM655 229q112 0 184 84.5t72 216.5q0 134 -72 220t-184 86q-114 0 -186 -86t-72 -220q0 -132 72 -216.5t186 -84.5z" />
    <glyph glyph-name="r" unicode="r" horiz-adv-x="886" 
d="M434 0h-299v1065h299v-201q104 213 418 213v-293q-53 0 -91.5 -1.5t-85 -6.5t-79 -13.5t-65 -24t-52.5 -37.5t-32.5 -54t-12.5 -72v-575z" />
    <glyph glyph-name="s" unicode="s" horiz-adv-x="1200" 
d="M610 -33q-236 0 -374 99t-142 274h301q3 -75 64.5 -118.5t158.5 -43.5q84 0 134.5 35.5t50.5 85.5q0 44 -37.5 69t-98 36.5t-133 20t-145 26.5t-133 48.5t-98 93.5t-37.5 155q0 162 134 256t368 94q213 0 341 -101t142 -278h-299q-5 79 -58 123.5t-145 44.5
q-84 0 -131 -34.5t-47 -92.5q0 -33 23.5 -54.5t62.5 -32.5t90 -18.5t107.5 -15.5t113 -19.5t107.5 -34t90 -56t62.5 -90t23.5 -130.5q0 -159 -132.5 -250.5t-363.5 -91.5z" />
    <glyph glyph-name="t" unicode="t" horiz-adv-x="964" 
d="M819 270v-268q-190 -16 -311 -6t-175.5 77t-51.5 214v501h-228v277h228v287h303v-287h278v-277h-278v-346q0 -51 1 -76t10 -50.5t21 -33.5t41.5 -14.5t64.5 -4.5t97 7z" />
    <glyph glyph-name="u" unicode="u" horiz-adv-x="1316" 
d="M879 1065h303v-1065h-303v154q-117 -187 -361 -187q-395 0 -395 496v602h307v-586q0 -117 55.5 -183.5t153.5 -66.5q110 0 175 79.5t65 211.5v545z" />
    <glyph glyph-name="v" unicode="v" horiz-adv-x="1308" 
d="M819 0h-330l-426 1065h318l274 -713l275 713h317z" />
    <glyph glyph-name="w" unicode="w" horiz-adv-x="1916" 
d="M729 0h-321l-365 1065h319l211 -664l228 664h313l229 -664l211 664h318l-365 -1065h-321l-228 639z" />
    <glyph glyph-name="x" unicode="x" horiz-adv-x="1325" 
d="M420 0h-367l426 535l-424 530h365l242 -301l241 301h367l-424 -530l426 -535h-367l-243 303z" />
    <glyph glyph-name="y" unicode="y" horiz-adv-x="1306" 
d="M283 -410h-131v269h104q100 -2 159.5 25.5t110.5 99.5l-463 1081h320l303 -711l264 711h320l-436 -1143q-78 -186 -210 -259t-341 -73z" />
    <glyph glyph-name="z" unicode="z" horiz-adv-x="1204" 
d="M1104 0h-1016v172l565 602h-526v291h967v-186l-543 -588h553v-291z" />
    <glyph glyph-name="braceleft" unicode="{" horiz-adv-x="1267" 
d="M1077 -252h-39q-116 0 -197.5 7t-149 25t-109 47t-70 76.5t-40 110t-11.5 150.5v278q0 148 -70 208.5t-201 60.5v190q132 0 201.5 59.5t69.5 206.5v265q0 89 11.5 152t40 111t70 77t109 47.5t149 25t197.5 6.5h39v-249h-63q-73 0 -118.5 -14.5t-71.5 -49.5t-35 -84
t-9 -129v-215q0 -135 -73 -206t-215 -99q141 -26 214.5 -97.5t73.5 -205.5v-232q0 -78 9 -126t35 -83t71.5 -49t118.5 -14h63v-250z" />
    <glyph glyph-name="bar" unicode="|" horiz-adv-x="729" 
d="M524 -410h-319v2028h319v-2028z" />
    <glyph glyph-name="braceright" unicode="}" horiz-adv-x="1267" 
d="M229 -252h-39v250h64q73 0 118 14t71 48.5t35 83t9 126.5v232q0 134 74 205.5t215 97.5q-142 28 -215.5 99t-73.5 206v215q0 80 -9 129t-35 84t-71 49.5t-118 14.5h-64v249h39q140 0 231.5 -10.5t162.5 -36.5t109 -74.5t56.5 -120t18.5 -177.5v-265q0 -147 69.5 -206.5
t200.5 -59.5v-190q-131 0 -200.5 -60.5t-69.5 -208.5v-278q0 -105 -18.5 -175.5t-56.5 -119t-109 -74.5t-162.5 -36.5t-231.5 -10.5z" />
    <glyph glyph-name="asciitilde" unicode="~" horiz-adv-x="1415" 
d="M897 571q-57 0 -113 20t-93 44.5t-78 44.5t-72 20q-57 0 -85 -33.5t-28 -91.5h-235q-13 155 75 241.5t256 86.5q55 0 109.5 -19.5t90.5 -43t78 -43t75 -19.5q106 0 106 125h242q13 -155 -74.5 -243.5t-253.5 -88.5z" />
    <glyph glyph-name="exclamdown" unicode="&#xa1;" horiz-adv-x="626" 
d="M315 1647q83 0 138 -54t55 -137t-54.5 -136.5t-138.5 -53.5q-85 0 -139.5 53.5t-54.5 136.5t54.5 137t139.5 54zM156 0l8 1071h301l8 -1071h-317z" />
    <glyph glyph-name="cent" unicode="&#xa2;" horiz-adv-x="1226" 
d="M633 229q84 0 140.5 44t64.5 114h303q-19 -150 -115 -257t-242 -146v-189h-319v199q-171 53 -271 197.5t-100 343.5q0 197 100 340t271 196v199h319v-191q146 -37 242 -145.5t115 -259.5h-303q-11 71 -67.5 116.5t-137.5 45.5q-105 0 -169.5 -84t-64.5 -217
q0 -135 64.5 -220.5t169.5 -85.5z" />
    <glyph glyph-name="sterling" unicode="&#xa3;" horiz-adv-x="1564" 
d="M580 307h780v-309h-1153v278q246 98 246 291q0 19 -4 47h-259v271h168q-73 176 -73 307q0 212 137 335.5t377 123.5q259 0 400 -140t149 -381h-312q-2 96 -63 153.5t-162 57.5q-99 0 -152 -49.5t-53 -148.5q0 -46 14 -96.5t26 -77.5t40 -84l569 2v-271h-501
q-18 -181 -174 -309z" />
    <glyph glyph-name="currency" unicode="&#xa4;" horiz-adv-x="1667" 
d="M565 244l-133 -133l-225 225l129 131q-68 127 -68 281q0 144 62 268l-125 123l225 227l123 -123q129 66 278 66q152 0 279 -68l123 125l227 -227l-125 -125q62 -124 62 -266q0 -154 -68 -281l133 -129l-227 -227l-133 135q-122 -64 -271 -64q-142 0 -266 62zM831 485
q114 -1 188.5 73t74.5 190q0 114 -74.5 187t-188.5 71q-114 1 -187 -71.5t-73 -186.5q0 -116 73 -190t187 -73z" />
    <glyph glyph-name="yen" unicode="&#xa5;" horiz-adv-x="1597" 
d="M1219 1597h352l-305 -483h186v-270h-356l-84 -131h440v-271h-494v-442h-319v440h-494v271h441l-82 131h-359v270h187l-305 485h352l299 -485l242 2z" />
    <glyph glyph-name="brokenbar" unicode="&#xa6;" horiz-adv-x="729" 
d="M524 752h-319v866h319v-866zM524 -410h-319v867h319v-867z" />
    <glyph glyph-name="section" unicode="&#xa7;" horiz-adv-x="1292" 
d="M657 -80q-250 0 -393.5 104t-148.5 287h313q3 -80 69 -125t169 -45q88 0 140 37.5t52 89.5q0 49 -39 77.5t-101.5 40.5t-138 20.5t-151 26t-138 48.5t-101.5 96.5t-39 161.5q0 183 153 279q-153 78 -153 264q0 170 138 269.5t380 99.5q219 0 352 -107t147 -293h-313
q-3 83 -61 131t-146 48q-81 0 -129.5 -39.5t-48.5 -94.5q0 -39 24.5 -65t65.5 -39t94 -21t112 -15t117.5 -17.5t111.5 -32.5t94 -56t65.5 -91.5t24.5 -135.5q0 -178 -154 -272q154 -77 154 -270q0 -168 -139 -264.5t-382 -96.5zM662 684q90 0 143 28t53 74q0 45 -54 73
t-142 28q-87 0 -140 -28t-53 -73q0 -46 53 -74t140 -28z" />
    <glyph glyph-name="dieresis" unicode="&#xa8;" horiz-adv-x="1228" 
d="M285 1184q-85 0 -140 54.5t-55 137.5t55 137t140 54t138.5 -53.5t53.5 -137.5q0 -83 -54.5 -137.5t-137.5 -54.5zM745 1184q-85 0 -139.5 54.5t-54.5 137.5t54.5 137t139.5 54t139 -54t54 -137t-55 -137.5t-138 -54.5z" />
    <glyph glyph-name="copyright" unicode="&#xa9;" horiz-adv-x="2064" 
d="M1032 -33q-236 0 -429 110.5t-303 304t-110 429.5t110 428.5t303 302t429 109.5t429 -109.5t303 -302t110 -428.5q0 -177 -65 -333.5t-177 -268.5t-268.5 -177t-331.5 -65zM1032 160q179 0 325.5 84.5t231 234t84.5 332.5t-82.5 331t-229.5 232t-329 84
q-183 0 -329.5 -84t-229 -232t-82.5 -331t82.5 -332t229.5 -234t329 -85zM1053 344q-204 0 -333.5 130t-129.5 337q0 203 129 331t332 128q161 0 273 -90t132 -246h-182q-15 76 -76 120t-151 44q-125 2 -199 -74t-74 -207q0 -140 72 -220.5t196 -80.5q97 0 162 48t80 132
h182q-26 -163 -141 -257.5t-272 -94.5z" />
    <glyph glyph-name="guillemotleft" unicode="&#xab;" horiz-adv-x="1832" 
d="M981 0h-340l-451 512l451 512h340l-444 -512zM1642 0h-337l-451 512l451 512h337l-444 -512z" />
    <glyph glyph-name="logicalnot" unicode="&#xac;" horiz-adv-x="1607" 
d="M1417 199l-299 -2v372l-928 -2v303l1223 2z" />
    <glyph glyph-name="registered" unicode="&#xae;" horiz-adv-x="2064" 
d="M1032 -33q-236 0 -429 110.5t-303 304t-110 429.5t110 428.5t303 302t429 109.5t429 -109.5t303 -302t110 -428.5q0 -177 -65 -333.5t-177 -268.5t-268.5 -177t-331.5 -65zM1032 160q180 0 327 85t230.5 234t83.5 332t-82.5 331t-229.5 232t-329 84t-329 -84t-229.5 -232
t-82.5 -331t82.5 -332t229.5 -234t329 -85zM864 373h-176v889h416q149 0 229 -73t80 -206q0 -164 -135 -223q46 -14 71.5 -47t34.5 -92q5 -37 9 -77.5t6 -59t9 -44.5t19 -55v-12h-186q-11 25 -18.5 60.5t-10.5 56t-10 81.5q-7 46 -13 68t-21 39t-39 22t-68 5h-197v-332z
M864 1092v-232h211q154 0 154 115q0 117 -160 117h-205z" />
    <glyph glyph-name="macron" unicode="&#xaf;" horiz-adv-x="1228" 
d="M1065 1354l-860 -2v204l860 3v-205z" />
    <glyph glyph-name="degree" unicode="&#xb0;" horiz-adv-x="1155" 
d="M578 893q-155 0 -264 109t-109 264t109 263.5t264 108.5t263.5 -108.5t108.5 -263.5t-109 -264t-263 -109zM578 1139q54 0 90.5 36.5t36.5 90.5t-36.5 90.5t-90.5 36.5t-90.5 -36.5t-36.5 -90.5t36.5 -90.5t90.5 -36.5z" />
    <glyph glyph-name="plusminus" unicode="&#xb1;" horiz-adv-x="1550" 
d="M922 199l-273 -2v374h-397v273h395v379h273v-377h397v-273h-395v-374zM1354 -272l-1164 -2v272l1164 2v-272z" />
    <glyph glyph-name="acute" unicode="&#xb4;" horiz-adv-x="1228" 
d="M393 1331h-207l105 307h346z" />
    <glyph glyph-name="paragraph" unicode="&#xb6;" horiz-adv-x="1841" 
d="M1053 -410h-320v1024h-78q-261 0 -407 138.5t-146 384.5q0 227 146 354t407 127h398v-2028zM1651 -410h-320v2028h320v-2028z" />
    <glyph glyph-name="periodcentered" unicode="&#xb7;" horiz-adv-x="598" 
d="M301 733q-85 0 -141 54t-56 137t56 136.5t141 53.5q84 0 138.5 -53.5t54.5 -136.5t-55 -137t-138 -54z" />
    <glyph glyph-name="cedilla" unicode="&#xb8;" horiz-adv-x="1228" 
d="M537 -623q-135 0 -212 69t-77 192h186q0 -53 27 -83t76 -30t75.5 26.5t26.5 71.5q0 47 -27 76t-73 29q-58 0 -93 -35l-100 104l123 203h180l-96 -147q119 23 195.5 -41t76.5 -189q0 -117 -76.5 -181.5t-211.5 -64.5z" />
    <glyph glyph-name="guillemotright" unicode="&#xbb;" horiz-adv-x="1832" 
d="M981 512l-451 -512h-340l445 512l-445 512h340zM1642 512l-450 -512h-338l444 512l-444 512h338z" />
    <glyph glyph-name="questiondown" unicode="&#xbf;" horiz-adv-x="1409" 
d="M743 1647q85 0 140 -54t55 -137t-55 -136.5t-140 -53.5q-83 0 -137.5 53.5t-54.5 136.5t54.5 137t137.5 54zM586 1092h321q3 -77 -21.5 -138.5t-65.5 -102t-91 -74.5t-101 -64t-93 -61t-68.5 -74.5t-26.5 -96.5q0 -92 71.5 -148.5t197.5 -56.5q145 0 219 82t53 226h330
q26 -289 -137.5 -453t-471.5 -164q-283 0 -435 120t-152 364q0 68 21 126.5t55 99.5t77 79t88 65.5t87.5 59t75 60.5t51 68t16.5 83z" />
    <glyph glyph-name="Agrave" unicode="&#xc0;" horiz-adv-x="1835" 
d="M893 2089l104 -307h-206l-244 307h346zM377 0h-344l706 1597h357l706 -1597h-344l-145 338h-789zM920 1245l-263 -598h523z" />
    <glyph glyph-name="Aacute" unicode="&#xc1;" horiz-adv-x="1835" 
d="M1032 1782h-207l105 307h346zM377 0h-344l706 1597h357l706 -1597h-344l-145 338h-789zM920 1245l-263 -598h523z" />
    <glyph glyph-name="Acircumflex" unicode="&#xc2;" horiz-adv-x="1835" 
d="M793 1782h-236l219 307h254l219 -307h-235l-111 172zM377 0h-344l706 1597h357l706 -1597h-344l-145 338h-789zM920 1245l-263 -598h523z" />
    <glyph glyph-name="Atilde" unicode="&#xc3;" horiz-adv-x="1835" 
d="M1049 1827q-54 0 -106 26t-92.5 52t-68.5 26q-84 0 -84 -102h-176q-10 127 56 198.5t192 71.5q41 0 81.5 -16.5t67 -35.5t57.5 -35.5t56 -16.5q80 0 80 104h180q10 -127 -55 -199.5t-188 -72.5zM377 0h-344l706 1597h357l706 -1597h-344l-145 338h-789zM920 1245
l-263 -598h523z" />
    <glyph glyph-name="Adieresis" unicode="&#xc4;" horiz-adv-x="1835" 
d="M680 1737q-85 0 -140 54.5t-55 137.5t55 137t140 54q84 0 138 -54t54 -137t-54.5 -137.5t-137.5 -54.5zM1141 1737q-85 0 -140 54.5t-55 137.5t55 137t140 54t138.5 -54t53.5 -137t-54.5 -137.5t-137.5 -54.5zM377 0h-344l706 1597h357l706 -1597h-344l-145 338h-789z
M920 1245l-263 -598h523z" />
    <glyph glyph-name="Aring" unicode="&#xc5;" horiz-adv-x="1835" 
d="M909 1735q-115 0 -193.5 78.5t-78.5 193.5t78.5 193.5t193.5 78.5q116 0 194.5 -78.5t78.5 -193.5t-78.5 -193.5t-194.5 -78.5zM909 1929q31 0 54.5 23.5t23.5 54.5t-23.5 54.5t-54.5 23.5t-54.5 -23.5t-23.5 -54.5t23.5 -54.5t54.5 -23.5zM377 0h-344l706 1597h357
l706 -1597h-344l-145 338h-789zM920 1245l-263 -598h523z" />
    <glyph glyph-name="AE" unicode="&#xc6;" horiz-adv-x="2652" 
d="M406 0h-394l1043 1597h1446v-309h-914v-325h842v-293h-842v-361h924v-309h-1243v342h-639zM1235 1288l-412 -637h445v637h-33z" />
    <glyph glyph-name="Ccedilla" unicode="&#xc7;" horiz-adv-x="1761" 
d="M1337 602h330q-42 -268 -219.5 -434t-429.5 -195l-78 -120q119 23 195.5 -41t76.5 -189q0 -117 -76.5 -181.5t-211.5 -64.5t-212 69t-77 192h186q0 -53 27 -83t76 -30t75.5 26.5t26.5 71.5q0 47 -27 76t-73 29q-57 0 -92 -35l-101 104l105 174q-164 14 -302 81
t-235.5 175t-152 257.5t-54.5 322.5q0 180 61.5 333.5t170 261t261.5 168t331 60.5q190 0 345.5 -70t258.5 -209t127 -327h-330q-26 138 -136 216.5t-270 80.5q-227 2 -359 -132.5t-132 -371.5q0 -252 130.5 -396.5t352.5 -144.5q175 0 291.5 86t140.5 240z" />
    <glyph glyph-name="Egrave" unicode="&#xc8;" horiz-adv-x="1521" 
d="M793 2089l104 -307h-207l-244 307h347zM1380 0h-1222v1597h1212v-309h-893v-332h821v-294h-821v-353h903v-309z" />
    <glyph glyph-name="Eacute" unicode="&#xc9;" horiz-adv-x="1521" 
d="M932 1782h-207l104 307h347zM1380 0h-1222v1597h1212v-309h-893v-332h821v-294h-821v-353h903v-309z" />
    <glyph glyph-name="Ecircumflex" unicode="&#xca;" horiz-adv-x="1521" 
d="M692 1782h-235l219 307h254l219 -307h-236l-110 172zM1380 0h-1222v1597h1212v-309h-893v-332h821v-294h-821v-353h903v-309z" />
    <glyph glyph-name="Edieresis" unicode="&#xcb;" horiz-adv-x="1521" 
d="M580 1737q-85 0 -140 54.5t-55 137.5t55 137t140 54q84 0 138 -54t54 -137t-54.5 -137.5t-137.5 -54.5zM1040 1737q-85 0 -139.5 54.5t-54.5 137.5t54.5 137t139.5 54t139 -54t54 -137t-55 -137.5t-138 -54.5zM1380 0h-1222v1597h1212v-309h-893v-332h821v-294h-821v-353
h903v-309z" />
    <glyph glyph-name="Igrave" unicode="&#xcc;" horiz-adv-x="634" 
d="M301 2089l105 -307h-207l-244 307h346zM477 0h-319v1597h319v-1597z" />
    <glyph glyph-name="Iacute" unicode="&#xcd;" horiz-adv-x="634" 
d="M440 1782h-207l105 307h346zM477 0h-319v1597h319v-1597z" />
    <glyph glyph-name="Icircumflex" unicode="&#xce;" horiz-adv-x="634" 
d="M201 1782h-236l219 307h254l219 -307h-235l-111 172zM477 0h-319v1597h319v-1597z" />
    <glyph glyph-name="Idieresis" unicode="&#xcf;" horiz-adv-x="634" 
d="M88 1737q-85 0 -139.5 54.5t-54.5 137.5t54.5 137t139.5 54t139 -54t54 -137t-55 -137.5t-138 -54.5zM549 1737q-85 0 -140 54.5t-55 137.5t55 137t140 54t138.5 -54t53.5 -137t-54.5 -137.5t-137.5 -54.5zM477 0h-319v1597h319v-1597z" />
    <glyph glyph-name="Eth" unicode="&#xd0;" horiz-adv-x="1765" 
d="M158 1597h686q384 0 605.5 -209t221.5 -587q0 -248 -103 -430t-289 -276.5t-435 -94.5h-686v694h-158v230h158v673zM477 287h367q236 0 367.5 134.5t131.5 381.5q0 243 -131.5 375.5t-367.5 132.5h-367v-387l629 2v-230l-629 -2v-407z" />
    <glyph glyph-name="Ntilde" unicode="&#xd1;" horiz-adv-x="1800" 
d="M1055 1827q-54 0 -106 26t-92.5 52t-68.5 26q-83 0 -83 -102h-177q-10 127 56 198.5t192 71.5q41 0 81.5 -16.5t67 -35.5t57.5 -35.5t56 -16.5q80 0 80 104h180q10 -127 -55 -199.5t-188 -72.5zM477 0h-319v1597h340l825 -1091v1091h317v-1597h-335l-828 1104v-1104z" />
    <glyph glyph-name="Ograve" unicode="&#xd2;" horiz-adv-x="1822" 
d="M901 2089l105 -307h-207l-244 307h346zM918 -33q-246 0 -433.5 106t-289 296.5t-101.5 437.5q0 242 101.5 428.5t289 290.5t433.5 104q241 0 426 -104t285 -290.5t100 -428.5q0 -247 -100 -437.5t-285 -296.5t-426 -106zM918 276q223 0 352 144t129 397q0 234 -129 369
t-352 135q-229 0 -362.5 -135t-133.5 -369q0 -253 133 -397t363 -144z" />
    <glyph glyph-name="Oacute" unicode="&#xd3;" horiz-adv-x="1822" 
d="M1040 1782h-206l104 307h346zM918 -33q-246 0 -433.5 106t-289 296.5t-101.5 437.5q0 242 101.5 428.5t289 290.5t433.5 104q241 0 426 -104t285 -290.5t100 -428.5q0 -247 -100 -437.5t-285 -296.5t-426 -106zM918 276q223 0 352 144t129 397q0 234 -129 369t-352 135
q-229 0 -362.5 -135t-133.5 -369q0 -253 133 -397t363 -144z" />
    <glyph glyph-name="Ocircumflex" unicode="&#xd4;" horiz-adv-x="1822" 
d="M801 1782h-236l219 307h254l219 -307h-235l-111 172zM918 -33q-246 0 -433.5 106t-289 296.5t-101.5 437.5q0 242 101.5 428.5t289 290.5t433.5 104q241 0 426 -104t285 -290.5t100 -428.5q0 -247 -100 -437.5t-285 -296.5t-426 -106zM918 276q223 0 352 144t129 397
q0 234 -129 369t-352 135q-229 0 -362.5 -135t-133.5 -369q0 -253 133 -397t363 -144z" />
    <glyph glyph-name="Otilde" unicode="&#xd5;" horiz-adv-x="1822" 
d="M1057 1827q-43 0 -85 16.5t-69.5 35.5t-58 35.5t-53.5 16.5q-84 0 -84 -102h-177q-10 127 56 198.5t192 71.5q41 0 81.5 -16.5t67 -35.5t57.5 -35.5t56 -16.5q80 0 80 104h180q10 -127 -55 -199.5t-188 -72.5zM918 -33q-246 0 -433.5 106t-289 296.5t-101.5 437.5
q0 242 101.5 428.5t289 290.5t433.5 104q241 0 426 -104t285 -290.5t100 -428.5q0 -247 -100 -437.5t-285 -296.5t-426 -106zM918 276q223 0 352 144t129 397q0 234 -129 369t-352 135q-229 0 -362.5 -135t-133.5 -369q0 -253 133 -397t363 -144z" />
    <glyph glyph-name="Odieresis" unicode="&#xd6;" horiz-adv-x="1822" 
d="M688 1737q-85 0 -139.5 54.5t-54.5 137.5t54.5 137t139.5 54t139 -54t54 -137t-55 -137.5t-138 -54.5zM1149 1737q-85 0 -140 54.5t-55 137.5t55 137t140 54t138.5 -54t53.5 -137t-54.5 -137.5t-137.5 -54.5zM918 -33q-246 0 -433.5 106t-289 296.5t-101.5 437.5
q0 242 101.5 428.5t289 290.5t433.5 104q241 0 426 -104t285 -290.5t100 -428.5q0 -247 -100 -437.5t-285 -296.5t-426 -106zM918 276q223 0 352 144t129 397q0 234 -129 369t-352 135q-229 0 -362.5 -135t-133.5 -369q0 -253 133 -397t363 -144z" />
    <glyph glyph-name="multiply" unicode="&#xd7;" horiz-adv-x="1300" 
d="M649 516l-264 -266l-192 192l264 267l-267 266l193 192l266 -264l264 266l195 -192l-264 -266l266 -265l-192 -196z" />
    <glyph glyph-name="Oslash" unicode="&#xd8;" horiz-adv-x="1822" 
d="M1548 1636l197 -176l-154 -162q138 -209 138 -491q0 -247 -100 -437.5t-285 -296.5t-426 -106q-274 0 -472 129l-129 -137l-196 174l135 141q-162 220 -162 533q0 242 101.5 428.5t289 290.5t433.5 104q285 0 489 -143zM422 817q0 -175 65 -299l699 735q-112 68 -268 68
q-229 0 -362.5 -135t-133.5 -369zM1399 817q0 136 -43 234l-684 -719q106 -56 246 -56q223 0 352 144t129 397z" />
    <glyph glyph-name="Ugrave" unicode="&#xd9;" horiz-adv-x="1687" 
d="M827 2109l105 -307h-207l-244 307h346zM844 -27q-331 3 -517 189.5t-186 515.5v919h318v-917q0 -187 101.5 -292t283.5 -105q181 0 282 104.5t101 292.5v917h319v-919q0 -334 -186 -521t-516 -184z" />
    <glyph glyph-name="Uacute" unicode="&#xda;" horiz-adv-x="1687" 
d="M967 1802h-207l104 307h346zM844 -27q-331 3 -517 189.5t-186 515.5v919h318v-917q0 -187 101.5 -292t283.5 -105q181 0 282 104.5t101 292.5v917h319v-919q0 -334 -186 -521t-516 -184z" />
    <glyph glyph-name="Ucircumflex" unicode="&#xdb;" horiz-adv-x="1687" 
d="M727 1802h-235l219 307h254l219 -307h-236l-110 172zM844 -27q-331 3 -517 189.5t-186 515.5v919h318v-917q0 -187 101.5 -292t283.5 -105q181 0 282 104.5t101 292.5v917h319v-919q0 -334 -186 -521t-516 -184z" />
    <glyph glyph-name="Udieresis" unicode="&#xdc;" horiz-adv-x="1687" 
d="M614 1757q-84 0 -139 54.5t-55 138.5q0 83 54.5 136.5t139.5 53.5t139 -53.5t54 -136.5t-55 -138t-138 -55zM1075 1757q-85 0 -139.5 54.5t-54.5 138.5q0 83 54.5 136.5t139.5 53.5t139 -53.5t54 -136.5t-55 -138t-138 -55zM844 -27q-331 3 -517 189.5t-186 515.5v919
h318v-917q0 -187 101.5 -292t283.5 -105q181 0 282 104.5t101 292.5v917h319v-919q0 -334 -186 -521t-516 -184z" />
    <glyph glyph-name="Yacute" unicode="&#xdd;" horiz-adv-x="1597" 
d="M922 1802h-207l104 307h346zM958 0h-319v627l-612 970h352l420 -682l420 682h352l-613 -970v-627z" />
    <glyph glyph-name="Thorn" unicode="&#xde;" horiz-adv-x="1509" 
d="M473 0h-317v1597h317v-204h377q261 0 412 -137t151 -375q0 -240 -152.5 -389.5t-410.5 -149.5h-377v-342zM473 1083v-434h309q140 0 220.5 58t80.5 159q0 102 -83 159.5t-228 57.5h-299z" />
    <glyph glyph-name="germandbls" unicode="&#xdf;" horiz-adv-x="1634" 
d="M817 -33l-2 293q180 0 285.5 65.5t105.5 176.5q0 109 -77 174t-209 65q-17 0 -34 -1t-29 -2.5t-27.5 -5t-22.5 -5t-22.5 -6.5t-18.5 -6t-18.5 -7t-16.5 -6l-96 244l395 363h-553v-1309h-319v1618h1302v-248l-424 -393q214 -22 344.5 -148.5t130.5 -334.5
q0 -257 -177.5 -392t-516.5 -135z" />
    <glyph glyph-name="agrave" unicode="&#xe0;" horiz-adv-x="1288" 
d="M633 1536l104 -307h-207l-243 307h346zM500 -33q-99 0 -175.5 26.5t-122 72t-68.5 101t-23 118.5q0 145 120.5 234t343.5 116l250 29v32q2 67 -46 103.5t-142 36.5q-88 0 -136 -38.5t-48 -107.5h-299q0 192 128.5 300t358.5 108q232 0 359.5 -106t127.5 -296v-360
q0 -69 20 -93t81 -18v-217q-170 -38 -264 10.5t-115 163.5q-86 -215 -350 -215zM561 193q105 0 171.5 70t80.5 181l-104 -12q-156 -20 -224.5 -48t-68.5 -83q0 -50 37.5 -79t107.5 -29z" />
    <glyph glyph-name="aacute" unicode="&#xe1;" horiz-adv-x="1288" 
d="M772 1229h-207l105 307h346zM500 -33q-99 0 -175.5 26.5t-122 72t-68.5 101t-23 118.5q0 145 120.5 234t343.5 116l250 29v32q2 67 -46 103.5t-142 36.5q-88 0 -136 -38.5t-48 -107.5h-299q0 192 128.5 300t358.5 108q232 0 359.5 -106t127.5 -296v-360q0 -69 20 -93
t81 -18v-217q-170 -38 -264 10.5t-115 163.5q-86 -215 -350 -215zM561 193q105 0 171.5 70t80.5 181l-104 -12q-156 -20 -224.5 -48t-68.5 -83q0 -50 37.5 -79t107.5 -29z" />
    <glyph glyph-name="acircumflex" unicode="&#xe2;" horiz-adv-x="1288" 
d="M532 1229h-235l219 307h254l219 -307h-235l-111 172zM500 -33q-99 0 -175.5 26.5t-122 72t-68.5 101t-23 118.5q0 145 120.5 234t343.5 116l250 29v32q2 67 -46 103.5t-142 36.5q-88 0 -136 -38.5t-48 -107.5h-299q0 192 128.5 300t358.5 108q232 0 359.5 -106
t127.5 -296v-360q0 -69 20 -93t81 -18v-217q-170 -38 -264 10.5t-115 163.5q-86 -215 -350 -215zM561 193q105 0 171.5 70t80.5 181l-104 -12q-156 -20 -224.5 -48t-68.5 -83q0 -50 37.5 -79t107.5 -29z" />
    <glyph glyph-name="atilde" unicode="&#xe3;" horiz-adv-x="1288" 
d="M788 1274q-43 0 -85 16t-69.5 36t-58 36t-53.5 16q-84 0 -84 -102h-176q-10 127 56 198.5t192 71.5q41 0 81.5 -16t67 -36t57.5 -36t56 -16q80 0 80 104h180q10 -127 -55.5 -199.5t-188.5 -72.5zM500 -33q-99 0 -175.5 26.5t-122 72t-68.5 101t-23 118.5q0 145 120.5 234
t343.5 116l250 29v32q2 67 -46 103.5t-142 36.5q-88 0 -136 -38.5t-48 -107.5h-299q0 192 128.5 300t358.5 108q232 0 359.5 -106t127.5 -296v-360q0 -69 20 -93t81 -18v-217q-170 -38 -264 10.5t-115 163.5q-86 -215 -350 -215zM561 193q105 0 171.5 70t80.5 181l-104 -12
q-156 -20 -224.5 -48t-68.5 -83q0 -50 37.5 -79t107.5 -29z" />
    <glyph glyph-name="adieresis" unicode="&#xe4;" horiz-adv-x="1288" 
d="M420 1184q-85 0 -140 54.5t-55 137.5t55 137t140 54q84 0 138 -53.5t54 -137.5q0 -83 -54.5 -137.5t-137.5 -54.5zM881 1184q-85 0 -140 54.5t-55 137.5t55 137t140 54t138.5 -53.5t53.5 -137.5q0 -83 -54.5 -137.5t-137.5 -54.5zM500 -33q-99 0 -175.5 26.5t-122 72
t-68.5 101t-23 118.5q0 145 120.5 234t343.5 116l250 29v32q2 67 -46 103.5t-142 36.5q-88 0 -136 -38.5t-48 -107.5h-299q0 192 128.5 300t358.5 108q232 0 359.5 -106t127.5 -296v-360q0 -69 20 -93t81 -18v-217q-170 -38 -264 10.5t-115 163.5q-86 -215 -350 -215z
M561 193q105 0 171.5 70t80.5 181l-104 -12q-156 -20 -224.5 -48t-68.5 -83q0 -50 37.5 -79t107.5 -29z" />
    <glyph glyph-name="aring" unicode="&#xe5;" horiz-adv-x="1288" 
d="M649 1182q-115 0 -193.5 78t-78.5 194t78.5 194t193.5 78q116 0 194.5 -78.5t78.5 -193.5t-78.5 -193.5t-194.5 -78.5zM649 1376q31 0 54.5 23.5t23.5 54.5t-23.5 54.5t-54.5 23.5t-54.5 -23.5t-23.5 -54.5t23.5 -54.5t54.5 -23.5zM500 -33q-99 0 -175.5 26.5t-122 72
t-68.5 101t-23 118.5q0 145 120.5 234t343.5 116l250 29v32q2 67 -46 103.5t-142 36.5q-88 0 -136 -38.5t-48 -107.5h-299q0 192 128.5 300t358.5 108q232 0 359.5 -106t127.5 -296v-360q0 -69 20 -93t81 -18v-217q-170 -38 -264 10.5t-115 163.5q-86 -215 -350 -215z
M561 193q105 0 171.5 70t80.5 181l-104 -12q-156 -20 -224.5 -48t-68.5 -83q0 -50 37.5 -79t107.5 -29z" />
    <glyph glyph-name="ae" unicode="&#xe6;" horiz-adv-x="1990" 
d="M500 -33q-99 0 -176 27t-122 72.5t-68 101.5t-23 119q0 137 114 222.5t334 111.5l266 30v45q0 67 -47 103.5t-141 36.5q-88 0 -136 -38.5t-48 -107.5h-299q0 192 128.5 300t358.5 108q262 0 383 -137q146 137 373 137q216 0 357.5 -153t141.5 -404v-90h-747
q11 -113 73 -175.5t177 -62.5q77 0 128 38t60 95h305q-25 -172 -161.5 -275.5t-333.5 -103.5q-152 0 -273 64.5t-192 179.5q-56 -113 -170.5 -178.5t-261.5 -65.5zM1151 623h440q-5 96 -59 154.5t-148 58.5q-104 0 -161.5 -56t-71.5 -157zM561 193q105 0 171.5 72.5
t80.5 185.5l-104 -13q-158 -20 -225.5 -48t-67.5 -87q0 -49 38 -79.5t107 -30.5z" />
    <glyph glyph-name="ccedilla" unicode="&#xe7;" horiz-adv-x="1224" 
d="M633 229q84 0 140.5 44t64.5 114h303q-20 -162 -131.5 -275t-274.5 -139l-80 -120q119 23 196 -41t77 -189q0 -116 -76.5 -181t-212.5 -65q-135 0 -212 69t-77 192h187q0 -53 26.5 -83t75.5 -30t75.5 26.5t26.5 71.5q0 47 -27 76t-73 29q-57 0 -92 -35l-100 104l106 176
q-209 29 -335 182.5t-126 379.5q0 248 153 405.5t398 157.5q196 0 334.5 -119t161.5 -305h-303q-11 71 -67.5 116.5t-137.5 45.5q-105 0 -169.5 -84t-64.5 -217q0 -135 64.5 -220.5t169.5 -85.5z" />
    <glyph glyph-name="egrave" unicode="&#xe8;" horiz-adv-x="1239" 
d="M618 1536l105 -307h-207l-244 307h346zM645 -33q-244 0 -397.5 159t-153.5 409q0 248 153.5 405.5t397.5 157.5q216 0 358 -153t142 -404v-99h-742q23 -227 244 -227q78 0 129 37t60 94h305q-25 -172 -162 -275.5t-334 -103.5zM406 629h434q-5 92 -59 149.5t-148 57.5
q-197 0 -227 -207z" />
    <glyph glyph-name="eacute" unicode="&#xe9;" horiz-adv-x="1239" 
d="M758 1229h-207l104 307h346zM645 -33q-244 0 -397.5 159t-153.5 409q0 248 153.5 405.5t397.5 157.5q216 0 358 -153t142 -404v-99h-742q23 -227 244 -227q78 0 129 37t60 94h305q-25 -172 -162 -275.5t-334 -103.5zM406 629h434q-5 92 -59 149.5t-148 57.5
q-197 0 -227 -207z" />
    <glyph glyph-name="ecircumflex" unicode="&#xea;" horiz-adv-x="1239" 
d="M518 1229h-235l219 307h254l219 -307h-236l-110 172zM645 -33q-244 0 -397.5 159t-153.5 409q0 248 153.5 405.5t397.5 157.5q216 0 358 -153t142 -404v-99h-742q23 -227 244 -227q78 0 129 37t60 94h305q-25 -172 -162 -275.5t-334 -103.5zM406 629h434q-5 92 -59 149.5
t-148 57.5q-197 0 -227 -207z" />
    <glyph glyph-name="edieresis" unicode="&#xeb;" horiz-adv-x="1239" 
d="M406 1184q-85 0 -140 54.5t-55 137.5t55 137t140 54q84 0 138 -53.5t54 -137.5q0 -83 -54.5 -137.5t-137.5 -54.5zM866 1184q-85 0 -139.5 54.5t-54.5 137.5t54.5 137t139.5 54t139 -54t54 -137t-55 -137.5t-138 -54.5zM645 -33q-244 0 -397.5 159t-153.5 409
q0 248 153.5 405.5t397.5 157.5q216 0 358 -153t142 -404v-99h-742q23 -227 244 -227q78 0 129 37t60 94h305q-25 -172 -162 -275.5t-334 -103.5zM406 629h434q-5 92 -59 149.5t-148 57.5q-197 0 -227 -207z" />
    <glyph glyph-name="igrave" unicode="&#xec;" horiz-adv-x="571" 
d="M270 1536l105 -307h-207l-244 307h346zM438 0h-305v1065h305v-1065z" />
    <glyph glyph-name="iacute" unicode="&#xed;" horiz-adv-x="571" 
d="M410 1229h-207l104 307h346zM438 0h-305v1065h305v-1065z" />
    <glyph glyph-name="icircumflex" unicode="&#xee;" horiz-adv-x="571" 
d="M170 1229h-236l220 307h254l219 -307h-236l-110 172zM438 0h-305v1065h305v-1065z" />
    <glyph glyph-name="idieresis" unicode="&#xef;" horiz-adv-x="571" 
d="M57 1184q-85 0 -139.5 54.5t-54.5 137.5t54.5 137t139.5 54t139 -54t54 -137t-55 -137.5t-138 -54.5zM518 1184q-85 0 -139.5 54.5t-54.5 137.5t54.5 137t139.5 54t139 -54t54 -137t-55 -137.5t-138 -54.5zM438 0h-305v1065h305v-1065z" />
    <glyph glyph-name="eth" unicode="&#xf0;" horiz-adv-x="1339" 
d="M1227 1362l-215 -55q233 -322 233 -732q0 -89 -18 -172.5t-61 -163.5t-106 -139.5t-161 -96t-219 -36.5q-164 0 -297.5 71t-211 201.5t-77.5 297.5q0 247 140.5 404t355.5 157q166 0 287 -82q-53 108 -142 221l-323 -82l-127 188l293 74q-93 93 -224 201h363
q73 -62 141 -129l244 61zM676 229q118 0 193 86.5t75 219.5q0 131 -75.5 216t-194.5 85q-116 0 -190 -84.5t-74 -216.5q0 -134 74.5 -220t191.5 -86z" />
    <glyph glyph-name="ntilde" unicode="&#xf1;" horiz-adv-x="1316" 
d="M809 1274q-43 0 -85 16t-69.5 36t-58 36t-53.5 16q-84 0 -84 -102h-176q-10 127 55.5 198.5t191.5 71.5q41 0 82 -16t67.5 -36t57.5 -36t56 -16q79 0 79 104h181q10 -127 -55.5 -199.5t-188.5 -72.5zM438 0h-303v1065h303v-154q117 187 361 187q395 0 395 -496v-602h-307
v586q0 117 -55.5 183.5t-153.5 66.5q-110 0 -175 -79.5t-65 -211.5v-545z" />
    <glyph glyph-name="ograve" unicode="&#xf2;" horiz-adv-x="1325" 
d="M645 1536l105 -307h-207l-244 307h346zM662 -33q-250 0 -409 159.5t-159 408.5q0 248 159 405.5t409 157.5t409.5 -157.5t159.5 -405.5q0 -249 -159.5 -408.5t-409.5 -159.5zM662 229q117 0 190.5 86t73.5 220q0 132 -73.5 216.5t-190.5 84.5q-115 0 -189 -84.5
t-74 -216.5q0 -134 74 -220t189 -86z" />
    <glyph glyph-name="oacute" unicode="&#xf3;" horiz-adv-x="1325" 
d="M784 1229h-206l104 307h346zM662 -33q-250 0 -409 159.5t-159 408.5q0 248 159 405.5t409 157.5t409.5 -157.5t159.5 -405.5q0 -249 -159.5 -408.5t-409.5 -159.5zM662 229q117 0 190.5 86t73.5 220q0 132 -73.5 216.5t-190.5 84.5q-115 0 -189 -84.5t-74 -216.5
q0 -134 74 -220t189 -86z" />
    <glyph glyph-name="ocircumflex" unicode="&#xf4;" horiz-adv-x="1325" 
d="M545 1229h-236l219 307h254l219 -307h-235l-111 172zM662 -33q-250 0 -409 159.5t-159 408.5q0 248 159 405.5t409 157.5t409.5 -157.5t159.5 -405.5q0 -249 -159.5 -408.5t-409.5 -159.5zM662 229q117 0 190.5 86t73.5 220q0 132 -73.5 216.5t-190.5 84.5
q-115 0 -189 -84.5t-74 -216.5q0 -134 74 -220t189 -86z" />
    <glyph glyph-name="otilde" unicode="&#xf5;" horiz-adv-x="1325" 
d="M801 1274q-43 0 -85 16t-69.5 36t-58 36t-53.5 16q-84 0 -84 -102h-177q-10 127 56 198.5t192 71.5q41 0 81.5 -16t67 -36t57.5 -36t56 -16q80 0 80 104h180q10 -127 -55 -199.5t-188 -72.5zM662 -33q-250 0 -409 159.5t-159 408.5q0 248 159 405.5t409 157.5
t409.5 -157.5t159.5 -405.5q0 -249 -159.5 -408.5t-409.5 -159.5zM662 229q117 0 190.5 86t73.5 220q0 132 -73.5 216.5t-190.5 84.5q-115 0 -189 -84.5t-74 -216.5q0 -134 74 -220t189 -86z" />
    <glyph glyph-name="odieresis" unicode="&#xf6;" horiz-adv-x="1325" 
d="M432 1184q-85 0 -139.5 54.5t-54.5 137.5t54.5 137t139.5 54t139 -54t54 -137t-55 -137.5t-138 -54.5zM893 1184q-85 0 -140 54.5t-55 137.5t55 137t140 54t138.5 -53.5t53.5 -137.5q0 -83 -54.5 -137.5t-137.5 -54.5zM662 -33q-250 0 -409 159.5t-159 408.5
q0 248 159 405.5t409 157.5t409.5 -157.5t159.5 -405.5q0 -249 -159.5 -408.5t-409.5 -159.5zM662 229q117 0 190.5 86t73.5 220q0 132 -73.5 216.5t-190.5 84.5q-115 0 -189 -84.5t-74 -216.5q0 -134 74 -220t189 -86z" />
    <glyph glyph-name="divide" unicode="&#xf7;" horiz-adv-x="1445" 
d="M725 924q-85 0 -140 53.5t-55 136.5t55 137t140 54q83 0 138 -54t55 -137t-54.5 -136.5t-138.5 -53.5zM1255 569l-1065 -2v271l1065 2v-271zM725 66q-85 0 -140 53.5t-55 136.5t55 136.5t140 53.5q84 0 138.5 -53.5t54.5 -136.5t-54.5 -136.5t-138.5 -53.5z" />
    <glyph glyph-name="oslash" unicode="&#xf8;" horiz-adv-x="1323" 
d="M1188 958l-68 -73q111 -149 111 -350q0 -249 -159.5 -408.5t-409.5 -159.5q-169 0 -302 76l-73 -82l-152 131l76 82q-117 152 -117 361q0 248 159 405.5t409 157.5q174 0 309 -80l67 74zM399 535q0 -59 21 -127l360 399q-56 29 -118 29q-115 0 -189 -84.5t-74 -216.5z
M662 229q117 0 190.5 86t73.5 220q0 55 -17 114l-358 -395q52 -25 111 -25z" />
    <glyph glyph-name="ugrave" unicode="&#xf9;" horiz-adv-x="1316" 
d="M647 1536l105 -307h-207l-244 307h346zM879 1065h303v-1065h-303v154q-117 -187 -361 -187q-395 0 -395 496v602h307v-586q0 -117 55.5 -183.5t153.5 -66.5q110 0 175 79.5t65 211.5v545z" />
    <glyph glyph-name="uacute" unicode="&#xfa;" horiz-adv-x="1316" 
d="M786 1229h-206l104 307h346zM879 1065h303v-1065h-303v154q-117 -187 -361 -187q-395 0 -395 496v602h307v-586q0 -117 55.5 -183.5t153.5 -66.5q110 0 175 79.5t65 211.5v545z" />
    <glyph glyph-name="ucircumflex" unicode="&#xfb;" horiz-adv-x="1316" 
d="M547 1229h-236l219 307h254l220 -307h-236l-111 172zM879 1065h303v-1065h-303v154q-117 -187 -361 -187q-395 0 -395 496v602h307v-586q0 -117 55.5 -183.5t153.5 -66.5q110 0 175 79.5t65 211.5v545z" />
    <glyph glyph-name="udieresis" unicode="&#xfc;" horiz-adv-x="1316" 
d="M434 1184q-85 0 -139.5 54.5t-54.5 137.5t54.5 137t139.5 54t139 -54t54 -137t-55 -137.5t-138 -54.5zM895 1184q-85 0 -140 54.5t-55 137.5t55 137t140 54t138.5 -53.5t53.5 -137.5q0 -83 -54.5 -137.5t-137.5 -54.5zM879 1065h303v-1065h-303v154q-117 -187 -361 -187
q-395 0 -395 496v602h307v-586q0 -117 55.5 -183.5t153.5 -66.5q110 0 175 79.5t65 211.5v545z" />
    <glyph glyph-name="yacute" unicode="&#xfd;" horiz-adv-x="1306" 
d="M788 1229h-206l104 307h346zM283 -410h-131v269h104q100 -2 159.5 25.5t110.5 99.5l-463 1081h320l303 -711l264 711h320l-436 -1143q-78 -186 -210 -259t-341 -73z" />
    <glyph glyph-name="thorn" unicode="&#xfe;" horiz-adv-x="1353" 
d="M438 -410h-303v2028h303v-692q117 172 359 172q201 0 329.5 -160t128.5 -410q0 -246 -128.5 -403.5t-329.5 -157.5q-242 0 -359 172v-549zM692 229q114 0 186 84.5t72 216.5q0 134 -72 220t-186 86q-112 0 -184 -86t-72 -220q0 -132 72 -216.5t184 -84.5z" />
    <glyph glyph-name="ydieresis" unicode="&#xff;" horiz-adv-x="1306" 
d="M436 1184q-85 0 -139.5 54.5t-54.5 137.5t54.5 137t139.5 54t139 -54t54 -137t-55 -137.5t-138 -54.5zM897 1184q-85 0 -140 54.5t-55 137.5t55 137t140 54t139 -54t54 -137t-55 -137.5t-138 -54.5zM283 -410h-131v269h104q100 -2 159.5 25.5t110.5 99.5l-463 1081h320
l303 -711l264 711h320l-436 -1143q-78 -186 -210 -259t-341 -73z" />
    <glyph glyph-name="Amacron" unicode="&#x100;" horiz-adv-x="1835" 
d="M1339 1804l-860 -2v205l860 2v-205zM377 0h-344l706 1597h357l706 -1597h-344l-145 338h-789zM920 1245l-263 -598h523z" />
    <glyph glyph-name="amacron" unicode="&#x101;" horiz-adv-x="1288" 
d="M1004 1251l-709 -2v205l709 2v-205zM500 -33q-99 0 -175.5 26.5t-122 72t-68.5 101t-23 118.5q0 145 120.5 234t343.5 116l250 29v32q2 67 -46 103.5t-142 36.5q-88 0 -136 -38.5t-48 -107.5h-299q0 192 128.5 300t358.5 108q232 0 359.5 -106t127.5 -296v-360
q0 -69 20 -93t81 -18v-217q-170 -38 -264 10.5t-115 163.5q-86 -215 -350 -215zM561 193q105 0 171.5 70t80.5 181l-104 -12q-156 -20 -224.5 -48t-68.5 -83q0 -50 37.5 -79t107.5 -29z" />
    <glyph glyph-name="Abreve" unicode="&#x102;" horiz-adv-x="1835" 
d="M909 1790q-135 0 -210.5 73.5t-75.5 204.5h180q0 -55 28 -85.5t78 -30.5t78.5 30.5t28.5 85.5h180q0 -131 -76 -204.5t-211 -73.5zM377 0h-344l706 1597h357l706 -1597h-344l-145 338h-789zM920 1245l-263 -598h523z" />
    <glyph glyph-name="abreve" unicode="&#x103;" horiz-adv-x="1288" 
d="M649 1237q-135 0 -211 74t-76 205h181q0 -55 28 -86t78 -31t78.5 31t28.5 86h180q0 -131 -76 -205t-211 -74zM500 -33q-99 0 -175.5 26.5t-122 72t-68.5 101t-23 118.5q0 145 120.5 234t343.5 116l250 29v32q2 67 -46 103.5t-142 36.5q-88 0 -136 -38.5t-48 -107.5h-299
q0 192 128.5 300t358.5 108q232 0 359.5 -106t127.5 -296v-360q0 -69 20 -93t81 -18v-217q-170 -38 -264 10.5t-115 163.5q-86 -215 -350 -215zM561 193q105 0 171.5 70t80.5 181l-104 -12q-156 -20 -224.5 -48t-68.5 -83q0 -50 37.5 -79t107.5 -29z" />
    <glyph glyph-name="Aogonek" unicode="&#x104;" horiz-adv-x="1835" 
d="M1425 -156q0 -56 56.5 -90.5t160.5 -34.5v-176q-220 -14 -331 49.5t-111 182.5q0 100 64 172.5t170 111.5l-121 279h-789l-147 -338h-344l706 1597h357l706 -1597h-276q-101 -76 -101 -156zM920 1245l-263 -598h523z" />
    <glyph glyph-name="aogonek" unicode="&#x105;" horiz-adv-x="1288" 
d="M1073 -8q-90 -72 -90 -148q0 -56 56.5 -90.5t160.5 -34.5v-176q-220 -14 -331 49.5t-111 182.5q0 85 48.5 151.5t129.5 108.5q-68 50 -86 147q-86 -215 -350 -215q-99 0 -175.5 26.5t-122 72t-68.5 101t-23 118.5q0 145 120.5 234t343.5 116l250 29v32q2 67 -46 103.5
t-142 36.5q-88 0 -136 -38.5t-48 -107.5h-299q0 192 128.5 300t358.5 108q232 0 359.5 -106t127.5 -296v-360q0 -69 20 -93t81 -18v-217q-81 -19 -156 -16zM561 193q105 0 171.5 70t80.5 181l-104 -12q-156 -20 -224.5 -48t-68.5 -83q0 -50 37.5 -79t107.5 -29z" />
    <glyph glyph-name="Cacute" unicode="&#x106;" horiz-adv-x="1761" 
d="M1040 1782h-206l104 307h346zM922 -33q-240 0 -428.5 105.5t-294 297t-105.5 437.5q0 180 61.5 333.5t170 261t261.5 168t331 60.5q190 0 345.5 -70t258.5 -209t127 -327h-330q-26 138 -136 216.5t-270 80.5q-227 2 -359 -132.5t-132 -371.5q0 -252 130.5 -396.5
t352.5 -144.5q175 0 291.5 86t140.5 240h330q-31 -197 -139 -342.5t-264.5 -219t-341.5 -73.5z" />
    <glyph glyph-name="cacute" unicode="&#x107;" horiz-adv-x="1224" 
d="M766 1229h-207l105 307h346zM645 -33q-245 0 -398 159t-153 409q0 248 153 405.5t398 157.5q196 0 334.5 -119t161.5 -305h-303q-11 71 -67.5 116.5t-137.5 45.5q-105 0 -169.5 -84t-64.5 -217q0 -135 64.5 -220.5t169.5 -85.5q84 0 140.5 44t64.5 114h303
q-23 -185 -161.5 -302.5t-334.5 -117.5z" />
    <glyph glyph-name="Cdotaccent" unicode="&#x10a;" horiz-adv-x="1761" 
d="M918 1749q-85 0 -140 55t-55 138t55 135.5t140 52.5t138.5 -52.5t53.5 -135.5t-54.5 -138t-137.5 -55zM922 -33q-240 0 -428.5 105.5t-294 297t-105.5 437.5q0 180 61.5 333.5t170 261t261.5 168t331 60.5q190 0 345.5 -70t258.5 -209t127 -327h-330q-26 138 -136 216.5
t-270 80.5q-227 2 -359 -132.5t-132 -371.5q0 -252 130.5 -396.5t352.5 -144.5q175 0 291.5 86t140.5 240h330q-31 -197 -139 -342.5t-264.5 -219t-341.5 -73.5z" />
    <glyph glyph-name="cdotaccent" unicode="&#x10b;" horiz-adv-x="1224" 
d="M643 1196q-85 0 -139.5 55t-54.5 138t54.5 135.5t139.5 52.5t139 -52.5t54 -135.5t-55 -138t-138 -55zM645 -33q-245 0 -398 159t-153 409q0 248 153 405.5t398 157.5q196 0 334.5 -119t161.5 -305h-303q-11 71 -67.5 116.5t-137.5 45.5q-105 0 -169.5 -84t-64.5 -217
q0 -135 64.5 -220.5t169.5 -85.5q84 0 140.5 44t64.5 114h303q-23 -185 -161.5 -302.5t-334.5 -117.5z" />
    <glyph glyph-name="Ccaron" unicode="&#x10c;" horiz-adv-x="1761" 
d="M1038 1782h-254l-219 307h236l110 -172l111 172h235zM922 -33q-240 0 -428.5 105.5t-294 297t-105.5 437.5q0 180 61.5 333.5t170 261t261.5 168t331 60.5q190 0 345.5 -70t258.5 -209t127 -327h-330q-26 138 -136 216.5t-270 80.5q-227 2 -359 -132.5t-132 -371.5
q0 -252 130.5 -396.5t352.5 -144.5q175 0 291.5 86t140.5 240h330q-31 -197 -139 -342.5t-264.5 -219t-341.5 -73.5z" />
    <glyph glyph-name="ccaron" unicode="&#x10d;" horiz-adv-x="1224" 
d="M764 1229h-254l-219 307h235l111 -172l111 172h235zM645 -33q-245 0 -398 159t-153 409q0 248 153 405.5t398 157.5q196 0 334.5 -119t161.5 -305h-303q-11 71 -67.5 116.5t-137.5 45.5q-105 0 -169.5 -84t-64.5 -217q0 -135 64.5 -220.5t169.5 -85.5q84 0 140.5 44
t64.5 114h303q-23 -185 -161.5 -302.5t-334.5 -117.5z" />
    <glyph glyph-name="Dcaron" unicode="&#x10e;" horiz-adv-x="1765" 
d="M848 1802h-254l-219 307h235l111 -172l110 172h236zM844 0h-686v1597h686q384 0 605.5 -209t221.5 -587q0 -248 -103 -430t-289 -276.5t-435 -94.5zM477 1311v-1024h367q236 0 367.5 134.5t131.5 381.5q0 243 -131.5 375.5t-367.5 132.5h-367z" />
    <glyph glyph-name="dcaron" unicode="&#x10f;" horiz-adv-x="1740" 
d="M551 -33q-201 0 -329 159.5t-128 410.5q0 246 128 403.5t329 157.5q241 0 358 -172v692h305v-1618h-305v139q-117 -172 -358 -172zM1462 1311h-207l105 307h346zM655 229q112 0 184 86t72 220q0 132 -72 216.5t-184 84.5q-114 0 -186 -84.5t-72 -216.5q0 -134 72 -220
t186 -86z" />
    <glyph glyph-name="Dcroat" unicode="&#x110;" horiz-adv-x="1765" 
d="M158 1597h686q384 0 605.5 -209t221.5 -587q0 -248 -103 -430t-289 -276.5t-435 -94.5h-686v694h-158v230h158v673zM477 287h367q236 0 367.5 134.5t131.5 381.5q0 243 -131.5 375.5t-367.5 132.5h-367v-387l629 2v-230l-629 -2v-407z" />
    <glyph glyph-name="dcroat" unicode="&#x111;" horiz-adv-x="1349" 
d="M1214 1440h109v-228h-109v-1212h-305v139q-117 -172 -358 -172q-201 0 -329 159.5t-128 410.5q0 246 128 403.5t329 157.5q241 0 358 -172v286l-590 -2v228l590 2v178h305v-178zM655 229q112 0 184 86t72 220q0 132 -72 216.5t-184 84.5q-114 0 -186 -84.5t-72 -216.5
q0 -134 72 -220t186 -86z" />
    <glyph glyph-name="Emacron" unicode="&#x112;" horiz-adv-x="1521" 
d="M1239 1804l-860 -2v205l860 2v-205zM1380 0h-1222v1597h1212v-309h-893v-332h821v-294h-821v-353h903v-309z" />
    <glyph glyph-name="emacron" unicode="&#x113;" horiz-adv-x="1239" 
d="M989 1251l-708 -2v205l708 2v-205zM645 -33q-244 0 -397.5 159t-153.5 409q0 248 153.5 405.5t397.5 157.5q216 0 358 -153t142 -404v-99h-742q23 -227 244 -227q78 0 129 37t60 94h305q-25 -172 -162 -275.5t-334 -103.5zM406 629h434q-5 92 -59 149.5t-148 57.5
q-197 0 -227 -207z" />
    <glyph glyph-name="Edotaccent" unicode="&#x116;" horiz-adv-x="1521" 
d="M809 1749q-85 0 -140 55t-55 138t55 135.5t140 52.5t138.5 -52.5t53.5 -135.5t-54.5 -138t-137.5 -55zM1380 0h-1222v1597h1212v-309h-893v-332h821v-294h-821v-353h903v-309z" />
    <glyph glyph-name="edotaccent" unicode="&#x117;" horiz-adv-x="1239" 
d="M635 1196q-85 0 -140 55t-55 138t55 135.5t140 52.5t138.5 -52.5t53.5 -135.5t-54.5 -138t-137.5 -55zM645 -33q-244 0 -397.5 159t-153.5 409q0 248 153.5 405.5t397.5 157.5q216 0 358 -153t142 -404v-99h-742q23 -227 244 -227q78 0 129 37t60 94h305
q-25 -172 -162 -275.5t-334 -103.5zM406 629h434q-5 92 -59 149.5t-148 57.5q-197 0 -227 -207z" />
    <glyph glyph-name="Eogonek" unicode="&#x118;" horiz-adv-x="1521" 
d="M1380 0h-483q-100 -75 -100 -156q0 -56 56.5 -90.5t160.5 -34.5v-176q-220 -14 -331.5 49.5t-111.5 182.5q0 138 121 225h-534v1597h1212v-309h-893v-332h821v-294h-821v-353h903v-309z" />
    <glyph glyph-name="eogonek" unicode="&#x119;" horiz-adv-x="1239" 
d="M1145 541v-99h-742q23 -227 244 -227q78 0 129 37t60 94h305q-23 -158 -141.5 -259t-292.5 -118q-64 -57 -64 -125q0 -56 56 -90.5t159 -34.5v-176q-220 -14 -331 49.5t-111 182.5t98 207q-191 40 -305.5 190t-114.5 363q0 248 153.5 405.5t397.5 157.5q216 0 358 -153
t142 -404zM406 629h434q-5 92 -59 149.5t-148 57.5q-197 0 -227 -207z" />
    <glyph glyph-name="Ecaron" unicode="&#x11a;" horiz-adv-x="1521" 
d="M930 1782h-254l-219 307h235l111 -172l110 172h236zM1380 0h-1222v1597h1212v-309h-893v-332h821v-294h-821v-353h903v-309z" />
    <glyph glyph-name="ecaron" unicode="&#x11b;" horiz-adv-x="1239" 
d="M756 1229h-254l-219 307h235l111 -172l110 172h236zM645 -33q-244 0 -397.5 159t-153.5 409q0 248 153.5 405.5t397.5 157.5q216 0 358 -153t142 -404v-99h-742q23 -227 244 -227q78 0 129 37t60 94h305q-25 -172 -162 -275.5t-334 -103.5zM406 629h434q-5 92 -59 149.5
t-148 57.5q-197 0 -227 -207z" />
    <glyph glyph-name="Gbreve" unicode="&#x11e;" horiz-adv-x="1810" 
d="M918 1790q-135 0 -211 73.5t-76 204.5h180q0 -55 28.5 -85.5t78.5 -30.5t78 30.5t28 85.5h180q0 -131 -75.5 -204.5t-210.5 -73.5zM881 -33q-236 0 -415.5 106t-275.5 296.5t-96 437.5q0 240 105 428t292.5 291.5t426.5 103.5q187 0 341.5 -63.5t259.5 -193t130 -308.5
h-330q-26 119 -136 186.5t-270 69.5q-227 2 -359 -132.5t-132 -371.5q0 -253 129.5 -397t353.5 -144q188 0 304.5 90.5t119.5 231.5h-438v270h784v-868h-264l-6 219q-72 -129 -196.5 -190.5t-327.5 -61.5z" />
    <glyph glyph-name="gbreve" unicode="&#x11f;" horiz-adv-x="1361" 
d="M715 1196q-135 0 -211 74t-76 205h180q0 -55 28.5 -86t78.5 -31t78 31t28 86h180q0 -131 -75.5 -205t-210.5 -74zM666 -442q-489 0 -523 366h306q7 -69 69 -103t162 -34q126 0 186 70t58 215v75q-112 -153 -357 -153q-207 0 -332.5 145t-125.5 391q0 252 126.5 410
t331.5 158q243 0 357 -168v135h305v-993q0 -514 -563 -514zM670 244q114 0 185 83.5t71 215.5q0 134 -71 219.5t-185 85.5t-186 -85.5t-72 -219.5q0 -132 72 -215.5t186 -83.5z" />
    <glyph glyph-name="Gdotaccent" unicode="&#x120;" horiz-adv-x="1810" 
d="M918 1749q-85 0 -140 55t-55 138t55 135.5t140 52.5t138.5 -52.5t53.5 -135.5t-54.5 -138t-137.5 -55zM881 -33q-236 0 -415.5 106t-275.5 296.5t-96 437.5q0 240 105 428t292.5 291.5t426.5 103.5q187 0 341.5 -63.5t259.5 -193t130 -308.5h-330q-26 119 -136 186.5
t-270 69.5q-227 2 -359 -132.5t-132 -371.5q0 -253 129.5 -397t353.5 -144q188 0 304.5 90.5t119.5 231.5h-438v270h784v-868h-264l-6 219q-72 -129 -196.5 -190.5t-327.5 -61.5z" />
    <glyph glyph-name="gdotaccent" unicode="&#x121;" horiz-adv-x="1361" 
d="M715 1155q-85 0 -140 55t-55 138t55 135.5t140 52.5t138.5 -52.5t53.5 -135.5t-54.5 -138t-137.5 -55zM666 -442q-489 0 -523 366h306q7 -69 69 -103t162 -34q126 0 186 70t58 215v75q-112 -153 -357 -153q-207 0 -332.5 145t-125.5 391q0 252 126.5 410t331.5 158
q243 0 357 -168v135h305v-993q0 -514 -563 -514zM670 244q114 0 185 83.5t71 215.5q0 134 -71 219.5t-185 85.5t-186 -85.5t-72 -219.5q0 -132 72 -215.5t186 -83.5z" />
    <glyph glyph-name="uni0122" unicode="&#x122;" horiz-adv-x="1810" 
d="M881 -33q-236 0 -415.5 106t-275.5 296.5t-96 437.5q0 240 105 428t292.5 291.5t426.5 103.5q187 0 341.5 -63.5t259.5 -193t130 -308.5h-330q-26 119 -136 186.5t-270 69.5q-227 2 -359 -132.5t-132 -371.5q0 -253 129.5 -397t353.5 -144q188 0 304.5 90.5t119.5 231.5
h-438v270h784v-868h-264l-6 219q-72 -129 -196.5 -190.5t-327.5 -61.5zM887 -690h-209l125 508h325z" />
    <glyph glyph-name="uni0123" unicode="&#x123;" horiz-adv-x="1361" 
d="M709 1763h209l-125 -508h-326zM666 -442q-489 0 -523 366h306q7 -69 69 -103t162 -34q126 0 186 70t58 215v75q-112 -153 -357 -153q-207 0 -332.5 145t-125.5 391q0 252 126.5 410t331.5 158q243 0 357 -168v135h305v-993q0 -514 -563 -514zM670 244q114 0 185 83.5
t71 215.5q0 134 -71 219.5t-185 85.5t-186 -85.5t-72 -219.5q0 -132 72 -215.5t186 -83.5z" />
    <glyph glyph-name="Hbar" unicode="&#x126;" horiz-adv-x="1728" 
d="M1571 1442h176v-273h-176v-1169h-320v684h-774v-684h-319v1167h-170v273h170v157h319v-157l774 2v155h320v-155zM477 991h774v178l-774 -2v-176z" />
    <glyph glyph-name="hbar" unicode="&#x127;" horiz-adv-x="1316" 
d="M799 1098q395 0 395 -494v-604h-307v590q0 117 -55 181.5t-154 64.5q-110 0 -175 -78t-65 -209v-549h-303v1210h-119v228h119v180h303v-180l582 2v-228l-582 -2v-297q118 185 361 185z" />
    <glyph glyph-name="Imacron" unicode="&#x12a;" horiz-adv-x="634" 
d="M748 1804l-861 -2v205l861 2v-205zM477 0h-319v1597h319v-1597z" />
    <glyph glyph-name="imacron" unicode="&#x12b;" horiz-adv-x="571" 
d="M578 1251l-582 -2v205l582 2v-205zM438 0h-305v1065h305v-1065z" />
    <glyph glyph-name="Iogonek" unicode="&#x12e;" horiz-adv-x="634" 
d="M309 -156q0 -56 56 -90.5t159 -34.5v-176q-220 -14 -331 49.5t-111 182.5q0 136 121 225h-45v1597h319v-1597h-67q-101 -74 -101 -156z" />
    <glyph glyph-name="iogonek" unicode="&#x12f;" horiz-adv-x="571" 
d="M287 1196q-85 0 -140 55t-55 138t55 135.5t140 52.5q84 0 138 -52.5t54 -135.5t-54.5 -138t-137.5 -55zM281 -156q0 -56 56.5 -90.5t160.5 -34.5v-176q-220 -14 -331.5 49.5t-111.5 182.5q0 138 121 225h-43v1065h305v-1065h-57q-100 -75 -100 -156z" />
    <glyph glyph-name="Idotaccent" unicode="&#x130;" horiz-adv-x="634" 
d="M317 1749q-85 0 -139.5 54.5t-54.5 138.5q0 83 54.5 135.5t139.5 52.5t139 -52.5t54 -135.5t-55 -138t-138 -55zM477 0h-319v1597h319v-1597z" />
    <glyph glyph-name="dotlessi" unicode="&#x131;" horiz-adv-x="571" 
d="M438 0h-305v1065h305v-1065z" />
    <glyph glyph-name="uni0136" unicode="&#x136;" horiz-adv-x="1675" 
d="M477 0h-319v1597h319v-669l725 669h436l-764 -696l777 -901h-424l-578 692l-172 -162v-530zM795 -690h-209l125 508h325z" />
    <glyph glyph-name="uni0137" unicode="&#x137;" horiz-adv-x="1288" 
d="M438 0h-303v1618h303v-899l404 346h389l-504 -426l545 -639h-375l-377 463l-82 -68v-395zM614 -690h-208l124 508h326z" />
    <glyph glyph-name="Lacute" unicode="&#x139;" horiz-adv-x="1355" 
d="M442 1802h-206l104 307h346zM1276 0h-1118v1597h319v-1318h799v-279z" />
    <glyph glyph-name="lacute" unicode="&#x13a;" horiz-adv-x="573" 
d="M410 1782h-207l104 307h346zM438 0h-303v1618h303v-1618z" />
    <glyph glyph-name="uni013B" unicode="&#x13b;" horiz-adv-x="1355" 
d="M1276 0h-1118v1597h319v-1318h799v-279zM754 -690h-209l125 508h325z" />
    <glyph glyph-name="uni013C" unicode="&#x13c;" horiz-adv-x="573" 
d="M438 0h-303v1618h303v-1618zM264 -690h-209l125 508h326z" />
    <glyph glyph-name="Lcaron" unicode="&#x13d;" horiz-adv-x="1355" 
d="M440 1802h-254l-219 307h236l110 -172l111 172h235zM1276 0h-1118v1597h319v-1318h799v-279z" />
    <glyph glyph-name="lcaron" unicode="&#x13e;" horiz-adv-x="573" 
d="M408 1782h-254l-220 307h236l111 -172l110 172h236zM438 0h-303v1618h303v-1618z" />
    <glyph glyph-name="Lslash" unicode="&#x141;" horiz-adv-x="1355" 
d="M477 930v-651h799v-279h-1118v702l-168 -120l-160 211l328 233v571h319v-342l387 277l158 -213z" />
    <glyph glyph-name="lslash" unicode="&#x142;" horiz-adv-x="573" 
d="M553 1405l96 -131l-211 -152v-1122h-303v905l-119 -84l-98 129l217 156v512h303v-295z" />
    <glyph glyph-name="Nacute" unicode="&#x143;" horiz-adv-x="1800" 
d="M1038 1782h-207l105 307h346zM477 0h-319v1597h340l825 -1091v1091h317v-1597h-335l-828 1104v-1104z" />
    <glyph glyph-name="nacute" unicode="&#x144;" horiz-adv-x="1316" 
d="M791 1229h-207l104 307h346zM438 0h-303v1065h303v-154q117 187 361 187q395 0 395 -496v-602h-307v586q0 117 -55.5 183.5t-153.5 66.5q-110 0 -175 -79.5t-65 -211.5v-545z" />
    <glyph glyph-name="uni0145" unicode="&#x145;" horiz-adv-x="1800" 
d="M477 0h-319v1597h340l825 -1091v1091h317v-1597h-335l-828 1104v-1104zM881 -690h-209l125 508h325z" />
    <glyph glyph-name="uni0146" unicode="&#x146;" horiz-adv-x="1316" 
d="M438 0h-303v1065h303v-154q117 187 361 187q395 0 395 -496v-602h-307v586q0 117 -55.5 183.5t-153.5 66.5q-110 0 -175 -79.5t-65 -211.5v-545zM643 -690h-209l125 508h326z" />
    <glyph glyph-name="Ncaron" unicode="&#x147;" horiz-adv-x="1800" 
d="M1036 1782h-254l-219 307h236l110 -172l111 172h235zM477 0h-319v1597h340l825 -1091v1091h317v-1597h-335l-828 1104v-1104z" />
    <glyph glyph-name="ncaron" unicode="&#x148;" horiz-adv-x="1316" 
d="M788 1229h-253l-220 307h236l111 -172l110 172h236zM438 0h-303v1065h303v-154q117 187 361 187q395 0 395 -496v-602h-307v586q0 117 -55.5 183.5t-153.5 66.5q-110 0 -175 -79.5t-65 -211.5v-545z" />
    <glyph glyph-name="Eng" unicode="&#x14a;" horiz-adv-x="1800" 
d="M1323 506v1091h317v-1597q0 -223 -106.5 -318t-341.5 -90h-102v224h45q104 -2 146 33.5t42 150.5h-18l-828 1104v-1104h-319v1597h340z" />
    <glyph glyph-name="eng" unicode="&#x14b;" horiz-adv-x="1323" 
d="M799 1098q395 0 395 -496v-602q0 -226 -106.5 -319.5t-348.5 -88.5h-102v242h53q102 -2 149.5 38t47.5 128v586q0 117 -55.5 183.5t-153.5 66.5q-110 0 -175 -79.5t-65 -211.5v-545h-303v1065h303v-154q117 187 361 187z" />
    <glyph glyph-name="Omacron" unicode="&#x14c;" horiz-adv-x="1822" 
d="M1348 1804l-861 -2v205l861 2v-205zM918 -33q-246 0 -433.5 106t-289 296.5t-101.5 437.5q0 242 101.5 428.5t289 290.5t433.5 104q241 0 426 -104t285 -290.5t100 -428.5q0 -247 -100 -437.5t-285 -296.5t-426 -106zM918 276q223 0 352 144t129 397q0 234 -129 369
t-352 135q-229 0 -362.5 -135t-133.5 -369q0 -253 133 -397t363 -144z" />
    <glyph glyph-name="omacron" unicode="&#x14d;" horiz-adv-x="1325" 
d="M1016 1251l-709 -2v205l709 2v-205zM662 -33q-250 0 -409 159.5t-159 408.5q0 248 159 405.5t409 157.5t409.5 -157.5t159.5 -405.5q0 -249 -159.5 -408.5t-409.5 -159.5zM662 229q117 0 190.5 86t73.5 220q0 132 -73.5 216.5t-190.5 84.5q-115 0 -189 -84.5t-74 -216.5
q0 -134 74 -220t189 -86z" />
    <glyph glyph-name="Ohungarumlaut" unicode="&#x150;" horiz-adv-x="1822" 
d="M846 1782h-193l119 307h303zM1204 1782h-190l119 307h303zM918 -33q-246 0 -433.5 106t-289 296.5t-101.5 437.5q0 242 101.5 428.5t289 290.5t433.5 104q241 0 426 -104t285 -290.5t100 -428.5q0 -247 -100 -437.5t-285 -296.5t-426 -106zM918 276q223 0 352 144
t129 397q0 234 -129 369t-352 135q-229 0 -362.5 -135t-133.5 -369q0 -253 133 -397t363 -144z" />
    <glyph glyph-name="ohungarumlaut" unicode="&#x151;" horiz-adv-x="1325" 
d="M590 1229h-193l119 307h303zM948 1229h-190l119 307h303zM662 -33q-250 0 -409 159.5t-159 408.5q0 248 159 405.5t409 157.5t409.5 -157.5t159.5 -405.5q0 -249 -159.5 -408.5t-409.5 -159.5zM662 229q117 0 190.5 86t73.5 220q0 132 -73.5 216.5t-190.5 84.5
q-115 0 -189 -84.5t-74 -216.5q0 -134 74 -220t189 -86z" />
    <glyph glyph-name="OE" unicode="&#x152;" horiz-adv-x="2828" 
d="M1784 662v-353h903v-309h-1223v160q-218 -193 -546 -193q-246 0 -433.5 106t-289 296.5t-101.5 437.5q0 242 101.5 428.5t289 290.5t433.5 104q326 0 546 -188v155h1213v-309h-893v-332h821v-294h-821zM918 276q223 0 352 144t129 397q0 234 -129 369t-352 135
q-229 0 -362.5 -135t-133.5 -369q0 -253 133 -397t363 -144z" />
    <glyph glyph-name="oe" unicode="&#x153;" horiz-adv-x="2074" 
d="M1980 541v-99h-739q23 -227 244 -227q76 0 126.5 37t59.5 94h305q-25 -172 -161 -275.5t-334 -103.5q-248 0 -404 166q-160 -166 -415 -166q-250 0 -409 159.5t-159 408.5q0 248 159 405.5t409 157.5q125 0 232 -43t183 -121q158 164 404 164q217 0 358 -153t141 -404z
M662 229q117 0 190.5 86t73.5 220q0 132 -73.5 216.5t-190.5 84.5q-115 0 -189 -84.5t-74 -216.5q0 -134 74 -220t189 -86zM1241 629h434q-5 92 -58.5 149.5t-146.5 57.5q-195 0 -229 -207z" />
    <glyph glyph-name="Racute" unicode="&#x154;" horiz-adv-x="1619" 
d="M911 1782h-206l104 307h346zM477 0h-319v1597h749q264 0 408.5 -132t144.5 -369q0 -294 -241 -402q83 -25 128 -83.5t62 -164.5q10 -68 17.5 -140t11 -106.5t16 -81t35.5 -98.5v-20h-338q-12 28 -20.5 56.5t-16.5 70.5t-11 63t-11.5 83.5t-10.5 80.5q-7 55 -13.5 87.5
t-19 62.5t-28.5 45t-43.5 26.5t-62 15t-87.5 3.5h-350v-594zM477 1288v-416h377q139 0 207.5 54t68.5 155q0 99 -71 153t-215 54h-367z" />
    <glyph glyph-name="racute" unicode="&#x155;" horiz-adv-x="886" 
d="M625 1229h-207l104 307h346zM434 0h-299v1065h299v-201q104 213 418 213v-293q-53 0 -91.5 -1.5t-85 -6.5t-79 -13.5t-65 -24t-52.5 -37.5t-32.5 -54t-12.5 -72v-575z" />
    <glyph glyph-name="uni0156" unicode="&#x156;" horiz-adv-x="1619" 
d="M477 0h-319v1597h749q264 0 408.5 -132t144.5 -369q0 -294 -241 -402q83 -25 128 -83.5t62 -164.5q10 -68 17.5 -140t11 -106.5t16 -81t35.5 -98.5v-20h-338q-12 28 -20.5 56.5t-16.5 70.5t-11 63t-11.5 83.5t-10.5 80.5q-7 55 -13.5 87.5t-19 62.5t-28.5 45t-43.5 26.5
t-62 15t-87.5 3.5h-350v-594zM477 1288v-416h377q139 0 207.5 54t68.5 155q0 99 -71 153t-215 54h-367zM754 -690h-209l125 508h325z" />
    <glyph glyph-name="uni0157" unicode="&#x157;" horiz-adv-x="886" 
d="M434 0h-299v1065h299v-201q104 213 418 213v-293q-53 0 -91.5 -1.5t-85 -6.5t-79 -13.5t-65 -24t-52.5 -37.5t-32.5 -54t-12.5 -72v-575zM268 -690h-209l125 508h326z" />
    <glyph glyph-name="Rcaron" unicode="&#x158;" horiz-adv-x="1619" 
d="M909 1782h-254l-219 307h236l110 -172l111 172h235zM477 0h-319v1597h749q264 0 408.5 -132t144.5 -369q0 -294 -241 -402q83 -25 128 -83.5t62 -164.5q10 -68 17.5 -140t11 -106.5t16 -81t35.5 -98.5v-20h-338q-12 28 -20.5 56.5t-16.5 70.5t-11 63t-11.5 83.5
t-10.5 80.5q-7 55 -13.5 87.5t-19 62.5t-28.5 45t-43.5 26.5t-62 15t-87.5 3.5h-350v-594zM477 1288v-416h377q139 0 207.5 54t68.5 155q0 99 -71 153t-215 54h-367z" />
    <glyph glyph-name="rcaron" unicode="&#x159;" horiz-adv-x="886" 
d="M623 1229h-254l-219 307h235l111 -172l110 172h236zM434 0h-299v1065h299v-201q104 213 418 213v-293q-53 0 -91.5 -1.5t-85 -6.5t-79 -13.5t-65 -24t-52.5 -37.5t-32.5 -54t-12.5 -72v-575z" />
    <glyph glyph-name="Sacute" unicode="&#x15a;" horiz-adv-x="1591" 
d="M940 1782h-207l105 307h346zM809 -33q-205 0 -361.5 68t-244.5 201t-88 313h358q5 -136 94.5 -211.5t249.5 -75.5q156 0 242 58t86 159q0 59 -33.5 97t-90.5 56.5t-131 28.5t-155 18.5t-162.5 21t-155.5 41.5t-131 74.5t-90.5 125t-33.5 188.5q0 230 172 365t465 135
q294 0 476.5 -144.5t182.5 -387.5h-352q-9 113 -90 175t-223 62q-146 0 -223.5 -52t-77.5 -148q0 -44 21 -75.5t51 -50t84.5 -31t99.5 -18.5t117 -13q63 -6 96 -9.5t93 -13.5t94.5 -20t85.5 -29t80.5 -41.5t64.5 -57t53.5 -75.5t31.5 -96.5t13 -121.5q0 -231 -179 -373.5
t-489 -142.5z" />
    <glyph glyph-name="sacute" unicode="&#x15b;" horiz-adv-x="1200" 
d="M731 1229h-207l105 307h346zM610 -33q-236 0 -374 99t-142 274h301q3 -75 64.5 -118.5t158.5 -43.5q84 0 134.5 35.5t50.5 85.5q0 44 -37.5 69t-98 36.5t-133 20t-145 26.5t-133 48.5t-98 93.5t-37.5 155q0 162 134 256t368 94q213 0 341 -101t142 -278h-299
q-5 79 -58 123.5t-145 44.5q-84 0 -131 -34.5t-47 -92.5q0 -33 23.5 -54.5t62.5 -32.5t90 -18.5t107.5 -15.5t113 -19.5t107.5 -34t90 -56t62.5 -90t23.5 -130.5q0 -159 -132.5 -250.5t-363.5 -91.5z" />
    <glyph glyph-name="Scedilla" unicode="&#x15e;" horiz-adv-x="1591" 
d="M1477 483q0 -209 -148 -347.5t-411 -164.5l-78 -118q119 23 195.5 -41t76.5 -189q0 -116 -76.5 -181t-212.5 -65q-135 0 -211.5 69t-76.5 192h186q0 -53 26.5 -83t75.5 -30t76 26.5t27 71.5q0 47 -27.5 76t-73.5 29q-57 0 -92 -35l-100 104l104 172q-283 19 -452.5 172.5
t-169.5 407.5h358q5 -136 94.5 -211.5t249.5 -75.5q156 0 242 58t86 159q0 59 -33.5 97t-90.5 56.5t-131 28.5t-155 18.5t-162.5 21t-155.5 41.5t-131 74.5t-90.5 125t-33.5 188.5q0 230 172 365t465 135q294 0 476.5 -144.5t182.5 -387.5h-352q-9 113 -90 175t-223 62
q-146 0 -223.5 -52t-77.5 -148q0 -44 21 -75.5t51 -50t84.5 -31t99.5 -18.5t117 -13q63 -6 96 -9.5t93 -13.5t94.5 -20t85.5 -29t80.5 -41.5t64.5 -57t53.5 -75.5t31.5 -96.5t13 -121.5z" />
    <glyph glyph-name="scedilla" unicode="&#x15f;" horiz-adv-x="1200" 
d="M426 760q0 -33 23.5 -54.5t62.5 -32.5t90 -18.5t107.5 -15.5t113 -19.5t107.5 -34t90 -56t62.5 -90t23.5 -130.5q0 -138 -102.5 -227t-286.5 -109l-78 -120q119 23 195.5 -41t76.5 -189q0 -117 -76.5 -181.5t-211.5 -64.5t-212 69t-77 192h186q0 -53 27 -83t76 -30
t75.5 26.5t26.5 71.5q0 47 -27 76t-73 29q-58 0 -93 -35l-100 104l105 172q-205 15 -322 112.5t-121 258.5h301q3 -75 64.5 -118.5t158.5 -43.5q84 0 134.5 35.5t50.5 85.5q0 44 -37.5 69t-98 36.5t-133 20t-145 26.5t-133 48.5t-98 93.5t-37.5 155q0 162 134 256t368 94
q213 0 341 -101t142 -278h-299q-5 79 -58 123.5t-145 44.5q-84 0 -131 -34.5t-47 -92.5z" />
    <glyph glyph-name="Scaron" unicode="&#x160;" horiz-adv-x="1591" 
d="M938 1782h-254l-219 307h235l111 -172l111 172h235zM809 -33q-205 0 -361.5 68t-244.5 201t-88 313h358q5 -136 94.5 -211.5t249.5 -75.5q156 0 242 58t86 159q0 59 -33.5 97t-90.5 56.5t-131 28.5t-155 18.5t-162.5 21t-155.5 41.5t-131 74.5t-90.5 125t-33.5 188.5
q0 230 172 365t465 135q294 0 476.5 -144.5t182.5 -387.5h-352q-9 113 -90 175t-223 62q-146 0 -223.5 -52t-77.5 -148q0 -44 21 -75.5t51 -50t84.5 -31t99.5 -18.5t117 -13q63 -6 96 -9.5t93 -13.5t94.5 -20t85.5 -29t80.5 -41.5t64.5 -57t53.5 -75.5t31.5 -96.5t13 -121.5
q0 -231 -179 -373.5t-489 -142.5z" />
    <glyph glyph-name="scaron" unicode="&#x161;" horiz-adv-x="1200" 
d="M729 1229h-254l-219 307h236l110 -172l111 172h235zM610 -33q-236 0 -374 99t-142 274h301q3 -75 64.5 -118.5t158.5 -43.5q84 0 134.5 35.5t50.5 85.5q0 44 -37.5 69t-98 36.5t-133 20t-145 26.5t-133 48.5t-98 93.5t-37.5 155q0 162 134 256t368 94q213 0 341 -101
t142 -278h-299q-5 79 -58 123.5t-145 44.5q-84 0 -131 -34.5t-47 -92.5q0 -33 23.5 -54.5t62.5 -32.5t90 -18.5t107.5 -15.5t113 -19.5t107.5 -34t90 -56t62.5 -90t23.5 -130.5q0 -159 -132.5 -250.5t-363.5 -91.5z" />
    <glyph glyph-name="uni0162" unicode="&#x162;" horiz-adv-x="1517" 
d="M920 1286v-1286h-50l-96 -147q118 23 194 -41t76 -189q0 -117 -76.5 -181.5t-211.5 -64.5t-211 69t-76 192h184q0 -53 27 -83t76 -30t76.5 26.5t27.5 71.5q0 47 -28 76t-72 29q-54 0 -94 -35l-101 104l123 203h-88v1286h-551v311h1421v-311h-550z" />
    <glyph glyph-name="uni0163" unicode="&#x163;" horiz-adv-x="964" 
d="M862 1065v-277h-278v-346q0 -51 1 -76t10 -50.5t21 -33.5t41.5 -14.5t64.5 -4.5t97 7v-268q-126 -9 -162 -10l-84 -139q107 23 176.5 -41t69.5 -189q0 -117 -69 -181.5t-191 -64.5q-123 0 -192.5 69t-69.5 192h168q0 -53 25 -83t69 -30t68 26.5t24 71.5q0 47 -24.5 76
t-65.5 29q-53 0 -84 -35l-92 104l109 201q-115 15 -165.5 80.5t-47.5 208.5v501h-228v277h228v287h303v-287h278z" />
    <glyph glyph-name="Tcaron" unicode="&#x164;" horiz-adv-x="1517" 
d="M881 1802h-254l-219 307h235l111 -172l110 172h236zM920 0h-320v1286h-551v311h1421v-311h-550v-1286z" />
    <glyph glyph-name="tcaron" unicode="&#x165;" horiz-adv-x="964" 
d="M862 1311h-207l105 307h346zM819 270v-268q-190 -16 -311 -6t-175.5 77t-51.5 214v501h-228v277h228v287h303v-287h278v-277h-278v-346q0 -51 1 -76t10 -50.5t21 -33.5t41.5 -14.5t64.5 -4.5t97 7z" />
    <glyph glyph-name="Tbar" unicode="&#x166;" horiz-adv-x="1517" 
d="M1470 1597v-311h-550v-360h411v-230h-411v-696h-320v694h-375v230h375v362h-551v311h1421z" />
    <glyph glyph-name="tbar" unicode="&#x167;" horiz-adv-x="964" 
d="M862 1065v-277h-278v-135h231v-229h-231q0 -44 1.5 -68.5t11 -46.5t22.5 -30t42.5 -13t63.5 -3t94 7v-268q-190 -16 -311 -6t-175.5 77t-51.5 214v135h-203v229h203v137h-228v277h228v287h303v-287h278z" />
    <glyph glyph-name="Umacron" unicode="&#x16a;" horiz-adv-x="1687" 
d="M1274 1825l-860 -2v205l860 2v-205zM844 -27q-331 3 -517 189.5t-186 515.5v919h318v-917q0 -187 101.5 -292t283.5 -105q181 0 282 104.5t101 292.5v917h319v-919q0 -334 -186 -521t-516 -184z" />
    <glyph glyph-name="umacron" unicode="&#x16b;" horiz-adv-x="1316" 
d="M1018 1251l-709 -2v205l709 2v-205zM879 1065h303v-1065h-303v154q-117 -187 -361 -187q-395 0 -395 496v602h307v-586q0 -117 55.5 -183.5t153.5 -66.5q110 0 175 79.5t65 211.5v545z" />
    <glyph glyph-name="Uring" unicode="&#x16e;" horiz-adv-x="1687" 
d="M844 1755q-116 0 -194.5 78.5t-78.5 194.5q0 115 78.5 193.5t194.5 78.5t194 -78t78 -194t-78.5 -194.5t-193.5 -78.5zM844 1950q31 0 54.5 23.5t23.5 54.5t-23.5 54t-54.5 23t-54.5 -23t-23.5 -54t23.5 -54.5t54.5 -23.5zM844 -27q-331 3 -517 189.5t-186 515.5v919h318
v-917q0 -187 101.5 -292t283.5 -105q181 0 282 104.5t101 292.5v917h319v-919q0 -334 -186 -521t-516 -184z" />
    <glyph glyph-name="uring" unicode="&#x16f;" horiz-adv-x="1316" 
d="M664 1182q-116 0 -194.5 78.5t-78.5 193.5t78.5 193.5t194.5 78.5t194 -78t78 -194t-78 -194t-194 -78zM664 1376q31 0 54 23.5t23 54.5t-23 54.5t-54 23.5t-54.5 -23.5t-23.5 -54.5t23.5 -54.5t54.5 -23.5zM879 1065h303v-1065h-303v154q-117 -187 -361 -187
q-395 0 -395 496v602h307v-586q0 -117 55.5 -183.5t153.5 -66.5q110 0 175 79.5t65 211.5v545z" />
    <glyph glyph-name="Uhungarumlaut" unicode="&#x170;" horiz-adv-x="1687" 
d="M772 1802h-192l118 307h303zM1130 1802h-190l119 307h303zM844 -27q-331 3 -517 189.5t-186 515.5v919h318v-917q0 -187 101.5 -292t283.5 -105q181 0 282 104.5t101 292.5v917h319v-919q0 -334 -186 -521t-516 -184z" />
    <glyph glyph-name="uhungarumlaut" unicode="&#x171;" horiz-adv-x="1316" 
d="M592 1229h-193l119 307h303zM950 1229h-190l119 307h303zM879 1065h303v-1065h-303v154q-117 -187 -361 -187q-395 0 -395 496v602h307v-586q0 -117 55.5 -183.5t153.5 -66.5q110 0 175 79.5t65 211.5v545z" />
    <glyph glyph-name="Uogonek" unicode="&#x172;" horiz-adv-x="1687" 
d="M1227 680v917h319v-919q0 -323 -173.5 -509t-483.5 -196q-68 -61 -68 -129q0 -56 56.5 -90.5t160.5 -34.5v-176q-220 -14 -331 49.5t-111 182.5q0 122 102 211q-266 41 -411.5 221.5t-145.5 470.5v919h318v-917q0 -187 101.5 -292t283.5 -105q181 0 282 104.5t101 292.5z
" />
    <glyph glyph-name="uogonek" unicode="&#x173;" horiz-adv-x="1316" 
d="M1182 0h-140q-100 -75 -100 -156q0 -56 56.5 -90.5t160.5 -34.5v-176q-220 -14 -331 49.5t-111 182.5q0 157 162 252v127q-117 -187 -361 -187q-395 0 -395 496v602h307v-586q0 -117 55.5 -183.5t153.5 -66.5q110 0 175 79.5t65 211.5v545h303v-1065z" />
    <glyph glyph-name="Wcircumflex" unicode="&#x174;" horiz-adv-x="2514" 
d="M1122 1802h-235l219 307h254l219 -307h-236l-110 172zM891 0h-352l-482 1597h353l309 -1173l338 1173h389l348 -1175l311 1175h353l-482 -1597h-352l-371 1139z" />
    <glyph glyph-name="wcircumflex" unicode="&#x175;" horiz-adv-x="1916" 
d="M831 1229h-235l219 307h254l219 -307h-235l-111 172zM729 0h-321l-365 1065h319l211 -664l228 664h313l229 -664l211 664h318l-365 -1065h-321l-228 639z" />
    <glyph glyph-name="Ycircumflex" unicode="&#x176;" horiz-adv-x="1597" 
d="M682 1802h-236l220 307h254l219 -307h-236l-110 172zM958 0h-319v627l-612 970h352l420 -682l420 682h352l-613 -970v-627z" />
    <glyph glyph-name="ycircumflex" unicode="&#x177;" horiz-adv-x="1306" 
d="M549 1229h-236l219 307h254l220 -307h-236l-111 172zM283 -410h-131v269h104q100 -2 159.5 25.5t110.5 99.5l-463 1081h320l303 -711l264 711h320l-436 -1143q-78 -186 -210 -259t-341 -73z" />
    <glyph glyph-name="Ydieresis" unicode="&#x178;" horiz-adv-x="1597" 
d="M569 1757q-85 0 -139.5 54.5t-54.5 138.5q0 83 54.5 136.5t139.5 53.5t139 -53.5t54 -136.5t-55 -138t-138 -55zM1030 1757q-84 0 -139 54.5t-55 138.5q0 83 54.5 136.5t139.5 53.5t139 -53.5t54 -136.5t-55 -138t-138 -55zM958 0h-319v627l-612 970h352l420 -682
l420 682h352l-613 -970v-627z" />
    <glyph glyph-name="Zacute" unicode="&#x179;" horiz-adv-x="1495" 
d="M840 1802h-207l104 307h346zM1374 0h-1268v219l816 1090h-828v288h1307v-174l-830 -1134h803v-289z" />
    <glyph glyph-name="zacute" unicode="&#x17a;" horiz-adv-x="1204" 
d="M737 1229h-207l105 307h346zM1104 0h-1016v172l565 602h-526v291h967v-186l-543 -588h553v-291z" />
    <glyph glyph-name="Zdotaccent" unicode="&#x17b;" horiz-adv-x="1495" 
d="M717 1769q-85 0 -140 55t-55 138t55 135.5t140 52.5t138.5 -52.5t53.5 -135.5t-54.5 -138t-137.5 -55zM1374 0h-1268v219l816 1090h-828v288h1307v-174l-830 -1134h803v-289z" />
    <glyph glyph-name="zdotaccent" unicode="&#x17c;" horiz-adv-x="1204" 
d="M614 1196q-84 0 -139 55t-55 138t54.5 135.5t139.5 52.5t139 -52.5t54 -135.5t-55 -138t-138 -55zM1104 0h-1016v172l565 602h-526v291h967v-186l-543 -588h553v-291z" />
    <glyph glyph-name="Zcaron" unicode="&#x17d;" horiz-adv-x="1495" 
d="M838 1802h-254l-219 307h235l111 -172l110 172h236zM1374 0h-1268v219l816 1090h-828v288h1307v-174l-830 -1134h803v-289z" />
    <glyph glyph-name="zcaron" unicode="&#x17e;" horiz-adv-x="1204" 
d="M735 1229h-254l-219 307h236l110 -172l111 172h235zM1104 0h-1016v172l565 602h-526v291h967v-186l-543 -588h553v-291z" />
    <glyph glyph-name="uni0218" unicode="&#x218;" horiz-adv-x="1591" 
d="M809 -33q-205 0 -361.5 68t-244.5 201t-88 313h358q5 -136 94.5 -211.5t249.5 -75.5q156 0 242 58t86 159q0 59 -33.5 97t-90.5 56.5t-131 28.5t-155 18.5t-162.5 21t-155.5 41.5t-131 74.5t-90.5 125t-33.5 188.5q0 230 172 365t465 135q294 0 476.5 -144.5
t182.5 -387.5h-352q-9 113 -90 175t-223 62q-146 0 -223.5 -52t-77.5 -148q0 -44 21 -75.5t51 -50t84.5 -31t99.5 -18.5t117 -13q63 -6 96 -9.5t93 -13.5t94.5 -20t85.5 -29t80.5 -41.5t64.5 -57t53.5 -75.5t31.5 -96.5t13 -121.5q0 -231 -179 -373.5t-489 -142.5zM797 -690
h-209l125 508h325z" />
    <glyph glyph-name="uni0219" unicode="&#x219;" horiz-adv-x="1200" 
d="M610 -33q-236 0 -374 99t-142 274h301q3 -75 64.5 -118.5t158.5 -43.5q84 0 134.5 35.5t50.5 85.5q0 44 -37.5 69t-98 36.5t-133 20t-145 26.5t-133 48.5t-98 93.5t-37.5 155q0 162 134 256t368 94q213 0 341 -101t142 -278h-299q-5 79 -58 123.5t-145 44.5
q-84 0 -131 -34.5t-47 -92.5q0 -33 23.5 -54.5t62.5 -32.5t90 -18.5t107.5 -15.5t113 -19.5t107.5 -34t90 -56t62.5 -90t23.5 -130.5q0 -159 -132.5 -250.5t-363.5 -91.5zM596 -690h-209l125 508h326z" />
    <glyph glyph-name="uni021A" unicode="&#x21a;" horiz-adv-x="1517" 
d="M920 0h-320v1286h-551v311h1421v-311h-550v-1286zM760 -690h-209l125 508h323z" />
    <glyph glyph-name="uni021B" unicode="&#x21b;" horiz-adv-x="964" 
d="M819 270v-268q-190 -16 -311 -6t-175.5 77t-51.5 214v501h-228v277h228v287h303v-287h278v-277h-278v-346q0 -51 1 -76t10 -50.5t21 -33.5t41.5 -14.5t64.5 -4.5t97 7zM532 -690h-208l125 508h325z" />
    <glyph glyph-name="circumflex" unicode="&#x2c6;" horiz-adv-x="1228" 
d="M408 1331h-236l219 307h254l219 -307h-235l-111 172z" />
    <glyph glyph-name="caron" unicode="&#x2c7;" horiz-adv-x="1228" 
d="M645 1331h-254l-219 307h236l110 -172l111 172h235z" />
    <glyph glyph-name="breve" unicode="&#x2d8;" horiz-adv-x="1228" 
d="M483 1339q-135 0 -210.5 74t-75.5 205h180q0 -55 28 -86t78 -31t78.5 31t28.5 86h180q0 -131 -76 -205t-211 -74z" />
    <glyph glyph-name="dotaccent" unicode="&#x2d9;" horiz-adv-x="1228" 
d="M348 1196q-84 0 -139 55t-55 138t54.5 135.5t139.5 52.5t139 -52.5t54 -135.5t-55 -138t-138 -55z" />
    <glyph glyph-name="ring" unicode="&#x2da;" horiz-adv-x="1228" 
d="M434 1167q-115 0 -193.5 78.5t-78.5 194.5t78 194t194 78t194.5 -78.5t78.5 -193.5q0 -116 -78.5 -194.5t-194.5 -78.5zM434 1362q31 0 54.5 23.5t23.5 54.5t-23.5 54.5t-54.5 23.5t-54.5 -23.5t-23.5 -54.5t23.5 -54.5t54.5 -23.5z" />
    <glyph glyph-name="ogonek" unicode="&#x2db;" horiz-adv-x="1228" 
d="M586 -281v-176q-220 -14 -331.5 49.5t-111.5 182.5q0 111 79 188.5t202 110.5l53 -68q-108 -76 -108 -162q0 -56 56.5 -90.5t160.5 -34.5z" />
    <glyph glyph-name="tilde" unicode="&#x2dc;" horiz-adv-x="1228" 
d="M719 1376q-43 0 -85 16.5t-69.5 36t-58 36t-53.5 16.5q-84 0 -84 -103h-176q-10 127 55.5 199t191.5 72q53 0 102 -26.5t89.5 -52.5t70.5 -26q80 0 80 105h181q10 -127 -55.5 -200t-188.5 -73z" />
    <glyph glyph-name="hungarumlaut" unicode="&#x2dd;" horiz-adv-x="1228" 
d="M379 1331h-193l119 307h303zM737 1331h-190l119 307h303z" />
    <glyph glyph-name="gravecomb" unicode="&#x300;" 
d="M-291 1638l105 -307h-207l-244 307h346z" />
    <glyph glyph-name="acutecomb" unicode="&#x301;" 
d="M-387 1331h-207l105 307h346z" />
    <glyph glyph-name="uni0302" unicode="&#x302;" 
d="M-629 1331h-235l219 307h254l219 -307h-236l-110 172z" />
    <glyph glyph-name="tildecomb" unicode="&#x303;" 
d="M-442 1376q-43 0 -85.5 16.5t-70 36t-58 36t-53.5 16.5q-84 0 -84 -103h-176q-10 127 56 199t192 72q53 0 102 -26.5t89.5 -52.5t70.5 -26q80 0 80 105h180q10 -127 -55 -200t-188 -73z" />
    <glyph glyph-name="uni0304" unicode="&#x304;" 
d="M-205 1354l-860 -2v204l860 3v-205z" />
    <glyph glyph-name="uni0306" unicode="&#x306;" 
d="M-483 1339q-135 0 -211 74t-76 205h180q0 -55 28.5 -86t78.5 -31t78 31t28 86h180q0 -131 -75.5 -205t-210.5 -74z" />
    <glyph glyph-name="uni0307" unicode="&#x307;" 
d="M-346 1196q-85 0 -140 55t-55 138t55 135.5t140 52.5t138.5 -52.5t53.5 -135.5t-54.5 -138t-137.5 -55z" />
    <glyph glyph-name="uni0308" unicode="&#x308;" 
d="M-745 1184q-85 0 -140 54.5t-55 137.5t55 137t140 54t138.5 -53.5t53.5 -137.5q0 -83 -54.5 -137.5t-137.5 -54.5zM-285 1184q-85 0 -139.5 54.5t-54.5 137.5t54.5 137t139.5 54t139 -54t54 -137t-55 -137.5t-138 -54.5z" />
    <glyph glyph-name="uni030A" unicode="&#x30a;" 
d="M-434 1167q-116 0 -194.5 78.5t-78.5 194.5q0 115 78.5 193.5t194.5 78.5t194 -78t78 -194t-78.5 -194.5t-193.5 -78.5zM-434 1362q31 0 54.5 23.5t23.5 54.5t-23.5 54.5t-54.5 23.5t-54.5 -23.5t-23.5 -54.5t23.5 -54.5t54.5 -23.5z" />
    <glyph glyph-name="uni030B" unicode="&#x30b;" 
d="M-733 1331h-193l119 307h303zM-375 1331h-190l119 307h303z" />
    <glyph glyph-name="uni030C" unicode="&#x30c;" 
d="M-391 1331h-254l-219 307h235l111 -172l110 172h236z" />
    <glyph glyph-name="uni0312" unicode="&#x312;" 
d="M-381 1776h209l-125 -508h-326z" />
    <glyph glyph-name="uni0326" unicode="&#x326;" 
d="M-395 -690h-209l125 508h325z" />
    <glyph glyph-name="uni0327" unicode="&#x327;" 
d="M-537 -623q-135 0 -211.5 69t-76.5 192h186q0 -53 26.5 -83t75.5 -30t76 26.5t27 71.5q0 47 -27.5 76t-73.5 29q-57 0 -92 -35l-100 104l123 203h180l-96 -147q119 23 195.5 -41t76.5 -189q0 -116 -76.5 -181t-212.5 -65z" />
    <glyph glyph-name="uni0328" unicode="&#x328;" 
d="M-205 -281v-176q-220 -14 -331 49.5t-111 182.5q0 111 78.5 188.5t201.5 110.5l54 -68q-109 -77 -109 -162q0 -56 56.5 -90.5t160.5 -34.5z" />
    <glyph glyph-name="uni0335" unicode="&#x335;" 
d="M-205 696l-1106 -2v230l1106 2v-230z" />
    <glyph glyph-name="uni0336" unicode="&#x336;" 
d="M-205 713l-1759 -2v270l1759 2v-270z" />
    <glyph glyph-name="uni0337" unicode="&#x337;" 
d="M-231 940l-867 -924l-198 177l870 925z" />
    <glyph glyph-name="uni0338" unicode="&#x338;" 
d="M-182 1464l-1426 -1501l-198 174l1427 1503z" />
    <glyph glyph-name="Wgrave" unicode="&#x1e80;" horiz-adv-x="2514" 
d="M1223 2109l104 -307h-207l-243 307h346zM891 0h-352l-482 1597h353l309 -1173l338 1173h389l348 -1175l311 1175h353l-482 -1597h-352l-371 1139z" />
    <glyph glyph-name="wgrave" unicode="&#x1e81;" horiz-adv-x="1916" 
d="M932 1536l104 -307h-207l-243 307h346zM729 0h-321l-365 1065h319l211 -664l228 664h313l229 -664l211 664h318l-365 -1065h-321l-228 639z" />
    <glyph glyph-name="Wacute" unicode="&#x1e82;" horiz-adv-x="2514" 
d="M1362 1802h-207l105 307h346zM891 0h-352l-482 1597h353l309 -1173l338 1173h389l348 -1175l311 1175h353l-482 -1597h-352l-371 1139z" />
    <glyph glyph-name="wacute" unicode="&#x1e83;" horiz-adv-x="1916" 
d="M1071 1229h-207l105 307h346zM729 0h-321l-365 1065h319l211 -664l228 664h313l229 -664l211 664h318l-365 -1065h-321l-228 639z" />
    <glyph glyph-name="Wdieresis" unicode="&#x1e84;" horiz-adv-x="2514" 
d="M1010 1757q-85 0 -140 55t-55 138t55 136.5t140 53.5t138.5 -53.5t53.5 -136.5t-54.5 -138t-137.5 -55zM1470 1757q-84 0 -139 54.5t-55 138.5q0 83 54.5 136.5t139.5 53.5t139 -53.5t54 -136.5t-55 -138t-138 -55zM891 0h-352l-482 1597h353l309 -1173l338 1173h389
l348 -1175l311 1175h353l-482 -1597h-352l-371 1139z" />
    <glyph glyph-name="wdieresis" unicode="&#x1e85;" horiz-adv-x="1916" 
d="M719 1184q-85 0 -140 54.5t-55 137.5t55 137t140 54t138.5 -53.5t53.5 -137.5q0 -83 -54.5 -137.5t-137.5 -54.5zM1180 1184q-85 0 -140 54.5t-55 137.5t55 137t140 54q84 0 138 -53.5t54 -137.5q0 -83 -54.5 -137.5t-137.5 -54.5zM729 0h-321l-365 1065h319l211 -664
l228 664h313l229 -664l211 664h318l-365 -1065h-321l-228 639z" />
    <glyph glyph-name="Ygrave" unicode="&#x1ef2;" horiz-adv-x="1597" 
d="M782 2109l105 -307h-207l-244 307h346zM958 0h-319v627l-612 970h352l420 -682l420 682h352l-613 -970v-627z" />
    <glyph glyph-name="ygrave" unicode="&#x1ef3;" horiz-adv-x="1306" 
d="M649 1536l105 -307h-207l-244 307h346zM283 -410h-131v269h104q100 -2 159.5 25.5t110.5 99.5l-463 1081h320l303 -711l264 711h320l-436 -1143q-78 -186 -210 -259t-341 -73z" />
    <glyph glyph-name="endash" unicode="&#x2013;" horiz-adv-x="1753" 
d="M1563 590h-1373v303h1373v-303z" />
    <glyph glyph-name="emdash" unicode="&#x2014;" horiz-adv-x="2285" 
d="M2095 590h-1905v303h1905v-303z" />
    <glyph glyph-name="quoteleft" unicode="&#x2018;" horiz-adv-x="606" 
d="M322 1618h210l-126 -508h-324z" />
    <glyph glyph-name="quoteright" unicode="&#x2019;" horiz-adv-x="602" 
d="M285 1110h-209l125 508h325z" />
    <glyph glyph-name="quotesinglbase" unicode="&#x201a;" horiz-adv-x="606" 
d="M285 -211h-209l125 508h325z" />
    <glyph glyph-name="quotedblleft" unicode="&#x201c;" horiz-adv-x="1089" 
d="M322 1618h210l-126 -508h-324zM803 1618h209l-127 -508h-324z" />
    <glyph glyph-name="quotedblright" unicode="&#x201d;" horiz-adv-x="1085" 
d="M285 1110h-209l125 508h325zM764 1110h-209l125 508h326z" />
    <glyph glyph-name="quotedblbase" unicode="&#x201e;" horiz-adv-x="1087" 
d="M285 -211h-209l125 508h325zM764 -211h-209l125 508h326z" />
    <glyph glyph-name="dagger" unicode="&#x2020;" horiz-adv-x="1515" 
d="M918 -410h-320v1131h-393v301h393v596h320v-594h393v-301h-393v-1133z" />
    <glyph glyph-name="daggerdbl" unicode="&#x2021;" horiz-adv-x="1515" 
d="M918 -410h-320v613h-393v301h393v217h-393v301h393v596h320v-594h393v-301h-393v-217h393v-301h-393v-615z" />
    <glyph glyph-name="bullet" unicode="&#x2022;" horiz-adv-x="1404" 
d="M717 240q-159 0 -286.5 70.5t-199 196t-71.5 281.5q0 236 157.5 389.5t399.5 153.5q240 0 396.5 -153.5t156.5 -389.5q0 -237 -157.5 -392.5t-395.5 -155.5z" />
    <glyph glyph-name="ellipsis" unicode="&#x2026;" horiz-adv-x="1683" 
d="M301 -29q-85 0 -141 54t-56 137t56 136.5t141 53.5q84 0 138.5 -53.5t54.5 -136.5t-55 -137t-138 -54zM844 -29q-85 0 -140 54t-55 137t55 136.5t140 53.5q83 0 137.5 -53.5t54.5 -136.5t-54.5 -137t-137.5 -54zM1384 -29q-85 0 -139.5 54t-54.5 137t54.5 136.5
t139.5 53.5t139 -53.5t54 -136.5t-55 -137t-138 -54z" />
    <glyph glyph-name="perthousand" unicode="&#x2030;" horiz-adv-x="3090" 
d="M963 1251q0 -177 -111 -292t-277 -115q-164 0 -274.5 115t-110.5 292q0 176 110.5 292t274.5 116q165 0 276.5 -116t111.5 -292zM340 0l1161 1618h391l-1161 -1618h-391zM428 1251q0 -74 41.5 -121t105.5 -47t106 47t42 121t-42 121t-106 47t-105.5 -47t-41.5 -121z
M2515 795q164 0 275.5 -115.5t111.5 -292.5t-111.5 -292t-275.5 -115q-157 0 -266 106q-106 -106 -267 -106q-165 0 -276 115.5t-111 291.5q0 177 111 292.5t276 115.5q160 0 267 -107q107 107 266 107zM1982 219q64 0 106 47t42 121t-42 121t-106 47t-105.5 -47t-41.5 -121
t41.5 -121t105.5 -47zM2515 219q64 0 105.5 47t41.5 121t-41.5 121t-105.5 47t-106 -47t-42 -121t42 -121t106 -47z" />
    <glyph glyph-name="guilsinglleft" unicode="&#x2039;" horiz-adv-x="1169" 
d="M981 0h-340l-451 512l451 512h340l-444 -512z" />
    <glyph glyph-name="guilsinglright" unicode="&#x203a;" horiz-adv-x="1169" 
d="M981 512l-451 -512h-340l445 512l-445 512h340z" />
    <glyph glyph-name="fraction" unicode="&#x2044;" horiz-adv-x="1902" 
d="M1577 1618l-1159 -1618h-391l1159 1618h391z" />
    <glyph glyph-name="Euro" unicode="&#x20ac;" horiz-adv-x="1959" 
d="M1536 602h330q-23 -148 -91.5 -268.5t-168 -200.5t-224 -123t-262.5 -43q-271 0 -474.5 134.5t-293.5 367.5h-266v270h209q-2 23 -2 68q0 43 2 63h-209v273h268q90 226 292 356.5t470 130.5q190 0 345.5 -70t258.5 -209t127 -327h-329q-26 138 -136 216.5t-270 80.5
q-130 1 -232 -44t-165 -132h547v-273l-639 -2q-2 -16 -2 -53q0 -24 4 -78l637 2v-270h-549q64 -95 163.5 -145t227.5 -50q175 0 291.5 86t140.5 240z" />
    <glyph glyph-name="trademark" unicode="&#x2122;" horiz-adv-x="2600" 
d="M637 522h-215v871h-375v211h963v-211h-373v-871zM1391 522h-215v1082h327l305 -768l308 768h327v-1082h-215v781l-321 -781h-195l-321 781v-781z" />
    <glyph glyph-name="arrowleft" unicode="&#x2190;" horiz-adv-x="2039" 
d="M774 936h1075v-311h-1075l365 -365l-217 -213l-732 731l732 733l215 -215z" />
    <glyph glyph-name="arrowup" unicode="&#x2191;" horiz-adv-x="1845" 
d="M1077 0h-311v1073l-360 -360l-216 215l732 731l733 -731l-215 -217l-363 362v-1073z" />
    <glyph glyph-name="arrowright" unicode="&#x2192;" horiz-adv-x="2039" 
d="M190 625v311h1074l-361 360l213 215l733 -733l-733 -731l-215 213l363 365h-1074z" />
    <glyph glyph-name="arrowdown" unicode="&#x2193;" horiz-adv-x="1845" 
d="M766 545v1073h311v-1073l363 362l215 -217l-733 -731l-732 731l216 215z" />
    <glyph glyph-name="arrowboth" unicode="&#x2194;" horiz-adv-x="2478" 
d="M1339 1296l217 215l732 -733l-732 -731l-215 215l363 361h-930l363 -361l-215 -215l-732 731l732 733l217 -215l-365 -362h930z" />
    <glyph glyph-name="arrowupdn" unicode="&#x2195;" horiz-adv-x="1845" 
d="M1079 1217v-885l361 360l215 -213l-733 -733l-732 733l213 215l365 -362v885l-365 -363l-213 217l732 731l733 -731l-215 -215z" />
    <glyph glyph-name="uni2196" unicode="&#x2196;" horiz-adv-x="1662" 
d="M698 1317l758 -760l-219 -219l-760 758v-514l-303 2v1036h1034v-305z" />
    <glyph glyph-name="uni2197" unicode="&#x2197;" horiz-adv-x="1665" 
d="M410 336l-220 219l760 760h-510l-2 303h1037v-1036h-306v514z" />
    <glyph glyph-name="uni2198" unicode="&#x2198;" horiz-adv-x="1662" 
d="M182 1063l221 221l760 -760l-2 510h303v-1034h-1034l-2 305h514z" />
    <glyph glyph-name="uni2199" unicode="&#x2199;" horiz-adv-x="1665" 
d="M1255 1282l220 -219l-760 -760h510l2 -303h-1037v1036h306v-514z" />
    <glyph glyph-name="partialdiff" unicode="&#x2202;" horiz-adv-x="1445" 
d="M711 -33q-123 0 -232 40.5t-188 113t-124.5 177t-45.5 226.5q0 245 150 387t409 142q107 0 200 -38t152 -106q-28 207 -112 319.5t-213 112.5q-111 0 -181 -49.5t-82 -136.5l-329 2q22 232 175.5 363t407.5 131q287 0 462 -229.5t175 -639.5q0 -184 -37.5 -331.5
t-112.5 -256.5t-195.5 -168t-278.5 -59zM711 276q115 0 188.5 69t73.5 177q0 111 -74 181.5t-192 70.5q-117 0 -191 -70.5t-74 -179.5t75.5 -178.5t193.5 -69.5z" />
    <glyph glyph-name="emptyset" unicode="&#x2205;" horiz-adv-x="1323" 
d="M1188 958l-68 -73q111 -149 111 -350q0 -249 -159.5 -408.5t-409.5 -159.5q-169 0 -302 76l-73 -82l-152 131l76 82q-117 152 -117 361q0 248 159 405.5t409 157.5q174 0 309 -80l67 74zM399 535q0 -59 21 -127l360 399q-56 29 -118 29q-115 0 -189 -84.5t-74 -216.5z
M662 229q117 0 190.5 86t73.5 220q0 55 -17 114l-358 -395q52 -25 111 -25z" />
    <glyph glyph-name="product" unicode="&#x220f;" horiz-adv-x="2291" 
d="M854 -410h-319v1719h-345v309h1911v-309h-346v-1719h-319v1719h-582v-1719z" />
    <glyph glyph-name="summation" unicode="&#x2211;" horiz-adv-x="1572" 
d="M1384 -307h-1194v309l633 592l-633 592v309h1194v-309h-819l633 -592l-633 -592h819v-309z" />
    <glyph glyph-name="minus" unicode="&#x2212;" horiz-adv-x="1445" 
d="M1255 575l-1065 -2v271l1065 2v-271z" />
    <glyph glyph-name="radical" unicode="&#x221a;" horiz-adv-x="1980" 
d="M899 -225h-324l-385 1024h314l223 -588l436 1290h627v-309h-418z" />
    <glyph glyph-name="infinity" unicode="&#x221e;" horiz-adv-x="2217" 
d="M647 309q-192 0 -324.5 122t-132.5 302q0 185 132 309.5t325 124.5q250 0 465 -272q116 138 226 205t233 67q193 0 325 -124.5t132 -309.5q0 -180 -132.5 -302t-324.5 -122q-252 0 -467 271q-123 -137 -230 -204t-227 -67zM662 561q144 0 280 172q-74 86 -141 131
t-139 45q-89 0 -141 -48t-52 -128q0 -78 52 -125t141 -47zM1556 561q88 0 140.5 47t52.5 125q0 80 -52.5 128t-140.5 48q-74 0 -141 -44.5t-139 -131.5q144 -172 280 -172z" />
    <glyph glyph-name="integral" unicode="&#x222b;" horiz-adv-x="1267" 
d="M352 -535h-162v299h46q138 -2 193.5 46t55.5 180v1241q1 233 98 322.5t332 84.5h164v-299h-45q-140 2 -195 -45.5t-55 -179.5v-1241q-1 -233 -99 -323t-333 -85z" />
    <glyph glyph-name="approxequal" unicode="&#x2248;" horiz-adv-x="1415" 
d="M897 723q-57 0 -113 20t-93 44.5t-78 44.5t-72 20q-57 0 -85 -33.5t-28 -91.5h-235q-13 155 75 241.5t256 86.5q55 0 109.5 -19.5t90.5 -43t78 -43t75 -19.5q106 0 106 125h242q13 -155 -74.5 -243.5t-253.5 -88.5zM897 293q-57 0 -113 20t-93 44.5t-78 44.5t-72 20
q-57 0 -85 -33.5t-28 -91.5h-235q-13 155 75 241.5t256 86.5q55 0 109.5 -19.5t90.5 -43t78 -43t75 -19.5q106 0 106 125h242q13 -155 -74.5 -243.5t-253.5 -88.5z" />
    <glyph glyph-name="notequal" unicode="&#x2260;" horiz-adv-x="1445" 
d="M938 1397h338l-254 -355h233v-272h-430l-94 -131h524v-270l-716 -2l-265 -367h-337l262 367h-9v270h203l94 131h-297v272h494z" />
    <glyph glyph-name="lessequal" unicode="&#x2264;" horiz-adv-x="1415" 
d="M1225 313v-315l-1024 405v340l1024 406v-315l-625 -261zM1225 -2v-272l-1035 2v272z" />
    <glyph glyph-name="greaterequal" unicode="&#x2265;" horiz-adv-x="1415" 
d="M1214 403l-1024 -405v315l625 260l-625 261v315l1024 -406v-340zM1225 -272l-1035 -2v272l1035 2v-272z" />
    <glyph glyph-name="lozenge" unicode="&#x25ca;" horiz-adv-x="1691" 
d="M1087 0h-479l-432 809l432 809h479l429 -809zM524 809l324 -498l319 498l-319 500z" />
    <glyph glyph-name="G.ss01" horiz-adv-x="1804" 
d="M926 -33q-238 0 -424 105.5t-289.5 297t-103.5 437.5q0 180 61 333.5t169 261t261.5 168t333.5 60.5q138 0 261.5 -37t221 -107t162.5 -178.5t84 -242.5h-328q-27 119 -136.5 186.5t-268.5 69.5q-228 2 -360 -132.5t-132 -371.5q0 -252 130 -396.5t354 -144.5
q189 0 303.5 87.5t117.5 228.5h-436v270h789q0 -456 -188.5 -675.5t-581.5 -219.5z" />
    <glyph glyph-name="Gbreve.ss01" horiz-adv-x="1804" 
d="M934 1790q-135 0 -211 73.5t-76 204.5h180q0 -55 28.5 -85.5t78.5 -30.5t78 30.5t28 85.5h181q0 -131 -76 -204.5t-211 -73.5zM926 -33q-238 0 -424 105.5t-289.5 297t-103.5 437.5q0 180 61 333.5t169 261t261.5 168t333.5 60.5q138 0 261.5 -37t221 -107t162.5 -178.5
t84 -242.5h-328q-27 119 -136.5 186.5t-268.5 69.5q-228 2 -360 -132.5t-132 -371.5q0 -252 130 -396.5t354 -144.5q189 0 303.5 87.5t117.5 228.5h-436v270h789q0 -456 -188.5 -675.5t-581.5 -219.5z" />
    <glyph glyph-name="uni0122.ss01" horiz-adv-x="1804" 
d="M926 -33q-238 0 -424 105.5t-289.5 297t-103.5 437.5q0 180 61 333.5t169 261t261.5 168t333.5 60.5q138 0 261.5 -37t221 -107t162.5 -178.5t84 -242.5h-328q-27 119 -136.5 186.5t-268.5 69.5q-228 2 -360 -132.5t-132 -371.5q0 -252 130 -396.5t354 -144.5
q189 0 303.5 87.5t117.5 228.5h-436v270h789q0 -456 -188.5 -675.5t-581.5 -219.5zM901 -690h-209l125 508h326z" />
    <glyph glyph-name="Gdotaccent.ss01" horiz-adv-x="1804" 
d="M934 1749q-85 0 -140 55t-55 138t55 135.5t140 52.5t138.5 -52.5t53.5 -135.5t-54.5 -138t-137.5 -55zM926 -33q-238 0 -424 105.5t-289.5 297t-103.5 437.5q0 180 61 333.5t169 261t261.5 168t333.5 60.5q138 0 261.5 -37t221 -107t162.5 -178.5t84 -242.5h-328
q-27 119 -136.5 186.5t-268.5 69.5q-228 2 -360 -132.5t-132 -371.5q0 -252 130 -396.5t354 -144.5q189 0 303.5 87.5t117.5 228.5h-436v270h789q0 -456 -188.5 -675.5t-581.5 -219.5z" />
    <glyph glyph-name="K.ss01" horiz-adv-x="1675" 
d="M477 0h-319v1597h319v-630l725 630h443l-861 -743l873 -854h-430l-750 731v-731z" />
    <glyph glyph-name="uni0136.ss01" horiz-adv-x="1675" 
d="M477 0h-319v1597h319v-630l725 630h443l-861 -743l873 -854h-430l-750 731v-731zM795 -690h-209l125 508h325z" />
    <glyph glyph-name="R.ss01" horiz-adv-x="1558" 
d="M477 0h-319v1597h710q266 0 416 -132.5t150 -368.5q0 -170 -80 -292.5t-226 -174.5l336 -629h-344l-307 580h-336v-580zM477 1288v-416h326q147 0 224 54.5t77 154.5q0 98 -79.5 152.5t-231.5 54.5h-316z" />
    <glyph glyph-name="Racute.ss01" horiz-adv-x="1558" 
d="M895 1782h-207l105 307h346zM477 0h-319v1597h710q266 0 416 -132.5t150 -368.5q0 -170 -80 -292.5t-226 -174.5l336 -629h-344l-307 580h-336v-580zM477 1288v-416h326q147 0 224 54.5t77 154.5q0 98 -79.5 152.5t-231.5 54.5h-316z" />
    <glyph glyph-name="Rcaron.ss01" horiz-adv-x="1558" 
d="M893 1782h-254l-219 307h235l111 -172l111 172h235zM477 0h-319v1597h710q266 0 416 -132.5t150 -368.5q0 -170 -80 -292.5t-226 -174.5l336 -629h-344l-307 580h-336v-580zM477 1288v-416h326q147 0 224 54.5t77 154.5q0 98 -79.5 152.5t-231.5 54.5h-316z" />
    <glyph glyph-name="uni0156.ss01" horiz-adv-x="1558" 
d="M477 0h-319v1597h710q266 0 416 -132.5t150 -368.5q0 -170 -80 -292.5t-226 -174.5l336 -629h-344l-307 580h-336v-580zM477 1288v-416h326q147 0 224 54.5t77 154.5q0 98 -79.5 152.5t-231.5 54.5h-316zM737 -690h-209l125 508h326z" />
    <glyph glyph-name="i.loclTRK" horiz-adv-x="571" 
d="M287 1196q-85 0 -140 55t-55 138t55 135.5t140 52.5t138.5 -52.5t53.5 -135.5t-54.5 -138t-137.5 -55zM438 0h-305v1065h305v-1065z" />
    <glyph glyph-name="a.ss01" horiz-adv-x="1323" 
d="M557 -33q-135 0 -240 72.5t-162 202t-57 295.5q0 248 127 404.5t332 156.5q240 0 356 -168v135h306v-1065h-306v135q-114 -168 -356 -168zM659 229q113 0 184.5 86t71.5 220q0 132 -71 216.5t-185 84.5t-186 -84.5t-72 -216.5q0 -134 72 -220t186 -86z" />
    <glyph glyph-name="aacute.ss01" horiz-adv-x="1323" 
d="M823 1229h-207l105 307h346zM557 -33q-135 0 -240 72.5t-162 202t-57 295.5q0 248 127 404.5t332 156.5q240 0 356 -168v135h306v-1065h-306v135q-114 -168 -356 -168zM659 229q113 0 184.5 86t71.5 220q0 132 -71 216.5t-185 84.5t-186 -84.5t-72 -216.5q0 -134 72 -220
t186 -86z" />
    <glyph glyph-name="abreve.ss01" horiz-adv-x="1323" 
d="M700 1237q-135 0 -210.5 74t-75.5 205h180q0 -55 28 -86t78 -31t78.5 31t28.5 86h180q0 -131 -76 -205t-211 -74zM557 -33q-135 0 -240 72.5t-162 202t-57 295.5q0 248 127 404.5t332 156.5q240 0 356 -168v135h306v-1065h-306v135q-114 -168 -356 -168zM659 229
q113 0 184.5 86t71.5 220q0 132 -71 216.5t-185 84.5t-186 -84.5t-72 -216.5q0 -134 72 -220t186 -86z" />
    <glyph glyph-name="acircumflex.ss01" horiz-adv-x="1323" 
d="M584 1229h-236l219 307h254l219 -307h-235l-111 172zM557 -33q-135 0 -240 72.5t-162 202t-57 295.5q0 248 127 404.5t332 156.5q240 0 356 -168v135h306v-1065h-306v135q-114 -168 -356 -168zM659 229q113 0 184.5 86t71.5 220q0 132 -71 216.5t-185 84.5t-186 -84.5
t-72 -216.5q0 -134 72 -220t186 -86z" />
    <glyph glyph-name="adieresis.ss01" horiz-adv-x="1323" 
d="M471 1184q-85 0 -140 54.5t-55 137.5t55 137t140 54t139 -54t54 -137t-55 -137.5t-138 -54.5zM932 1184q-85 0 -140 54.5t-55 137.5t55 137t140 54q84 0 138 -53.5t54 -137.5q0 -83 -54.5 -137.5t-137.5 -54.5zM557 -33q-135 0 -240 72.5t-162 202t-57 295.5
q0 248 127 404.5t332 156.5q240 0 356 -168v135h306v-1065h-306v135q-114 -168 -356 -168zM659 229q113 0 184.5 86t71.5 220q0 132 -71 216.5t-185 84.5t-186 -84.5t-72 -216.5q0 -134 72 -220t186 -86z" />
    <glyph glyph-name="agrave.ss01" horiz-adv-x="1323" 
d="M684 1536l104 -307h-206l-244 307h346zM557 -33q-135 0 -240 72.5t-162 202t-57 295.5q0 248 127 404.5t332 156.5q240 0 356 -168v135h306v-1065h-306v135q-114 -168 -356 -168zM659 229q113 0 184.5 86t71.5 220q0 132 -71 216.5t-185 84.5t-186 -84.5t-72 -216.5
q0 -134 72 -220t186 -86z" />
    <glyph glyph-name="amacron.ss01" horiz-adv-x="1323" 
d="M1055 1251l-709 -2v205l709 2v-205zM557 -33q-135 0 -240 72.5t-162 202t-57 295.5q0 248 127 404.5t332 156.5q240 0 356 -168v135h306v-1065h-306v135q-114 -168 -356 -168zM659 229q113 0 184.5 86t71.5 220q0 132 -71 216.5t-185 84.5t-186 -84.5t-72 -216.5
q0 -134 72 -220t186 -86z" />
    <glyph glyph-name="aogonek.ss01" horiz-adv-x="1323" 
d="M1004 -156q0 -56 56.5 -90.5t160.5 -34.5v-176q-220 -14 -331.5 49.5t-111.5 182.5q0 148 135 235v125q-114 -168 -356 -168q-135 0 -240 72.5t-162 202t-57 295.5q0 248 127 404.5t332 156.5q240 0 356 -168v135h306v-1065h-115q-100 -75 -100 -156zM659 229
q113 0 184.5 86t71.5 220q0 132 -71 216.5t-185 84.5t-186 -84.5t-72 -216.5q0 -134 72 -220t186 -86z" />
    <glyph glyph-name="aring.ss01" horiz-adv-x="1323" 
d="M700 1182q-116 0 -194 78t-78 194t78 194t194 78t194.5 -78.5t78.5 -193.5t-78.5 -193.5t-194.5 -78.5zM700 1376q31 0 54.5 23.5t23.5 54.5t-23.5 54.5t-54.5 23.5t-54 -23.5t-23 -54.5t23 -54.5t54 -23.5zM557 -33q-135 0 -240 72.5t-162 202t-57 295.5
q0 248 127 404.5t332 156.5q240 0 356 -168v135h306v-1065h-306v135q-114 -168 -356 -168zM659 229q113 0 184.5 86t71.5 220q0 132 -71 216.5t-185 84.5t-186 -84.5t-72 -216.5q0 -134 72 -220t186 -86z" />
    <glyph glyph-name="atilde.ss01" horiz-adv-x="1323" 
d="M840 1274q-54 0 -106 26t-92.5 52t-68.5 26q-84 0 -84 -102h-176q-10 127 56 198.5t192 71.5q41 0 81.5 -16t67 -36t57.5 -36t56 -16q80 0 80 104h180q10 -127 -55 -199.5t-188 -72.5zM557 -33q-135 0 -240 72.5t-162 202t-57 295.5q0 248 127 404.5t332 156.5
q240 0 356 -168v135h306v-1065h-306v135q-114 -168 -356 -168zM659 229q113 0 184.5 86t71.5 220q0 132 -71 216.5t-185 84.5t-186 -84.5t-72 -216.5q0 -134 72 -220t186 -86z" />
    <glyph glyph-name="k.ss01" horiz-adv-x="1333" 
d="M438 0h-303v1618h303v-889l418 336h418l-596 -467l637 -598h-406l-471 449v-449z" />
    <glyph glyph-name="uni0137.ss01" horiz-adv-x="1333" 
d="M438 0h-303v1618h303v-889l418 336h418l-596 -467l637 -598h-406l-471 449v-449zM631 -690h-209l125 508h325z" />
    <glyph glyph-name="t.ss01" horiz-adv-x="970" 
d="M602 0h-303v788h-258v277h258v246l303 116v-362h340v-277h-340v-788z" />
    <glyph glyph-name="tbar.ss01" horiz-adv-x="970" 
d="M942 1065v-277h-340v-176h244v-229h-244v-383h-303v381h-190v229h190v178h-258v277h258v246l303 116v-362h340z" />
    <glyph glyph-name="tcaron.ss01" horiz-adv-x="970" 
d="M932 1311h-205l104 307h345zM602 0h-303v788h-258v277h258v246l303 116v-362h340v-277h-340v-788z" />
    <glyph glyph-name="uni0163.ss01" horiz-adv-x="970" 
d="M602 788v-788h-45l-96 -147q119 23 195.5 -41t76.5 -189q0 -116 -76.5 -181t-212.5 -65q-135 0 -211.5 69t-76.5 192h186q0 -53 26.5 -83t75.5 -30t76 26.5t27 71.5q0 47 -27.5 76t-73.5 29q-57 0 -92 -35l-100 104l123 203h-78v788h-258v277h258v246l303 116v-362h340
v-277h-340z" />
    <glyph glyph-name="uni021B.ss01" horiz-adv-x="970" 
d="M602 0h-303v788h-258v277h258v246l303 116v-362h340v-277h-340v-788zM416 -690h-209l125 508h325z" />
    <glyph glyph-name="zero.tf" horiz-adv-x="1638" 
d="M788 1651q333 0 520 -220.5t187 -613.5q0 -401 -187 -625.5t-520 -224.5q-338 0 -528 224.5t-190 625.5q0 393 190 613.5t528 220.5zM788 1341q-183 0 -286 -135.5t-103 -378.5q0 -127 27 -229l535 702q-74 41 -173 41zM788 276q178 0 277.5 145.5t99.5 405.5
q0 118 -24 209l-539 -710q80 -50 186 -50z" />
    <glyph glyph-name="one.tf" horiz-adv-x="1638" 
d="M985 1618v-1294h356v-324h-1081v324h406v895l-465 -248v344l563 303h221z" />
    <glyph glyph-name="two.tf" horiz-adv-x="1638" 
d="M1411 0h-1208v143q0 114 30 208.5t80.5 159.5t116 118t138 90t145 70t138 64.5t116 66t80.5 81.5t30 105q0 102 -73 168.5t-201 66.5q-149 0 -225 -83.5t-54 -229.5h-327q-26 292 137.5 457.5t474.5 165.5q284 0 441 -137.5t157 -391.5q0 -94 -27 -172t-73 -133
t-105.5 -100t-125.5 -77.5t-132.5 -61.5t-126.5 -56.5t-106.5 -56.5t-75 -68t-29.5 -86h805v-311z" />
    <glyph glyph-name="three.tf" horiz-adv-x="1638" 
d="M784 -33q-280 0 -457 160.5t-177 411.5h325q5 -122 87 -192.5t220 -70.5q142 0 225 65t83 175q0 106 -78.5 169t-214.5 63q-82 0 -146 -25l-164 178l387 408h-665v309h1184v-205l-461 -438q76 -6 145 -26.5t130 -59.5t105.5 -93.5t70.5 -132t26 -169.5
q0 -232 -174.5 -379.5t-450.5 -147.5z" />
    <glyph glyph-name="four.tf" horiz-adv-x="1638" 
d="M1217 0h-304v397h-847v287l718 934h433v-911h217v-310h-217v-397zM913 1286l-434 -579h434v579z" />
    <glyph glyph-name="five.tf" horiz-adv-x="1638" 
d="M805 -33q-178 0 -315 65t-216 187.5t-86 286.5h328q15 -105 92.5 -167.5t194.5 -62.5q143 0 225 70.5t82 190.5q0 117 -87 185.5t-239 68.5q-85 0 -169 -32t-148 -87l-193 102l80 844h1010v-309h-739l-39 -314q125 88 309 88q247 0 396 -146t149 -380q0 -281 -172 -435.5
t-463 -154.5z" />
    <glyph glyph-name="six.tf" horiz-adv-x="1638" 
d="M815 -33q-158 0 -279 59t-196.5 168t-113.5 256.5t-38 331.5q0 205 47 370t132 274t202 167t258 58q253 0 407.5 -131t176.5 -363l-330 -2q-13 87 -83 136.5t-179 49.5q-130 0 -214.5 -112t-112.5 -320q60 68 153.5 106t200.5 38q258 0 407.5 -142t149.5 -387
q0 -122 -45.5 -226.5t-124.5 -177t-187 -113t-231 -40.5zM815 276q117 0 191.5 69.5t74.5 178.5t-73.5 179.5t-188.5 70.5q-118 0 -193 -70.5t-75 -181.5q0 -107 74.5 -176.5t189.5 -69.5z" />
    <glyph glyph-name="seven.tf" horiz-adv-x="1638" 
d="M801 0h-385l608 1309h-838v309h1256v-174z" />
    <glyph glyph-name="eight.tf" horiz-adv-x="1638" 
d="M813 -33q-285 0 -455 130t-170 352q0 154 89 270t208 149q-88 31 -163.5 133.5t-75.5 233.5q0 190 156.5 303t410.5 113t410.5 -113t156.5 -303q0 -131 -75.5 -233.5t-163.5 -133.5q119 -33 208 -149t89 -270q0 -222 -170 -352t-455 -130zM813 993q102 0 170 52t68 135
q0 78 -68 127t-170 49t-170 -49t-68 -127q0 -83 68 -135t170 -52zM813 262q130 0 208.5 59t78.5 158q0 102 -79 164t-208 62t-208 -62t-79 -164q0 -99 78.5 -158t208.5 -59z" />
    <glyph glyph-name="nine.tf" horiz-adv-x="1638" 
d="M791 -33q-254 0 -408 131t-176 363l328 2q13 -88 83.5 -137.5t180.5 -49.5q126 0 211.5 114.5t113.5 318.5q-60 -68 -153 -106t-199 -38q-260 0 -409.5 144t-149.5 397q0 157 78 282t212.5 194t299.5 69q158 0 280 -57t200.5 -161.5t118.5 -248.5t40 -322
q0 -209 -49 -379t-136.5 -282.5t-206.5 -173t-259 -60.5zM799 844q117 0 191.5 71t74.5 181q0 107 -73.5 176t-188.5 69q-118 0 -193 -69t-75 -178t74 -179.5t190 -70.5z" />
    <glyph glyph-name="GoodTypeFoundry" horiz-adv-x="1927" 
d="M965 -31q-173 0 -329.5 68t-268.5 182t-178 269t-66 323t67.5 323t180.5 268t269 181t325 68q168 0 322.5 -67t268 -179.5t181 -268t67.5 -325.5q0 -173 -68 -329.5t-181.5 -268.5t-268 -178t-321.5 -66zM965 143q136 0 259 52.5t212 142t141.5 213t52.5 260.5
t-52.5 260.5t-141.5 212t-212 141t-259 52.5q-183 0 -336.5 -88.5t-242.5 -242t-89 -335.5q0 -137 52.5 -260.5t142 -213t213 -142t260.5 -52.5zM748 911q-64 0 -108 43t-44 107q0 60 44.5 102.5t107.5 42.5q62 0 106.5 -42.5t44.5 -102.5q0 -64 -44.5 -107t-106.5 -43z
M1196 911q-63 0 -105 43t-42 107q0 61 42.5 103t104.5 42t106 -42.5t44 -102.5q0 -64 -44 -107t-106 -43zM965 324q-142 0 -256.5 52.5t-182 152.5t-67.5 231l147 20q3 -48 23 -92t59 -84t110.5 -64t166.5 -24q94 0 165.5 24t111 64t59 84t20.5 92l147 -20
q0 -133 -69 -233.5t-182.5 -151.5t-251.5 -51z" />
    </font>
</defs>
</svg>
