<?xml version="1.0" standalone="no"?>
<!DOCTYPE svg PUBLIC "-//W3C//DTD SVG 1.1//EN" "http://www.w3.org/Graphics/SVG/1.1/DTD/svg11.dtd" >
<svg xmlns="http://www.w3.org/2000/svg" xmlns:xlink="http://www.w3.org/1999/xlink" version="1.1">
<metadata>
Created by FontForge 20201107 at Thu Sep 19 17:00:53 2024
 By 
Copyright (c) 2021 by Socio Type Ltd. All rights reserved.
</metadata>
<defs>
<font id="ReworkDisplay-Bold" horiz-adv-x="0" >
  <font-face 
    font-family="Rework Display"
    font-weight="700"
    font-stretch="semi-expanded"
    units-per-em="2048"
    panose-1="2 11 8 5 4 0 0 0 0 0"
    ascent="1638"
    descent="-410"
    x-height="1069"
    cap-height="1384"
    bbox="-1157 -655 2779 2005"
    underline-thickness="102"
    underline-position="-204"
    unicode-range="U+0020-2B24"
  />
<missing-glyph horiz-adv-x="1503" 
d="M1356 0h-1209v1384h1209v-1384zM537 1163l213 -272l215 272h-428zM897 702l231 -299v596zM373 995v-589l229 296zM750 512l-226 -291h453z" />
    <glyph glyph-name="f_f.liga" unicode="ff" horiz-adv-x="1464" 
d="M1462 1190h-215q-63 0 -82.5 -17t-19.5 -63v-41h313v-209h-313v-860h-266v860h-400v-860h-266v860h-182v209h182v45q0 50 4.5 85.5t20.5 72.5t44 60t76.5 37.5t116.5 14.5h322v-194h-215q-64 0 -83.5 -17t-19.5 -63v-41h400v45q0 50 4.5 85.5t20.5 72.5t44 60t76.5 37.5
t116.5 14.5h321v-194z" />
    <glyph glyph-name="f_f_t.liga" unicode="fft" horiz-adv-x="2121" 
d="M1901 213h215v-213h-336q-62 0 -107.5 14t-72 36.5t-41.5 57t-20 68.5t-5 78v606h-389v-860h-266v860h-400v-860h-266v860h-182v209h182v45q0 50 4.5 85.5t20.5 72.5t44 60t76.5 37.5t116.5 14.5h322v-194h-215q-64 0 -83.5 -17t-19.5 -63v-41h400v45q0 50 4.5 85.5
t20.5 72.5t44 60t76.5 37.5t116.5 14.5h321v-194h-215q-63 0 -82.5 -17t-19.5 -63v-41h389v279h266v-279h314v-209h-314v-553q0 -53 17.5 -73.5t83.5 -20.5z" />
    <glyph glyph-name="f_t.liga" unicode="ft" horiz-adv-x="1456" 
d="M1235 213h217v-213h-338q-62 0 -107.5 14t-72 36.5t-41.5 57t-20 68.5t-5 78v606h-389v-860h-266v860h-182v209h182v45q0 50 4.5 85.5t20.5 72.5t44 60t76.5 37.5t116.5 14.5h322v-194h-215q-64 0 -83.5 -17t-19.5 -63v-41h389v279h267v-279h313v-209h-313v-553
q0 -52 17.5 -73t82.5 -21z" />
    <glyph glyph-name="t_t.liga" unicode="tt" horiz-adv-x="1486" 
d="M1266 213h217v-213h-336q-77 0 -128.5 20t-76.5 58t-34 79t-9 97v606h-418v-553q0 -52 18 -73t83 -21h217v-213h-336q-77 0 -128.5 20t-76.5 58t-34 79t-9 97v606h-184v209h184v279h266v-279h418v279h266v-279h316v-209h-316v-553q0 -52 18 -73t83 -21z" />
    <glyph glyph-name=".notdef" horiz-adv-x="1503" 
d="M1356 0h-1209v1384h1209v-1384zM537 1163l213 -272l215 272h-428zM897 702l231 -299v596zM373 995v-589l229 296zM750 512l-226 -291h453z" />
    <glyph glyph-name=".null" 
 />
    <glyph glyph-name="nonmarkingreturn" horiz-adv-x="682" 
 />
    <glyph glyph-name="space" unicode=" " horiz-adv-x="450" 
 />
    <glyph glyph-name="exclam" unicode="!" horiz-adv-x="608" 
d="M424 461h-236l-26 923h284zM430 0h-256v256h256v-256z" />
    <glyph glyph-name="quotedbl" unicode="&#x22;" horiz-adv-x="813" 
d="M672 776h-170l-23 613h215zM311 772h-172l-20 612h213z" />
    <glyph glyph-name="numbersign" unicode="#" horiz-adv-x="1497" 
d="M1466 1069v-213h-276l-57 -324h247v-213h-286l-56 -319h-217l56 319h-414l-55 -319h-218l56 319h-215v213h254l57 324h-229v213h266l55 315h217l-55 -315h414l55 315h217l-55 -315h239zM502 532h413l58 324h-414z" />
    <glyph glyph-name="dollar" unicode="$" horiz-adv-x="1384" 
d="M1278 422q0 -95 -41.5 -175t-112.5 -134t-158 -87.5t-184 -45.5v-164h-194v161q-181 15 -319 90t-220 209l193 164q65 -107 183.5 -164t262.5 -57q83 0 149.5 17.5t109 57.5t42.5 97q0 92 -81 136.5t-283 80.5q-85 15 -149 31t-135 46t-116.5 68t-75.5 97t-30 133
q0 98 38.5 175.5t106 127t148.5 78.5t176 39v162h194v-160q325 -38 492 -289l-219 -139q-57 88 -161.5 139t-227.5 51q-125 0 -195 -37t-70 -106q0 -61 63 -92t247 -64q99 -18 173 -37.5t152 -55t128 -81t82 -115t32 -157.5z" />
    <glyph glyph-name="percent" unicode="%" horiz-adv-x="1638" 
d="M358 707q-140 0 -235.5 94.5t-95.5 249.5q0 157 95.5 251.5t235.5 94.5t235 -94.5t95 -251.5q0 -155 -95.5 -249.5t-234.5 -94.5zM1427 1393l-1003 -1393h-213l1006 1393h210zM358 872q67 0 109.5 46.5t42.5 132.5t-42.5 133t-109.5 47t-110 -47t-43 -133t43 -132.5
t110 -46.5zM1280 -8q-138 0 -234 94.5t-96 249.5t96 250.5t234 95.5q141 0 236.5 -95t95.5 -251t-95.5 -250t-236.5 -94zM1280 156q69 0 111.5 47t42.5 133t-42.5 132t-111.5 46q-66 0 -109 -46t-43 -132t43 -133t109 -47z" />
    <glyph glyph-name="ampersand" unicode="&#x26;" horiz-adv-x="1630" 
d="M1341 358l357 -358h-359l-172 176q-249 -203 -573 -203q-159 0 -285 55t-198 158t-72 236q0 175 124 284.5t335 139.5v14l-267 273v251h992v-251h-654l600 -603q131 206 187 539h260q-68 -436 -275 -711zM641 213q207 0 365 129l-379 387q-136 -21 -212.5 -96.5
t-76.5 -181.5q0 -109 82.5 -173.5t220.5 -64.5z" />
    <glyph glyph-name="quotesingle" unicode="'" horiz-adv-x="450" 
d="M311 772h-172l-20 612h213z" />
    <glyph glyph-name="parenleft" unicode="(" horiz-adv-x="602" 
d="M551 -287h-197q-237 390 -237 850q0 458 239 821h187q-183 -375 -183 -821q0 -457 191 -850z" />
    <glyph glyph-name="parenright" unicode=")" horiz-adv-x="602" 
d="M248 -287h-197q191 393 191 850q0 446 -183 821h187q239 -363 239 -821q0 -460 -237 -850z" />
    <glyph glyph-name="asterisk" unicode="*" horiz-adv-x="843" 
d="M416 827l-152 -211l-172 121l168 203l-2 10l-252 68l62 199l249 -89l9 7l-9 249h209l-10 -251l6 -5l254 89l62 -199l-254 -68l-2 -10l168 -203l-172 -121l-150 211h-12z" />
    <glyph glyph-name="plus" unicode="+" horiz-adv-x="1275" 
d="M748 770h409v-219h-409v-410h-220v410h-409v219h409v410h220v-410z" />
    <glyph glyph-name="comma" unicode="," horiz-adv-x="516" 
d="M203 -313h-125v143h108q50 0 68 21t18 63v86h-192v256h356v-344q0 -118 -52.5 -171.5t-180.5 -53.5z" />
    <glyph glyph-name="hyphen" unicode="-" horiz-adv-x="755" 
d="M694 520h-633v219h633v-219z" />
    <glyph glyph-name="period" unicode="." horiz-adv-x="411" 
d="M334 0h-256v256h256v-256z" />
    <glyph glyph-name="slash" unicode="/" horiz-adv-x="886" 
d="M244 0h-236l649 1384h236z" />
    <glyph glyph-name="zero" unicode="0" horiz-adv-x="1441" 
d="M721 -25q-141 0 -263.5 53t-210 146t-138 227.5t-50.5 290.5t50.5 290.5t138 227.5t210 146t263.5 53q188 0 339 -90t237.5 -254.5t86.5 -372.5t-86.5 -372.5t-237.5 -254.5t-339 -90zM721 233q177 0 281 124.5t104 334.5t-104 334.5t-281 124.5q-174 0 -279.5 -125
t-105.5 -334t105.5 -334t279.5 -125z" />
    <glyph glyph-name="one" unicode="1" horiz-adv-x="831" 
d="M643 0h-272v1108h-15l-239 -127l-105 182l381 221h250v-1384z" />
    <glyph glyph-name="two" unicode="2" horiz-adv-x="1282" 
d="M1208 -2h-1122v141q0 104 8 177t31 142.5t64.5 119t108.5 92t163 75.5l313 107q102 36 142 67t40 93q0 72 -72 113.5t-177 41.5q-122 0 -240.5 -55.5t-202.5 -155.5l-176 158q106 148 270 221.5t320 73.5q257 0 405 -110.5t148 -276.5q0 -142 -91.5 -237t-287.5 -158
l-270 -86q-117 -38 -175.5 -102.5t-58.5 -170.5v-16h860v-254z" />
    <glyph glyph-name="three" unicode="3" horiz-adv-x="1255" 
d="M606 -25q-192 0 -344 63.5t-250 184.5l158 187q76 -86 193.5 -138.5t240.5 -52.5q164 0 243 59.5t79 157.5q0 92 -70.5 152.5t-200.5 60.5h-241v221h215q127 0 183 41.5t56 100.5q0 68 -59.5 112.5t-155.5 44.5q-127 0 -233.5 -36.5t-204.5 -139.5l-166 156
q218 260 588 260q223 0 371.5 -103.5t148.5 -248.5q0 -205 -303 -269v-16q170 -38 263 -128.5t93 -235.5q0 -85 -36 -160.5t-107 -137.5t-190 -98.5t-271 -36.5z" />
    <glyph glyph-name="four" unicode="4" horiz-adv-x="1372" 
d="M1106 489h262v-215h-262v-276h-266v276h-799v207l776 901h289v-893zM356 504v-15h484v578h-15z" />
    <glyph glyph-name="five" unicode="5" horiz-adv-x="1337" 
d="M678 -25q-192 0 -342.5 63.5t-247.5 184.5l154 185q77 -85 189.5 -137t232.5 -52q168 0 251.5 73.5t83.5 201.5q0 110 -79.5 182t-210.5 72q-220 0 -390 -179l-157 117v698h1018v-254h-785v-325h17q162 137 387 137q217 0 353 -130t136 -331q0 -106 -38.5 -197
t-112 -160.5t-191.5 -109t-268 -39.5z" />
    <glyph glyph-name="six" unicode="6" horiz-adv-x="1363" 
d="M780 961q122 0 222.5 -38.5t166 -105.5t101 -155t35.5 -187t-43 -189.5t-118.5 -159.5t-186.5 -110t-240 -41q-138 0 -259 49t-209.5 136.5t-139 217.5t-50.5 284q0 342 182.5 544.5t493.5 202.5q347 0 535 -221l-168 -174q-161 155 -363 155q-207 0 -314.5 -128
t-107.5 -343v-18h15q41 95 115.5 160t158 93t174.5 28zM727 211q142 0 224.5 76t82.5 194q0 107 -73 182.5t-211 75.5q-52 0 -103.5 -11.5t-107 -37t-106.5 -74.5t-89 -116q44 -145 148 -217t235 -72z" />
    <glyph glyph-name="seven" unicode="7" horiz-adv-x="1101" 
d="M459 0h-289q36 193 115 376.5t188.5 352t280.5 385.5v19h-744v251h1082v-237q-253 -284 -406.5 -553.5t-226.5 -593.5z" />
    <glyph glyph-name="eight" unicode="8" horiz-adv-x="1359" 
d="M987 780v-18q74 -27 131 -57.5t105 -73t74 -99t26 -124.5q0 -109 -54 -194t-146 -136t-205 -77t-240 -26q-138 0 -252 22.5t-202 67.5t-136.5 119.5t-48.5 173.5q0 136 78.5 214t224.5 120v19q-95 48 -147 120.5t-52 184.5q0 127 79 218t202.5 133t275.5 42
q151 0 278.5 -42t205.5 -122.5t78 -183.5q0 -193 -275 -281zM698 1184q-143 0 -216.5 -39.5t-73.5 -112.5q0 -65 60 -105.5t239 -84.5q17 -4 50 -13t38 -10q99 21 150.5 69t51.5 111q0 91 -82.5 138t-216.5 47zM696 203q153 0 242.5 45t89.5 135q0 89 -78.5 129t-326.5 106
q-66 16 -121 33q-83 -38 -125.5 -98t-42.5 -129q0 -111 88.5 -166t273.5 -55z" />
    <glyph glyph-name="nine" unicode="9" horiz-adv-x="1363" 
d="M647 1409q139 0 259.5 -48.5t209 -136.5t139 -217.5t50.5 -283.5q0 -342 -182.5 -545t-493.5 -203q-347 0 -533 222l168 174q159 -156 363 -156q206 0 313 128t107 343v19h-15q-41 -95 -115.5 -160t-158 -93t-174.5 -28q-122 0 -222.5 38.5t-166 105t-101 154.5
t-35.5 187t43 189.5t118.5 159.5t186.5 110t240 41zM614 645q52 0 104 11.5t107 37.5t106 75t89 116q-44 145 -148 217t-235 72q-142 0 -224.5 -76.5t-82.5 -194.5q0 -107 73 -182.5t211 -75.5z" />
    <glyph glyph-name="colon" unicode=":" horiz-adv-x="411" 
d="M334 813h-256v256h256v-256zM334 0h-256v256h256v-256z" />
    <glyph glyph-name="semicolon" unicode=";" horiz-adv-x="516" 
d="M385 813h-256v256h256v-256zM203 -313h-125v143h108q50 0 68 21t18 63v86h-192v256h356v-344q0 -118 -52.5 -171.5t-180.5 -53.5z" />
    <glyph glyph-name="less" unicode="&#x3c;" horiz-adv-x="1181" 
d="M1063 356v-213l-944 387v275l944 387v-213l-741 -303v-17z" />
    <glyph glyph-name="equal" unicode="=" horiz-adv-x="1181" 
d="M1063 756h-944v219h944v-219zM1063 346h-944v219h944v-219z" />
    <glyph glyph-name="greater" unicode="&#x3e;" horiz-adv-x="1181" 
d="M1063 530l-944 -387v213l741 303v17l-741 303v213l944 -387v-275z" />
    <glyph glyph-name="question" unicode="?" horiz-adv-x="1118" 
d="M508 428q-145 0 -244.5 75t-99.5 195q0 50 14 88.5t50 76.5t109 66t181 44q131 21 193 37t81 31.5t19 43.5q0 43 -60 69t-163 26q-111 0 -232.5 -41.5t-205.5 -112.5l-130 184q106 101 259 150t313 49q140 0 254.5 -36.5t186 -111.5t71.5 -176q0 -45 -16 -82.5
t-40.5 -63.5t-66 -47.5t-79 -34.5t-94.5 -24.5t-97 -17t-101 -12.5q-120 -14 -155 -30t-35 -58q0 -76 127 -76q61 0 125.5 20t105.5 56l78 -183q-132 -104 -348 -104zM643 0h-256v256h256v-256z" />
    <glyph glyph-name="at" unicode="@" horiz-adv-x="1896" 
d="M938 -236q-174 0 -318.5 42t-247 116t-174 176.5t-105.5 223.5t-34 256q0 171 60 320.5t172.5 264t287.5 180.5t392 66q158 0 297 -38.5t242 -106.5t178 -159.5t113 -199.5t38 -223q0 -74 -13.5 -142t-45 -129.5t-78 -107t-116.5 -72t-156 -26.5t-154.5 44.5t-99.5 131.5
h-13q-72 -184 -293 -184q-161 0 -262.5 103t-101.5 269q0 167 101 271t263 104q190 0 271 -139h12v125h186v-402q0 -89 27 -123t90 -34q76 0 121 80t45 217q0 113 -42 211.5t-122 173.5t-205.5 118t-281.5 43q-171 0 -306 -49t-219.5 -135.5t-128 -200.5t-43.5 -249
q0 -133 44 -246.5t126.5 -197t209 -130.5t284.5 -47q138 0 251.5 35t188.5 96l117 -158q-96 -76 -245 -122t-312 -46zM942 362q91 0 151 52.5t60 154.5q0 103 -59 155t-152 52q-90 0 -150.5 -52t-60.5 -155q0 -101 60.5 -154t150.5 -53z" />
    <glyph glyph-name="A" unicode="A" horiz-adv-x="1511" 
d="M1548 0h-305l-106 244h-772l-107 -244h-295l629 1384h332zM741 1106l-268 -612h553l-270 612h-15z" />
    <glyph glyph-name="B" unicode="B" horiz-adv-x="1492" 
d="M948 0h-801v1384h805q209 0 326 -90.5t117 -236.5q0 -230 -267 -293v-14q144 -40 223 -129.5t79 -212.5q0 -171 -130.5 -289.5t-351.5 -118.5zM422 1133v-265h526q94 0 134 34.5t40 98.5q0 132 -172 132h-528zM422 631v-381h504q107 0 162 52.5t55 143.5q0 79 -56 132
t-161 53h-504z" />
    <glyph glyph-name="C" unicode="C" horiz-adv-x="1515" 
d="M823 -25q-170 0 -313.5 55t-242 150.5t-153.5 228t-55 285.5q0 151 55 283t152 227t236.5 150t302.5 55q229 0 394 -87.5t255 -252.5l-223 -143q-70 116 -171.5 170.5t-254.5 54.5q-214 0 -339.5 -127t-125.5 -330q0 -207 128.5 -334t354.5 -127q151 0 266.5 63
t178.5 173l209 -137q-93 -164 -264.5 -260.5t-389.5 -96.5z" />
    <glyph glyph-name="D" unicode="D" horiz-adv-x="1572" 
d="M725 0h-578v1384h578q371 0 579.5 -183.5t208.5 -508.5t-208.5 -508.5t-579.5 -183.5zM422 1130v-878h295q239 0 377.5 116.5t138.5 321.5q0 206 -138.5 323t-377.5 117h-295z" />
    <glyph glyph-name="E" unicode="E" horiz-adv-x="1382" 
d="M1313 0h-1166v1384h1143v-254h-868v-241h792v-254h-792v-383h891v-252z" />
    <glyph glyph-name="F" unicode="F" horiz-adv-x="1300" 
d="M422 0h-275v1384h1143v-254h-868v-274h790v-252h-790v-604z" />
    <glyph glyph-name="G" unicode="G" horiz-adv-x="1619" 
d="M842 -25q-171 0 -318 55t-248.5 150.5t-159 227.5t-57.5 284q0 165 59.5 300.5t163 226t242.5 139.5t299 49q196 0 367.5 -74t265.5 -227l-221 -139q-135 186 -414 186q-224 0 -352.5 -128.5t-128.5 -332.5t143 -332.5t383 -128.5q225 0 373 93v297h-414v229h678v-670
q-285 -205 -661 -205z" />
    <glyph glyph-name="H" unicode="H" horiz-adv-x="1626" 
d="M422 0h-275v1384h275v-493h780v493h277v-1384h-277v635h-780v-635z" />
    <glyph glyph-name="I" unicode="I" horiz-adv-x="569" 
d="M422 0h-275v1384h275v-1384z" />
    <glyph glyph-name="J" unicode="J" horiz-adv-x="1347" 
d="M616 -25q-275 0 -434 169.5t-159 484.5h278q0 -201 84 -298.5t240 -97.5q153 0 236 94.5t83 282.5v774h277v-774q0 -299 -165 -467t-440 -168z" />
    <glyph glyph-name="K" unicode="K" horiz-adv-x="1562" 
d="M1604 0h-328l-516 788l-338 -292v-496h-275v1384h275v-544h14l619 544h397l-483 -415z" />
    <glyph glyph-name="L" unicode="L" horiz-adv-x="1232" 
d="M1233 0h-1086v1384h275v-1130h811v-254z" />
    <glyph glyph-name="M" unicode="M" horiz-adv-x="1974" 
d="M422 0h-275v1384h410l424 -815h14l422 815h412v-1384h-277v1071h-16l-420 -807h-256l-422 807h-16v-1071z" />
    <glyph glyph-name="N" unicode="N" horiz-adv-x="1662" 
d="M422 0h-275v1384h361l717 -1032h16v1032h275v-1384h-363l-715 1036h-16v-1036z" />
    <glyph glyph-name="O" unicode="O" horiz-adv-x="1660" 
d="M831 -25q-171 0 -315.5 55t-244.5 150.5t-156 228.5t-56 285q0 151 56 283t156 227t245 150t315 55t314.5 -55t244.5 -150t156 -227t56 -283q0 -152 -56 -285t-156 -228.5t-244.5 -150.5t-314.5 -55zM831 233q227 0 358.5 127.5t131.5 333.5q0 203 -132 330t-358 127
q-228 0 -359.5 -127t-131.5 -330q0 -206 131.5 -333.5t359.5 -127.5z" />
    <glyph glyph-name="P" unicode="P" horiz-adv-x="1378" 
d="M422 0h-275v1384h793q199 0 321.5 -110t122.5 -289q0 -177 -122.5 -286t-321.5 -109h-518v-590zM422 1130v-284h522q78 0 119 37.5t41 103.5t-41 104.5t-119 38.5h-522z" />
    <glyph glyph-name="Q" unicode="Q" horiz-adv-x="1660" 
d="M1602 694q0 -140 -47.5 -264t-133.5 -217.5t-210.5 -154t-272.5 -76.5v-43q0 -52 12.5 -70.5t61.5 -18.5h217v-237h-299q-130 0 -192 53t-62 176v146q-280 46 -448.5 239.5t-168.5 466.5q0 151 56 283t156 227t245 150t315 55t314.5 -55t244.5 -150t156 -227t56 -283z
M340 694q0 -206 131.5 -333.5t359.5 -127.5q227 0 358.5 127.5t131.5 333.5q0 203 -132 330t-358 127q-228 0 -359.5 -127t-131.5 -330z" />
    <glyph glyph-name="R" unicode="R" horiz-adv-x="1464" 
d="M1122 635l287 -635h-301l-266 600h-420v-600h-275v1384h793q201 0 322.5 -106.5t121.5 -286.5q0 -131 -67.5 -223t-194.5 -133zM942 1130h-520v-284h520q75 0 118.5 38t43.5 103t-43.5 104t-118.5 39z" />
    <glyph glyph-name="S" unicode="S" horiz-adv-x="1384" 
d="M684 -27q-215 0 -379 75.5t-256 227.5l193 164q65 -107 183.5 -164t262.5 -57q83 0 149.5 17.5t109 57.5t42.5 97q0 92 -81 136.5t-283 80.5q-85 15 -149 31t-135 46t-116.5 68t-75.5 97t-30 133q0 89 33 162t87.5 121t129 81t154 47.5t165.5 14.5q191 0 341 -76
t245 -217l-219 -139q-57 88 -161.5 139t-227.5 51q-125 0 -195 -37t-70 -106q0 -61 63 -92t247 -64q99 -18 173 -37.5t152 -55t128 -81t82 -115t32 -157.5q0 -108 -52.5 -195.5t-138.5 -141.5t-190 -83t-213 -29z" />
    <glyph glyph-name="T" unicode="T" horiz-adv-x="1398" 
d="M840 0h-277v1133h-559v251h1391v-251h-555v-1133z" />
    <glyph glyph-name="U" unicode="U" horiz-adv-x="1587" 
d="M795 -25q-195 0 -344 70.5t-236.5 216t-87.5 350.5v772h276v-753q0 -398 390 -398q391 0 391 408v743h276v-770q0 -155 -50 -277.5t-139 -201t-210 -119.5t-266 -41z" />
    <glyph glyph-name="V" unicode="V" horiz-adv-x="1484" 
d="M905 0h-330l-612 1384h309l471 -1105h13l471 1105h293z" />
    <glyph glyph-name="W" unicode="W" horiz-adv-x="2246" 
d="M778 0h-332l-483 1384h307l340 -1060h17l352 1060h303l348 -1062h17l346 1062h291l-488 -1384h-330l-333 950h-15z" />
    <glyph glyph-name="X" unicode="X" horiz-adv-x="1425" 
d="M299 0h-354l596 756l-547 628h346l365 -446h16l364 446h347l-545 -628l594 -756h-353l-407 573h-16z" />
    <glyph glyph-name="Y" unicode="Y" horiz-adv-x="1351" 
d="M817 0h-276v578l-588 806h334l393 -571h16l394 571h307l-580 -806v-578z" />
    <glyph glyph-name="Z" unicode="Z" horiz-adv-x="1259" 
d="M1214 0h-1194v227l811 885v18h-786v254h1190v-229l-815 -887v-16h794v-252z" />
    <glyph glyph-name="bracketleft" unicode="[" horiz-adv-x="608" 
d="M633 -287h-473v1671h473v-194h-260v-1282h260v-195z" />
    <glyph glyph-name="backslash" unicode="\" horiz-adv-x="886" 
d="M229 1384l650 -1384h-236l-649 1384h235z" />
    <glyph glyph-name="bracketright" unicode="]" horiz-adv-x="614" 
d="M449 1384v-1671h-474v195h261v1282h-261v194h474z" />
    <glyph glyph-name="asciicircum" unicode="^" horiz-adv-x="1150" 
d="M303 473h-287l416 911h287l416 -911h-287l-266 639h-13z" />
    <glyph glyph-name="underscore" unicode="_" horiz-adv-x="886" 
d="M887 -219h-887v219h887v-219z" />
    <glyph glyph-name="grave" unicode="`" horiz-adv-x="608" 
d="M354 1612l162 -412h-156l-268 412h262z" />
    <glyph glyph-name="a" unicode="a" horiz-adv-x="1193" 
d="M590 1085q500 0 500 -407v-678h-248l-11 170h-16q-65 -85 -171 -140t-226 -55q-169 0 -266 82t-97 232q0 157 110 235t335 78h323v60q0 106 -65.5 152t-192.5 46q-181 0 -362 -112l-88 194q221 143 475 143zM324 299q0 -127 172 -127q179 0 327 158v96h-293
q-111 0 -158.5 -31t-47.5 -96z" />
    <glyph glyph-name="b" unicode="b" horiz-adv-x="1335" 
d="M788 1094q113 0 207.5 -43t159 -118t100 -177.5t35.5 -220.5q0 -158 -60.5 -284.5t-176 -201t-265.5 -74.5q-253 0 -387 201h-16l-8 -176h-252v1384h266v-485h15q137 195 382 195zM711 188q139 0 224 97t85 250q0 151 -85 248.5t-224 97.5q-119 0 -201.5 -52.5
t-118.5 -136.5v-315q36 -84 118.5 -136.5t201.5 -52.5z" />
    <glyph glyph-name="c" unicode="c" horiz-adv-x="1175" 
d="M627 -25q-252 0 -417 158.5t-165 401.5q0 161 74 288.5t207 199t301 71.5q173 0 310.5 -77.5t203.5 -211.5l-195 -125q-58 90 -132 134t-175 44q-144 0 -234 -87.5t-90 -235.5q0 -145 90.5 -234.5t221.5 -89.5q211 0 319 174l195 -123q-72 -136 -204.5 -211.5
t-309.5 -75.5z" />
    <glyph glyph-name="d" unicode="d" horiz-adv-x="1335" 
d="M946 899v485h266v-1384h-254l-8 172h-18q-137 -197 -385 -197q-149 0 -264.5 74.5t-176.5 201.5t-61 284t61 284t176.5 201t264.5 74q246 0 383 -195h16zM625 188q120 0 202.5 54t118.5 139v307q-36 85 -118.5 139t-202.5 54q-138 0 -224 -97.5t-86 -248.5
q0 -152 86 -249.5t224 -97.5z" />
    <glyph glyph-name="e" unicode="e" horiz-adv-x="1198" 
d="M621 1094q269 0 413.5 -163t126.5 -427h-852q11 -139 98 -219t238 -80q77 0 155 34.5t134 114.5l192 -116q-73 -128 -208 -195.5t-283 -67.5q-274 0 -432 156t-158 404q0 161 73.5 288.5t205 199t297.5 71.5zM330 690h559q-24 92 -95.5 141.5t-172.5 49.5
q-107 0 -183.5 -47.5t-107.5 -143.5z" />
    <glyph glyph-name="f" unicode="f" horiz-adv-x="798" 
d="M797 1190h-215q-64 0 -83.5 -17t-19.5 -63v-41h316v-209h-316v-860h-266v860h-182v209h182v45q0 50 4.5 85.5t20.5 72.5t44 60t76.5 37.5t116.5 14.5h322v-194z" />
    <glyph glyph-name="g" unicode="g" horiz-adv-x="1230" 
d="M362 315h527q167 0 251.5 -70t84.5 -194q0 -99 -51 -171t-143 -112.5t-206.5 -59.5t-255.5 -19q-277 0 -416 58t-139 185q0 142 158 189v14q-119 61 -119 191q0 80 53 138t156 71v12q-102 85 -102 219q0 147 120 237.5t353 90.5q130 0 233 -25v150q0 180 172 180h156
v-221h-109q-53 0 -68.5 -19.5t-15.5 -60.5v-82q146 -86 146 -250q0 -149 -126.5 -238.5t-387.5 -89.5q-123 0 -227 33q-68 -1 -101 -26t-33 -58q0 -32 24.5 -52t65.5 -20zM653 893q-243 0 -243 -125q0 -129 243 -129q240 0 240 129q0 125 -240 125zM592 -113q217 0 317.5 30
t100.5 101q0 76 -117 76h-473h-96q-74 -25 -74 -92q0 -38 27 -61.5t104.5 -38.5t210.5 -15z" />
    <glyph glyph-name="h" unicode="h" horiz-adv-x="1304" 
d="M780 1094q93 0 166.5 -23t131.5 -73.5t89 -138t31 -208.5v-651h-266v588q0 164 -57 228.5t-179 64.5q-86 0 -173 -44.5t-132 -119.5v-717h-266v1384h266v-483h17q65 88 160.5 140.5t211.5 52.5z" />
    <glyph glyph-name="i" unicode="i" horiz-adv-x="514" 
d="M391 1200h-268v256h268v-256zM391 0h-266v1069h266v-1069z" />
    <glyph glyph-name="j" unicode="j" horiz-adv-x="552" 
d="M430 1200h-268v256h268v-256zM186 -287h-391v213h275q32 0 51.5 5.5t28.5 19t11.5 27.5t2.5 38v1053h266v-1108q0 -42 -4.5 -74.5t-20 -66.5t-41.5 -56t-71 -36.5t-107 -14.5z" />
    <glyph glyph-name="k" unicode="k" horiz-adv-x="1294" 
d="M1329 0h-313l-389 555l-236 -188v-367h-266v1384h266v-722h17l503 407h361l-443 -352z" />
    <glyph glyph-name="l" unicode="l" horiz-adv-x="514" 
d="M391 0h-266v1384h266v-1384z" />
    <glyph glyph-name="m" unicode="m" horiz-adv-x="2113" 
d="M1587 1094q420 0 420 -443v-651h-266v588q0 164 -57.5 228.5t-178.5 64.5q-87 0 -175 -45.5t-134 -122.5q2 -20 2 -62v-651h-266v588q0 164 -57 228.5t-179 64.5q-86 0 -173 -44.5t-132 -119.5v-717h-266v1069h252l8 -174h18q63 90 161 144.5t216 54.5q304 0 387 -238h21
q60 105 165 171.5t234 66.5z" />
    <glyph glyph-name="n" unicode="n" horiz-adv-x="1304" 
d="M780 1094q93 0 166.5 -23t131.5 -73.5t89 -138t31 -208.5v-651h-266v588q0 164 -57 228.5t-179 64.5q-86 0 -173 -44.5t-132 -119.5v-717h-266v1069h252l8 -174h18q63 90 161 144.5t216 54.5z" />
    <glyph glyph-name="o" unicode="o" horiz-adv-x="1277" 
d="M639 -25q-261 0 -427.5 158.5t-166.5 401.5t166.5 401t427.5 158t426.5 -158t165.5 -401t-165.5 -401.5t-426.5 -158.5zM639 211q144 0 233 90.5t89 233.5t-89 233t-233 90t-234 -90t-90 -233t90 -233.5t234 -90.5z" />
    <glyph glyph-name="p" unicode="p" horiz-adv-x="1325" 
d="M780 1094q149 0 264 -74t175.5 -201t60.5 -284t-60.5 -284t-175.5 -201.5t-264 -74.5q-251 0 -385 195h-14v-457h-266v1356h252l8 -178h16q133 203 389 203zM702 188q138 0 223 97.5t85 249.5q0 151 -85 248.5t-223 97.5q-120 0 -202.5 -52.5t-118.5 -136.5v-315
q36 -84 118.5 -136.5t202.5 -52.5z" />
    <glyph glyph-name="q" unicode="q" horiz-adv-x="1323" 
d="M948 895l8 174h254v-1356h-266v455h-16q-133 -193 -381 -193q-149 0 -264.5 74.5t-176.5 201.5t-61 284t61 284t176.5 201t264.5 74q250 0 385 -199h16zM315 535q0 -151 86 -249t224 -98q119 0 201 52.5t118 136.5v315q-36 84 -118 136.5t-201 52.5q-138 0 -224 -97.5
t-86 -248.5z" />
    <glyph glyph-name="r" unicode="r" horiz-adv-x="800" 
d="M387 852h16q127 254 422 240v-252q-143 9 -256.5 -33t-177.5 -131v-676h-266v1069h252z" />
    <glyph glyph-name="s" unicode="s" horiz-adv-x="1085" 
d="M535 -25q-164 0 -306.5 56.5t-220.5 156.5l150 174q66 -76 174.5 -118.5t220.5 -42.5q98 0 151.5 29.5t53.5 88.5q0 56 -62.5 80t-271.5 60q-181 31 -269.5 105t-88.5 202q0 104 66.5 178.5t176.5 110t252 35.5q139 0 267 -44.5t196 -121.5l-127 -181q-55 56 -163 93.5
t-208 37.5q-93 0 -140.5 -24t-47.5 -68q0 -47 47 -70t193 -46q46 -8 74 -13.5t71 -16t70.5 -20t63.5 -25t58.5 -33t47 -42t38 -52.5t22.5 -65t9 -80q0 -82 -39 -148t-107.5 -108.5t-158 -65t-192.5 -22.5z" />
    <glyph glyph-name="t" unicode="t" horiz-adv-x="802" 
d="M582 213h217v-213h-336q-77 0 -128.5 20t-76.5 58t-34 79t-9 97v606h-184v209h184v279h266v-279h316v-209h-316v-553q0 -52 18 -73t83 -21z" />
    <glyph glyph-name="u" unicode="u" horiz-adv-x="1304" 
d="M913 352v717h267v-1069h-252l-8 174h-19q-65 -91 -162 -145t-215 -54q-93 0 -166.5 23t-131.5 73.5t-89 138t-31 208.5v651h267v-588q0 -164 57 -228.5t178 -64.5q86 0 173 44.5t132 119.5z" />
    <glyph glyph-name="v" unicode="v" horiz-adv-x="1175" 
d="M762 0h-346l-424 1069h299l295 -823h14l291 823h295z" />
    <glyph glyph-name="w" unicode="w" horiz-adv-x="2004" 
d="M721 0h-342l-387 1069h299l258 -811h16l281 811h321l287 -811h19l245 811h295l-385 -1069h-342l-285 766h-18z" />
    <glyph glyph-name="x" unicode="x" horiz-adv-x="1124" 
d="M328 0h-338l405 535l-407 534h336l231 -350h14l234 350h334l-408 -534l408 -535h-340l-228 350h-14z" />
    <glyph glyph-name="y" unicode="y" horiz-adv-x="1255" 
d="M647 293l318 776h299l-523 -1151q-43 -96 -108.5 -150.5t-179.5 -54.5h-363v213h303q46 0 70.5 9t44.5 42l-516 1092h299l340 -776h16z" />
    <glyph glyph-name="z" unicode="z" horiz-adv-x="1099" 
d="M1051 0h-1002v233l631 592v17h-614v227h974v-219l-647 -602v-17h658v-231z" />
    <glyph glyph-name="braceleft" unicode="{" horiz-adv-x="782" 
d="M809 -287h-229q-62 0 -107 14.5t-71 36.5t-41.5 56t-20 66.5t-4.5 74.5v287q0 113 -58.5 157t-197.5 44v198q139 2 197.5 46.5t58.5 158.5v285q0 53 8.5 92.5t33 77t75.5 57.5t127 20h229v-194h-154q-62 0 -78 -20t-16 -68v-250q0 -135 -61.5 -202.5t-167.5 -94.5v-12
q50 -13 88.5 -32.5t71.5 -53t51 -86.5t18 -123v-252q0 -25 2 -38t11 -26t28.5 -18.5t52.5 -5.5h154v-195z" />
    <glyph glyph-name="bar" unicode="|" horiz-adv-x="514" 
d="M354 -287h-194v1671h194v-1671z" />
    <glyph glyph-name="braceright" unicode="}" horiz-adv-x="782" 
d="M203 -287h-230v195h154q62 0 78 20t16 68v252q0 70 18 123t52 86.5t72 53t88 32.5v12q-49 13 -87.5 33t-72 53.5t-52 87t-18.5 123.5v250q0 25 -2 38t-11 26t-28.5 18.5t-52.5 5.5h-154v194h230q76 0 127 -20t75 -58t32.5 -77t8.5 -92v-285q0 -114 58.5 -158.5
t197.5 -46.5v-198q-139 0 -197.5 -44t-58.5 -157v-287q0 -42 -4.5 -74.5t-20 -66.5t-41 -56t-70.5 -36.5t-107 -14.5z" />
    <glyph glyph-name="asciitilde" unicode="~" horiz-adv-x="1198" 
d="M813 406q-55 0 -89.5 13t-92.5 50l-131 88q-38 25 -58.5 34t-44.5 9q-20 0 -34 -5.5t-28 -22.5t-22 -53.5t-10 -92.5h-184q-9 183 62 292t202 109q53 0 91 -16t95 -53l127 -84q62 -43 103 -43q43 0 67 35t27 141h184q8 -183 -62.5 -292t-201.5 -109z" />
    <glyph glyph-name="exclamdown" unicode="&#xa1;" horiz-adv-x="608" 
d="M174 768v256h256v-256h-256zM162 -360l26 923h236l22 -923h-284z" />
    <glyph glyph-name="cent" unicode="&#xa2;" horiz-adv-x="1073" 
d="M571 418q180 0 279 147l188 -119q-59 -107 -159 -172.5t-232 -80.5v-193h-194v201q-183 36 -295.5 170t-112.5 323q0 191 112 326t296 170v194h194v-188q132 -15 235 -82.5t156 -171.5l-188 -121q-53 76 -118 112t-161 36q-112 0 -188 -75t-76 -200q0 -124 76.5 -200
t187.5 -76z" />
    <glyph glyph-name="sterling" unicode="&#xa3;" horiz-adv-x="1316" 
d="M369 262v-16h921v-248h-1249v248q105 2 166 43.5t61 122.5q0 35 -26 184h-187v195h152q-21 126 -21 165q0 195 158 323t418 128q74 0 144.5 -14t141.5 -44t134 -85.5t108 -130.5l-217 -144q-98 176 -307 176q-153 0 -226 -58.5t-73 -150.5q0 -33 22 -165h590v-195h-557
q15 -92 15 -113q0 -82 -46.5 -137t-121.5 -84z" />
    <glyph glyph-name="currency" unicode="&#xa4;" horiz-adv-x="1294" 
d="M1044 383l164 -162l-141 -141l-172 172q-111 -57 -248 -57t-248 57l-172 -172l-141 141l164 162q-80 113 -80 262q0 144 76 256l-156 156l133 143l168 -170q112 64 256 64q140 0 254 -62l170 168l133 -143l-157 -156q77 -109 77 -256q0 -149 -80 -262zM395 645
q0 -113 69.5 -183.5t182.5 -70.5t182.5 70.5t69.5 183.5t-69 182.5t-183 69.5t-183 -69.5t-69 -182.5z" />
    <glyph glyph-name="yen" unicode="&#xa5;" horiz-adv-x="1351" 
d="M1251 766h-299l-112 -158h413v-194h-436v-414h-276v414h-441v194h418l-117 160h-303v195h162l-307 421h334l393 -571h16l394 571h307l-305 -423h159v-195z" />
    <glyph glyph-name="brokenbar" unicode="&#xa6;" horiz-adv-x="514" 
d="M354 834h-194v550h194v-550zM354 -287h-194v551h194v-551z" />
    <glyph glyph-name="section" unicode="&#xa7;" horiz-adv-x="1386" 
d="M1139 375v-27q102 -80 102 -219q0 -111 -76 -190.5t-204.5 -118.5t-294.5 -39q-170 0 -331 53.5t-253 161.5l123 190q80 -88 209.5 -130t271.5 -42q272 0 272 101q0 31 -21.5 48t-96.5 27q-231 29 -408 60q-87 14 -150 33.5t-119 51t-85 80.5t-29 115q0 82 57.5 147
t155.5 103v13q-145 74 -145 229q0 179 147 282t387 103q389 0 572 -248l-195 -158q-75 89 -190.5 133t-239.5 44q-215 0 -215 -105q0 -39 34.5 -61t123.5 -35q308 -48 407 -62q187 -28 269.5 -106.5t82.5 -192.5q0 -128 -161 -241zM297 627q0 -49 39 -79t135 -44
q214 -36 381 -55q78 -8 156 -33q53 56 53 112q0 59 -45 92t-152 50q-200 30 -358 51q-69 11 -103 20q-106 -42 -106 -114z" />
    <glyph glyph-name="dieresis" unicode="&#xa8;" horiz-adv-x="1228" 
d="M348 1200h-244v234h244v-234zM803 1200h-244v234h244v-234z" />
    <glyph glyph-name="copyright" unicode="&#xa9;" horiz-adv-x="1658" 
d="M829 -25q-169 0 -313.5 55t-244 150.5t-156 227.5t-56.5 284q0 202 96 364.5t272.5 256.5t401.5 94q170 0 315 -55t245 -150t156.5 -227t56.5 -283q0 -152 -56.5 -284t-156.5 -227.5t-245 -150.5t-315 -55zM829 164q268 0 422 147t154 381q0 233 -154 380t-422 147
q-177 0 -308 -69t-198 -187.5t-67 -270.5q0 -234 153.5 -381t419.5 -147zM844 340q-159 0 -262 98.5t-103 251.5q0 155 102.5 253.5t262.5 98.5q110 0 197 -48.5t128 -131.5l-133 -84q-34 55 -79 80t-113 25q-77 0 -129.5 -53t-52.5 -140q0 -85 53 -137.5t129 -52.5
q129 0 192 102l133 -84q-45 -85 -128.5 -131.5t-196.5 -46.5z" />
    <glyph glyph-name="ordfeminine" unicode="&#xaa;" horiz-adv-x="602" 
d="M309 1473q266 0 266 -216v-346h-159l-6 72h-13q-32 -37 -80.5 -61.5t-103.5 -24.5q-90 0 -139 43.5t-49 122.5q0 88 58.5 129t178.5 41h141v12q0 46 -28 65t-84 19q-84 0 -182 -57l-56 125q122 76 256 76zM197 1071q0 -47 71 -47q55 0 135 39v57h-124q-44 0 -63 -11.5
t-19 -37.5z" />
    <glyph glyph-name="guillemotleft" unicode="&#xab;" horiz-adv-x="1036" 
d="M547 158h-254l-281 377l281 376h254l-279 -376zM1010 158h-254l-281 377l281 376h254l-281 -376z" />
    <glyph glyph-name="logicalnot" unicode="&#xac;" horiz-adv-x="1073" 
d="M1012 352h-219v353h-732v219h951v-572z" />
    <glyph glyph-name="uni00AD" unicode="&#xad;" horiz-adv-x="755" 
d="M694 520h-633v219h633v-219z" />
    <glyph glyph-name="registered" unicode="&#xae;" horiz-adv-x="862" 
d="M432 1409q153 0 252.5 -94.5t99.5 -237.5t-99.5 -237.5t-252.5 -94.5q-154 0 -254 94.5t-100 237.5t100 237.5t254 94.5zM432 831q115 0 187.5 69.5t72.5 176.5q0 108 -72 176t-188 68q-118 0 -190 -68t-72 -176q0 -107 73 -176.5t189 -69.5zM571 1135q0 -57 -51 -76
l55 -123h-67l-53 115h-80v-115h-64v283h170q40 0 65 -22.5t25 -61.5zM477 1161h-102v-55h102q31 0 31 29q0 12 -8.5 19t-22.5 7z" />
    <glyph glyph-name="macron" unicode="&#xaf;" horiz-adv-x="800" 
d="M719 1200h-637v201h637v-201z" />
    <glyph glyph-name="degree" unicode="&#xb0;" horiz-adv-x="1048" 
d="M524 780q-164 0 -264 89.5t-100 224.5q0 136 100 225.5t264 89.5t264.5 -89.5t100.5 -225.5q0 -135 -100.5 -224.5t-264.5 -89.5zM524 942q76 0 124 44t48 108q0 65 -47.5 108t-124.5 43t-124.5 -43t-47.5 -108q0 -64 48 -108t124 -44z" />
    <glyph glyph-name="plusminus" unicode="&#xb1;" horiz-adv-x="1275" 
d="M748 1223v-287h409v-219h-409v-287h-220v287h-409v219h409v287h220zM1108 113h-942v219h942v-219z" />
    <glyph glyph-name="acute" unicode="&#xb4;" horiz-adv-x="768" 
d="M770 1616l-668 -123v156l668 213v-246z" />
    <glyph glyph-name="paragraph" unicode="&#xb6;" horiz-adv-x="1456" 
d="M1309 1384v-1384h-197v1188h-199v-1188h-196v590h-279q-201 0 -322.5 109t-121.5 286q0 179 122 289t322 110h871z" />
    <glyph glyph-name="periodcentered" unicode="&#xb7;" horiz-adv-x="411" 
d="M334 524h-256v254h256v-254z" />
    <glyph glyph-name="cedilla" unicode="&#xb8;" horiz-adv-x="1228" 
d="M387 -565q-144 0 -224.5 52.5t-80.5 156.5q0 140 231 231l-110 195h166l133 -242q-199 -58 -199 -139q0 -34 28 -55t85 -21q58 0 121 16v-176q-85 -18 -150 -18z" />
    <glyph glyph-name="ordmasculine" unicode="&#xba;" horiz-adv-x="667" 
d="M334 897q-138 0 -223.5 82.5t-85.5 208.5t85.5 207.5t223.5 81.5t224.5 -81.5t86.5 -207.5t-86.5 -208.5t-224.5 -82.5zM334 1051q64 0 101.5 37.5t37.5 99.5t-37.5 99.5t-101.5 37.5q-63 0 -100 -37.5t-37 -99.5t37 -99.5t100 -37.5z" />
    <glyph glyph-name="guillemotright" unicode="&#xbb;" horiz-adv-x="1036" 
d="M561 535l-280 -377h-254l280 377l-280 376h254zM1024 535l-281 -377h-254l281 377l-281 376h254z" />
    <glyph glyph-name="onequarter" unicode="&#xbc;" horiz-adv-x="1452" 
d="M1233 1393l-1004 -1393h-215l1006 1393h213zM367 719h-174v487h-11l-106 -57l-70 117l197 116h164v-663zM1305 0h-172v123h-361v135l342 406h191v-402h120v-139h-120v-123zM973 270v-8h160v203h-7z" />
    <glyph glyph-name="onehalf" unicode="&#xbd;" horiz-adv-x="1359" 
d="M1233 1393l-1004 -1393h-215l1006 1393h213zM367 719h-174v487h-11l-106 -57l-70 117l197 116h164v-663zM1319 0h-555v70q0 56 2 87.5t10.5 71t26 62.5t49 44.5t78.5 35.5l160 47q35 11 50 21.5t15 33.5q0 22 -23.5 35.5t-60.5 13.5q-50 0 -104.5 -23t-98.5 -67l-110 103
q58 76 140 109.5t155 33.5q137 0 208.5 -58.5t71.5 -138.5q0 -146 -196 -202l-127 -37q-78 -19 -78 -72v-10h387v-160z" />
    <glyph glyph-name="threequarters" unicode="&#xbe;" horiz-adv-x="1585" 
d="M324 707q-186 0 -297 114l98 121q97 -78 197 -78q68 0 94 17.5t26 52.5q0 30 -23.5 51t-70.5 21h-125v143h105q88 0 88 43q0 22 -20.5 35.5t-57.5 13.5q-110 0 -195 -74l-104 103q117 127 301 127q111 0 186.5 -52.5t75.5 -121.5q0 -100 -149 -129v-9q174 -39 174 -170
q0 -86 -75 -147t-228 -61zM1366 1393l-1004 -1393h-215l1006 1393h213zM1438 0h-172v123h-361v135l342 406h191v-402h121v-139h-121v-123zM1106 270v-8h160v203h-6z" />
    <glyph glyph-name="questiondown" unicode="&#xbf;" horiz-adv-x="1118" 
d="M475 1069h256v-256h-256v256zM610 641q144 0 244 -75.5t100 -194.5q0 -50 -14 -89t-50.5 -77t-109.5 -65.5t-180 -43.5q-131 -21 -192.5 -37t-81 -32t-19.5 -45q0 -42 59.5 -67.5t161.5 -25.5q113 0 235 41.5t204 112.5l131 -184q-106 -101 -259.5 -150t-312.5 -49
q-140 0 -254.5 36.5t-186 111.5t-71.5 176q0 45 16 82.5t40.5 63.5t66 47.5t79 34.5t94.5 24.5t97 17t101 12.5q120 14 155 30t35 58q0 76 -127 76q-61 0 -125.5 -20t-105.5 -56l-78 183q132 104 348 104z" />
    <glyph glyph-name="Agrave" unicode="&#xc0;" horiz-adv-x="1511" 
d="M422 1862l668 -213v-156l-668 123v246zM1548 0h-305l-106 244h-772l-107 -244h-295l629 1384h332zM741 1106l-268 -612h553l-270 612h-15z" />
    <glyph glyph-name="Aacute" unicode="&#xc1;" horiz-adv-x="1511" 
d="M422 1649l668 213v-246l-668 -123v156zM1548 0h-305l-106 244h-772l-107 -244h-295l629 1384h332zM741 1106l-268 -612h553l-270 612h-15z" />
    <glyph glyph-name="Acircumflex" unicode="&#xc2;" horiz-adv-x="1511" 
d="M1143 1638v-143l-387 150l-387 -150v143l340 211h96zM1548 0h-305l-106 244h-772l-107 -244h-295l629 1384h332zM741 1106l-268 -612h553l-270 612h-15z" />
    <glyph glyph-name="Atilde" unicode="&#xc3;" horiz-adv-x="1511" 
d="M494 1516h-160q-8 159 54 254.5t175 95.5q33 0 62.5 -9t47 -19.5t52.5 -33.5l111 -71q51 -37 90 -37q37 0 57 30t23 123h161q8 -161 -54 -256.5t-177 -95.5q-33 0 -60 7.5t-44 17t-54 32.5l-112 76q-53 37 -91 37q-18 0 -30 -4.5t-24 -19t-19 -46.5t-8 -81zM1548 0h-305
l-106 244h-772l-107 -244h-295l629 1384h332zM741 1106l-268 -612h553l-270 612h-15z" />
    <glyph glyph-name="Adieresis" unicode="&#xc4;" horiz-adv-x="1511" 
d="M358 1761h256v-245h-256v245zM899 1761h256v-245h-256v245zM1548 0h-305l-106 244h-772l-107 -244h-295l629 1384h332zM741 1106l-268 -612h553l-270 612h-15z" />
    <glyph glyph-name="Aring" unicode="&#xc5;" horiz-adv-x="1511" 
d="M766 1495q-129 0 -208 70.5t-79 177.5t79 177.5t208 70.5q128 0 206.5 -70t78.5 -178t-78.5 -178t-206.5 -70zM766 1847q-53 0 -85 -29.5t-32 -74.5t32 -74t85 -29q52 0 84.5 29t32.5 74t-32.5 74.5t-84.5 29.5zM1548 0h-305l-106 244h-772l-107 -244h-295l629 1384h332z
M741 1106l-268 -612h553l-270 612h-15z" />
    <glyph glyph-name="AE" unicode="&#xc6;" horiz-adv-x="2244" 
d="M1284 635v-383h889v-252h-1163v283h-621l-201 -283h-327l995 1384h1296v-254h-868v-241h793v-254h-793zM991 1133l-426 -603h445v603h-19z" />
    <glyph glyph-name="Ccedilla" unicode="&#xc7;" horiz-adv-x="1515" 
d="M1268 469l209 -137q-86 -154 -243 -248.5t-357 -106.5l92 -167q-219 -61 -219 -152q0 -38 30 -61t94 -23q58 0 134 20v-196q-94 -21 -166 -21q-158 0 -247 58t-89 172q0 155 254 258l-68 119q-191 26 -335 124.5t-221 250t-77 335.5q0 151 55 283t152 227t236.5 150
t302.5 55q229 0 394 -87.5t255 -252.5l-223 -143q-70 116 -171.5 170.5t-254.5 54.5q-214 0 -339.5 -127t-125.5 -330q0 -207 128.5 -334t354.5 -127q151 0 266.5 63t178.5 173z" />
    <glyph glyph-name="Egrave" unicode="&#xc8;" horiz-adv-x="1382" 
d="M1049 1649v-156l-668 123v246zM1313 0h-1166v1384h1143v-254h-868v-241h792v-254h-792v-383h891v-252z" />
    <glyph glyph-name="Eacute" unicode="&#xc9;" horiz-adv-x="1382" 
d="M1049 1616l-668 -123v156l668 213v-246zM1313 0h-1166v1384h1143v-254h-868v-241h792v-254h-792v-383h891v-252z" />
    <glyph glyph-name="Ecircumflex" unicode="&#xca;" horiz-adv-x="1382" 
d="M326 1638l340 211h96l338 -211v-143l-387 150l-387 -150v143zM1313 0h-1166v1384h1143v-254h-868v-241h792v-254h-792v-383h891v-252z" />
    <glyph glyph-name="Edieresis" unicode="&#xcb;" horiz-adv-x="1382" 
d="M571 1516h-256v245h256v-245zM1112 1516h-256v245h256v-245zM1313 0h-1166v1384h1143v-254h-868v-241h792v-254h-792v-383h891v-252z" />
    <glyph glyph-name="Igrave" unicode="&#xcc;" horiz-adv-x="569" 
d="M621 1649v-156l-668 123v246zM422 0h-275v1384h275v-1384z" />
    <glyph glyph-name="Iacute" unicode="&#xcd;" horiz-adv-x="569" 
d="M621 1616l-668 -123v156l668 213v-246zM422 0h-275v1384h275v-1384z" />
    <glyph glyph-name="Icircumflex" unicode="&#xce;" horiz-adv-x="569" 
d="M-102 1638l340 211h96l338 -211v-143l-387 150l-387 -150v143zM422 0h-275v1384h275v-1384z" />
    <glyph glyph-name="Idieresis" unicode="&#xcf;" horiz-adv-x="569" 
d="M145 1516h-256v245h256v-245zM686 1516h-256v245h256v-245zM422 0h-275v1384h275v-1384z" />
    <glyph glyph-name="Eth" unicode="&#xd0;" horiz-adv-x="1572" 
d="M147 1384h578q371 0 579.5 -183.5t208.5 -508.5t-208.5 -508.5t-579.5 -183.5h-578v602h-159v195h159v587zM422 252h295q239 0 377.5 116.5t138.5 321.5q0 206 -138.5 323t-377.5 117h-295v-333h412v-195h-412v-350z" />
    <glyph glyph-name="Ntilde" unicode="&#xd1;" horiz-adv-x="1662" 
d="M1053 1497q-33 0 -60 7.5t-44 17t-54 32.5l-113 76q-53 37 -90 37q-18 0 -30 -4.5t-24.5 -19t-19.5 -46.5t-8 -81h-159q-8 159 54 254.5t175 95.5q33 0 62.5 -9t47 -19.5t52.5 -33.5l110 -71q51 -37 90 -37q37 0 57 30t23 123h162q8 -161 -54 -256.5t-177 -95.5zM422 0
h-275v1384h361l717 -1032h16v1032h275v-1384h-363l-715 1036h-16v-1036z" />
    <glyph glyph-name="Ograve" unicode="&#xd2;" horiz-adv-x="1660" 
d="M1165 1649v-156l-667 123v246zM831 -25q-171 0 -315.5 55t-244.5 150.5t-156 228.5t-56 285q0 151 56 283t156 227t245 150t315 55t314.5 -55t244.5 -150t156 -227t56 -283q0 -152 -56 -285t-156 -228.5t-244.5 -150.5t-314.5 -55zM831 233q227 0 358.5 127.5
t131.5 333.5q0 203 -132 330t-358 127q-228 0 -359.5 -127t-131.5 -330q0 -206 131.5 -333.5t359.5 -127.5z" />
    <glyph glyph-name="Oacute" unicode="&#xd3;" horiz-adv-x="1660" 
d="M1165 1616l-667 -123v156l667 213v-246zM831 -25q-171 0 -315.5 55t-244.5 150.5t-156 228.5t-56 285q0 151 56 283t156 227t245 150t315 55t314.5 -55t244.5 -150t156 -227t56 -283q0 -152 -56 -285t-156 -228.5t-244.5 -150.5t-314.5 -55zM831 233q227 0 358.5 127.5
t131.5 333.5q0 203 -132 330t-358 127q-228 0 -359.5 -127t-131.5 -330q0 -206 131.5 -333.5t359.5 -127.5z" />
    <glyph glyph-name="Ocircumflex" unicode="&#xd4;" horiz-adv-x="1660" 
d="M442 1638l340 211h97l338 -211v-143l-388 150l-387 -150v143zM831 -25q-171 0 -315.5 55t-244.5 150.5t-156 228.5t-56 285q0 151 56 283t156 227t245 150t315 55t314.5 -55t244.5 -150t156 -227t56 -283q0 -152 -56 -285t-156 -228.5t-244.5 -150.5t-314.5 -55zM831 233
q227 0 358.5 127.5t131.5 333.5q0 203 -132 330t-358 127q-228 0 -359.5 -127t-131.5 -330q0 -206 131.5 -333.5t359.5 -127.5z" />
    <glyph glyph-name="Otilde" unicode="&#xd5;" horiz-adv-x="1660" 
d="M1010 1497q-33 0 -60 7.5t-44 17t-54 32.5l-113 76q-53 37 -90 37q-18 0 -30 -4.5t-24.5 -19t-19.5 -46.5t-8 -81h-159q-8 159 54 254.5t175 95.5q33 0 62.5 -9t47 -19.5t52.5 -33.5l110 -71q51 -37 90 -37q37 0 57 30t23 123h162q8 -161 -54 -256.5t-177 -95.5zM831 -25
q-171 0 -315.5 55t-244.5 150.5t-156 228.5t-56 285q0 151 56 283t156 227t245 150t315 55t314.5 -55t244.5 -150t156 -227t56 -283q0 -152 -56 -285t-156 -228.5t-244.5 -150.5t-314.5 -55zM831 233q227 0 358.5 127.5t131.5 333.5q0 203 -132 330t-358 127
q-228 0 -359.5 -127t-131.5 -330q0 -206 131.5 -333.5t359.5 -127.5z" />
    <glyph glyph-name="Odieresis" unicode="&#xd6;" horiz-adv-x="1660" 
d="M690 1516h-256v245h256v-245zM1231 1516h-256v245h256v-245zM831 -25q-171 0 -315.5 55t-244.5 150.5t-156 228.5t-56 285q0 151 56 283t156 227t245 150t315 55t314.5 -55t244.5 -150t156 -227t56 -283q0 -152 -56 -285t-156 -228.5t-244.5 -150.5t-314.5 -55zM831 233
q227 0 358.5 127.5t131.5 333.5q0 203 -132 330t-358 127q-228 0 -359.5 -127t-131.5 -330q0 -206 131.5 -333.5t359.5 -127.5z" />
    <glyph glyph-name="multiply" unicode="&#xd7;" horiz-adv-x="1210" 
d="M758 616l332 -331l-154 -154l-332 332l-330 -332l-155 154l332 331l-332 330l157 154l328 -330l330 330l153 -154z" />
    <glyph glyph-name="Oslash" unicode="&#xd8;" horiz-adv-x="1660" 
d="M1425 1550l-145 -262q152 -96 237 -251t85 -343q0 -152 -56 -285t-156 -228.5t-244.5 -150.5t-314.5 -55q-142 0 -260 37l-96 -174h-225l141 252q-157 96 -244.5 253.5t-87.5 350.5q0 151 56 283t156 227t245 150t315 55q141 0 269 -39l100 180h225zM340 694
q0 -120 46 -215t132 -157l453 815q-60 14 -140 14q-228 0 -359.5 -127t-131.5 -330zM831 233q227 0 358.5 127.5t131.5 333.5q0 237 -170 363l-451 -811q67 -13 131 -13z" />
    <glyph glyph-name="Ugrave" unicode="&#xd9;" horiz-adv-x="1587" 
d="M1128 1649v-156l-667 123v246zM795 -25q-195 0 -344 70.5t-236.5 216t-87.5 350.5v772h276v-753q0 -398 390 -398q391 0 391 408v743h276v-770q0 -155 -50 -277.5t-139 -201t-210 -119.5t-266 -41z" />
    <glyph glyph-name="Uacute" unicode="&#xda;" horiz-adv-x="1587" 
d="M1128 1616l-667 -123v156l667 213v-246zM795 -25q-195 0 -344 70.5t-236.5 216t-87.5 350.5v772h276v-753q0 -398 390 -398q391 0 391 408v743h276v-770q0 -155 -50 -277.5t-139 -201t-210 -119.5t-266 -41z" />
    <glyph glyph-name="Ucircumflex" unicode="&#xdb;" horiz-adv-x="1587" 
d="M408 1638l340 211h96l338 -211v-143l-387 150l-387 -150v143zM795 -25q-195 0 -344 70.5t-236.5 216t-87.5 350.5v772h276v-753q0 -398 390 -398q391 0 391 408v743h276v-770q0 -155 -50 -277.5t-139 -201t-210 -119.5t-266 -41z" />
    <glyph glyph-name="Udieresis" unicode="&#xdc;" horiz-adv-x="1587" 
d="M653 1516h-256v245h256v-245zM1194 1516h-256v245h256v-245zM795 -25q-195 0 -344 70.5t-236.5 216t-87.5 350.5v772h276v-753q0 -398 390 -398q391 0 391 408v743h276v-770q0 -155 -50 -277.5t-139 -201t-210 -119.5t-266 -41z" />
    <glyph glyph-name="Yacute" unicode="&#xdd;" horiz-adv-x="1351" 
d="M1028 1616l-668 -123v156l668 213v-246zM817 0h-276v578l-588 806h334l393 -571h16l394 571h307l-580 -806v-578z" />
    <glyph glyph-name="Thorn" unicode="&#xde;" horiz-adv-x="1378" 
d="M422 0h-275v1384h275v-292h518q199 0 321.5 -110.5t122.5 -289.5t-122.5 -289t-321.5 -110h-518v-293zM422 836v-285h522q73 0 116.5 39t43.5 104t-43.5 103.5t-116.5 38.5h-522z" />
    <glyph glyph-name="germandbls" unicode="&#xdf;" horiz-adv-x="1376" 
d="M866 -25q-100 0 -180 17t-162 67l84 213q109 -65 230 -65q108 0 171.5 51t63.5 135q0 205 -315 205h-131v211h45q101 0 173.5 47t72.5 133q0 78 -65 131.5t-181 53.5q-137 0 -213 -81.5t-76 -250.5v-842h-266v827q0 264 147 423t406 159q231 0 371.5 -106.5t140.5 -266.5
q0 -194 -207 -284v-11q88 -19 156.5 -54t108 -73.5t64.5 -84.5t33.5 -83.5t8.5 -74.5q0 -115 -66.5 -206.5t-175.5 -140.5t-238 -49z" />
    <glyph glyph-name="agrave" unicode="&#xe0;" horiz-adv-x="1193" 
d="M489 1612l160 -412h-155l-269 412h264zM590 1085q500 0 500 -407v-678h-248l-11 170h-16q-65 -85 -171 -140t-226 -55q-169 0 -266 82t-97 232q0 157 110 235t335 78h323v60q0 106 -65.5 152t-192.5 46q-181 0 -362 -112l-88 194q221 143 475 143zM324 299
q0 -127 172 -127q179 0 327 158v96h-293q-111 0 -158.5 -31t-47.5 -96z" />
    <glyph glyph-name="aacute" unicode="&#xe1;" horiz-adv-x="1193" 
d="M647 1612h262l-268 -412h-154zM590 1085q500 0 500 -407v-678h-248l-11 170h-16q-65 -85 -171 -140t-226 -55q-169 0 -266 82t-97 232q0 157 110 235t335 78h323v60q0 106 -65.5 152t-192.5 46q-181 0 -362 -112l-88 194q221 143 475 143zM324 299q0 -127 172 -127
q179 0 327 158v96h-293q-111 0 -158.5 -31t-47.5 -96z" />
    <glyph glyph-name="acircumflex" unicode="&#xe2;" horiz-adv-x="1193" 
d="M805 1200l-207 195l-209 -195h-176l268 371h230l270 -371h-176zM590 1085q500 0 500 -407v-678h-248l-11 170h-16q-65 -85 -171 -140t-226 -55q-169 0 -266 82t-97 232q0 157 110 235t335 78h323v60q0 106 -65.5 152t-192.5 46q-181 0 -362 -112l-88 194q221 143 475 143
zM324 299q0 -127 172 -127q179 0 327 158v96h-293q-111 0 -158.5 -31t-47.5 -96z" />
    <glyph glyph-name="atilde" unicode="&#xe3;" horiz-adv-x="1193" 
d="M342 1200h-160q-8 167 54 271t176 104q48 0 84.5 -17.5t76.5 -52.5l97 -84q33 -27 51 -36t39 -9q77 0 82 183h159q8 -168 -53.5 -272.5t-175.5 -104.5q-48 0 -83.5 16.5t-76.5 50.5l-98 84q-33 28 -50.5 37.5t-39.5 9.5q-77 0 -82 -180zM590 1085q500 0 500 -407v-678
h-248l-11 170h-16q-65 -85 -171 -140t-226 -55q-169 0 -266 82t-97 232q0 157 110 235t335 78h323v60q0 106 -65.5 152t-192.5 46q-181 0 -362 -112l-88 194q221 143 475 143zM324 299q0 -127 172 -127q179 0 327 158v96h-293q-111 0 -158.5 -31t-47.5 -96z" />
    <glyph glyph-name="adieresis" unicode="&#xe4;" horiz-adv-x="1193" 
d="M250 1434h244v-234h-244v234zM705 1434h243v-234h-243v234zM590 1085q500 0 500 -407v-678h-248l-11 170h-16q-65 -85 -171 -140t-226 -55q-169 0 -266 82t-97 232q0 157 110 235t335 78h323v60q0 106 -65.5 152t-192.5 46q-181 0 -362 -112l-88 194q221 143 475 143z
M324 299q0 -127 172 -127q179 0 327 158v96h-293q-111 0 -158.5 -31t-47.5 -96z" />
    <glyph glyph-name="aring" unicode="&#xe5;" horiz-adv-x="1193" 
d="M598 1182q-121 0 -198.5 72.5t-77.5 187.5q0 111 78 184.5t198 73.5q119 0 196.5 -73.5t77.5 -184.5q0 -115 -77 -187.5t-197 -72.5zM598 1552q-49 0 -81 -32t-32 -78q0 -48 32 -79.5t81 -31.5t81 31.5t32 79.5q0 46 -32 78t-81 32zM590 1085q500 0 500 -407v-678h-248
l-11 170h-16q-65 -85 -171 -140t-226 -55q-169 0 -266 82t-97 232q0 157 110 235t335 78h323v60q0 106 -65.5 152t-192.5 46q-181 0 -362 -112l-88 194q221 143 475 143zM324 299q0 -127 172 -127q179 0 327 158v96h-293q-111 0 -158.5 -31t-47.5 -96z" />
    <glyph glyph-name="ae" unicode="&#xe6;" horiz-adv-x="1974" 
d="M1397 1094q269 0 413.5 -163t126.5 -427h-852q11 -139 98.5 -219t237.5 -80q77 0 155.5 34.5t133.5 114.5l195 -116q-74 -128 -210 -195.5t-282 -67.5q-176 0 -307 67t-203 187h-22q-166 -254 -463 -254q-169 0 -266 82t-97 232q0 157 110 235t335 78h323v57
q0 106 -65.5 153.5t-192.5 47.5q-180 0 -362 -115l-88 197q222 141 475 141q278 0 389 -153q76 78 183.5 121t234.5 43zM1106 690h559q-24 92 -94.5 141.5t-171.5 49.5q-108 0 -185 -47.5t-108 -143.5zM504 172q171 0 319 145v109h-295q-111 0 -157.5 -31t-46.5 -96
q0 -127 180 -127z" />
    <glyph glyph-name="ccedilla" unicode="&#xe7;" horiz-adv-x="1175" 
d="M627 211q211 0 319 174l195 -123q-64 -120 -174.5 -192.5t-259.5 -89.5l84 -152q-199 -58 -199 -139q0 -34 28 -55t85 -21t120 16v-176q-85 -18 -149 -18q-144 0 -224.5 52.5t-80.5 156.5q0 140 231 231l-59 107q-221 26 -359.5 179.5t-138.5 373.5q0 161 74 288.5
t207 199t301 71.5q173 0 310.5 -77.5t203.5 -211.5l-195 -125q-58 90 -132 134t-175 44q-144 0 -234 -87.5t-90 -235.5q0 -145 90.5 -234.5t221.5 -89.5z" />
    <glyph glyph-name="egrave" unicode="&#xe8;" horiz-adv-x="1198" 
d="M508 1612l160 -412h-156l-268 412h264zM621 1094q269 0 413.5 -163t126.5 -427h-852q11 -139 98 -219t238 -80q77 0 155 34.5t134 114.5l192 -116q-73 -128 -208 -195.5t-283 -67.5q-274 0 -432 156t-158 404q0 161 73.5 288.5t205 199t297.5 71.5zM330 690h559
q-24 92 -95.5 141.5t-172.5 49.5q-107 0 -183.5 -47.5t-107.5 -143.5z" />
    <glyph glyph-name="eacute" unicode="&#xe9;" horiz-adv-x="1198" 
d="M666 1612h262l-269 -412h-153zM621 1094q269 0 413.5 -163t126.5 -427h-852q11 -139 98 -219t238 -80q77 0 155 34.5t134 114.5l192 -116q-73 -128 -208 -195.5t-283 -67.5q-274 0 -432 156t-158 404q0 161 73.5 288.5t205 199t297.5 71.5zM330 690h559
q-24 92 -95.5 141.5t-172.5 49.5q-107 0 -183.5 -47.5t-107.5 -143.5z" />
    <glyph glyph-name="ecircumflex" unicode="&#xea;" horiz-adv-x="1198" 
d="M823 1200l-207 195l-208 -195h-177l269 371h229l270 -371h-176zM621 1094q269 0 413.5 -163t126.5 -427h-852q11 -139 98 -219t238 -80q77 0 155 34.5t134 114.5l192 -116q-73 -128 -208 -195.5t-283 -67.5q-274 0 -432 156t-158 404q0 161 73.5 288.5t205 199
t297.5 71.5zM330 690h559q-24 92 -95.5 141.5t-172.5 49.5q-107 0 -183.5 -47.5t-107.5 -143.5z" />
    <glyph glyph-name="edieresis" unicode="&#xeb;" horiz-adv-x="1198" 
d="M266 1434h244v-234h-244v234zM721 1434h244v-234h-244v234zM621 1094q269 0 413.5 -163t126.5 -427h-852q11 -139 98 -219t238 -80q77 0 155 34.5t134 114.5l192 -116q-73 -128 -208 -195.5t-283 -67.5q-274 0 -432 156t-158 404q0 161 73.5 288.5t205 199t297.5 71.5z
M330 690h559q-24 92 -95.5 141.5t-172.5 49.5q-107 0 -183.5 -47.5t-107.5 -143.5z" />
    <glyph glyph-name="igrave" unicode="&#xec;" horiz-adv-x="514" 
d="M150 1612l159 -412h-155l-269 412h265zM391 0h-266v1069h266v-1069z" />
    <glyph glyph-name="iacute" unicode="&#xed;" horiz-adv-x="514" 
d="M301 1200h-154l160 412h262zM391 0h-266v1069h266v-1069z" />
    <glyph glyph-name="icircumflex" unicode="&#xee;" horiz-adv-x="514" 
d="M141 1632h230l211 -432h-170l-156 225l-156 -225h-168zM391 0h-266v1069h266v-1069z" />
    <glyph glyph-name="idieresis" unicode="&#xef;" horiz-adv-x="514" 
d="M172 1200h-244v234h244v-234zM586 1200h-244v234h244v-234zM391 0h-266v1069h266v-1069z" />
    <glyph glyph-name="eth" unicode="&#xf0;" horiz-adv-x="1257" 
d="M979 1272l-105 -58q336 -231 336 -659q0 -126 -41.5 -232.5t-117.5 -183.5t-191 -120.5t-256 -43.5q-252 0 -405.5 133.5t-153.5 333.5q0 201 128 329t357 128q247 0 385 -141h17q-72 218 -273 336l-340 -189v195l142 78q-97 28 -201 41v194q249 -22 438 -102l281 157
v-196zM621 203q91 0 166.5 32t126 100.5t53.5 164.5q-34 58 -82.5 101t-100 66t-100.5 33.5t-96 10.5q-129 0 -204 -73t-75 -181q0 -110 84.5 -182t227.5 -72z" />
    <glyph glyph-name="ntilde" unicode="&#xf1;" horiz-adv-x="1304" 
d="M416 1200h-160q-8 167 53.5 271t175.5 104q49 0 85.5 -17.5t76.5 -52.5l96 -84q33 -27 51 -36t40 -9q76 0 81 183h160q8 -168 -53.5 -272.5t-175.5 -104.5q-48 0 -83.5 16.5t-76.5 50.5l-98 84q-33 28 -50.5 37.5t-39.5 9.5q-77 0 -82 -180zM780 1094q93 0 166.5 -23
t131.5 -73.5t89 -138t31 -208.5v-651h-266v588q0 164 -57 228.5t-179 64.5q-86 0 -173 -44.5t-132 -119.5v-717h-266v1069h252l8 -174h18q63 90 161 144.5t216 54.5z" />
    <glyph glyph-name="ograve" unicode="&#xf2;" horiz-adv-x="1277" 
d="M530 1612l160 -412h-155l-269 412h264zM639 -25q-261 0 -427.5 158.5t-166.5 401.5t166.5 401t427.5 158t426.5 -158t165.5 -401t-165.5 -401.5t-426.5 -158.5zM639 211q144 0 233 90.5t89 233.5t-89 233t-233 90t-234 -90t-90 -233t90 -233.5t234 -90.5z" />
    <glyph glyph-name="oacute" unicode="&#xf3;" horiz-adv-x="1277" 
d="M682 1200h-154l160 412h262zM639 -25q-261 0 -427.5 158.5t-166.5 401.5t166.5 401t427.5 158t426.5 -158t165.5 -401t-165.5 -401.5t-426.5 -158.5zM639 211q144 0 233 90.5t89 233.5t-89 233t-233 90t-234 -90t-90 -233t90 -233.5t234 -90.5z" />
    <glyph glyph-name="ocircumflex" unicode="&#xf4;" horiz-adv-x="1277" 
d="M848 1200l-207 195l-209 -195h-176l268 371h230l270 -371h-176zM639 1094q261 0 426.5 -158t165.5 -401t-165.5 -401.5t-426.5 -158.5t-427.5 158.5t-166.5 401.5t166.5 401t427.5 158zM639 211q144 0 233 90.5t89 233.5t-89 233t-233 90t-234 -90t-90 -233t90 -233.5
t234 -90.5z" />
    <glyph glyph-name="otilde" unicode="&#xf5;" horiz-adv-x="1277" 
d="M813 1182q-48 0 -83.5 16.5t-76.5 50.5l-98 84q-33 28 -50.5 37.5t-39.5 9.5q-77 0 -82 -180h-160q-8 167 54 271t176 104q48 0 84.5 -17.5t76.5 -52.5l97 -84q33 -27 51 -36t39 -9q77 0 82 183h159q8 -168 -53.5 -272.5t-175.5 -104.5zM639 -25q-261 0 -427.5 158.5
t-166.5 401.5t166.5 401t427.5 158t426.5 -158t165.5 -401t-165.5 -401.5t-426.5 -158.5zM639 211q144 0 233 90.5t89 233.5t-89 233t-233 90t-234 -90t-90 -233t90 -233.5t234 -90.5z" />
    <glyph glyph-name="odieresis" unicode="&#xf6;" horiz-adv-x="1277" 
d="M535 1200h-244v234h244v-234zM989 1200h-244v234h244v-234zM639 -25q-261 0 -427.5 158.5t-166.5 401.5t166.5 401t427.5 158t426.5 -158t165.5 -401t-165.5 -401.5t-426.5 -158.5zM639 211q144 0 233 90.5t89 233.5t-89 233t-233 90t-234 -90t-90 -233t90 -233.5
t234 -90.5z" />
    <glyph glyph-name="divide" unicode="&#xf7;" horiz-adv-x="1181" 
d="M707 918h-234v235h234v-235zM1063 551h-944v219h944v-219zM707 168h-234v233h234v-233z" />
    <glyph glyph-name="oslash" unicode="&#xf8;" horiz-adv-x="1277" 
d="M1157 1268l-156 -281q109 -76 169.5 -192.5t60.5 -259.5q0 -243 -165.5 -401.5t-426.5 -158.5q-95 0 -184 25l-105 -188h-225l149 270q-108 76 -168.5 194t-60.5 259q0 243 166.5 401t427.5 158q96 0 182 -25l111 199h225zM315 535q0 -138 84 -228l303 547q-40 4 -63 4
q-144 0 -234 -90t-90 -233zM639 211q144 0 233 90.5t89 233.5q0 140 -84 227l-304 -545q35 -6 66 -6z" />
    <glyph glyph-name="ugrave" unicode="&#xf9;" horiz-adv-x="1304" 
d="M545 1612l160 -412h-156l-268 412h264zM913 352v717h267v-1069h-252l-8 174h-19q-65 -91 -162 -145t-215 -54q-93 0 -166.5 23t-131.5 73.5t-89 138t-31 208.5v651h267v-588q0 -164 57 -228.5t178 -64.5q86 0 173 44.5t132 119.5z" />
    <glyph glyph-name="uacute" unicode="&#xfa;" horiz-adv-x="1304" 
d="M702 1612h263l-269 -412h-153zM913 352v717h267v-1069h-252l-8 174h-19q-65 -91 -162 -145t-215 -54q-93 0 -166.5 23t-131.5 73.5t-89 138t-31 208.5v651h267v-588q0 -164 57 -228.5t178 -64.5q86 0 173 44.5t132 119.5z" />
    <glyph glyph-name="ucircumflex" unicode="&#xfb;" horiz-adv-x="1304" 
d="M860 1200l-207 195l-209 -195h-176l269 371h229l270 -371h-176zM913 352v717h267v-1069h-252l-8 174h-19q-65 -91 -162 -145t-215 -54q-93 0 -166.5 23t-131.5 73.5t-89 138t-31 208.5v651h267v-588q0 -164 57 -228.5t178 -64.5q86 0 173 44.5t132 119.5z" />
    <glyph glyph-name="udieresis" unicode="&#xfc;" horiz-adv-x="1304" 
d="M303 1434h244v-234h-244v234zM758 1434h243v-234h-243v234zM913 352v717h267v-1069h-252l-8 174h-19q-65 -91 -162 -145t-215 -54q-93 0 -166.5 23t-131.5 73.5t-89 138t-31 208.5v651h267v-588q0 -164 57 -228.5t178 -64.5q86 0 173 44.5t132 119.5z" />
    <glyph glyph-name="yacute" unicode="&#xfd;" horiz-adv-x="1255" 
d="M678 1612h262l-268 -412h-154zM647 293l318 776h299l-523 -1151q-43 -96 -108.5 -150.5t-179.5 -54.5h-363v213h303q46 0 70.5 9t44.5 42l-516 1092h299l340 -776h16z" />
    <glyph glyph-name="thorn" unicode="&#xfe;" horiz-adv-x="1335" 
d="M788 1094q113 0 207.5 -43t159 -118t100 -177.5t35.5 -220.5q0 -158 -60.5 -284.5t-176 -201t-265.5 -74.5q-248 0 -382 195h-15v-457h-266v1671h266v-493h10q133 203 387 203zM711 188q138 0 223.5 97.5t85.5 249.5q0 151 -85.5 248.5t-223.5 97.5q-119 0 -201.5 -52.5
t-118.5 -136.5v-315q36 -84 118.5 -136.5t201.5 -52.5z" />
    <glyph glyph-name="ydieresis" unicode="&#xff;" horiz-adv-x="1255" 
d="M279 1434h243v-234h-243v234zM733 1434h244v-234h-244v234zM647 293l318 776h299l-523 -1151q-43 -96 -108.5 -150.5t-179.5 -54.5h-363v213h303q46 0 70.5 9t44.5 42l-516 1092h299l340 -776h16z" />
    <glyph glyph-name="Amacron" unicode="&#x100;" horiz-adv-x="1511" 
d="M406 1708h702v-192h-702v192zM1548 0h-305l-106 244h-772l-107 -244h-295l629 1384h332zM741 1106l-268 -612h553l-270 612h-15z" />
    <glyph glyph-name="amacron" unicode="&#x101;" horiz-adv-x="1193" 
d="M279 1401h636v-201h-636v201zM590 1085q500 0 500 -407v-678h-248l-11 170h-16q-65 -85 -171 -140t-226 -55q-169 0 -266 82t-97 232q0 157 110 235t335 78h323v60q0 106 -65.5 152t-192.5 46q-181 0 -362 -112l-88 194q221 143 475 143zM324 299q0 -127 172 -127
q179 0 327 158v96h-293q-111 0 -158.5 -31t-47.5 -96z" />
    <glyph glyph-name="Abreve" unicode="&#x102;" horiz-adv-x="1511" 
d="M756 1495q-181 0 -289.5 104t-99.5 275h174q22 -172 215 -172q195 0 217 172h174q7 -171 -101 -275t-290 -104zM1548 0h-305l-106 244h-772l-107 -244h-295l629 1384h332zM741 1106l-268 -612h553l-270 612h-15z" />
    <glyph glyph-name="abreve" unicode="&#x103;" horiz-adv-x="1193" 
d="M596 1180q-75 0 -140 25t-114 72t-76 122t-24 168h178q11 -191 176 -191q167 0 176 191h180q4 -184 -98 -285.5t-258 -101.5zM590 1085q500 0 500 -407v-678h-248l-11 170h-16q-65 -85 -171 -140t-226 -55q-169 0 -266 82t-97 232q0 157 110 235t335 78h323v60
q0 106 -65.5 152t-192.5 46q-181 0 -362 -112l-88 194q221 143 475 143zM324 299q0 -127 172 -127q179 0 327 158v96h-293q-111 0 -158.5 -31t-47.5 -96z" />
    <glyph glyph-name="Aogonek" unicode="&#x104;" horiz-adv-x="1511" 
d="M1436 -336q83 0 163 21v-201q-106 -31 -215 -31q-155 0 -255.5 71.5t-100.5 199.5q0 93 51.5 175.5t149.5 131.5l-92 213h-772l-107 -244h-295l629 1384h332l624 -1384h-90q-205 -91 -205 -211q0 -125 183 -125zM741 1106l-268 -612h553l-270 612h-15z" />
    <glyph glyph-name="aogonek" unicode="&#x105;" horiz-adv-x="1193" 
d="M1024 -322q83 0 147 17v-180q-89 -27 -194 -27q-139 0 -229.5 64t-90.5 180q0 83 47.5 158.5t137.5 119.5l-11 160h-16q-65 -85 -171 -140t-226 -55q-169 0 -266 82t-97 232q0 157 110 235t335 78h323v60q0 106 -65.5 152t-192.5 46q-181 0 -362 -112l-88 194
q221 143 475 143q500 0 500 -407v-678q-230 -88 -230 -209q0 -113 164 -113zM324 299q0 -127 172 -127q179 0 327 158v96h-293q-111 0 -158.5 -31t-47.5 -96z" />
    <glyph glyph-name="Cacute" unicode="&#x106;" horiz-adv-x="1515" 
d="M1133 1616l-668 -123v156l668 213v-246zM823 -25q-170 0 -313.5 55t-242 150.5t-153.5 228t-55 285.5q0 151 55 283t152 227t236.5 150t302.5 55q229 0 394 -87.5t255 -252.5l-223 -143q-70 116 -171.5 170.5t-254.5 54.5q-214 0 -339.5 -127t-125.5 -330
q0 -207 128.5 -334t354.5 -127q151 0 266.5 63t178.5 173l209 -137q-93 -164 -264.5 -260.5t-389.5 -96.5z" />
    <glyph glyph-name="cacute" unicode="&#x107;" horiz-adv-x="1175" 
d="M664 1200h-154l160 412h262zM627 -25q-252 0 -417 158.5t-165 401.5q0 161 74 288.5t207 199t301 71.5q173 0 310.5 -77.5t203.5 -211.5l-195 -125q-58 90 -132 134t-175 44q-144 0 -234 -87.5t-90 -235.5q0 -145 90.5 -234.5t221.5 -89.5q211 0 319 174l195 -123
q-72 -136 -204.5 -211.5t-309.5 -75.5z" />
    <glyph glyph-name="Ccircumflex" unicode="&#x108;" horiz-adv-x="1515" 
d="M412 1638l340 211h96l338 -211v-143l-387 150l-387 -150v143zM823 -25q-170 0 -313.5 55t-242 150.5t-153.5 228t-55 285.5q0 151 55 283t152 227t236.5 150t302.5 55q229 0 394 -87.5t255 -252.5l-223 -143q-70 116 -171.5 170.5t-254.5 54.5q-214 0 -339.5 -127
t-125.5 -330q0 -207 128.5 -334t354.5 -127q151 0 266.5 63t178.5 173l209 -137q-93 -164 -264.5 -260.5t-389.5 -96.5z" />
    <glyph glyph-name="ccircumflex" unicode="&#x109;" horiz-adv-x="1175" 
d="M829 1200l-206 195l-209 -195h-176l268 371h229l271 -371h-177zM627 211q211 0 319 174l195 -123q-72 -136 -204.5 -211.5t-309.5 -75.5q-252 0 -417 158.5t-165 401.5q0 161 74 288.5t207 199t301 71.5q173 0 310.5 -77.5t203.5 -211.5l-195 -125q-58 90 -132 134
t-175 44q-144 0 -234 -87.5t-90 -235.5q0 -145 90.5 -234.5t221.5 -89.5z" />
    <glyph glyph-name="Cdotaccent" unicode="&#x10a;" horiz-adv-x="1515" 
d="M926 1516h-256v245h256v-245zM823 -25q-170 0 -313.5 55t-242 150.5t-153.5 228t-55 285.5q0 151 55 283t152 227t236.5 150t302.5 55q229 0 394 -87.5t255 -252.5l-223 -143q-70 116 -171.5 170.5t-254.5 54.5q-214 0 -339.5 -127t-125.5 -330q0 -207 128.5 -334
t354.5 -127q151 0 266.5 63t178.5 173l209 -137q-93 -164 -264.5 -260.5t-389.5 -96.5z" />
    <glyph glyph-name="cdotaccent" unicode="&#x10b;" horiz-adv-x="1175" 
d="M754 1200h-269v256h269v-256zM627 -25q-252 0 -417 158.5t-165 401.5q0 161 74 288.5t207 199t301 71.5q173 0 310.5 -77.5t203.5 -211.5l-195 -125q-58 90 -132 134t-175 44q-144 0 -234 -87.5t-90 -235.5q0 -145 90.5 -234.5t221.5 -89.5q211 0 319 174l195 -123
q-72 -136 -204.5 -211.5t-309.5 -75.5z" />
    <glyph glyph-name="Ccaron" unicode="&#x10c;" horiz-adv-x="1515" 
d="M827 1513h-96l-340 213v144l387 -150l387 150v-144zM823 -25q-170 0 -313.5 55t-242 150.5t-153.5 228t-55 285.5q0 151 55 283t152 227t236.5 150t302.5 55q229 0 394 -87.5t255 -252.5l-223 -143q-70 116 -171.5 170.5t-254.5 54.5q-214 0 -339.5 -127t-125.5 -330
q0 -207 128.5 -334t354.5 -127q151 0 266.5 63t178.5 173l209 -137q-93 -164 -264.5 -260.5t-389.5 -96.5z" />
    <glyph glyph-name="ccaron" unicode="&#x10d;" horiz-adv-x="1175" 
d="M985 1569l-270 -369h-230l-268 369h176l209 -193l207 193h176zM627 211q211 0 319 174l195 -123q-72 -136 -204.5 -211.5t-309.5 -75.5q-252 0 -417 158.5t-165 401.5q0 161 74 288.5t207 199t301 71.5q173 0 310.5 -77.5t203.5 -211.5l-195 -125q-58 90 -132 134
t-175 44q-144 0 -234 -87.5t-90 -235.5q0 -145 90.5 -234.5t221.5 -89.5z" />
    <glyph glyph-name="Dcaron" unicode="&#x10e;" horiz-adv-x="1572" 
d="M776 1513h-96l-340 213v144l387 -150l387 150v-144zM725 0h-578v1384h578q371 0 579.5 -183.5t208.5 -508.5t-208.5 -508.5t-579.5 -183.5zM422 1130v-878h295q239 0 377.5 116.5t138.5 321.5q0 206 -138.5 323t-377.5 117h-295z" />
    <glyph glyph-name="dcaron" unicode="&#x10f;" horiz-adv-x="1585" 
d="M930 899h16v485h266v-1384h-254l-8 172h-18q-137 -197 -385 -197q-149 0 -264.5 74.5t-176.5 201.5t-61 284t61 284t176.5 201t264.5 74q246 0 383 -195zM1370 915l-22 469h215l-23 -469h-170zM625 188q120 0 202.5 54t118.5 139v307q-36 85 -118.5 139t-202.5 54
q-138 0 -224 -97.5t-86 -248.5q0 -152 86 -249.5t224 -97.5z" />
    <glyph glyph-name="Dcroat" unicode="&#x110;" horiz-adv-x="1572" 
d="M147 1384h578q371 0 579.5 -183.5t208.5 -508.5t-208.5 -508.5t-579.5 -183.5h-578v602h-159v195h159v587zM422 252h295q239 0 377.5 116.5t138.5 321.5q0 206 -138.5 323t-377.5 117h-295v-333h412v-195h-412v-350z" />
    <glyph glyph-name="dcroat" unicode="&#x111;" horiz-adv-x="1335" 
d="M1212 1233h148v-180h-148v-1053h-254l-8 170h-16q-143 -195 -385 -195q-224 0 -364 146t-140 366t140 366t364 146q238 0 383 -190h14v244h-282v180h282v149h266v-149zM315 487q0 -128 77.5 -213.5t223.5 -85.5q115 0 199 52.5t131 140.5v215q-47 87 -131.5 139.5
t-198.5 52.5q-146 0 -223.5 -86t-77.5 -215z" />
    <glyph glyph-name="Emacron" unicode="&#x112;" horiz-adv-x="1382" 
d="M1065 1516h-703v192h703v-192zM1313 0h-1166v1384h1143v-254h-868v-241h792v-254h-792v-383h891v-252z" />
    <glyph glyph-name="emacron" unicode="&#x113;" horiz-adv-x="1198" 
d="M297 1401h637v-201h-637v201zM621 1094q269 0 413.5 -163t126.5 -427h-852q11 -139 98 -219t238 -80q77 0 155 34.5t134 114.5l192 -116q-73 -128 -208 -195.5t-283 -67.5q-274 0 -432 156t-158 404q0 161 73.5 288.5t205 199t297.5 71.5zM330 690h559
q-24 92 -95.5 141.5t-172.5 49.5q-107 0 -183.5 -47.5t-107.5 -143.5z" />
    <glyph glyph-name="Ebreve" unicode="&#x114;" horiz-adv-x="1382" 
d="M713 1495q-181 0 -289.5 104t-99.5 275h174q22 -172 215 -172q195 0 217 172h174q7 -171 -101 -275t-290 -104zM1313 0h-1166v1384h1143v-254h-868v-241h792v-254h-792v-383h891v-252z" />
    <glyph glyph-name="ebreve" unicode="&#x115;" horiz-adv-x="1198" 
d="M614 1180q-75 0 -140 25t-114 72t-76 122t-24 168h178q11 -191 176 -191q168 0 177 191h180q4 -184 -98.5 -285.5t-258.5 -101.5zM621 1094q269 0 413.5 -163t126.5 -427h-852q11 -139 98 -219t238 -80q77 0 155 34.5t134 114.5l192 -116q-73 -128 -208 -195.5
t-283 -67.5q-274 0 -432 156t-158 404q0 161 73.5 288.5t205 199t297.5 71.5zM330 690h559q-24 92 -95.5 141.5t-172.5 49.5q-107 0 -183.5 -47.5t-107.5 -143.5z" />
    <glyph glyph-name="Edotaccent" unicode="&#x116;" horiz-adv-x="1382" 
d="M842 1516h-256v245h256v-245zM1313 0h-1166v1384h1143v-254h-868v-241h792v-254h-792v-383h891v-252z" />
    <glyph glyph-name="edotaccent" unicode="&#x117;" horiz-adv-x="1198" 
d="M481 1456h269v-256h-269v256zM621 1094q269 0 413.5 -163t126.5 -427h-852q11 -139 98 -219t238 -80q77 0 155 34.5t134 114.5l192 -116q-73 -128 -208 -195.5t-283 -67.5q-274 0 -432 156t-158 404q0 161 73.5 288.5t205 199t297.5 71.5zM330 690h559
q-24 92 -95.5 141.5t-172.5 49.5q-107 0 -183.5 -47.5t-107.5 -143.5z" />
    <glyph glyph-name="Eogonek" unicode="&#x118;" horiz-adv-x="1382" 
d="M1313 0h-223q-224 -94 -224 -219t183 -125q87 0 163 20v-200q-106 -31 -215 -31q-155 0 -255.5 71t-100.5 199q0 82 41 157t121 128h-656v1384h1143v-254h-868v-241h792v-254h-792v-383h891v-252z" />
    <glyph glyph-name="eogonek" unicode="&#x119;" horiz-adv-x="1198" 
d="M621 1094q269 0 413.5 -163t126.5 -427h-852q11 -139 98 -219t238 -80q77 0 155 34.5t134 114.5l192 -116q-53 -93 -141 -154.5t-192 -87.5q-218 -89 -218 -205q0 -113 164 -113q84 0 148 17v-180q-89 -27 -195 -27q-139 0 -229 64t-90 180q0 73 35.5 139.5t103.5 112.5
q-220 35 -343.5 184t-123.5 367q0 161 73.5 288.5t205 199t297.5 71.5zM330 690h559q-24 92 -95.5 141.5t-172.5 49.5q-107 0 -183.5 -47.5t-107.5 -143.5z" />
    <glyph glyph-name="Ecaron" unicode="&#x11a;" horiz-adv-x="1382" 
d="M743 1513h-96l-340 213v144l387 -150l387 150v-144zM1313 0h-1166v1384h1143v-254h-868v-241h792v-254h-792v-383h891v-252z" />
    <glyph glyph-name="ecaron" unicode="&#x11b;" horiz-adv-x="1198" 
d="M981 1569l-270 -369h-230l-268 369h176l209 -193l207 193h176zM621 1094q269 0 413.5 -163t126.5 -427h-852q11 -139 98 -219t238 -80q77 0 155 34.5t134 114.5l192 -116q-73 -128 -208 -195.5t-283 -67.5q-274 0 -432 156t-158 404q0 161 73.5 288.5t205 199t297.5 71.5
zM330 690h559q-24 92 -95.5 141.5t-172.5 49.5q-107 0 -183.5 -47.5t-107.5 -143.5z" />
    <glyph glyph-name="Gcircumflex" unicode="&#x11c;" horiz-adv-x="1619" 
d="M422 1638l340 211h96l338 -211v-143l-387 150l-387 -150v143zM842 -25q-171 0 -318 55t-248.5 150.5t-159 227.5t-57.5 284q0 165 59.5 300.5t163 226t242.5 139.5t299 49q196 0 367.5 -74t265.5 -227l-221 -139q-135 186 -414 186q-224 0 -352.5 -128.5t-128.5 -332.5
t143 -332.5t383 -128.5q225 0 373 93v297h-414v229h678v-670q-285 -205 -661 -205z" />
    <glyph glyph-name="gcircumflex" unicode="&#x11d;" horiz-adv-x="1349" 
d="M842 1200l-207 195l-209 -195h-176l268 371h230l270 -371h-176zM1188 1229h158v-221h-121q-53 0 -68.5 -19.5t-15.5 -60.5v-99q6 -30 6 -63q0 -149 -126.5 -238.5t-387.5 -89.5q-132 0 -232 35q-66 -3 -97.5 -28t-31.5 -58q0 -32 24.5 -52t65.5 -20h527q167 0 251.5 -70
t84.5 -194q0 -99 -51 -171t-143 -112.5t-206.5 -59.5t-255.5 -19q-277 0 -416 58t-139 185q0 142 158 189v14q-119 61 -119 191q0 81 52.5 138.5t156.5 70.5v12q-102 85 -102 219q0 147 120 237.5t353 90.5q267 0 403 -101v56q0 180 152 180zM653 639q240 0 240 129
q0 125 -240 125q-243 0 -243 -125q0 -129 243 -129zM324 94q-74 -21 -74 -92q0 -38 27 -61.5t104.5 -38.5t210.5 -15q217 0 317.5 30t100.5 101q0 76 -117 76h-473h-96z" />
    <glyph glyph-name="Gbreve" unicode="&#x11e;" horiz-adv-x="1619" 
d="M809 1495q-181 0 -289.5 104t-99.5 275h174q22 -172 215 -172q195 0 217 172h174q7 -171 -101 -275t-290 -104zM842 -25q-171 0 -318 55t-248.5 150.5t-159 227.5t-57.5 284q0 165 59.5 300.5t163 226t242.5 139.5t299 49q196 0 367.5 -74t265.5 -227l-221 -139
q-135 186 -414 186q-224 0 -352.5 -128.5t-128.5 -332.5t143 -332.5t383 -128.5q225 0 373 93v297h-414v229h678v-670q-285 -205 -661 -205z" />
    <glyph glyph-name="gbreve" unicode="&#x11f;" horiz-adv-x="1349" 
d="M633 1180q-75 0 -140 25t-114 72t-76 122t-24 168h178q11 -191 176 -191q167 0 176 191h180q4 -184 -98 -285.5t-258 -101.5zM1188 1229h158v-221h-121q-53 0 -68.5 -19.5t-15.5 -60.5v-99q6 -30 6 -63q0 -149 -126.5 -238.5t-387.5 -89.5q-132 0 -232 35
q-66 -3 -97.5 -28t-31.5 -58q0 -32 24.5 -52t65.5 -20h527q167 0 251.5 -70t84.5 -194q0 -99 -51 -171t-143 -112.5t-206.5 -59.5t-255.5 -19q-277 0 -416 58t-139 185q0 142 158 189v14q-119 61 -119 191q0 81 52.5 138.5t156.5 70.5v12q-102 85 -102 219q0 147 120 237.5
t353 90.5q267 0 403 -101v56q0 180 152 180zM653 639q240 0 240 129q0 125 -240 125q-243 0 -243 -125q0 -129 243 -129zM324 94q-74 -21 -74 -92q0 -38 27 -61.5t104.5 -38.5t210.5 -15q217 0 317.5 30t100.5 101q0 76 -117 76h-473h-96z" />
    <glyph glyph-name="Gdotaccent" unicode="&#x120;" horiz-adv-x="1619" 
d="M936 1516h-256v245h256v-245zM842 -25q-171 0 -318 55t-248.5 150.5t-159 227.5t-57.5 284q0 165 59.5 300.5t163 226t242.5 139.5t299 49q196 0 367.5 -74t265.5 -227l-221 -139q-135 186 -414 186q-224 0 -352.5 -128.5t-128.5 -332.5t143 -332.5t383 -128.5
q225 0 373 93v297h-414v229h678v-670q-285 -205 -661 -205z" />
    <glyph glyph-name="gdotaccent" unicode="&#x121;" horiz-adv-x="1349" 
d="M500 1456h268v-256h-268v256zM1188 1229h158v-221h-121q-53 0 -68.5 -19.5t-15.5 -60.5v-99q6 -30 6 -63q0 -149 -126.5 -238.5t-387.5 -89.5q-132 0 -232 35q-66 -3 -97.5 -28t-31.5 -58q0 -32 24.5 -52t65.5 -20h527q167 0 251.5 -70t84.5 -194q0 -99 -51 -171
t-143 -112.5t-206.5 -59.5t-255.5 -19q-277 0 -416 58t-139 185q0 142 158 189v14q-119 61 -119 191q0 81 52.5 138.5t156.5 70.5v12q-102 85 -102 219q0 147 120 237.5t353 90.5q267 0 403 -101v56q0 180 152 180zM653 639q240 0 240 129q0 125 -240 125q-243 0 -243 -125
q0 -129 243 -129zM324 94q-74 -21 -74 -92q0 -38 27 -61.5t104.5 -38.5t210.5 -15q217 0 317.5 30t100.5 101q0 76 -117 76h-473h-96z" />
    <glyph glyph-name="uni0122" unicode="&#x122;" horiz-adv-x="1619" 
d="M842 -25q-171 0 -318 55t-248.5 150.5t-159 227.5t-57.5 284q0 165 59.5 300.5t163 226t242.5 139.5t299 49q196 0 367.5 -74t265.5 -227l-221 -139q-135 186 -414 186q-224 0 -352.5 -128.5t-128.5 -332.5t143 -332.5t383 -128.5q225 0 373 93v297h-414v229h678v-670
q-285 -205 -661 -205zM786 -655h-106v100h70q77 0 104 18.5t27 75.5v86h-201v215h326v-286q0 -117 -50 -163t-170 -46z" />
    <glyph glyph-name="uni0123" unicode="&#x123;" horiz-adv-x="1349" 
d="M588 1403h190v-203h-309v273q0 111 47 154.5t162 43.5h100v-96h-65q-74 0 -99.5 -17t-25.5 -73v-82zM1188 1229h158v-221h-121q-53 0 -68.5 -19.5t-15.5 -60.5v-99q6 -30 6 -63q0 -149 -126.5 -238.5t-387.5 -89.5q-132 0 -232 35q-66 -3 -97.5 -28t-31.5 -58
q0 -32 24.5 -52t65.5 -20h527q167 0 251.5 -70t84.5 -194q0 -99 -51 -171t-143 -112.5t-206.5 -59.5t-255.5 -19q-277 0 -416 58t-139 185q0 142 158 189v14q-119 61 -119 191q0 81 52.5 138.5t156.5 70.5v12q-102 85 -102 219q0 147 120 237.5t353 90.5q267 0 403 -101v56
q0 180 152 180zM653 639q240 0 240 129q0 125 -240 125q-243 0 -243 -125q0 -129 243 -129zM324 94q-74 -21 -74 -92q0 -38 27 -61.5t104.5 -38.5t210.5 -15q217 0 317.5 30t100.5 101q0 76 -117 76h-473h-96z" />
    <glyph glyph-name="Hcircumflex" unicode="&#x124;" horiz-adv-x="1626" 
d="M426 1638l340 211h96l338 -211v-143l-387 150l-387 -150v143zM422 0h-275v1384h275v-493h780v493h277v-1384h-277v635h-780v-635z" />
    <glyph glyph-name="hcircumflex" unicode="&#x125;" horiz-adv-x="1304" 
d="M637 1638v-143l-387 150l-387 -150v143l340 211h96zM780 1094q93 0 166.5 -23t131.5 -73.5t89 -138t31 -208.5v-651h-266v588q0 164 -57 228.5t-179 64.5q-86 0 -173 -44.5t-132 -119.5v-717h-266v1384h266v-483h17q65 88 160.5 140.5t211.5 52.5z" />
    <glyph glyph-name="Hbar" unicode="&#x126;" horiz-adv-x="1626" 
d="M1479 1223h159v-183h-159v-1040h-277v635h-780v-635h-275v1040h-159v183h159v161h275v-161h780v161h277v-161zM422 891h780v149h-780v-149z" />
    <glyph glyph-name="hbar" unicode="&#x127;" horiz-adv-x="1304" 
d="M780 991q418 0 418 -442v-549h-266v485q0 165 -56.5 229t-179.5 64q-86 0 -173 -44.5t-132 -119.5v-614h-266v1053h-127v180h127v151h266v-151h305v-180h-305v-252h19q63 87 158.5 138.5t211.5 51.5z" />
    <glyph glyph-name="Itilde" unicode="&#x128;" horiz-adv-x="569" 
d="M465 1497q-33 0 -60 7.5t-44 17t-54 32.5l-112 76q-53 37 -91 37q-18 0 -30 -4.5t-24 -19t-19 -46.5t-8 -81h-160q-8 159 54 254.5t175 95.5q33 0 62.5 -9t47 -19.5t52.5 -33.5l111 -71q51 -37 90 -37q37 0 57 30t23 123h161q8 -161 -54 -256.5t-177 -95.5zM422 0h-275
v1384h275v-1384z" />
    <glyph glyph-name="itilde" unicode="&#x129;" horiz-adv-x="514" 
d="M391 1182q-74 0 -125 65l-65 86q-35 45 -56 45q-25 0 -39 -39t-18 -139h-151q-6 174 42 276.5t144 102.5q69 0 123 -68l69 -88q21 -26 31.5 -34.5t22.5 -8.5q25 0 39 40.5t18 142.5h152q5 -174 -42 -277.5t-145 -103.5zM391 0h-266v1069h266v-1069z" />
    <glyph glyph-name="Imacron" unicode="&#x12a;" horiz-adv-x="569" 
d="M637 1516h-703v192h703v-192zM422 0h-275v1384h275v-1384z" />
    <glyph glyph-name="imacron" unicode="&#x12b;" horiz-adv-x="514" 
d="M575 1200h-636v201h636v-201zM391 0h-266v1069h266v-1069z" />
    <glyph glyph-name="Ibreve" unicode="&#x12c;" horiz-adv-x="569" 
d="M285 1495q-181 0 -289.5 104t-99.5 275h174q22 -172 215 -172q195 0 217 172h174q7 -171 -101 -275t-290 -104zM422 0h-275v1384h275v-1384z" />
    <glyph glyph-name="ibreve" unicode="&#x12d;" horiz-adv-x="514" 
d="M256 1180q-75 0 -140 25t-114 72t-76 122t-24 168h178q11 -191 176 -191q167 0 176 191h180q4 -184 -98 -285.5t-258 -101.5zM391 0h-266v1069h266v-1069z" />
    <glyph glyph-name="Iogonek" unicode="&#x12e;" horiz-adv-x="569" 
d="M340 -344q88 0 164 20v-200q-106 -31 -215 -31q-156 0 -256.5 71t-100.5 199q0 95 55 180t160 134v1355h275v-1384h-41q-223 -94 -223 -219t182 -125z" />
    <glyph glyph-name="iogonek" unicode="&#x12f;" horiz-adv-x="514" 
d="M123 1456h268v-256h-268v256zM326 -322q83 0 147 17v-180q-89 -27 -194 -27q-139 0 -229.5 64t-90.5 180q0 80 42.5 152t123.5 116v1069h266v-1069q-229 -88 -229 -209q0 -113 164 -113z" />
    <glyph glyph-name="Idotaccent" unicode="&#x130;" horiz-adv-x="569" 
d="M414 1516h-256v245h256v-245zM422 0h-275v1384h275v-1384z" />
    <glyph glyph-name="dotlessi" unicode="&#x131;" horiz-adv-x="514" 
d="M391 0h-266v1069h266v-1069z" />
    <glyph glyph-name="IJ" unicode="&#x132;" horiz-adv-x="1458" 
d="M723 -25q-133 0 -241 36t-187.5 107t-123 183.5t-44.5 257.5h272q9 -173 93.5 -249.5t240.5 -76.5q154 0 238 94.5t84 282.5v774h276v-774q0 -300 -166 -467.5t-442 -167.5zM403 752h-276v632h276v-632z" />
    <glyph glyph-name="ij" unicode="&#x133;" horiz-adv-x="1067" 
d="M391 1200h-268v256h268v-256zM944 1200h-268v256h268v-256zM391 0h-266v1069h266v-1069zM700 -287h-391v213h275q32 0 51.5 5.5t28.5 19t11.5 27.5t2.5 38v1053h266v-1108q0 -42 -4.5 -74.5t-20 -66.5t-41.5 -56t-71 -36.5t-107 -14.5z" />
    <glyph glyph-name="Jcircumflex" unicode="&#x134;" horiz-adv-x="1347" 
d="M696 1638l340 211h97l337 -211v-143l-387 150l-387 -150v143zM616 -25q-275 0 -434 169.5t-159 484.5h278q0 -201 84 -298.5t240 -97.5q153 0 236 94.5t83 282.5v774h277v-774q0 -299 -165 -467t-440 -168z" />
    <glyph glyph-name="jcircumflex" unicode="&#x135;" horiz-adv-x="552" 
d="M180 1632h230l211 -432h-170l-156 225l-156 -225h-168zM164 16v1053h266v-1108q0 -42 -4.5 -74.5t-20 -66.5t-41.5 -56t-71 -36.5t-107 -14.5h-391v213h275q32 0 51.5 5.5t28.5 19t11.5 27.5t2.5 38z" />
    <glyph glyph-name="uni0136" unicode="&#x136;" horiz-adv-x="1562" 
d="M1452 1384l-483 -415l635 -969h-328l-516 788l-338 -292v-496h-275v1384h275v-544h14l619 544h397zM854 -375h-201v215h326v-286q0 -117 -49.5 -163t-169.5 -46h-107v100h70q77 0 104 18.5t27 75.5v86z" />
    <glyph glyph-name="uni0137" unicode="&#x137;" horiz-adv-x="1294" 
d="M1272 1069l-443 -352l500 -717h-313l-389 555l-236 -188v-367h-266v1384h266v-722h17l503 407h361zM731 -365h-190v205h309v-274q0 -109 -48 -154t-161 -45h-102v96h67q73 0 99 18t26 73v81z" />
    <glyph glyph-name="Lacute" unicode="&#x139;" horiz-adv-x="1232" 
d="M737 1616l-667 -123v156l667 213v-246zM1233 0h-1086v1384h275v-1130h811v-254z" />
    <glyph glyph-name="lacute" unicode="&#x13a;" horiz-adv-x="514" 
d="M592 1616l-668 -123v156l668 213v-246zM391 0h-266v1384h266v-1384z" />
    <glyph glyph-name="uni013B" unicode="&#x13b;" horiz-adv-x="1232" 
d="M1233 0h-1086v1384h275v-1130h811v-254zM662 -655h-107v100h70q77 0 104 18.5t27 75.5v86h-201v215h326v-286q0 -117 -49.5 -163t-169.5 -46z" />
    <glyph glyph-name="uni013C" unicode="&#x13c;" horiz-adv-x="514" 
d="M391 0h-266v1384h266v-1384zM205 -633h-103v96h68q73 0 99 18t26 73v81h-191v205h310v-274q0 -109 -48 -154t-161 -45z" />
    <glyph glyph-name="Lcaron" unicode="&#x13d;" horiz-adv-x="1232" 
d="M1233 0h-1086v1384h275v-1130h811v-254zM733 874l-20 510h213l-21 -510h-172z" />
    <glyph glyph-name="lcaron" unicode="&#x13e;" horiz-adv-x="763" 
d="M391 0h-266v1384h266v-1384zM719 915h-170l-23 469h215z" />
    <glyph glyph-name="Ldot" unicode="&#x13f;" horiz-adv-x="1232" 
d="M1233 0h-1086v1384h275v-1130h811v-254zM979 588h-254v256h254v-256z" />
    <glyph glyph-name="ldot" unicode="&#x140;" horiz-adv-x="897" 
d="M391 0h-266v1384h266v-1384zM819 524h-256v254h256v-254z" />
    <glyph glyph-name="Lslash" unicode="&#x141;" horiz-adv-x="1232" 
d="M422 733v-479h811v-254h-1086v573l-137 -79v213l137 79v598h275v-438l268 158v-213z" />
    <glyph glyph-name="lslash" unicode="&#x142;" horiz-adv-x="540" 
d="M403 874l177 105v-215l-177 -105v-659h-266v502l-176 -105v215l176 105v667h266v-510z" />
    <glyph glyph-name="Nacute" unicode="&#x143;" horiz-adv-x="1662" 
d="M1206 1616l-667 -123v156l667 213v-246zM422 0h-275v1384h361l717 -1032h16v1032h275v-1384h-363l-715 1036h-16v-1036z" />
    <glyph glyph-name="nacute" unicode="&#x144;" horiz-adv-x="1304" 
d="M721 1612h262l-268 -412h-154zM780 1094q93 0 166.5 -23t131.5 -73.5t89 -138t31 -208.5v-651h-266v588q0 164 -57 228.5t-179 64.5q-86 0 -173 -44.5t-132 -119.5v-717h-266v1069h252l8 -174h18q63 90 161 144.5t216 54.5z" />
    <glyph glyph-name="uni0145" unicode="&#x145;" horiz-adv-x="1662" 
d="M422 0h-275v1384h361l717 -1032h16v1032h275v-1384h-363l-715 1036h-16v-1036zM784 -655h-106v100h70q77 0 104 18.5t27 75.5v86h-201v215h326v-286q0 -117 -50 -163t-170 -46z" />
    <glyph glyph-name="uni0146" unicode="&#x146;" horiz-adv-x="1304" 
d="M780 1094q93 0 166.5 -23t131.5 -73.5t89 -138t31 -208.5v-651h-266v588q0 164 -57 228.5t-179 64.5q-86 0 -173 -44.5t-132 -119.5v-717h-266v1069h252l8 -174h18q63 90 161 144.5t216 54.5zM690 -365h-190v205h309v-274q0 -109 -48 -154t-161 -45h-102v96h67
q73 0 99 18t26 73v81z" />
    <glyph glyph-name="Ncaron" unicode="&#x147;" horiz-adv-x="1662" 
d="M901 1513h-96l-340 213v144l387 -150l387 150v-144zM422 0h-275v1384h361l717 -1032h16v1032h275v-1384h-363l-715 1036h-16v-1036z" />
    <glyph glyph-name="ncaron" unicode="&#x148;" horiz-adv-x="1304" 
d="M1038 1569l-270 -369h-229l-269 369h176l209 -193l207 193h176zM780 1094q93 0 166.5 -23t131.5 -73.5t89 -138t31 -208.5v-651h-266v588q0 164 -57 228.5t-179 64.5q-86 0 -173 -44.5t-132 -119.5v-717h-266v1069h252l8 -174h18q63 90 161 144.5t216 54.5z" />
    <glyph glyph-name="Eng" unicode="&#x14a;" horiz-adv-x="1662" 
d="M1272 -287h-375v224h250q61 0 77.5 20t16.5 66v14l-801 1001h-18v-1038h-275v1384h361l717 -917h16v917h275v-1423q0 -42 -4.5 -74.5t-20 -66.5t-41.5 -56t-71 -36.5t-107 -14.5z" />
    <glyph glyph-name="eng" unicode="&#x14b;" horiz-adv-x="1294" 
d="M780 1094q93 0 166.5 -23t131.5 -73.5t89 -138t31 -208.5v-690q0 -42 -4.5 -74.5t-20 -66.5t-41 -56t-70.5 -36.5t-106 -14.5h-335v213h219q32 0 51.5 5.5t28 19.5t10.5 27t2 38v572q0 164 -57 228.5t-179 64.5q-86 0 -173 -44.5t-132 -119.5v-717h-266v1069h252l8 -174
h18q63 90 161 144.5t216 54.5z" />
    <glyph glyph-name="Omacron" unicode="&#x14c;" horiz-adv-x="1660" 
d="M1182 1516h-703v192h703v-192zM831 -25q-171 0 -315.5 55t-244.5 150.5t-156 228.5t-56 285q0 151 56 283t156 227t245 150t315 55t314.5 -55t244.5 -150t156 -227t56 -283q0 -152 -56 -285t-156 -228.5t-244.5 -150.5t-314.5 -55zM831 233q227 0 358.5 127.5
t131.5 333.5q0 203 -132 330t-358 127q-228 0 -359.5 -127t-131.5 -330q0 -206 131.5 -333.5t359.5 -127.5z" />
    <glyph glyph-name="omacron" unicode="&#x14d;" horiz-adv-x="1277" 
d="M956 1200h-637v201h637v-201zM639 -25q-261 0 -427.5 158.5t-166.5 401.5t166.5 401t427.5 158t426.5 -158t165.5 -401t-165.5 -401.5t-426.5 -158.5zM639 211q144 0 233 90.5t89 233.5t-89 233t-233 90t-234 -90t-90 -233t90 -233.5t234 -90.5z" />
    <glyph glyph-name="Obreve" unicode="&#x14e;" horiz-adv-x="1660" 
d="M829 1495q-181 0 -289.5 104t-99.5 275h174q22 -172 215 -172q196 0 218 172h174q7 -171 -101.5 -275t-290.5 -104zM831 -25q-171 0 -315.5 55t-244.5 150.5t-156 228.5t-56 285q0 151 56 283t156 227t245 150t315 55t314.5 -55t244.5 -150t156 -227t56 -283
q0 -152 -56 -285t-156 -228.5t-244.5 -150.5t-314.5 -55zM831 233q227 0 358.5 127.5t131.5 333.5q0 203 -132 330t-358 127q-228 0 -359.5 -127t-131.5 -330q0 -206 131.5 -333.5t359.5 -127.5z" />
    <glyph glyph-name="obreve" unicode="&#x14f;" horiz-adv-x="1277" 
d="M637 1180q-75 0 -140 25t-114 72t-76 122t-24 168h178q11 -191 176 -191q167 0 176 191h180q4 -184 -98 -285.5t-258 -101.5zM639 -25q-261 0 -427.5 158.5t-166.5 401.5t166.5 401t427.5 158t426.5 -158t165.5 -401t-165.5 -401.5t-426.5 -158.5zM639 211
q144 0 233 90.5t89 233.5t-89 233t-233 90t-234 -90t-90 -233t90 -233.5t234 -90.5z" />
    <glyph glyph-name="Ohungarumlaut" unicode="&#x150;" horiz-adv-x="1660" 
d="M918 1743l-566 -250v174l566 338v-262zM1493 1743l-565 -250v174l565 338v-262zM831 -25q-171 0 -315.5 55t-244.5 150.5t-156 228.5t-56 285q0 151 56 283t156 227t245 150t315 55t314.5 -55t244.5 -150t156 -227t56 -283q0 -152 -56 -285t-156 -228.5t-244.5 -150.5
t-314.5 -55zM831 233q227 0 358.5 127.5t131.5 333.5q0 203 -132 330t-358 127q-228 0 -359.5 -127t-131.5 -330q0 -206 131.5 -333.5t359.5 -127.5z" />
    <glyph glyph-name="ohungarumlaut" unicode="&#x151;" horiz-adv-x="1277" 
d="M498 1200h-154l156 412h262zM883 1200h-154l156 412h262zM639 -25q-261 0 -427.5 158.5t-166.5 401.5t166.5 401t427.5 158t426.5 -158t165.5 -401t-165.5 -401.5t-426.5 -158.5zM639 211q144 0 233 90.5t89 233.5t-89 233t-233 90t-234 -90t-90 -233t90 -233.5
t234 -90.5z" />
    <glyph glyph-name="OE" unicode="&#x152;" horiz-adv-x="2560" 
d="M1602 635v-383h888v-252h-1165v162q-177 -187 -494 -187q-170 0 -315 55t-245 150.5t-156 227.5t-56 284q0 151 56 283t156 227t245 150t315 55q318 0 494 -186v163h1145v-254h-868v-241h790v-254h-790zM831 233q227 0 358.5 127t131.5 332q0 203 -132 330t-358 127
q-228 0 -359.5 -127t-131.5 -330q0 -205 131.5 -332t359.5 -127z" />
    <glyph glyph-name="oe" unicode="&#x153;" horiz-adv-x="2121" 
d="M1536 1094q181 0 309.5 -75.5t189 -208t50.5 -306.5h-854q11 -139 98.5 -219t237.5 -80q78 0 155.5 34.5t132.5 114.5l195 -116q-73 -128 -208 -195.5t-283 -67.5q-158 0 -277 61t-188 169q-74 -107 -194 -168.5t-261 -61.5q-261 0 -427.5 158.5t-166.5 401.5t166.5 401
t427.5 158q143 0 262.5 -62.5t194.5 -171.5q70 111 183.5 172.5t256.5 61.5zM1251 690h561q-24 92 -95.5 141.5t-174.5 49.5q-106 0 -182 -47.5t-109 -143.5zM639 211q144 0 233 90.5t89 233.5t-89 233t-233 90t-234 -90t-90 -233t90 -233.5t234 -90.5z" />
    <glyph glyph-name="Racute" unicode="&#x154;" horiz-adv-x="1464" 
d="M381 1649l668 213v-246l-668 -123v156zM1122 635l287 -635h-301l-266 600h-420v-600h-275v1384h793q201 0 322.5 -106.5t121.5 -286.5q0 -131 -67.5 -223t-194.5 -133zM942 1130h-520v-284h520q75 0 118.5 38t43.5 103t-43.5 104t-118.5 39z" />
    <glyph glyph-name="racute" unicode="&#x155;" horiz-adv-x="800" 
d="M555 1612h262l-268 -412h-154zM387 852h16q127 254 422 240v-252q-143 9 -256.5 -33t-177.5 -131v-676h-266v1069h252z" />
    <glyph glyph-name="uni0156" unicode="&#x156;" horiz-adv-x="1464" 
d="M1122 635l287 -635h-301l-266 600h-420v-600h-275v1384h793q201 0 322.5 -106.5t121.5 -286.5q0 -131 -67.5 -223t-194.5 -133zM942 1130h-520v-284h520q75 0 118.5 38t43.5 103t-43.5 104t-118.5 39zM780 -375h-200v215h325v-286q0 -117 -49.5 -163t-169.5 -46h-106v100
h69q77 0 104 18.5t27 75.5v86z" />
    <glyph glyph-name="uni0157" unicode="&#x157;" horiz-adv-x="800" 
d="M387 852h16q127 254 422 240v-252q-143 9 -256.5 -33t-177.5 -131v-676h-266v1069h252zM297 -365h-191v205h310v-274q0 -109 -48 -154t-161 -45h-103v96h68q73 0 99 18t26 73v81z" />
    <glyph glyph-name="Rcaron" unicode="&#x158;" horiz-adv-x="1464" 
d="M1081 1726l-338 -213h-96l-340 213v144l387 -150l387 150v-144zM1122 635l287 -635h-301l-266 600h-420v-600h-275v1384h793q201 0 322.5 -106.5t121.5 -286.5q0 -131 -67.5 -223t-194.5 -133zM942 1130h-520v-284h520q75 0 118.5 38t43.5 103t-43.5 104t-118.5 39z" />
    <glyph glyph-name="rcaron" unicode="&#x159;" horiz-adv-x="800" 
d="M870 1569l-270 -369h-229l-269 369h177l208 -193l207 193h176zM387 852h16q127 254 422 240v-252q-143 9 -256.5 -33t-177.5 -131v-676h-266v1069h252z" />
    <glyph glyph-name="Sacute" unicode="&#x15a;" horiz-adv-x="1384" 
d="M1018 1616l-668 -123v156l668 213v-246zM684 -27q-215 0 -379 75.5t-256 227.5l193 164q65 -107 183.5 -164t262.5 -57q83 0 149.5 17.5t109 57.5t42.5 97q0 92 -81 136.5t-283 80.5q-85 15 -149 31t-135 46t-116.5 68t-75.5 97t-30 133q0 89 33 162t87.5 121t129 81
t154 47.5t165.5 14.5q191 0 341 -76t245 -217l-219 -139q-57 88 -161.5 139t-227.5 51q-125 0 -195 -37t-70 -106q0 -61 63 -92t247 -64q99 -18 173 -37.5t152 -55t128 -81t82 -115t32 -157.5q0 -108 -52.5 -195.5t-138.5 -141.5t-190 -83t-213 -29z" />
    <glyph glyph-name="sacute" unicode="&#x15b;" horiz-adv-x="1085" 
d="M569 1200h-153l159 412h263zM535 -25q-164 0 -306.5 56.5t-220.5 156.5l150 174q66 -76 174.5 -118.5t220.5 -42.5q98 0 151.5 29.5t53.5 88.5q0 56 -62.5 80t-271.5 60q-181 31 -269.5 105t-88.5 202q0 104 66.5 178.5t176.5 110t252 35.5q139 0 267 -44.5t196 -121.5
l-127 -181q-55 56 -163 93.5t-208 37.5q-93 0 -140.5 -24t-47.5 -68q0 -47 47 -70t193 -46q46 -8 74 -13.5t71 -16t70.5 -20t63.5 -25t58.5 -33t47 -42t38 -52.5t22.5 -65t9 -80q0 -82 -39 -148t-107.5 -108.5t-158 -65t-192.5 -22.5z" />
    <glyph glyph-name="Scircumflex" unicode="&#x15c;" horiz-adv-x="1384" 
d="M297 1638l340 211h96l338 -211v-143l-387 150l-387 -150v143zM684 -27q-215 0 -379 75.5t-256 227.5l193 164q65 -107 183.5 -164t262.5 -57q83 0 149.5 17.5t109 57.5t42.5 97q0 92 -81 136.5t-283 80.5q-85 15 -149 31t-135 46t-116.5 68t-75.5 97t-30 133q0 89 33 162
t87.5 121t129 81t154 47.5t165.5 14.5q191 0 341 -76t245 -217l-219 -139q-57 88 -161.5 139t-227.5 51q-125 0 -195 -37t-70 -106q0 -61 63 -92t247 -64q99 -18 173 -37.5t152 -55t128 -81t82 -115t32 -157.5q0 -108 -52.5 -195.5t-138.5 -141.5t-190 -83t-213 -29z" />
    <glyph glyph-name="scircumflex" unicode="&#x15d;" horiz-adv-x="1085" 
d="M733 1200l-207 195l-209 -195h-176l269 371h229l270 -371h-176zM578 666q46 -8 74 -13.5t71 -16t70.5 -20t63.5 -25t58.5 -33t47 -42t38 -52.5t22.5 -65t9 -80q0 -82 -39 -148t-107.5 -108.5t-158 -65t-192.5 -22.5q-164 0 -306.5 56.5t-220.5 156.5l150 174
q66 -76 174.5 -118.5t220.5 -42.5q98 0 151.5 29.5t53.5 88.5q0 56 -62.5 80t-271.5 60q-181 31 -269.5 105t-88.5 202q0 104 66.5 178.5t176.5 110t252 35.5q139 0 267 -44.5t196 -121.5l-127 -181q-55 56 -163 93.5t-208 37.5q-93 0 -140.5 -24t-47.5 -68q0 -47 47 -70
t193 -46z" />
    <glyph glyph-name="Scedilla" unicode="&#x15e;" horiz-adv-x="1384" 
d="M1278 422q0 -95 -41 -174.5t-111 -133t-156 -87.5t-182 -47l95 -170q-219 -61 -219 -152q0 -38 30 -61t94 -23q58 0 134 20v-196q-94 -21 -166 -21q-158 0 -247 58t-89 172q0 155 254 258l-62 110q-190 12 -334 87.5t-229 213.5l193 164q65 -107 183.5 -164t262.5 -57
q83 0 149.5 17.5t109 57.5t42.5 97q0 92 -81 136.5t-283 80.5q-85 15 -149 31t-135 46t-116.5 68t-75.5 97t-30 133q0 89 33 162t87.5 121t129 81t154 47.5t165.5 14.5q191 0 341 -76t245 -217l-219 -139q-57 88 -161.5 139t-227.5 51q-125 0 -195 -37t-70 -106
q0 -61 63 -92t247 -64q99 -18 173 -37.5t152 -55t128 -81t82 -115t32 -157.5z" />
    <glyph glyph-name="scedilla" unicode="&#x15f;" horiz-adv-x="1085" 
d="M1032 319q0 -143 -111 -230t-290 -107l84 -154q-199 -58 -199 -139q0 -34 28 -55t85 -21q58 0 121 16v-176q-85 -18 -150 -18q-144 0 -224.5 52.5t-80.5 156.5q0 140 231 231l-59 102q-143 11 -265.5 66.5t-193.5 144.5l150 174q66 -76 174.5 -118.5t220.5 -42.5
q98 0 151.5 29.5t53.5 88.5q0 56 -62.5 80t-271.5 60q-181 31 -269.5 105t-88.5 202q0 104 66.5 178.5t176.5 110t252 35.5q139 0 267 -44.5t196 -121.5l-127 -181q-55 56 -163 93.5t-208 37.5q-93 0 -140.5 -24t-47.5 -68q0 -47 47 -70t193 -46q46 -8 74 -13.5t71 -16
t70.5 -20t63.5 -25t58.5 -33t47 -42t38 -52.5t22.5 -65t9 -80z" />
    <glyph glyph-name="Scaron" unicode="&#x160;" horiz-adv-x="1384" 
d="M715 1513h-97l-339 213v144l387 -150l387 150v-144zM684 -27q-215 0 -379 75.5t-256 227.5l193 164q65 -107 183.5 -164t262.5 -57q83 0 149.5 17.5t109 57.5t42.5 97q0 92 -81 136.5t-283 80.5q-85 15 -149 31t-135 46t-116.5 68t-75.5 97t-30 133q0 89 33 162t87.5 121
t129 81t154 47.5t165.5 14.5q191 0 341 -76t245 -217l-219 -139q-57 88 -161.5 139t-227.5 51q-125 0 -195 -37t-70 -106q0 -61 63 -92t247 -64q99 -18 173 -37.5t152 -55t128 -81t82 -115t32 -157.5q0 -108 -52.5 -195.5t-138.5 -141.5t-190 -83t-213 -29z" />
    <glyph glyph-name="scaron" unicode="&#x161;" horiz-adv-x="1085" 
d="M891 1569l-270 -369h-230l-268 369h176l209 -193l207 193h176zM578 666q46 -8 74 -13.5t71 -16t70.5 -20t63.5 -25t58.5 -33t47 -42t38 -52.5t22.5 -65t9 -80q0 -82 -39 -148t-107.5 -108.5t-158 -65t-192.5 -22.5q-164 0 -306.5 56.5t-220.5 156.5l150 174
q66 -76 174.5 -118.5t220.5 -42.5q98 0 151.5 29.5t53.5 88.5q0 56 -62.5 80t-271.5 60q-181 31 -269.5 105t-88.5 202q0 104 66.5 178.5t176.5 110t252 35.5q139 0 267 -44.5t196 -121.5l-127 -181q-55 56 -163 93.5t-208 37.5q-93 0 -140.5 -24t-47.5 -68q0 -47 47 -70
t193 -46z" />
    <glyph glyph-name="uni0162" unicode="&#x162;" horiz-adv-x="1398" 
d="M1395 1133h-555v-1133h-54l105 -190q-219 -61 -219 -152q0 -38 30.5 -61t94.5 -23q57 0 133 20v-196q-95 -21 -166 -21q-158 0 -247 58t-89 172q0 155 254 258l-76 135h-43v1133h-559v251h1391v-251z" />
    <glyph glyph-name="uni0163" unicode="&#x163;" horiz-adv-x="802" 
d="M582 213h217v-213h-205l94 -172q-199 -58 -199 -139q0 -34 28 -55t85 -21q58 0 121 16v-176q-85 -18 -150 -18q-144 0 -224.5 52.5t-80.5 156.5q0 139 232 231l-72 127q-53 3 -92.5 19t-62 38.5t-36 55.5t-18 65.5t-4.5 73.5v606h-184v209h184v279h266v-279h316v-209
h-316v-553q0 -52 18 -73t83 -21z" />
    <glyph glyph-name="Tcaron" unicode="&#x164;" horiz-adv-x="1398" 
d="M731 1513h-96l-340 213v144l387 -150l387 150v-144zM840 0h-277v1133h-559v251h1391v-251h-555v-1133z" />
    <glyph glyph-name="tcaron" unicode="&#x165;" horiz-adv-x="802" 
d="M631 1153l-21 469h213l-20 -469h-172zM481 860v-553q0 -52 18 -73t83 -21h217v-213h-336q-77 0 -128.5 20t-76.5 58t-34 79t-9 97v606h-184v209h184v279h266v-279h316v-209h-316z" />
    <glyph glyph-name="Tbar" unicode="&#x166;" horiz-adv-x="1398" 
d="M1395 1384v-251h-555v-342h284v-195h-284v-596h-277v596h-284v195h284v342h-559v251h1391z" />
    <glyph glyph-name="tbar" unicode="&#x167;" horiz-adv-x="802" 
d="M582 213h217v-213h-336q-77 0 -128.5 20t-76.5 58t-34 79t-9 97v213h-154v182h154v211h-184v209h184v279h266v-279h316v-209h-316v-211h279v-182h-279v-160q0 -52 18 -73t83 -21z" />
    <glyph glyph-name="Utilde" unicode="&#x168;" horiz-adv-x="1587" 
d="M975 1497q-33 0 -60 7.5t-44 17t-54 32.5l-112 76q-53 37 -91 37q-18 0 -30 -4.5t-24.5 -19t-19.5 -46.5t-8 -81h-159q-8 159 54 254.5t175 95.5q33 0 62.5 -9t47 -19.5t52.5 -33.5l110 -71q51 -37 91 -37q37 0 56.5 29.5t22.5 123.5h162q8 -161 -54 -256.5t-177 -95.5z
M795 -25q-195 0 -344 70.5t-236.5 216t-87.5 350.5v772h276v-753q0 -398 390 -398q391 0 391 408v743h276v-770q0 -155 -50 -277.5t-139 -201t-210 -119.5t-266 -41z" />
    <glyph glyph-name="utilde" unicode="&#x169;" horiz-adv-x="1304" 
d="M397 1200h-159q-8 167 53.5 271t175.5 104q49 0 85.5 -17.5t76.5 -52.5l96 -84q33 -27 51 -36t39 -9q77 0 82 183h160q8 -168 -54 -272.5t-176 -104.5q-48 0 -83 16.5t-76 50.5l-99 84q-33 28 -50.5 37.5t-39.5 9.5q-77 0 -82 -180zM913 352v717h267v-1069h-252l-8 174
h-19q-65 -91 -162 -145t-215 -54q-93 0 -166.5 23t-131.5 73.5t-89 138t-31 208.5v651h267v-588q0 -164 57 -228.5t178 -64.5q86 0 173 44.5t132 119.5z" />
    <glyph glyph-name="Umacron" unicode="&#x16a;" horiz-adv-x="1587" 
d="M1147 1516h-703v192h703v-192zM795 -25q-195 0 -344 70.5t-236.5 216t-87.5 350.5v772h276v-753q0 -398 390 -398q391 0 391 408v743h276v-770q0 -155 -50 -277.5t-139 -201t-210 -119.5t-266 -41z" />
    <glyph glyph-name="umacron" unicode="&#x16b;" horiz-adv-x="1304" 
d="M334 1401h637v-201h-637v201zM913 352v717h267v-1069h-252l-8 174h-19q-65 -91 -162 -145t-215 -54q-93 0 -166.5 23t-131.5 73.5t-89 138t-31 208.5v651h267v-588q0 -164 57 -228.5t178 -64.5q86 0 173 44.5t132 119.5z" />
    <glyph glyph-name="Ubreve" unicode="&#x16c;" horiz-adv-x="1587" 
d="M795 1495q-181 0 -289.5 104t-99.5 275h174q22 -172 215 -172q195 0 217 172h174q7 -171 -101 -275t-290 -104zM795 -25q-195 0 -344 70.5t-236.5 216t-87.5 350.5v772h276v-753q0 -398 390 -398q391 0 391 408v743h276v-770q0 -155 -50 -277.5t-139 -201t-210 -119.5
t-266 -41z" />
    <glyph glyph-name="ubreve" unicode="&#x16d;" horiz-adv-x="1304" 
d="M651 1180q-75 0 -140 25t-114 72t-76 122t-24 168h178q11 -191 176 -191q167 0 176 191h181q4 -184 -98.5 -285.5t-258.5 -101.5zM913 352v717h267v-1069h-252l-8 174h-19q-65 -91 -162 -145t-215 -54q-93 0 -166.5 23t-131.5 73.5t-89 138t-31 208.5v651h267v-588
q0 -164 57 -228.5t178 -64.5q86 0 173 44.5t132 119.5z" />
    <glyph glyph-name="Uring" unicode="&#x16e;" horiz-adv-x="1587" 
d="M805 1495q-129 0 -208 70.5t-79 177.5t79 177.5t208 70.5q128 0 206.5 -70t78.5 -178t-78.5 -178t-206.5 -70zM805 1640q52 0 84.5 29t32.5 74t-32.5 74.5t-84.5 29.5q-53 0 -85 -29.5t-32 -74.5t32 -74t85 -29zM795 -25q-195 0 -344 70.5t-236.5 216t-87.5 350.5v772
h276v-753q0 -398 390 -398q391 0 391 408v743h276v-770q0 -155 -50 -277.5t-139 -201t-210 -119.5t-266 -41z" />
    <glyph glyph-name="uring" unicode="&#x16f;" horiz-adv-x="1304" 
d="M653 1182q-121 0 -198.5 72.5t-77.5 187.5q0 111 78 184.5t198 73.5q119 0 197 -73.5t78 -184.5q0 -115 -77 -187.5t-198 -72.5zM653 1552q-49 0 -80.5 -32t-31.5 -78q0 -48 31.5 -79.5t80.5 -31.5t81 31.5t32 79.5q0 46 -32 78t-81 32zM913 352v717h267v-1069h-252
l-8 174h-19q-65 -91 -162 -145t-215 -54q-93 0 -166.5 23t-131.5 73.5t-89 138t-31 208.5v651h267v-588q0 -164 57 -228.5t178 -64.5q86 0 173 44.5t132 119.5z" />
    <glyph glyph-name="Uhungarumlaut" unicode="&#x170;" horiz-adv-x="1587" 
d="M883 1743l-566 -250v174l566 338v-262zM1458 1743l-565 -250v174l565 338v-262zM795 -25q-195 0 -344 70.5t-236.5 216t-87.5 350.5v772h276v-753q0 -398 390 -398q391 0 391 408v743h276v-770q0 -155 -50 -277.5t-139 -201t-210 -119.5t-266 -41z" />
    <glyph glyph-name="uhungarumlaut" unicode="&#x171;" horiz-adv-x="1304" 
d="M514 1612h262l-264 -412h-154zM1161 1612l-264 -412h-154l156 412h262zM913 352v717h267v-1069h-252l-8 174h-19q-65 -91 -162 -145t-215 -54q-93 0 -166.5 23t-131.5 73.5t-89 138t-31 208.5v651h267v-588q0 -164 57 -228.5t178 -64.5q86 0 173 44.5t132 119.5z" />
    <glyph glyph-name="Uogonek" unicode="&#x172;" horiz-adv-x="1587" 
d="M1184 641v743h276v-770q0 -272 -144.5 -433.5t-389.5 -196.5q-189 -85 -189 -203q0 -125 183 -125q87 0 163 20v-200q-106 -31 -215 -31q-155 0 -255.5 71t-100.5 199q0 76 36 148t105 123q-241 36 -383.5 197.5t-142.5 428.5v772h276v-753q0 -398 390 -398
q391 0 391 408z" />
    <glyph glyph-name="uogonek" unicode="&#x173;" horiz-adv-x="1304" 
d="M1116 -322q84 0 148 17v-180q-89 -27 -195 -27q-139 0 -229 64t-90 180q0 82 45.5 156t132.5 118l-8 168h-19q-65 -91 -162 -145t-215 -54q-93 0 -166.5 23t-131.5 73.5t-89 138t-31 208.5v651h267v-588q0 -164 57 -228.5t178 -64.5q86 0 173 44.5t132 119.5v717h267
v-1069h2q-230 -88 -230 -209q0 -113 164 -113z" />
    <glyph glyph-name="Wcircumflex" unicode="&#x174;" horiz-adv-x="2246" 
d="M741 1638l340 211h97l338 -211v-143l-388 150l-387 -150v143zM778 0h-332l-483 1384h307l340 -1060h17l352 1060h303l348 -1062h17l346 1062h291l-488 -1384h-330l-333 950h-15z" />
    <glyph glyph-name="wcircumflex" unicode="&#x175;" horiz-adv-x="2004" 
d="M1212 1200l-206 195l-209 -195h-176l268 371h229l271 -371h-177zM1473 258l245 811h295l-385 -1069h-342l-285 766h-18l-262 -766h-342l-387 1069h299l258 -811h16l281 811h321l287 -811h19z" />
    <glyph glyph-name="Ycircumflex" unicode="&#x176;" horiz-adv-x="1351" 
d="M307 1638l340 211h96l338 -211v-143l-387 150l-387 -150v143zM817 0h-276v578l-588 806h334l393 -571h16l394 571h307l-580 -806v-578z" />
    <glyph glyph-name="ycircumflex" unicode="&#x177;" horiz-adv-x="1255" 
d="M836 1200l-207 195l-209 -195h-176l268 371h229l271 -371h-176zM647 293l318 776h299l-523 -1151q-43 -96 -108.5 -150.5t-179.5 -54.5h-363v213h303q46 0 70.5 9t44.5 42l-516 1092h299l340 -776h16z" />
    <glyph glyph-name="Ydieresis" unicode="&#x178;" horiz-adv-x="1351" 
d="M553 1516h-256v245h256v-245zM1094 1516h-256v245h256v-245zM817 0h-276v578l-588 806h334l393 -571h16l394 571h307l-580 -806v-578z" />
    <glyph glyph-name="Zacute" unicode="&#x179;" horiz-adv-x="1259" 
d="M965 1616l-668 -123v156l668 213v-246zM1214 0h-1194v227l811 885v18h-786v254h1190v-229l-815 -887v-16h794v-252z" />
    <glyph glyph-name="zacute" unicode="&#x17a;" horiz-adv-x="1099" 
d="M594 1200h-154l160 412h262zM1051 0h-1002v233l631 592v17h-614v227h974v-219l-647 -602v-17h658v-231z" />
    <glyph glyph-name="Zdotaccent" unicode="&#x17b;" horiz-adv-x="1259" 
d="M758 1516h-256v245h256v-245zM1214 0h-1194v227l811 885v18h-786v254h1190v-229l-815 -887v-16h794v-252z" />
    <glyph glyph-name="zdotaccent" unicode="&#x17c;" horiz-adv-x="1099" 
d="M686 1200h-268v256h268v-256zM1051 0h-1002v233l631 592v17h-614v227h974v-219l-647 -602v-17h658v-231z" />
    <glyph glyph-name="Zcaron" unicode="&#x17d;" horiz-adv-x="1259" 
d="M662 1513h-97l-340 213v144l387 -150l387 150v-144zM1214 0h-1194v227l811 885v18h-786v254h1190v-229l-815 -887v-16h794v-252z" />
    <glyph glyph-name="zcaron" unicode="&#x17e;" horiz-adv-x="1099" 
d="M918 1569l-271 -369h-229l-268 369h176l209 -193l206 193h177zM393 248v-17h658v-231h-1002v233l631 592v17h-614v227h974v-219z" />
    <glyph glyph-name="florin" unicode="&#x192;" horiz-adv-x="847" 
d="M936 1171h-252q-32 0 -53 -7.5t-31 -25t-13.5 -33t-6.5 -42.5l-7 -96h316v-209h-332l-53 -770q-5 -63 -22 -110.5t-51 -83.5t-90.5 -54.5t-135.5 -18.5h-320v213h254q60 0 79.5 27t23.5 80l47 717h-176v209h190l10 151q8 129 79.5 197.5t225.5 68.5h318v-213z" />
    <glyph glyph-name="AEacute" unicode="&#x1fc;" horiz-adv-x="2244" 
d="M1028 1649l668 213v-246l-668 -123v156zM1284 635v-383h889v-252h-1163v283h-621l-201 -283h-327l995 1384h1296v-254h-868v-241h793v-254h-793zM991 1133l-426 -603h445v603h-19z" />
    <glyph glyph-name="aeacute" unicode="&#x1fd;" horiz-adv-x="1974" 
d="M1034 1612h262l-268 -412h-154zM1397 1094q269 0 413.5 -163t126.5 -427h-852q11 -139 98.5 -219t237.5 -80q77 0 155.5 34.5t133.5 114.5l195 -116q-74 -128 -210 -195.5t-282 -67.5q-176 0 -307 67t-203 187h-22q-166 -254 -463 -254q-169 0 -266 82t-97 232
q0 157 110 235t335 78h323v57q0 106 -65.5 153.5t-192.5 47.5q-180 0 -362 -115l-88 197q222 141 475 141q278 0 389 -153q76 78 183.5 121t234.5 43zM1106 690h559q-24 92 -94.5 141.5t-171.5 49.5q-108 0 -185 -47.5t-108 -143.5zM504 172q171 0 319 145v109h-295
q-111 0 -157.5 -31t-46.5 -96q0 -127 180 -127z" />
    <glyph glyph-name="Oslashacute" unicode="&#x1fe;" horiz-adv-x="1660" 
d="M498 1649l667 213v-246l-667 -123v156zM1425 1550l-145 -262q152 -96 237 -251t85 -343q0 -152 -56 -285t-156 -228.5t-244.5 -150.5t-314.5 -55q-142 0 -260 37l-96 -174h-225l141 252q-157 96 -244.5 253.5t-87.5 350.5q0 151 56 283t156 227t245 150t315 55
q141 0 269 -39l100 180h225zM340 694q0 -120 46 -215t132 -157l453 815q-60 14 -140 14q-228 0 -359.5 -127t-131.5 -330zM831 233q227 0 358.5 127.5t131.5 333.5q0 237 -170 363l-451 -811q67 -13 131 -13z" />
    <glyph glyph-name="uni0218" unicode="&#x218;" horiz-adv-x="1384" 
d="M684 -27q-215 0 -379 75.5t-256 227.5l193 164q65 -107 183.5 -164t262.5 -57q83 0 149.5 17.5t109 57.5t42.5 97q0 92 -81 136.5t-283 80.5q-85 15 -149 31t-135 46t-116.5 68t-75.5 97t-30 133q0 89 33 162t87.5 121t129 81t154 47.5t165.5 14.5q191 0 341 -76
t245 -217l-219 -139q-57 88 -161.5 139t-227.5 51q-125 0 -195 -37t-70 -106q0 -61 63 -92t247 -64q99 -18 173 -37.5t152 -55t128 -81t82 -115t32 -157.5q0 -108 -52.5 -195.5t-138.5 -141.5t-190 -83t-213 -29zM645 -655h-106v100h69q77 0 104 18.5t27 75.5v86h-200v215
h325v-286q0 -117 -49.5 -163t-169.5 -46z" />
    <glyph glyph-name="uni0219" unicode="&#x219;" horiz-adv-x="1085" 
d="M535 -25q-164 0 -306.5 56.5t-220.5 156.5l150 174q66 -76 174.5 -118.5t220.5 -42.5q98 0 151.5 29.5t53.5 88.5q0 56 -62.5 80t-271.5 60q-181 31 -269.5 105t-88.5 202q0 104 66.5 178.5t176.5 110t252 35.5q139 0 267 -44.5t196 -121.5l-127 -181q-55 56 -163 93.5
t-208 37.5q-93 0 -140.5 -24t-47.5 -68q0 -47 47 -70t193 -46q46 -8 74 -13.5t71 -16t70.5 -20t63.5 -25t58.5 -33t47 -42t38 -52.5t22.5 -65t9 -80q0 -82 -39 -148t-107.5 -108.5t-158 -65t-192.5 -22.5zM492 -633h-103v96h68q73 0 99 18t26 73v81h-191v205h309v-274
q0 -110 -47.5 -154.5t-160.5 -44.5z" />
    <glyph glyph-name="uni021A" unicode="&#x21a;" horiz-adv-x="1398" 
d="M840 0h-277v1133h-559v251h1391v-251h-555v-1133zM653 -655h-106v100h69q77 0 104.5 18.5t27.5 75.5v86h-201v215h325v-286q0 -117 -49.5 -163t-169.5 -46z" />
    <glyph glyph-name="uni021B" unicode="&#x21b;" horiz-adv-x="802" 
d="M582 213h217v-213h-336q-77 0 -128.5 20t-76.5 58t-34 79t-9 97v606h-184v209h184v279h266v-279h316v-209h-316v-553q0 -52 18 -73t83 -21zM553 -365h-191v205h310v-274q0 -109 -48 -154t-161 -45h-103v96h68q73 0 99 18t26 73v81z" />
    <glyph glyph-name="uni0237" unicode="&#x237;" horiz-adv-x="552" 
d="M186 -287h-391v213h275q32 0 51.5 5.5t28.5 19t11.5 27.5t2.5 38v1053h266v-1108q0 -42 -4.5 -74.5t-20 -66.5t-41.5 -56t-71 -36.5t-107 -14.5z" />
    <glyph glyph-name="circumflex" unicode="&#x2c6;" horiz-adv-x="1228" 
d="M584 1571l270 -371h-176l-207 195l-209 -195h-176l268 371h230z" />
    <glyph glyph-name="caron" unicode="&#x2c7;" horiz-adv-x="1228" 
d="M471 1376l207 193h176l-270 -369h-230l-268 369h176z" />
    <glyph glyph-name="breve" unicode="&#x2d8;" horiz-adv-x="1228" 
d="M436 1180q-75 0 -140 25t-114 72t-76 122t-24 168h178q11 -191 176 -191q167 0 176 191h181q4 -184 -98.5 -285.5t-258.5 -101.5z" />
    <glyph glyph-name="dotaccent" unicode="&#x2d9;" horiz-adv-x="1228" 
d="M371 1200h-269v256h269v-256z" />
    <glyph glyph-name="ring" unicode="&#x2da;" horiz-adv-x="1228" 
d="M371 1182q-121 0 -199 72.5t-78 187.5q0 111 78.5 184.5t198.5 73.5q119 0 196.5 -73.5t77.5 -184.5q0 -115 -77 -187.5t-197 -72.5zM371 1331q49 0 80.5 31.5t31.5 79.5q0 46 -31.5 78t-80.5 32t-81 -32t-32 -78q0 -48 32 -79.5t81 -31.5z" />
    <glyph glyph-name="ogonek" unicode="&#x2db;" horiz-adv-x="1228" 
d="M406 -512q-139 0 -229.5 64t-90.5 180q0 105 71.5 192t204.5 119l156 -43q-229 -88 -229 -209q0 -113 164 -113q83 0 147 17v-180q-89 -27 -194 -27z" />
    <glyph glyph-name="tilde" unicode="&#x2dc;" horiz-adv-x="1228" 
d="M674 1182q-48 0 -83.5 16.5t-76.5 50.5l-98 84q-33 28 -50.5 37.5t-39.5 9.5q-77 0 -82 -180h-160q-8 167 53.5 271t175.5 104q49 0 85.5 -17.5t76.5 -52.5l96 -84q33 -27 51 -36t40 -9q76 0 81 183h160q8 -168 -53.5 -272.5t-175.5 -104.5z" />
    <glyph glyph-name="hungarumlaut" unicode="&#x2dd;" horiz-adv-x="1228" 
d="M264 1200h-153l155 412h262zM649 1200h-153l155 412h262z" />
    <glyph glyph-name="gravecomb" unicode="&#x300;" 
d="M-498 1612l160 -412h-156l-268 412h264z" />
    <glyph glyph-name="acutecomb" unicode="&#x301;" 
d="M-317 1200h-154l160 412h262z" />
    <glyph glyph-name="uni0302" unicode="&#x302;" 
d="M-354 1571l270 -371h-176l-207 195l-209 -195h-176l268 371h230z" />
    <glyph glyph-name="tildecomb" unicode="&#x303;" 
d="M-313 1182q-48 0 -83.5 16.5t-76.5 50.5l-98 84q-32 28 -50.5 37.5t-40.5 9.5q-76 0 -81 -180h-160q-8 167 53.5 271t175.5 104q49 0 85.5 -17.5t76.5 -52.5l96 -84q33 -27 51 -36t39 -9q77 0 82 183h160q8 -168 -53.5 -272.5t-175.5 -104.5z" />
    <glyph glyph-name="uni0304" unicode="&#x304;" 
d="M-82 1200h-637v201h637v-201z" />
    <glyph glyph-name="uni0306" unicode="&#x306;" 
d="M-438 1180q-75 0 -140 25t-114.5 72t-76.5 122t-24 168h179q11 -191 176 -191q167 0 176 191h180q4 -184 -98 -285.5t-258 -101.5z" />
    <glyph glyph-name="uni0307" unicode="&#x307;" 
d="M-102 1200h-269v256h269v-256z" />
    <glyph glyph-name="uni0308" unicode="&#x308;" 
d="M-557 1200h-244v234h244v-234zM-102 1200h-244v234h244v-234z" />
    <glyph glyph-name="uni030A" unicode="&#x30a;" 
d="M-371 1182q-121 0 -198.5 72.5t-77.5 187.5q0 111 78 184.5t198 73.5q119 0 197 -73.5t78 -184.5q0 -115 -77 -187.5t-198 -72.5zM-371 1331q49 0 81 31.5t32 79.5q0 46 -32 78t-81 32t-80.5 -32t-31.5 -78q0 -48 31.5 -79.5t80.5 -31.5z" />
    <glyph glyph-name="uni030B" unicode="&#x30b;" 
d="M-625 1200h-153l155 412h263zM-240 1200h-153l155 412h263z" />
    <glyph glyph-name="uni030C" unicode="&#x30c;" 
d="M-467 1376l207 193h176l-270 -369h-230l-268 369h176z" />
    <glyph glyph-name="uni0312" unicode="&#x312;" 
d="M-152 1671h101v-96h-66q-74 0 -99.5 -17t-25.5 -73v-82h191v-203h-309v273q0 111 46.5 154.5t161.5 43.5z" />
    <glyph glyph-name="uni0326" unicode="&#x326;" 
d="M-311 -633h-103v96h68q73 0 99 18t26 73v81h-191v205h310v-274q0 -109 -48 -154t-161 -45z" />
    <glyph glyph-name="uni0327" unicode="&#x327;" 
d="M-231 -565q-144 0 -225 52.5t-81 156.5q0 139 232 231l-111 195h166l133 -242q-198 -58 -198 -139q0 -34 27.5 -55t84.5 -21q58 0 121 16v-176q-85 -18 -149 -18z" />
    <glyph glyph-name="uni0328" unicode="&#x328;" 
d="M-270 -512q-139 0 -229.5 64t-90.5 180q0 104 72 191.5t205 119.5l155 -43q-229 -88 -229 -209q0 -113 164 -113q83 0 147 17v-180q-89 -27 -194 -27z" />
    <glyph glyph-name="uni0394" unicode="&#x394;" horiz-adv-x="1507" 
d="M1477 0h-1446l606 1384h233zM745 1094l-370 -883h755l-368 883h-17z" />
    <glyph glyph-name="uni03A9" unicode="&#x3a9;" horiz-adv-x="1708" 
d="M731 0h-723v252h395v16q-321 158 -321 520q0 130 56 244.5t155.5 197.5t245 131t315.5 48q226 0 403 -82t273 -223.5t96 -315.5q0 -362 -321 -520v-16h395v-252h-723v266q358 86 358 447q0 193 -128 315.5t-353 122.5t-353 -122.5t-128 -315.5q0 -361 358 -447v-266z" />
    <glyph glyph-name="uni03BC" unicode="&#x3bc;" horiz-adv-x="1323" 
d="M932 330v739h266v-1069h-252l-6 137h-18q-98 -162 -265 -162q-178 0 -251 127h-15v-389h-266v1356h266v-545q0 -170 69 -243.5t197 -73.5q86 0 158 32t117 91z" />
    <glyph glyph-name="pi" unicode="&#x3c0;" horiz-adv-x="1458" 
d="M1421 1069v-213h-192v-856h-266v856h-467v-856h-267v856h-192v213h1384z" />
    <glyph glyph-name="uni0E3F" unicode="&#xe3f;" horiz-adv-x="1492" 
d="M1128 764v-14q144 -40 223 -129.5t79 -212.5q0 -171 -130.5 -289.5t-351.5 -118.5h-84v-182h-194v182h-523v1384h523v181h194v-181h88q209 0 326 -90.5t117 -236.5q0 -230 -267 -293zM670 1133h-248v-265h248v265zM950 1133h-86v-265h84q94 0 134 34.5t40 98.5
q0 132 -172 132zM422 631v-381h248v381h-248zM864 250h62q107 0 162 52.5t55 143.5q0 79 -56 132t-161 53h-62v-381z" />
    <glyph glyph-name="Wgrave" unicode="&#x1e80;" horiz-adv-x="2246" 
d="M1462 1649v-156l-667 123v246zM778 0h-332l-483 1384h307l340 -1060h17l352 1060h303l348 -1062h17l346 1062h291l-488 -1384h-330l-333 950h-15z" />
    <glyph glyph-name="wgrave" unicode="&#x1e81;" horiz-adv-x="2004" 
d="M895 1612l160 -412h-156l-268 412h264zM721 0h-342l-387 1069h299l258 -811h16l281 811h321l287 -811h19l245 811h295l-385 -1069h-342l-285 766h-18z" />
    <glyph glyph-name="Wacute" unicode="&#x1e82;" horiz-adv-x="2246" 
d="M1462 1616l-667 -123v156l667 213v-246zM778 0h-332l-483 1384h307l340 -1060h17l352 1060h303l348 -1062h17l346 1062h291l-488 -1384h-330l-333 950h-15z" />
    <glyph glyph-name="wacute" unicode="&#x1e83;" horiz-adv-x="2004" 
d="M1047 1200h-154l160 412h262zM721 0h-342l-387 1069h299l258 -811h16l281 811h321l287 -811h19l245 811h295l-385 -1069h-342l-285 766h-18z" />
    <glyph glyph-name="Wdieresis" unicode="&#x1e84;" horiz-adv-x="2246" 
d="M987 1516h-256v245h256v-245zM1528 1516h-256v245h256v-245zM778 0h-332l-483 1384h307l340 -1060h17l352 1060h303l348 -1062h17l346 1062h291l-488 -1384h-330l-333 950h-15z" />
    <glyph glyph-name="wdieresis" unicode="&#x1e85;" horiz-adv-x="2004" 
d="M899 1200h-244v234h244v-234zM1354 1200h-244v234h244v-234zM721 0h-342l-387 1069h299l258 -811h16l281 811h321l287 -811h19l245 811h295l-385 -1069h-342l-285 766h-18z" />
    <glyph glyph-name="uni1E9E" unicode="&#x1e9e;" horiz-adv-x="1583" 
d="M971 813h59q252 0 381 -104t129 -297q0 -85 -31.5 -158.5t-92 -130.5t-159 -90t-223.5 -33h-366v250h344q243 0 243 199q0 105 -65.5 151.5t-190.5 46.5h-282v203l381 283h-676v-1133h-275v1384h1248v-251l-424 -304v-16z" />
    <glyph glyph-name="Ygrave" unicode="&#x1ef2;" horiz-adv-x="1351" 
d="M1028 1649v-156l-668 123v246zM817 0h-276v578l-588 806h334l393 -571h16l394 571h307l-580 -806v-578z" />
    <glyph glyph-name="ygrave" unicode="&#x1ef3;" horiz-adv-x="1255" 
d="M518 1612l160 -412h-156l-268 412h264zM647 293l318 776h299l-523 -1151q-43 -96 -108.5 -150.5t-179.5 -54.5h-363v213h303q46 0 70.5 9t44.5 42l-516 1092h299l340 -776h16z" />
    <glyph glyph-name="uni2002" unicode="&#x2002;" horiz-adv-x="1024" 
 />
    <glyph glyph-name="uni2003" unicode="&#x2003;" horiz-adv-x="2048" 
 />
    <glyph glyph-name="uni2004" unicode="&#x2004;" horiz-adv-x="681" 
 />
    <glyph glyph-name="uni2005" unicode="&#x2005;" horiz-adv-x="512" 
 />
    <glyph glyph-name="uni2009" unicode="&#x2009;" horiz-adv-x="409" 
 />
    <glyph glyph-name="uni200A" unicode="&#x200a;" horiz-adv-x="153" 
 />
    <glyph glyph-name="uni200B" unicode="&#x200b;" 
 />
    <glyph glyph-name="endash" unicode="&#x2013;" horiz-adv-x="1073" 
d="M1012 520h-951v219h951v-219z" />
    <glyph glyph-name="emdash" unicode="&#x2014;" horiz-adv-x="1898" 
d="M1835 520h-1774v219h1774v-219z" />
    <glyph glyph-name="quoteleft" unicode="&#x2018;" horiz-adv-x="516" 
d="M311 1384h125v-143h-106q-52 0 -69 -20.5t-17 -63.5v-86h192v-256h-358v344q0 117 53 171t180 54z" />
    <glyph glyph-name="quoteright" unicode="&#x2019;" horiz-adv-x="516" 
d="M203 815h-125v141h108q50 0 68 21t18 63v86h-192v258h356v-346q0 -117 -52 -170t-181 -53z" />
    <glyph glyph-name="quotesinglbase" unicode="&#x201a;" horiz-adv-x="516" 
d="M203 -313h-125v143h108q50 0 68 21t18 63v86h-192v256h356v-344q0 -118 -52.5 -171.5t-180.5 -53.5z" />
    <glyph glyph-name="quotedblleft" unicode="&#x201c;" horiz-adv-x="968" 
d="M311 1384h125v-143h-106q-52 0 -69 -20.5t-17 -63.5v-86h192v-256h-358v344q0 117 53 171t180 54zM766 1384h125v-143h-109q-52 0 -69 -20.5t-17 -63.5v-86h193v-256h-359v344q0 117 53.5 171t182.5 54z" />
    <glyph glyph-name="quotedblright" unicode="&#x201d;" horiz-adv-x="968" 
d="M203 815h-125v141h108q50 0 68 21t18 63v86h-192v258h356v-346q0 -117 -52 -170t-181 -53zM655 815h-125v141h109q52 0 69 20.5t17 63.5v86h-193v258h359v-346q0 -117 -53.5 -170t-182.5 -53z" />
    <glyph glyph-name="quotedblbase" unicode="&#x201e;" horiz-adv-x="968" 
d="M203 -313h-125v143h108q50 0 68 21t18 63v86h-192v256h356v-344q0 -118 -52.5 -171.5t-180.5 -53.5zM655 -313h-125v143h109q52 0 69 20.5t17 63.5v86h-193v256h359v-344q0 -117 -53.5 -171t-182.5 -54z" />
    <glyph glyph-name="dagger" unicode="&#x2020;" horiz-adv-x="1255" 
d="M762 989h381v-237h-381v-955h-266v955h-383v237h383v395h266v-395z" />
    <glyph glyph-name="daggerdbl" unicode="&#x2021;" horiz-adv-x="1255" 
d="M1143 989v-237h-381v-322h381v-237h-381v-396h-266v396h-383v237h383v322h-383v237h383v395h266v-395h381z" />
    <glyph glyph-name="bullet" unicode="&#x2022;" horiz-adv-x="684" 
d="M606 410h-528v528h528v-528z" />
    <glyph glyph-name="ellipsis" unicode="&#x2026;" horiz-adv-x="1222" 
d="M334 0h-256v256h256v-256zM739 0h-256v256h256v-256zM1145 0h-256v256h256v-256z" />
    <glyph glyph-name="perthousand" unicode="&#x2030;" horiz-adv-x="2353" 
d="M358 707q-140 0 -235.5 94.5t-95.5 249.5q0 157 95.5 251.5t235.5 94.5t235 -94.5t95 -251.5q0 -155 -95.5 -249.5t-234.5 -94.5zM1427 1393l-1003 -1393h-213l1006 1393h210zM358 872q67 0 109.5 46.5t42.5 132.5t-42.5 133t-109.5 47t-110 -47t-43 -133t43 -132.5
t110 -46.5zM1280 -8q-138 0 -234 94.5t-96 249.5t96 250.5t234 95.5q141 0 236.5 -95t95.5 -251t-95.5 -250t-236.5 -94zM1997 -8q-140 0 -236 94.5t-96 249.5t96.5 250.5t235.5 95.5t234.5 -95t95.5 -251q0 -155 -95.5 -249.5t-234.5 -94.5zM1280 156q69 0 111.5 47
t42.5 133t-42.5 132t-111.5 46q-66 0 -109 -46t-43 -132t43 -133t109 -47zM1997 156q67 0 109 47t42 133t-42 132t-109 46q-68 0 -111 -46t-43 -132t43.5 -133t110.5 -47z" />
    <glyph glyph-name="guilsinglleft" unicode="&#x2039;" horiz-adv-x="573" 
d="M547 158h-254l-281 377l281 376h254l-279 -376z" />
    <glyph glyph-name="guilsinglright" unicode="&#x203a;" horiz-adv-x="573" 
d="M561 535l-280 -377h-254l280 377l-280 376h254z" />
    <glyph glyph-name="fraction" unicode="&#x2044;" horiz-adv-x="208" 
d="M713 1393l-1004 -1393h-215l1006 1393h213z" />
    <glyph glyph-name="uni20A6" unicode="&#x20a6;" horiz-adv-x="1832" 
d="M1769 956v-194h-167v-156h167v-194h-167v-412h-363l-717 1036h-14v-1036h-277v412h-165v194h165v156h-165v194h165v428h363l715 -1032h16v1032h277v-428h167z" />
    <glyph glyph-name="uni20A9" unicode="&#x20a9;" horiz-adv-x="2347" 
d="M2345 1104v-195h-182l-56 -161h238v-195h-307l-195 -553h-330l-333 950h-17l-340 -950h-329l-193 553h-297v195h229l-57 161h-174v195h107l-99 280h307l340 -1060h15l354 1060h303l348 -1062h17l346 1062h291l-99 -280h113z" />
    <glyph glyph-name="dong" unicode="&#x20ab;" horiz-adv-x="1335" 
d="M1212 1421h148v-182h-148v-1053h-254l-8 176h-20q-134 -200 -383 -200q-218 0 -360 148.5t-142 363.5q0 140 62 256.5t178 186t264 69.5q248 0 381 -172h16v225h-282v182h282v144h266v-144zM614 375q115 0 199.5 52t132.5 140v213q-49 90 -133 143.5t-199 53.5
q-99 0 -168.5 -45t-100 -111.5t-30.5 -146.5q0 -126 76.5 -212.5t222.5 -86.5zM1212 -115h-1044v191h1044v-191z" />
    <glyph glyph-name="Euro" unicode="&#x20ac;" horiz-adv-x="1480" 
d="M897 223q98 0 199.5 45t158.5 125l187 -141q-51 -88 -143 -152.5t-193.5 -94.5t-202.5 -30q-231 0 -396.5 118.5t-236.5 318.5h-190v194h149q-4 58 -4 86q0 49 2 74h-147v195h188q68 205 234.5 325.5t402.5 120.5q159 0 306.5 -74t230.5 -211l-189 -145
q-69 95 -161 138.5t-177 43.5q-268 0 -368 -198h502v-195h-551q-4 -50 -4 -74q0 -32 4 -86h551v-194h-500q94 -189 348 -189z" />
    <glyph glyph-name="uni20AD" unicode="&#x20ad;" horiz-adv-x="1562" 
d="M1604 0h-328l-516 788l-338 -292v-496h-275v666h-167v194h167v524h275v-544h14l619 544h397l-483 -415l71 -109h473v-194h-346z" />
    <glyph glyph-name="uni20B9" unicode="&#x20b9;" horiz-adv-x="1370" 
d="M1337 1384v-194h-338v-21q111 -49 154 -141h174v-194h-145q-12 -94 -70.5 -166.5t-153.5 -118.5l250 -549h-301l-217 483q-54 -4 -82 -4h-522v195h582q73 0 136 37t87 123h-805v194h803q-26 83 -89 122.5t-134 39.5h-580v194h1251z" />
    <glyph glyph-name="uni20BA" unicode="&#x20ba;" horiz-adv-x="1343" 
d="M1042 672h279q0 -672 -614 -672h-545v424l-152 -55v196l152 56v172l-152 -56v197l152 55v395h276v-297l434 158v-196l-434 -158v-172l434 158v-197l-434 -158v-264h258q179 0 262.5 92.5t83.5 321.5z" />
    <glyph glyph-name="uni20BD" unicode="&#x20bd;" horiz-adv-x="1400" 
d="M963 651h-519v-162h537v-194h-537v-295h-274v295h-160v194h160v162h-160v195h160v538h793q209 0 326.5 -101.5t117.5 -268.5q0 -162 -117.5 -262.5t-326.5 -100.5zM967 1130h-523v-284h523q78 0 118.5 37.5t40.5 103.5t-40.5 104.5t-118.5 38.5z" />
    <glyph glyph-name="uni20BF" unicode="&#x20bf;" horiz-adv-x="1492" 
d="M1430 408q0 -161 -117 -277t-316 -129v-186h-194v184h-164v-184h-195v184h-297v1384h297v181h195v-181h164v181h194v-183q188 -9 293 -98t105 -227q0 -230 -267 -293v-14q144 -40 223 -129.5t79 -212.5zM950 1133h-528v-265h526q94 0 134 34.5t40 98.5q0 132 -172 132z
M422 250h504q107 0 162 52.5t55 143.5q0 79 -56 132t-161 53h-504v-381z" />
    <glyph glyph-name="uni2105" unicode="&#x2105;" horiz-adv-x="1529" 
d="M369 827q-132 0 -217.5 82.5t-85.5 208.5q0 127 84.5 208t218.5 81q89 0 160.5 -38.5t105.5 -104.5l-123 -80q-29 38 -61 54.5t-82 16.5q-55 0 -93 -37t-38 -100t38 -100t93 -37q89 0 143 74l123 -80q-38 -69 -107 -108.5t-159 -39.5zM1370 1393l-1003 -1393h-215
l1005 1393h213zM1155 -20q-138 0 -223.5 81.5t-85.5 208.5q0 125 85.5 206t223.5 81t224.5 -81.5t86.5 -205.5q0 -127 -86.5 -208.5t-224.5 -81.5zM1155 131q63 0 101 38t38 101q0 60 -38 98t-101 38q-62 0 -99.5 -37.5t-37.5 -98.5q0 -63 37 -101t100 -38z" />
    <glyph glyph-name="uni2113" unicode="&#x2113;" horiz-adv-x="1021" 
d="M995 1012q0 -190 -131 -318t-399 -184v-207q0 -48 13 -69t61 -21h256v-213h-355q-61 0 -106 14.5t-70.5 36.5t-40.5 56t-19.5 66.5t-4.5 74.5v227q-88 -6 -187 -6v205q104 0 187 6v278q0 117 33 206t90.5 141t129 78t154.5 26q171 0 280 -103.5t109 -293.5zM465 993v-274
q83 21 140 53t86 71t40.5 77.5t11.5 85.5q0 86 -37 131t-100 45q-71 0 -106 -51.5t-35 -137.5z" />
    <glyph glyph-name="uni2116" unicode="&#x2116;" horiz-adv-x="2838" 
d="M2241 397q-237 0 -388 143.5t-151 362.5t151 362.5t388 143.5q238 0 388 -143t150 -363t-150 -363t-388 -143zM422 0h-275v1384h361l717 -1032h16v1032h275v-1384h-363l-715 1036h-16v-1036zM2241 629q125 0 199.5 75t74.5 199q0 123 -74.5 199t-199.5 76
q-123 0 -199 -76.5t-76 -198.5q0 -123 76 -198.5t199 -75.5zM2716 0h-951v219h951v-219z" />
    <glyph glyph-name="uni2117" unicode="&#x2117;" horiz-adv-x="1658" 
d="M829 -25q-169 0 -313.5 55t-244 150.5t-156 227.5t-56.5 284q0 202 96 364.5t272.5 256.5t401.5 94q170 0 315 -55t245 -150t156.5 -227t56.5 -283q0 -152 -56.5 -284t-156.5 -227.5t-245 -150.5t-315 -55zM829 164q268 0 422 147t154 381q0 233 -154 380t-422 147
q-177 0 -308 -69t-198 -187.5t-67 -270.5q0 -234 153.5 -381t419.5 -147zM715 358h-156v662h391q95 0 156 -54t61 -145q0 -88 -61 -141t-156 -53h-235v-269zM715 879v-109h235q60 0 60 53q0 56 -60 56h-235z" />
    <glyph glyph-name="uni2120" unicode="&#x2120;" horiz-adv-x="1560" 
d="M301 756q-201 0 -285 133l95 84q29 -47 79.5 -71.5t112.5 -24.5q56 0 90.5 16.5t34.5 48.5q0 39 -33.5 56.5t-120.5 33.5q-47 8 -81 18t-71 28.5t-57 50t-20 73.5q0 66 39.5 111.5t95.5 64.5t123 19q178 0 266 -135l-106 -68q-26 37 -71.5 60.5t-98.5 23.5
q-107 0 -107 -57q0 -22 26.5 -35.5t102.5 -26.5q43 -8 76 -16.5t68.5 -24.5t58.5 -36.5t38 -52t15 -71.5q0 -94 -81.5 -148t-188.5 -54zM819 768h-137v616h203l174 -358h6l174 358h203v-616h-135v465h-7l-176 -356h-125l-176 356h-4v-465z" />
    <glyph glyph-name="trademark" unicode="&#x2122;" horiz-adv-x="1566" 
d="M377 768h-135v492h-246v124h625v-124h-244v-492zM823 768h-135v616h207l168 -358h10l168 358h207v-616h-137v465h-11l-167 -356h-129l-170 356h-11v-465z" />
    <glyph glyph-name="estimated" unicode="&#x212e;" horiz-adv-x="1642" 
d="M829 -25q-170 0 -315 55t-244.5 150.5t-155 228t-55.5 285.5q0 151 53.5 282.5t150 227t238.5 150.5t312 55q185 0 335 -61.5t247 -169.5t146 -257t40 -323h-1153v-297q149 -137 401 -137q317 0 494 266l154 -100q-92 -164 -259.5 -259.5t-388.5 -95.5zM428 1102v-332
h780v324q-145 127 -397 127q-239 0 -383 -119z" />
    <glyph glyph-name="uni2153" unicode="&#x2153;" horiz-adv-x="1382" 
d="M1233 1393l-1004 -1393h-215l1006 1393h213zM367 719h-174v487h-11l-106 -57l-70 117l197 116h164v-663zM1053 -10q-186 0 -297 114l98 121q97 -78 197 -78q68 0 94 17.5t26 52.5q0 30 -23.5 51t-70.5 21h-125v141h105q88 0 88 45q0 22 -20.5 35.5t-57.5 13.5
q-112 0 -195 -73l-104 102q117 127 301 127q111 0 186.5 -52.5t75.5 -123.5q0 -98 -149 -127v-8q174 -43 174 -170q0 -86 -75.5 -147.5t-227.5 -61.5z" />
    <glyph glyph-name="uni2154" unicode="&#x2154;" horiz-adv-x="1492" 
d="M590 719h-555v72q0 46 1.5 73t6 61.5t15.5 56t29 44t46.5 37.5t67.5 27l159 47q23 7 35 12.5t21.5 16.5t9.5 28q0 20 -23.5 33.5t-60.5 13.5q-50 0 -104.5 -23t-98.5 -67l-110 102q58 76 140.5 110t154.5 34q137 0 208.5 -58.5t71.5 -138.5q0 -147 -196 -203l-127 -34
q-37 -11 -57.5 -27t-20.5 -47v-8h387v-162zM1346 1393l-1004 -1393h-215l1006 1393h213zM1163 -10q-186 0 -297 114l99 121q97 -78 196 -78q68 0 94.5 17.5t26.5 52.5q0 30 -23.5 51t-70.5 21h-125v141h104q88 0 88 45q0 22 -20 35.5t-57 13.5q-112 0 -195 -73l-104 102
q117 127 301 127q111 0 186.5 -52.5t75.5 -123.5q0 -98 -150 -127v-8q174 -43 174 -170q0 -86 -75.5 -147.5t-227.5 -61.5z" />
    <glyph glyph-name="uni2155" unicode="&#x2155;" horiz-adv-x="1378" 
d="M1233 1393l-1004 -1393h-215l1006 1393h213zM367 719h-174v487h-11l-106 -57l-70 117l197 116h164v-663zM1047 -12q-189 0 -291 114l84 109q95 -80 196 -80q67 0 99 27.5t32 74.5t-31 73t-75 26q-102 0 -174 -84l-99 74v342h512v-162h-362v-111h8q66 49 176 49
q102 0 167 -53t65 -151q0 -106 -79.5 -177t-227.5 -71z" />
    <glyph glyph-name="uni2156" unicode="&#x2156;" horiz-adv-x="1490" 
d="M590 719h-555v72q0 46 1.5 73t6 61.5t15.5 56t29 44t46.5 37.5t67.5 27l159 47q23 7 35 12.5t21.5 16.5t9.5 28q0 20 -23.5 33.5t-60.5 13.5q-50 0 -104.5 -23t-98.5 -67l-110 102q58 76 140.5 110t154.5 34q137 0 208.5 -58.5t71.5 -138.5q0 -147 -196 -203l-127 -34
q-37 -11 -57.5 -27t-20.5 -47v-8h387v-162zM1346 1393l-1004 -1393h-215l1006 1393h213zM1157 -12q-189 0 -291 114l84 109q95 -80 197 -80q67 0 99 27.5t32 74.5t-31.5 73t-75.5 26q-102 0 -174 -84l-98 74v342h512v-162h-362v-111h8q66 49 176 49q102 0 166.5 -53
t64.5 -151q0 -106 -79.5 -177t-227.5 -71z" />
    <glyph glyph-name="uni2157" unicode="&#x2157;" horiz-adv-x="1513" 
d="M324 707q-186 0 -297 114l98 121q97 -78 197 -78q68 0 94 17.5t26 52.5q0 30 -23.5 51t-70.5 21h-125v143h105q88 0 88 43q0 22 -20.5 35.5t-57.5 13.5q-110 0 -195 -74l-104 103q117 127 301 127q111 0 186.5 -52.5t75.5 -121.5q0 -100 -149 -129v-9q174 -39 174 -170
q0 -86 -75 -147t-228 -61zM1366 1393l-1004 -1393h-215l1006 1393h213zM1180 -12q-189 0 -291 114l84 109q95 -80 196 -80q67 0 99 27.5t32 74.5t-31 73t-75 26q-102 0 -174 -84l-98 74v342h512v-162h-363v-111h8q66 49 176 49q102 0 167 -53t65 -151q0 -106 -79.5 -177
t-227.5 -71z" />
    <glyph glyph-name="uni2158" unicode="&#x2158;" horiz-adv-x="1583" 
d="M1436 1393l-1004 -1393h-215l1006 1393h213zM575 719h-172v123h-360v135l342 405h190v-401h121v-139h-121v-123zM244 987v-6h159v203h-6zM1249 -12q-189 0 -291 114l84 109q95 -80 197 -80q67 0 99 27.5t32 74.5t-31 73t-75 26q-102 0 -174 -84l-99 74v342h512v-162h-362
v-111h8q66 49 176 49q102 0 166.5 -53t64.5 -151q0 -106 -79.5 -177t-227.5 -71z" />
    <glyph glyph-name="uni2159" unicode="&#x2159;" horiz-adv-x="1398" 
d="M1233 1393l-1004 -1393h-215l1006 1393h213zM367 719h-174v487h-11l-106 -57l-70 117l197 116h164v-663zM1085 -10q-144 0 -236.5 94t-92.5 252q0 155 94.5 249.5t245.5 94.5q171 0 268 -102l-92 -101q-91 62 -176 62q-76 0 -121.5 -47.5t-52.5 -137.5h10q32 42 86 68.5
t115 26.5q110 0 174.5 -62t64.5 -158t-81 -167.5t-206 -71.5zM1092 141q53 0 80.5 26.5t27.5 72.5q0 39 -28 65.5t-80 26.5q-93 0 -156 -82q19 -56 61.5 -82.5t94.5 -26.5z" />
    <glyph glyph-name="uni215A" unicode="&#x215a;" horiz-adv-x="1529" 
d="M1364 1393l-1004 -1393h-215l1006 1393h213zM317 707q-188 0 -290 114l84 109q95 -80 196 -80q67 0 99 27.5t32 74.5t-31 73t-75 26q-102 0 -174 -84l-99 73v342h512v-161h-362v-111h8q66 49 176 49q102 0 167 -53.5t65 -151.5q0 -106 -80 -176.5t-228 -70.5zM1214 -10
q-144 0 -236.5 94t-92.5 252q0 155 94.5 249.5t245.5 94.5q171 0 268 -102l-92 -101q-91 62 -176 62q-76 0 -121.5 -47.5t-52.5 -137.5h10q32 42 86 68.5t115 26.5q110 0 174.5 -62t64.5 -158t-81 -167.5t-206 -71.5zM1221 141q53 0 80.5 26.5t27.5 72.5q0 39 -28 65.5
t-80 26.5q-93 0 -156 -82q19 -56 61.5 -82.5t94.5 -26.5z" />
    <glyph glyph-name="oneeighth" unicode="&#x215b;" horiz-adv-x="1433" 
d="M1233 1393l-1004 -1393h-215l1006 1393h213zM367 719h-174v487h-11l-106 -57l-70 117l197 116h164v-663zM1085 -10q-146 0 -237.5 44t-91.5 134q0 59 36 92.5t101 52.5v9q-100 54 -100 155q0 97 79.5 150t202.5 53q121 0 202 -48.5t81 -123.5q0 -51 -32.5 -82.5
t-90.5 -50.5v-8q172 -57 172 -168q0 -103 -93.5 -156t-228.5 -53zM1026 436l104 -35q26 6 45 26.5t19 45.5q0 33 -34.5 54.5t-94.5 21.5q-56 0 -79 -18t-23 -42q0 -32 63 -53zM1090 119q127 0 127 63q0 19 -21 31t-70 27l-147 47q-33 -38 -33 -74q0 -94 144 -94z" />
    <glyph glyph-name="threeeighths" unicode="&#x215c;" horiz-adv-x="1566" 
d="M324 707q-186 0 -297 114l98 121q97 -78 197 -78q68 0 94 17.5t26 52.5q0 30 -23.5 51t-70.5 21h-125v143h105q88 0 88 43q0 22 -20.5 35.5t-57.5 13.5q-110 0 -195 -74l-104 103q117 127 301 127q111 0 186.5 -52.5t75.5 -121.5q0 -100 -149 -129v-9q174 -39 174 -170
q0 -86 -75 -147t-228 -61zM1366 1393l-1004 -1393h-215l1006 1393h213zM1219 -10q-146 0 -238 44t-92 134q0 59 36 92.5t101 52.5v9q-100 54 -100 155q0 97 79.5 150t202.5 53q121 0 202 -48.5t81 -123.5q0 -51 -32.5 -82.5t-90.5 -50.5v-8q172 -57 172 -168
q0 -103 -93 -156t-228 -53zM1159 436l105 -35q26 6 44.5 26.5t18.5 45.5q0 33 -34.5 54.5t-94.5 21.5q-56 0 -79 -18t-23 -42q0 -32 63 -53zM1223 119q127 0 127 63q0 19 -20.5 31t-69.5 27l-148 47q-33 -38 -33 -74q0 -94 144 -94z" />
    <glyph glyph-name="fiveeighths" unicode="&#x215d;" horiz-adv-x="1562" 
d="M1364 1393l-1004 -1393h-215l1006 1393h213zM317 707q-188 0 -290 114l84 109q95 -80 196 -80q67 0 99 27.5t32 74.5t-31 73t-75 26q-102 0 -174 -84l-99 73v342h512v-161h-362v-111h8q66 49 176 49q102 0 167 -53.5t65 -151.5q0 -106 -80 -176.5t-228 -70.5zM1214 -10
q-146 0 -237.5 44t-91.5 134q0 59 36 92.5t101 52.5v9q-100 54 -100 155q0 97 79.5 150t202.5 53q121 0 202 -48.5t81 -123.5q0 -51 -32.5 -82.5t-90.5 -50.5v-8q172 -57 172 -168q0 -103 -93.5 -156t-228.5 -53zM1155 436l105 -35q26 6 44.5 26.5t18.5 45.5
q0 33 -34.5 54.5t-94.5 21.5q-56 0 -79 -18t-23 -42q0 -32 63 -53zM1219 119q127 0 127 63q0 19 -21 31t-70 27l-147 47q-33 -38 -33 -74q0 -94 144 -94z" />
    <glyph glyph-name="seveneighths" unicode="&#x215e;" horiz-adv-x="1495" 
d="M1294 1393l-1003 -1393h-215l1005 1393h213zM285 719h-185q16 123 70.5 227t177.5 264v13h-321v159h540v-151q-124 -137 -189 -251t-93 -261zM1147 -10q-146 0 -238 44t-92 134q0 59 36 92.5t101 52.5v9q-100 54 -100 155q0 97 80 150t203 53q121 0 201.5 -48.5
t80.5 -123.5q0 -51 -32.5 -82.5t-90.5 -50.5v-8q172 -57 172 -168q0 -103 -93 -156t-228 -53zM1087 436l105 -35q26 6 44.5 26.5t18.5 45.5q0 33 -34.5 54.5t-94.5 21.5q-56 0 -79 -18t-23 -42q0 -32 63 -53zM1151 119q127 0 127 63q0 19 -20.5 31t-69.5 27l-148 47
q-32 -37 -32 -74q0 -94 143 -94z" />
    <glyph glyph-name="arrowleft" unicode="&#x2190;" horiz-adv-x="1556" 
d="M645 666h850v-220h-850v-399l-584 506l584 508v-395z" />
    <glyph glyph-name="arrowup" unicode="&#x2191;" horiz-adv-x="1095" 
d="M547 1436l508 -584h-400v-850h-219v850h-395z" />
    <glyph glyph-name="arrowright" unicode="&#x2192;" horiz-adv-x="1556" 
d="M911 1061l584 -508l-584 -506v399h-850v220h850v395z" />
    <glyph glyph-name="arrowdown" unicode="&#x2193;" horiz-adv-x="1095" 
d="M655 1384v-849h400l-508 -584l-506 584h395v849h219z" />
    <glyph glyph-name="arrowboth" unicode="&#x2194;" horiz-adv-x="1933" 
d="M1290 1061l582 -508l-582 -506v399h-645v-399l-584 506l584 508v-395h645v395z" />
    <glyph glyph-name="arrowupdn" unicode="&#x2195;" horiz-adv-x="1095" 
d="M1055 1001h-400v-645h400l-508 -583l-506 583h395v645h-395l506 584z" />
    <glyph glyph-name="uni2196" unicode="&#x2196;" horiz-adv-x="1173" 
d="M532 920l601 -601l-156 -153l-598 600l-283 -283l-55 772l772 -55z" />
    <glyph glyph-name="uni2197" unicode="&#x2197;" horiz-adv-x="1173" 
d="M362 1180l771 55l-54 -772l-282 282l-600 -600l-156 154l600 602z" />
    <glyph glyph-name="uni2198" unicode="&#x2198;" horiz-adv-x="1173" 
d="M1079 936l54 -772l-771 55l279 279l-600 602l156 153l600 -600z" />
    <glyph glyph-name="uni2199" unicode="&#x2199;" horiz-adv-x="1173" 
d="M977 1253l156 -153l-601 -600l281 -281l-772 -55l55 772l283 -281z" />
    <glyph glyph-name="partialdiff" unicode="&#x2202;" horiz-adv-x="1286" 
d="M571 -25q-229 0 -377.5 139t-148.5 345q0 91 34 173t97 146.5t163.5 103t223.5 38.5q125 0 232 -55.5t178 -151.5h12q-4 207 -120.5 336t-286.5 129q-169 0 -324 -86l-84 200q184 117 414 117q135 0 246.5 -41.5t186 -111t126.5 -161.5t75 -190t23 -200
q0 -335 -184 -532.5t-486 -197.5zM606 205q132 0 231 85.5t132 246.5q-57 91 -145 140.5t-201 49.5q-83 0 -145.5 -22t-97.5 -59.5t-52 -81.5t-17 -95q0 -112 82.5 -188t212.5 -76z" />
    <glyph glyph-name="emptyset" unicode="&#x2205;" horiz-adv-x="1175" 
d="M1051 1266l-150 -271q88 -66 137 -165t49 -218q0 -211 -142 -346t-357 -135q-70 0 -156 21l-84 -152h-225l133 242q-80 66 -125 161t-45 209q0 209 143 345.5t359 136.5q63 0 133 -17l104 189h226zM315 612q0 -96 56 -168l239 437h-22q-117 0 -195 -77t-78 -192zM588 344
q117 0 194.5 75.5t77.5 192.5q0 106 -69 185l-250 -449q32 -4 47 -4z" />
    <glyph glyph-name="product" unicode="&#x220f;" horiz-adv-x="1402" 
d="M391 -147h-266v1531h1153v-1531h-266v1296h-621v-1296z" />
    <glyph glyph-name="summation" unicode="&#x2211;" horiz-adv-x="1392" 
d="M1274 -147h-1155v235l540 530l-540 531v235h1155v-235h-838l545 -531l-545 -530h838v-235z" />
    <glyph glyph-name="minus" unicode="&#x2212;" horiz-adv-x="1181" 
d="M1063 551h-944v219h944v-219z" />
    <glyph glyph-name="radical" unicode="&#x221a;" horiz-adv-x="1406" 
d="M862 -147h-287l-231 614h-319v238h503l187 -578h12l422 1257h274z" />
    <glyph glyph-name="infinity" unicode="&#x221e;" horiz-adv-x="1548" 
d="M1092 1024q147 0 242.5 -108.5t95.5 -270.5t-95.5 -271.5t-242.5 -109.5q-102 0 -174 48t-144 151q-74 -104 -144.5 -151.5t-172.5 -47.5q-147 0 -242.5 109.5t-95.5 271.5t95.5 270.5t242.5 108.5q102 0 173.5 -46t143.5 -149q72 103 144 149t174 46zM457 465
q58 0 98.5 37.5t103.5 140.5q-65 107 -104.5 144.5t-97.5 37.5q-61 0 -96 -49t-35 -131t35 -131t96 -49zM1092 465q61 0 96 49t35 131t-35 131t-96 49q-57 0 -96 -37.5t-107 -144.5q63 -103 104 -140.5t99 -37.5z" />
    <glyph glyph-name="integral" unicode="&#x222b;" horiz-adv-x="847" 
d="M205 -279h-320v213h254q60 0 79.5 27t23.5 80l71 1077q8 129 79.5 197.5t225.5 68.5h318v-213h-252q-32 0 -53 -7.5t-31 -25t-13.5 -33t-6.5 -42.5l-76 -1075q-5 -63 -22 -110.5t-51 -83.5t-90.5 -54.5t-135.5 -18.5z" />
    <glyph glyph-name="approxequal" unicode="&#x2248;" horiz-adv-x="1224" 
d="M850 612q-53 0 -124.5 24.5t-130 53.5t-127.5 53.5t-118 24.5q-108 0 -231 -106v204q118 115 256 115q54 0 126 -24.5t130 -54.5t126.5 -54.5t116.5 -24.5q112 0 232 109v-209q-117 -111 -256 -111zM850 221q-53 0 -124.5 24.5t-130 53.5t-127.5 53.5t-118 24.5
q-107 0 -231 -107v205q118 115 256 115q54 0 126 -24.5t130 -54.5t126.5 -54.5t116.5 -24.5q112 0 232 109v-209q-117 -111 -256 -111z" />
    <glyph glyph-name="notequal" unicode="&#x2260;" horiz-adv-x="1181" 
d="M1063 973v-219h-340l-102 -191h442v-219h-561l-125 -229h-209l125 229h-174v219h293l102 191h-395v219h514l135 250h209l-135 -250h221z" />
    <glyph glyph-name="lessequal" unicode="&#x2264;" horiz-adv-x="1181" 
d="M1063 608v-211l-944 291v270l944 291v-211l-664 -207v-16zM1063 94h-944v219h944v-219z" />
    <glyph glyph-name="greaterequal" unicode="&#x2265;" horiz-adv-x="1181" 
d="M1063 688l-944 -291v211l663 207v16l-663 207v211l944 -291v-270zM1063 313v-219h-944v219h944z" />
    <glyph glyph-name="uni2460" unicode="&#x2460;" horiz-adv-x="1609" 
d="M807 -25q-212 0 -382.5 91t-268 254.5t-97.5 369.5q0 205 97 369.5t268.5 257t382.5 92.5q210 0 380.5 -92.5t267.5 -257t97 -369.5q0 -206 -97 -369.5t-267 -254.5t-381 -91zM807 172q231 0 381.5 146.5t150.5 373.5q0 224 -151.5 372t-380.5 148q-232 0 -384.5 -148
t-152.5 -372q0 -227 152.5 -373.5t384.5 -146.5zM905 360h-174v488h-10l-107 -57l-69 116l196 117h164v-664z" />
    <glyph glyph-name="uni2461" unicode="&#x2461;" horiz-adv-x="1609" 
d="M807 -25q-212 0 -382.5 91t-268 254.5t-97.5 369.5q0 205 97 369.5t268.5 257t382.5 92.5q210 0 380.5 -92.5t267.5 -257t97 -369.5q0 -206 -97 -369.5t-267 -254.5t-381 -91zM807 172q231 0 381.5 146.5t150.5 373.5q0 224 -151.5 372t-380.5 148q-232 0 -384.5 -148
t-152.5 -372q0 -227 152.5 -373.5t384.5 -146.5zM1079 362h-553v70q0 46 1 73t6 62t15.5 56.5t28.5 44t46 38t67 27.5l160 47q36 10 52 21.5t16 34.5q0 21 -24 35t-60 14q-50 0 -104.5 -23.5t-98.5 -68.5l-113 104q59 76 141.5 109.5t155.5 33.5q137 0 209 -58t72 -138
q0 -146 -197 -203l-129 -37q-76 -19 -76 -72v-10h385v-160z" />
    <glyph glyph-name="uni2462" unicode="&#x2462;" horiz-adv-x="1609" 
d="M807 -25q-212 0 -382.5 91t-268 254.5t-97.5 369.5q0 205 97 369.5t268.5 257t382.5 92.5q210 0 380.5 -92.5t267.5 -257t97 -369.5q0 -206 -97 -369.5t-267 -254.5t-381 -91zM807 172q231 0 381.5 146.5t150.5 373.5q0 224 -151.5 372t-380.5 148q-232 0 -384.5 -148
t-152.5 -372q0 -227 152.5 -373.5t384.5 -146.5zM788 348q-186 0 -294 115l98 121q97 -78 194 -78q68 0 95.5 17.5t27.5 51.5q0 30 -24 51t-72 21h-125v144h107q88 0 88 43q0 22 -20.5 35.5t-59.5 13.5q-108 0 -195 -74l-102 102q115 127 299 127q111 0 186.5 -52.5
t75.5 -121.5q0 -101 -147 -129v-8q174 -40 174 -170q0 -86 -76.5 -147.5t-229.5 -61.5z" />
    <glyph glyph-name="uni2463" unicode="&#x2463;" horiz-adv-x="1609" 
d="M807 -25q-212 0 -382.5 91t-268 254.5t-97.5 369.5q0 205 97 369.5t268.5 257t382.5 92.5q210 0 380.5 -92.5t267.5 -257t97 -369.5q0 -206 -97 -369.5t-267 -254.5t-381 -91zM807 172q231 0 381.5 146.5t150.5 373.5q0 224 -151.5 372t-380.5 148q-232 0 -384.5 -148
t-152.5 -372q0 -227 152.5 -373.5t384.5 -146.5zM993 360h-172v123h-358v135l342 406h188v-401h121v-140h-121v-123zM662 629v-6h159v202h-6z" />
    <glyph glyph-name="uni2464" unicode="&#x2464;" horiz-adv-x="1609" 
d="M807 -25q-212 0 -382.5 91t-268 254.5t-97.5 369.5q0 205 97 369.5t268.5 257t382.5 92.5q210 0 380.5 -92.5t267.5 -257t97 -369.5q0 -206 -97 -369.5t-267 -254.5t-381 -91zM807 172q231 0 381.5 146.5t150.5 373.5q0 224 -151.5 372t-380.5 148q-232 0 -384.5 -148
t-152.5 -372q0 -227 152.5 -373.5t384.5 -146.5zM799 354q-195 0 -293 115l82 109q91 -80 203 -80q64 0 94 31.5t30 80.5q0 41 -30.5 64.5t-75.5 23.5q-103 0 -174 -86l-98 76v342h512v-162h-363v-110h8q66 49 178 49q101 0 165.5 -53.5t64.5 -151.5q0 -108 -77.5 -178
t-225.5 -70z" />
    <glyph glyph-name="uni2465" unicode="&#x2465;" horiz-adv-x="1609" 
d="M807 -25q-212 0 -382.5 91t-268 254.5t-97.5 369.5q0 205 97 369.5t268.5 257t382.5 92.5q210 0 380.5 -92.5t267.5 -257t97 -369.5q0 -206 -97 -369.5t-267 -254.5t-381 -91zM807 172q231 0 381.5 146.5t150.5 373.5q0 224 -151.5 372t-380.5 148q-232 0 -384.5 -148
t-152.5 -372q0 -227 152.5 -373.5t384.5 -146.5zM815 348q-142 0 -235 94.5t-93 249.5q0 156 93.5 251t244.5 95q172 0 269 -102l-93 -100q-86 61 -174 61q-77 0 -123 -47t-53 -137h11q34 42 87.5 68t114.5 26q108 0 174 -62t66 -157t-81.5 -167.5t-207.5 -72.5zM823 500
q53 0 80 26t27 72q0 40 -28.5 67t-80.5 27q-88 0 -155 -84q40 -108 157 -108z" />
    <glyph glyph-name="uni2466" unicode="&#x2466;" horiz-adv-x="1609" 
d="M807 -25q-212 0 -382.5 91t-268 254.5t-97.5 369.5q0 205 97 369.5t268.5 257t382.5 92.5q210 0 380.5 -92.5t267.5 -257t97 -369.5q0 -206 -97 -369.5t-267 -254.5t-381 -91zM807 172q231 0 381.5 146.5t150.5 373.5q0 224 -151.5 372t-380.5 148q-232 0 -384.5 -148
t-152.5 -372q0 -227 152.5 -373.5t384.5 -146.5zM799 360h-185q16 123 71 227.5t177 264.5v12h-321v160h538v-152q-123 -137 -187.5 -251.5t-92.5 -260.5z" />
    <glyph glyph-name="uni2467" unicode="&#x2467;" horiz-adv-x="1609" 
d="M807 -25q-212 0 -382.5 91t-268 254.5t-97.5 369.5q0 205 97 369.5t268.5 257t382.5 92.5q210 0 380.5 -92.5t267.5 -257t97 -369.5q0 -206 -97 -369.5t-267 -254.5t-381 -91zM807 172q231 0 381.5 146.5t150.5 373.5q0 224 -151.5 372t-380.5 148q-232 0 -384.5 -148
t-152.5 -372q0 -227 152.5 -373.5t384.5 -146.5zM809 348q-146 0 -238 44t-92 134q0 63 34.5 94.5t102.5 51.5v8q-100 54 -100 156q0 97 80 149.5t203 52.5q121 0 201.5 -48.5t80.5 -123.5q0 -54 -32 -83.5t-91 -49.5v-8q172 -57 172 -168q0 -103 -93 -156t-228 -53z
M750 797l104 -37q26 6 45 26t19 45q0 33 -33.5 53.5t-93.5 20.5q-57 0 -81 -17t-24 -40q0 -16 13.5 -28t50.5 -23zM807 481q133 0 133 60q0 19 -20.5 30.5t-71.5 26.5l-146 47q-32 -37 -32 -74q0 -90 137 -90z" />
    <glyph glyph-name="uni2468" unicode="&#x2468;" horiz-adv-x="1609" 
d="M807 -25q-212 0 -382.5 91t-268 254.5t-97.5 369.5q0 205 97 369.5t268.5 257t382.5 92.5q210 0 380.5 -92.5t267.5 -257t97 -369.5q0 -206 -97 -369.5t-267 -254.5t-381 -91zM807 172q231 0 381.5 146.5t150.5 373.5q0 224 -151.5 372t-380.5 148q-232 0 -384.5 -148
t-152.5 -372q0 -227 152.5 -373.5t384.5 -146.5zM768 346q-170 0 -268 103l92 100q91 -62 174 -62q77 0 123 47.5t53 137.5h-10q-32 -41 -86 -67.5t-115 -26.5q-110 0 -174.5 61.5t-64.5 157.5t80.5 167.5t205.5 71.5q143 0 236.5 -91t93.5 -240q0 -164 -94 -261.5
t-246 -97.5zM772 694q93 0 156 82q-19 56 -61.5 82.5t-94.5 26.5q-53 0 -80.5 -26.5t-27.5 -72.5q0 -39 28 -65.5t80 -26.5z" />
    <glyph glyph-name="uni2469" unicode="&#x2469;" horiz-adv-x="1609" 
d="M807 -25q-212 0 -382.5 91t-268 254.5t-97.5 369.5q0 205 97 369.5t268.5 257t382.5 92.5q210 0 380.5 -92.5t267.5 -257t97 -369.5q0 -206 -97 -369.5t-267 -254.5t-381 -91zM807 172q231 0 381.5 146.5t150.5 373.5q0 224 -151.5 372t-380.5 148q-232 0 -384.5 -148
t-152.5 -372q0 -227 152.5 -373.5t384.5 -146.5zM977 442q-102 0 -174 68t-72 182t72 181t174 67t173 -67t71 -181t-71.5 -182t-172.5 -68zM653 451h-141v340h-8l-76 -41l-55 94l147 88h133v-481zM977 578q44 0 71 28t27 86t-27 86.5t-71 28.5q-42 0 -70 -28.5t-28 -86.5
t28 -86t70 -28z" />
    <glyph glyph-name="uni24EA" unicode="&#x24ea;" horiz-adv-x="1609" 
d="M807 -25q-212 0 -382.5 91t-268 254.5t-97.5 369.5q0 205 97 369.5t268.5 257t382.5 92.5q210 0 380.5 -92.5t267.5 -257t97 -369.5q0 -206 -97 -369.5t-267 -254.5t-381 -91zM807 172q231 0 381.5 146.5t150.5 373.5q0 224 -151.5 372t-380.5 148q-232 0 -384.5 -148
t-152.5 -372q0 -227 152.5 -373.5t384.5 -146.5zM807 348q-140 0 -236 94.5t-96 249.5q0 157 96 251.5t236 94.5t235 -94.5t95 -251.5q0 -155 -95.5 -249.5t-234.5 -94.5zM807 514q67 0 109 46t42 132t-42 133t-109 47t-110.5 -47t-43.5 -133t43 -132t111 -46z" />
    <glyph glyph-name="uni24FF" unicode="&#x24ff;" horiz-adv-x="1609" 
d="M807 -25q-212 0 -382.5 91t-268 254.5t-97.5 369.5q0 205 97 369.5t268.5 257t382.5 92.5q210 0 380.5 -92.5t267.5 -257t97 -369.5q0 -206 -97 -369.5t-267 -254.5t-381 -91zM807 348q139 0 234.5 94.5t95.5 249.5q0 157 -95 251.5t-235 94.5t-236 -94.5t-96 -251.5
q0 -155 96 -249.5t236 -94.5zM807 514q-68 0 -111 46t-43 132t43.5 133t110.5 47t109 -47t42 -133t-42 -132t-109 -46z" />
    <glyph glyph-name="uni25AA" unicode="&#x25aa;" horiz-adv-x="1079" 
d="M975 180h-850v846h850v-846z" />
    <glyph glyph-name="uni25AB" unicode="&#x25ab;" horiz-adv-x="1087" 
d="M983 172h-858v854h858v-854zM336 821v-444h434v444h-434z" />
    <glyph glyph-name="triagup" unicode="&#x25b2;" horiz-adv-x="1474" 
d="M1444 111h-1413l706 1192z" />
    <glyph glyph-name="uni25B3" unicode="&#x25b3;" horiz-adv-x="1474" 
d="M1444 117h-1413l590 1186h231zM729 1079l-348 -751h713l-351 751h-14z" />
    <glyph glyph-name="uni25B4" unicode="&#x25b4;" horiz-adv-x="1101" 
d="M1071 160h-1040l520 909z" />
    <glyph glyph-name="uni25B5" unicode="&#x25b5;" horiz-adv-x="1112" 
d="M1081 156h-1050l489 913h74zM549 743l-195 -391h406l-197 391h-14z" />
    <glyph glyph-name="uni25B6" unicode="&#x25b6;" horiz-adv-x="1378" 
d="M1317 692l-1192 -706v1413z" />
    <glyph glyph-name="uni25B7" unicode="&#x25b7;" horiz-adv-x="1372" 
d="M1311 575l-1186 -589v1413l1186 -592v-232zM336 1049v-713l751 348v14z" />
    <glyph glyph-name="uni25B8" unicode="&#x25b8;" horiz-adv-x="1095" 
d="M1034 590l-909 -520v1040z" />
    <glyph glyph-name="uni25B9" unicode="&#x25b9;" horiz-adv-x="1099" 
d="M1036 547l-911 -488v1051l911 -487v-76zM322 786v-403l389 195v14z" />
    <glyph glyph-name="triagdn" unicode="&#x25bc;" horiz-adv-x="1474" 
d="M737 111l-706 1192h1413z" />
    <glyph glyph-name="uni25BD" unicode="&#x25bd;" horiz-adv-x="1474" 
d="M621 117l-590 1186h1413l-592 -1186h-231zM1094 1092h-713l348 -752h14z" />
    <glyph glyph-name="uni25BE" unicode="&#x25be;" horiz-adv-x="1101" 
d="M551 160l-520 909h1040z" />
    <glyph glyph-name="uni25BF" unicode="&#x25bf;" horiz-adv-x="1112" 
d="M520 156l-489 913h1050l-487 -913h-74zM760 872h-406l195 -391h14z" />
    <glyph glyph-name="uni25C0" unicode="&#x25c0;" horiz-adv-x="1378" 
d="M1253 1399v-1413l-1192 706z" />
    <glyph glyph-name="uni25C1" unicode="&#x25c1;" horiz-adv-x="1372" 
d="M1247 1399v-1413l-1186 589v232zM285 684l751 -348v713l-751 -351v-14z" />
    <glyph glyph-name="uni25C2" unicode="&#x25c2;" horiz-adv-x="1095" 
d="M973 1110v-1040l-912 520z" />
    <glyph glyph-name="uni25C3" unicode="&#x25c3;" horiz-adv-x="1099" 
d="M975 1110v-1051l-914 488v76zM389 578l389 -195v403l-389 -194v-14z" />
    <glyph glyph-name="lozenge" unicode="&#x25ca;" horiz-adv-x="1292" 
d="M1270 688l-625 -739l-622 739l622 739zM283 688l362 -418l363 418l-363 420z" />
    <glyph glyph-name="circle" unicode="&#x25cb;" horiz-adv-x="1093" 
d="M547 131q-217 0 -359.5 135t-142.5 346q0 209 143 345.5t359 136.5q141 0 255.5 -62t179.5 -172.5t65 -247.5q0 -211 -142.5 -346t-357.5 -135zM547 344q117 0 194.5 75.5t77.5 192.5q0 115 -78 192t-194 77q-117 0 -195 -77t-78 -192q0 -118 77.5 -193t195.5 -75z" />
    <glyph glyph-name="uni25CF" unicode="&#x25cf;" horiz-adv-x="1085" 
d="M543 141q-215 0 -356.5 133.5t-141.5 341.5q0 207 142 342.5t356 135.5q213 0 354 -135.5t141 -342.5q0 -208 -140.5 -341.5t-354.5 -133.5z" />
    <glyph glyph-name="uni25EF" unicode="&#x25ef;" horiz-adv-x="1609" 
d="M805 -25q-211 0 -382 91t-268.5 254.5t-97.5 369.5q0 205 97.5 369.5t268.5 257t382 92.5t382 -92.5t268 -257t97 -369.5q0 -206 -97 -369.5t-267.5 -254.5t-382.5 -91zM807 172q231 0 381.5 146.5t150.5 373.5q-1 147 -70 266t-190 186t-272 68q-232 0 -384.5 -148
t-152.5 -372q0 -227 152.5 -373.5t384.5 -146.5z" />
    <glyph glyph-name="uni2672" unicode="&#x2672;" horiz-adv-x="1814" 
d="M444 938l248 448l105 -2l75 -137l-231 -418zM1063 1042l-189 344l252 -2l129 -235l88 47l-55 -328l-313 127zM1438 811l270 -434l-51 -90h-156l-254 407zM428 489l-209 -331l-121 221l144 229l-86 54l315 110l41 -336zM1229 221l393 -2l-125 -219h-268l-2 -100l-260 206
l264 213zM819 0h-512l-49 90l82 133h479v-223z" />
    <glyph glyph-name="uni2776" unicode="&#x2776;" horiz-adv-x="1609" 
d="M807 -25q-212 0 -382.5 91t-268 254.5t-97.5 369.5q0 205 97 369.5t268.5 257t382.5 92.5q210 0 380.5 -92.5t267.5 -257t97 -369.5q0 -206 -97 -369.5t-267 -254.5t-381 -91zM731 848v-488h174v664h-164l-196 -117l69 -116l107 57h10z" />
    <glyph glyph-name="uni2777" unicode="&#x2777;" horiz-adv-x="1609" 
d="M807 -25q-212 0 -382.5 91t-268 254.5t-97.5 369.5q0 205 97 369.5t268.5 257t382.5 92.5q210 0 380.5 -92.5t267.5 -257t97 -369.5q0 -206 -97 -369.5t-267 -254.5t-381 -91zM526 432v-70h553v160h-385v10q0 53 76 72l129 37q197 57 197 203q0 80 -72 138t-209 58
q-73 0 -155.5 -33.5t-141.5 -109.5l113 -104q44 45 98.5 68.5t104.5 23.5q36 0 60 -14t24 -35q0 -23 -16 -34.5t-52 -21.5l-160 -47q-39 -12 -67 -27.5t-46 -38t-28.5 -44t-15.5 -56.5t-6 -62t-1 -73z" />
    <glyph glyph-name="uni2778" unicode="&#x2778;" horiz-adv-x="1609" 
d="M807 -25q-212 0 -382.5 91t-268 254.5t-97.5 369.5q0 205 97 369.5t268.5 257t382.5 92.5q210 0 380.5 -92.5t267.5 -257t97 -369.5q0 -206 -97 -369.5t-267 -254.5t-381 -91zM788 348q153 0 229.5 61.5t76.5 147.5q0 69 -47 110.5t-127 57.5v10q147 28 147 129
q0 69 -75.5 121.5t-186.5 52.5q-184 0 -299 -127l102 -102q87 74 195 74q39 0 59.5 -13.5t20.5 -35.5q0 -43 -88 -43h-107v-144h125q48 0 72 -21t24 -51q0 -34 -27.5 -51.5t-95.5 -17.5q-97 0 -194 78l-98 -121q108 -115 294 -115z" />
    <glyph glyph-name="uni2779" unicode="&#x2779;" horiz-adv-x="1609" 
d="M807 -25q-212 0 -382.5 91t-268 254.5t-97.5 369.5q0 205 97 369.5t268.5 257t382.5 92.5q210 0 380.5 -92.5t267.5 -257t97 -369.5q0 -206 -97 -369.5t-267 -254.5t-381 -91zM805 485v-123h172v123h121v140h-121v401h-191l-342 -408v-133h361zM805 625h-160v6l154 196h6
v-202z" />
    <glyph glyph-name="uni277A" unicode="&#x277a;" horiz-adv-x="1609" 
d="M807 -25q-212 0 -382.5 91t-268 254.5t-97.5 369.5q0 205 97 369.5t268.5 257t382.5 92.5q210 0 380.5 -92.5t267.5 -257t97 -369.5q0 -206 -97 -369.5t-267 -254.5t-381 -91zM799 354q145 0 224 70.5t79 177.5q0 96 -59 149.5t-160 53.5q-54 0 -106 -16t-83 -39h-8v118
h363v162h-512v-342l98 -76q71 86 174 86q45 0 75.5 -26.5t30.5 -71.5q0 -44 -30.5 -73t-96.5 -29q-109 0 -200 80l-82 -109q98 -115 293 -115z" />
    <glyph glyph-name="uni277B" unicode="&#x277b;" horiz-adv-x="1609" 
d="M807 -25q-212 0 -382.5 91t-268 254.5t-97.5 369.5q0 205 97 369.5t268.5 257t382.5 92.5q210 0 380.5 -92.5t267.5 -257t97 -369.5q0 -206 -97 -369.5t-267 -254.5t-381 -91zM815 348q126 0 207.5 72.5t81.5 167.5t-66 157t-174 62q-61 0 -114.5 -26.5t-85.5 -67.5h-11
q7 90 52.5 137t121.5 47q88 0 177 -61l92 100q-99 102 -271 102q-152 0 -245 -97t-93 -261q0 -149 93 -240.5t235 -91.5zM823 500q-52 0 -94 26t-61 82q65 84 155 84q51 0 80 -27.5t29 -66.5q0 -45 -28 -71.5t-81 -26.5z" />
    <glyph glyph-name="uni277C" unicode="&#x277c;" horiz-adv-x="1609" 
d="M807 -25q-212 0 -382.5 91t-268 254.5t-97.5 369.5q0 205 97 369.5t268.5 257t382.5 92.5q210 0 380.5 -92.5t267.5 -257t97 -369.5q0 -206 -97 -369.5t-267 -254.5t-381 -91zM627 360h186q27 146 91.5 260.5t189.5 251.5v152h-541v-160h321v-12q-121 -157 -175 -262
t-72 -230z" />
    <glyph glyph-name="uni277D" unicode="&#x277d;" horiz-adv-x="1609" 
d="M807 -25q-212 0 -382.5 91t-268 254.5t-97.5 369.5q0 205 97 369.5t268.5 257t382.5 92.5q210 0 380.5 -92.5t267.5 -257t97 -369.5q0 -206 -97 -369.5t-267 -254.5t-381 -91zM809 348q135 0 228 53t93 156q0 111 -172 168v8q58 19 90.5 50.5t32.5 82.5q0 75 -80.5 123.5
t-201.5 48.5q-123 0 -203 -52.5t-80 -149.5q0 -102 100 -156v-8q-137 -40 -137 -146q0 -90 92 -134t238 -44zM854 760l-104 35q-37 11 -50.5 23.5t-13.5 29.5q0 24 22.5 41.5t79.5 17.5q60 0 95 -21.5t35 -54.5q0 -25 -19 -45t-45 -26zM813 477q-143 0 -143 94q0 37 32 74
l148 -47q50 -15 70 -26.5t20 -30.5q0 -32 -35 -48t-92 -16z" />
    <glyph glyph-name="uni277E" unicode="&#x277e;" horiz-adv-x="1609" 
d="M807 -25q-212 0 -382.5 91t-268 254.5t-97.5 369.5q0 205 97 369.5t268.5 257t382.5 92.5q210 0 380.5 -92.5t267.5 -257t97 -369.5q0 -206 -97 -369.5t-267 -254.5t-381 -91zM774 346q152 0 245 97.5t93 261.5q0 149 -92.5 240t-235.5 91q-125 0 -205.5 -71.5
t-80.5 -167.5t64.5 -157.5t174.5 -61.5q61 0 114 26t87 68h10q-7 -90 -53 -137.5t-123 -47.5q-83 0 -174 62l-92 -100q98 -103 268 -103zM778 694q-52 0 -80 26.5t-28 65.5q0 45 27.5 72t78.5 27q121 0 158 -109q-63 -82 -156 -82z" />
    <glyph glyph-name="uni277F" unicode="&#x277f;" horiz-adv-x="1609" 
d="M807 -25q-212 0 -382.5 91t-268 254.5t-97.5 369.5q0 205 97 369.5t268.5 257t382.5 92.5q210 0 380.5 -92.5t267.5 -257t97 -369.5q0 -206 -97 -369.5t-267 -254.5t-381 -91zM1028 348q141 0 236.5 94t95.5 250q0 157 -95.5 251.5t-236.5 94.5q-138 0 -234 -95t-96 -251
q0 -155 96 -249.5t234 -94.5zM416 848v-488h174v664h-162l-197 -117l68 -116l107 57h10zM1028 512q-66 0 -108.5 47t-42.5 133t42.5 133t108.5 47q69 0 111.5 -47t42.5 -133t-42.5 -133t-111.5 -47z" />
    <glyph glyph-name="uni2B1B" unicode="&#x2b1b;" horiz-adv-x="1677" 
d="M1532 0h-1385v1384h1385v-1384z" />
    <glyph glyph-name="uni2B1C" unicode="&#x2b1c;" horiz-adv-x="1677" 
d="M1532 0h-1385v1384h1385v-1384zM375 1155v-926h928v926h-928z" />
    <glyph glyph-name="uni2B24" unicode="&#x2b24;" horiz-adv-x="1609" 
d="M805 -25q-211 0 -382 91t-268.5 254.5t-97.5 369.5q0 205 97.5 369.5t268.5 257t382 92.5t382 -92.5t268 -257t97 -369.5q0 -206 -97 -369.5t-267.5 -254.5t-382.5 -91z" />
    <glyph glyph-name="G.ss01" horiz-adv-x="1619" 
d="M842 -25q-171 0 -318 55t-248.5 150.5t-159 227.5t-57.5 284q0 219 104 383t281 248t400 84q118 0 229 -29t216.5 -98.5t168.5 -173.5l-221 -139q-66 93 -168 139.5t-227 46.5q-238 0 -370 -127.5t-132 -333.5q0 -204 143 -332.5t383 -128.5q225 0 373 93v469h264v-613
q-285 -205 -661 -205z" />
    <glyph glyph-name="Gbreve.ss01" horiz-adv-x="1619" 
d="M809 1495q-181 0 -289.5 104t-99.5 275h174q22 -172 215 -172q195 0 217 172h174q7 -171 -101 -275t-290 -104zM842 -25q-171 0 -318 55t-248.5 150.5t-159 227.5t-57.5 284q0 219 104 383t281 248t400 84q118 0 229 -29t216.5 -98.5t168.5 -173.5l-221 -139
q-66 93 -168 139.5t-227 46.5q-238 0 -370 -127.5t-132 -333.5q0 -204 143 -332.5t383 -128.5q225 0 373 93v469h264v-613q-285 -205 -661 -205z" />
    <glyph glyph-name="Gcircumflex.ss01" horiz-adv-x="1619" 
d="M422 1638l340 211h96l338 -211v-143l-387 150l-387 -150v143zM842 -25q-171 0 -318 55t-248.5 150.5t-159 227.5t-57.5 284q0 219 104 383t281 248t400 84q118 0 229 -29t216.5 -98.5t168.5 -173.5l-221 -139q-66 93 -168 139.5t-227 46.5q-238 0 -370 -127.5
t-132 -333.5q0 -204 143 -332.5t383 -128.5q225 0 373 93v469h264v-613q-285 -205 -661 -205z" />
    <glyph glyph-name="uni0122.ss01" horiz-adv-x="1619" 
d="M842 -25q-171 0 -318 55t-248.5 150.5t-159 227.5t-57.5 284q0 219 104 383t281 248t400 84q118 0 229 -29t216.5 -98.5t168.5 -173.5l-221 -139q-66 93 -168 139.5t-227 46.5q-238 0 -370 -127.5t-132 -333.5q0 -204 143 -332.5t383 -128.5q225 0 373 93v469h264v-613
q-285 -205 -661 -205zM786 -655h-106v100h70q77 0 104 18.5t27 75.5v86h-201v215h326v-286q0 -117 -50 -163t-170 -46z" />
    <glyph glyph-name="Gdotaccent.ss01" horiz-adv-x="1619" 
d="M936 1516h-256v245h256v-245zM842 -25q-171 0 -318 55t-248.5 150.5t-159 227.5t-57.5 284q0 219 104 383t281 248t400 84q118 0 229 -29t216.5 -98.5t168.5 -173.5l-221 -139q-66 93 -168 139.5t-227 46.5q-238 0 -370 -127.5t-132 -333.5q0 -204 143 -332.5t383 -128.5
q225 0 373 93v469h264v-613q-285 -205 -661 -205z" />
    <glyph glyph-name="Q.ss02" horiz-adv-x="1660" 
d="M1602 694q0 -223 -116.5 -397t-318.5 -258l84 -244h-252l-63 187q-61 -7 -105 -7q-171 0 -315.5 55t-244.5 150.5t-156 228.5t-56 285q0 151 56 283t156 227t245 150t315 55t314.5 -55t244.5 -150t156 -227t56 -283zM938 707l145 -420q114 56 176 162t62 245
q0 203 -132 330t-358 127q-228 0 -359.5 -127t-131.5 -330q0 -206 131.5 -333.5t359.5 -127.5h17l-164 474h254z" />
    <glyph glyph-name="Adieresis.ss09" horiz-adv-x="1511" 
d="M1548 0h-305l-106 244h-772l-107 -244h-295l629 1384h332zM125 1384h256v-245h-256v245zM1130 1384h259v-245h-259v245zM741 1106l-268 -612h553l-270 612h-15z" />
    <glyph glyph-name="Odieresis.ss09" horiz-adv-x="1660" 
d="M831 -25q-171 0 -315.5 55t-244.5 150.5t-156 228.5t-56 285q0 151 56 283t156 227t245 150t315 55t314.5 -55t244.5 -150t156 -227t56 -283q0 -152 -56 -285t-156 -228.5t-244.5 -150.5t-314.5 -55zM831 233q227 0 358.5 127.5t131.5 333.5q0 203 -132 330t-358 127
q-228 0 -359.5 -127t-131.5 -330q0 -206 131.5 -333.5t359.5 -127.5zM952 770h-241v236h241v-236zM952 379h-241v235h241v-235z" />
    <glyph glyph-name="Udieresis.ss09" horiz-adv-x="1587" 
d="M795 -25q-195 0 -344 70.5t-236.5 216t-87.5 350.5v772h276v-753q0 -398 390 -398q391 0 391 408v743h276v-770q0 -155 -50 -277.5t-139 -201t-210 -119.5t-266 -41zM915 887h-243v233h243v-233zM915 496h-243v233h243v-233z" />
    <glyph glyph-name="i.loclTRK" horiz-adv-x="514" 
d="M391 1200h-268v256h268v-256zM391 0h-266v1069h266v-1069z" />
    <glyph glyph-name="a.ss03" horiz-adv-x="1335" 
d="M950 895l6 174h256v-1069h-254l-8 174h-16q-136 -199 -387 -199q-149 0 -264.5 74.5t-176.5 201.5t-61 284t61 284t176.5 201t264.5 74q250 0 385 -199h18zM625 188q120 0 202.5 54t118.5 139v307q-36 85 -118.5 139t-202.5 54q-138 0 -224 -97.5t-86 -248.5
q0 -152 86 -249.5t224 -97.5z" />
    <glyph glyph-name="aacute.ss03" horiz-adv-x="1335" 
d="M717 1612h262l-268 -412h-154zM950 895l6 174h256v-1069h-254l-8 174h-16q-136 -199 -387 -199q-149 0 -264.5 74.5t-176.5 201.5t-61 284t61 284t176.5 201t264.5 74q250 0 385 -199h18zM625 188q120 0 202.5 54t118.5 139v307q-36 85 -118.5 139t-202.5 54
q-138 0 -224 -97.5t-86 -248.5q0 -152 86 -249.5t224 -97.5z" />
    <glyph glyph-name="abreve.ss03" horiz-adv-x="1335" 
d="M668 1180q-75 0 -140 25t-114.5 72t-76.5 122t-24 168h179q11 -191 176 -191q167 0 176 191h180q4 -184 -98 -285.5t-258 -101.5zM950 895l6 174h256v-1069h-254l-8 174h-16q-136 -199 -387 -199q-149 0 -264.5 74.5t-176.5 201.5t-61 284t61 284t176.5 201t264.5 74
q250 0 385 -199h18zM625 188q120 0 202.5 54t118.5 139v307q-36 85 -118.5 139t-202.5 54q-138 0 -224 -97.5t-86 -248.5q0 -152 86 -249.5t224 -97.5z" />
    <glyph glyph-name="acircumflex.ss03" horiz-adv-x="1335" 
d="M877 1200l-207 195l-209 -195h-176l268 371h229l271 -371h-176zM950 895l6 174h256v-1069h-254l-8 174h-16q-136 -199 -387 -199q-149 0 -264.5 74.5t-176.5 201.5t-61 284t61 284t176.5 201t264.5 74q250 0 385 -199h18zM625 188q120 0 202.5 54t118.5 139v307
q-36 85 -118.5 139t-202.5 54q-138 0 -224 -97.5t-86 -248.5q0 -152 86 -249.5t224 -97.5z" />
    <glyph glyph-name="adieresis.ss03" horiz-adv-x="1335" 
d="M319 1434h244v-234h-244v234zM774 1434h244v-234h-244v234zM950 895l6 174h256v-1069h-254l-8 174h-16q-136 -199 -387 -199q-149 0 -264.5 74.5t-176.5 201.5t-61 284t61 284t176.5 201t264.5 74q250 0 385 -199h18zM625 188q120 0 202.5 54t118.5 139v307
q-36 85 -118.5 139t-202.5 54q-138 0 -224 -97.5t-86 -248.5q0 -152 86 -249.5t224 -97.5z" />
    <glyph glyph-name="agrave.ss03" horiz-adv-x="1335" 
d="M559 1612l160 -412h-156l-268 412h264zM950 895l6 174h256v-1069h-254l-8 174h-16q-136 -199 -387 -199q-149 0 -264.5 74.5t-176.5 201.5t-61 284t61 284t176.5 201t264.5 74q250 0 385 -199h18zM625 188q120 0 202.5 54t118.5 139v307q-36 85 -118.5 139t-202.5 54
q-138 0 -224 -97.5t-86 -248.5q0 -152 86 -249.5t224 -97.5z" />
    <glyph glyph-name="amacron.ss03" horiz-adv-x="1335" 
d="M350 1401h637v-201h-637v201zM950 895l6 174h256v-1069h-254l-8 174h-16q-136 -199 -387 -199q-149 0 -264.5 74.5t-176.5 201.5t-61 284t61 284t176.5 201t264.5 74q250 0 385 -199h18zM625 188q120 0 202.5 54t118.5 139v307q-36 85 -118.5 139t-202.5 54
q-138 0 -224 -97.5t-86 -248.5q0 -152 86 -249.5t224 -97.5z" />
    <glyph glyph-name="aogonek.ss03" horiz-adv-x="1335" 
d="M1145 -301q86 0 147 16v-180q-89 -27 -194 -27q-139 0 -229.5 64t-90.5 180q0 83 46 158t132 119l-6 145h-16q-136 -199 -387 -199q-149 0 -264.5 74.5t-176.5 201.5t-61 284t61 284t176.5 201t264.5 74q250 0 385 -199h18l6 174h256v-1069h-51q-180 -82 -180 -188
q0 -113 164 -113zM625 188q120 0 202.5 54t118.5 139v307q-36 85 -118.5 139t-202.5 54q-138 0 -224 -97.5t-86 -248.5q0 -152 86 -249.5t224 -97.5z" />
    <glyph glyph-name="aring.ss03" horiz-adv-x="1335" 
d="M668 1182q-121 0 -199 72.5t-78 187.5q0 111 78.5 184.5t198.5 73.5q119 0 196.5 -73.5t77.5 -184.5q0 -115 -77 -187.5t-197 -72.5zM668 1552q-49 0 -81 -32t-32 -78q0 -48 32 -79.5t81 -31.5t80.5 31.5t31.5 79.5q0 46 -31.5 78t-80.5 32zM950 895l6 174h256v-1069
h-254l-8 174h-16q-136 -199 -387 -199q-149 0 -264.5 74.5t-176.5 201.5t-61 284t61 284t176.5 201t264.5 74q250 0 385 -199h18zM625 188q120 0 202.5 54t118.5 139v307q-36 85 -118.5 139t-202.5 54q-138 0 -224 -97.5t-86 -248.5q0 -152 86 -249.5t224 -97.5z" />
    <glyph glyph-name="atilde.ss03" horiz-adv-x="1335" 
d="M412 1200h-160q-8 167 53.5 271t175.5 104q49 0 85.5 -17.5t76.5 -52.5l96 -84q33 -27 51 -36t39 -9q77 0 82 183h160q8 -168 -53.5 -272.5t-175.5 -104.5q-48 0 -83.5 16.5t-76.5 50.5l-98 84q-33 28 -50.5 37.5t-39.5 9.5q-77 0 -82 -180zM950 895l6 174h256v-1069
h-254l-8 174h-16q-136 -199 -387 -199q-149 0 -264.5 74.5t-176.5 201.5t-61 284t61 284t176.5 201t264.5 74q250 0 385 -199h18zM625 188q120 0 202.5 54t118.5 139v307q-36 85 -118.5 139t-202.5 54q-138 0 -224 -97.5t-86 -248.5q0 -152 86 -249.5t224 -97.5z" />
    <glyph glyph-name="g.ss04" horiz-adv-x="1335" 
d="M950 895l6 174h256v-799q0 -151 -43 -264t-124 -181.5t-189 -102t-244 -33.5q-150 0 -284 54t-205 167l178 121q105 -131 303 -131q342 0 342 319v29h-16q-137 -195 -383 -195q-148 0 -264 72.5t-177 190.5t-61 257t61 257t177 191t264 73q251 0 387 -199h16zM315 573
q0 -139 79.5 -222t230.5 -83q113 0 198.5 55t122.5 140v223q-37 85 -122.5 140t-198.5 55q-151 0 -230.5 -84t-79.5 -224z" />
    <glyph glyph-name="gbreve.ss04" horiz-adv-x="1335" 
d="M657 1180q-75 0 -140 25t-114 72t-76 122t-24 168h178q11 -191 176 -191q168 0 177 191h180q4 -184 -98.5 -285.5t-258.5 -101.5zM950 895l6 174h256v-799q0 -151 -43 -264t-124 -181.5t-189 -102t-244 -33.5q-150 0 -284 54t-205 167l178 121q105 -131 303 -131
q342 0 342 319v29h-16q-137 -195 -383 -195q-148 0 -264 72.5t-177 190.5t-61 257t61 257t177 191t264 73q251 0 387 -199h16zM315 573q0 -139 79.5 -222t230.5 -83q113 0 198.5 55t122.5 140v223q-37 85 -122.5 140t-198.5 55q-151 0 -230.5 -84t-79.5 -224z" />
    <glyph glyph-name="gcircumflex.ss04" horiz-adv-x="1335" 
d="M866 1200l-207 195l-208 -195h-177l269 371h229l270 -371h-176zM950 895l6 174h256v-799q0 -151 -43 -264t-124 -181.5t-189 -102t-244 -33.5q-150 0 -284 54t-205 167l178 121q105 -131 303 -131q342 0 342 319v29h-16q-137 -195 -383 -195q-148 0 -264 72.5t-177 190.5
t-61 257t61 257t177 191t264 73q251 0 387 -199h16zM315 573q0 -139 79.5 -222t230.5 -83q113 0 198.5 55t122.5 140v223q-37 85 -122.5 140t-198.5 55q-151 0 -230.5 -84t-79.5 -224z" />
    <glyph glyph-name="uni0123.ss04" horiz-adv-x="1335" 
d="M612 1403h191v-203h-309v273q0 111 46.5 154.5t161.5 43.5h101v-96h-66q-74 0 -99.5 -17t-25.5 -73v-82zM950 895l6 174h256v-799q0 -151 -43 -264t-124 -181.5t-189 -102t-244 -33.5q-150 0 -284 54t-205 167l178 121q105 -131 303 -131q342 0 342 319v29h-16
q-137 -195 -383 -195q-148 0 -264 72.5t-177 190.5t-61 257t61 257t177 191t264 73q251 0 387 -199h16zM315 573q0 -139 79.5 -222t230.5 -83q113 0 198.5 55t122.5 140v223q-37 85 -122.5 140t-198.5 55q-151 0 -230.5 -84t-79.5 -224z" />
    <glyph glyph-name="gdotaccent.ss04" horiz-adv-x="1335" 
d="M524 1456h269v-256h-269v256zM950 895l6 174h256v-799q0 -151 -43 -264t-124 -181.5t-189 -102t-244 -33.5q-150 0 -284 54t-205 167l178 121q105 -131 303 -131q342 0 342 319v29h-16q-137 -195 -383 -195q-148 0 -264 72.5t-177 190.5t-61 257t61 257t177 191t264 73
q251 0 387 -199h16zM315 573q0 -139 79.5 -222t230.5 -83q113 0 198.5 55t122.5 140v223q-37 85 -122.5 140t-198.5 55q-151 0 -230.5 -84t-79.5 -224z" />
    <glyph glyph-name="a.sc" horiz-adv-x="1376" 
d="M1413 0h-297l-88 193h-692l-88 -193h-285l567 1190h318zM674 924l-228 -492h472l-228 492h-16z" />
    <glyph glyph-name="aacute.sc" horiz-adv-x="1376" 
d="M381 1430l614 192v-236l-614 -106v150zM1413 0h-297l-88 193h-692l-88 -193h-285l567 1190h318zM674 924l-228 -492h472l-228 492h-16z" />
    <glyph glyph-name="abreve.sc" horiz-adv-x="1376" 
d="M690 1280q-168 0 -268.5 94t-93.5 250h168q11 -75 58 -111t136 -36q174 0 193 147h168q9 -156 -92 -250t-269 -94zM1413 0h-297l-88 193h-692l-88 -193h-285l567 1190h318zM674 924l-228 -492h472l-228 492h-16z" />
    <glyph glyph-name="acircumflex.sc" horiz-adv-x="1376" 
d="M1044 1417v-137l-350 127l-362 -127v137l319 185h92zM1413 0h-297l-88 193h-692l-88 -193h-285l567 1190h318zM674 924l-228 -492h472l-228 492h-16z" />
    <glyph glyph-name="adieresis.sc" horiz-adv-x="1376" 
d="M322 1532h245v-236h-245v236zM813 1532h244v-236h-244v236zM1413 0h-297l-88 193h-692l-88 -193h-285l567 1190h318zM674 924l-228 -492h472l-228 492h-16z" />
    <glyph glyph-name="agrave.sc" horiz-adv-x="1376" 
d="M381 1622l614 -192v-150l-614 106v236zM1413 0h-297l-88 193h-692l-88 -193h-285l567 1190h318zM674 924l-228 -492h472l-228 492h-16z" />
    <glyph glyph-name="amacron.sc" horiz-adv-x="1376" 
d="M367 1481h645v-185h-645v185zM1413 0h-297l-88 193h-692l-88 -193h-285l567 1190h318zM674 924l-228 -492h472l-228 492h-16z" />
    <glyph glyph-name="aogonek.sc" horiz-adv-x="1376" 
d="M1319 -272q90 0 149 14v-191q-97 -26 -217 -26q-86 0 -155 25t-113.5 80t-44.5 134q0 150 172 248l-82 181h-692l-88 -193h-285l567 1190h318l565 -1190h-76q-92 -37 -136 -78.5t-44 -91.5q0 -102 162 -102zM674 924l-228 -492h472l-228 492h-16z" />
    <glyph glyph-name="aring.sc" horiz-adv-x="1376" 
d="M690 1280q-119 0 -192.5 62.5t-73.5 158.5t73.5 158.5t192.5 62.5t191.5 -62.5t72.5 -158.5t-72.5 -158.5t-191.5 -62.5zM690 1587q-46 0 -74 -25t-28 -61t28 -60t74 -24q45 0 74 24t29 60t-29 61t-74 25zM1413 0h-297l-88 193h-692l-88 -193h-285l567 1190h318zM674 924
l-228 -492h472l-228 492h-16z" />
    <glyph glyph-name="atilde.sc" horiz-adv-x="1376" 
d="M459 1296h-154q-6 142 51.5 230t163.5 88q43 0 73 -11.5t73 -39.5l102 -62q46 -28 80 -28q21 0 33.5 6.5t24 35.5t14.5 84h153q8 -140 -49.5 -228.5t-163.5 -88.5q-45 0 -73.5 10t-69.5 37l-105 64q-52 30 -82 30q-31 0 -49 -24.5t-22 -102.5zM1413 0h-297l-88 193h-692
l-88 -193h-285l567 1190h318zM674 924l-228 -492h472l-228 492h-16z" />
    <glyph glyph-name="ae.sc" horiz-adv-x="2039" 
d="M1169 528v-284h801v-244h-1065v229h-559l-170 -229h-315l897 1190h1192v-246h-781v-170h711v-246h-711zM879 946l-355 -477h381v477h-26z" />
    <glyph glyph-name="aeacute.sc" horiz-adv-x="2039" 
d="M922 1430l614 192v-236l-614 -106v150zM1169 528v-284h801v-244h-1065v229h-559l-170 -229h-315l897 1190h1192v-246h-781v-170h711v-246h-711zM879 946l-355 -477h381v477h-26z" />
    <glyph glyph-name="b.sc" horiz-adv-x="1384" 
d="M883 0h-736v1190h738q189 0 297 -79.5t108 -205.5q0 -197 -237 -254v-12q129 -34 198.5 -108.5t69.5 -180.5q0 -69 -30 -131.5t-85 -111.5t-139 -78t-184 -29zM414 948v-194h469q145 0 145 96q0 98 -143 98h-471zM414 522v-280h446q91 0 137.5 40t46.5 105q0 59 -46.5 97
t-137.5 38h-446z" />
    <glyph glyph-name="c.sc" horiz-adv-x="1384" 
d="M756 -25q-155 0 -286 47.5t-220.5 131t-140 198t-50.5 246.5q0 129 50.5 242t140 195t221 129.5t285.5 47.5q199 0 344.5 -75t226.5 -213l-217 -138q-64 93 -148.5 135t-205.5 42q-199 0 -312.5 -101.5t-113.5 -263.5q0 -168 113 -269.5t313 -101.5q131 0 231.5 49
t155.5 134l203 -134q-85 -137 -238.5 -219t-351.5 -82z" />
    <glyph glyph-name="cacute.sc" horiz-adv-x="1384" 
d="M1038 1386l-614 -106v150l614 192v-236zM756 -25q-155 0 -286 47.5t-220.5 131t-140 198t-50.5 246.5q0 129 50.5 242t140 195t221 129.5t285.5 47.5q199 0 344.5 -75t226.5 -213l-217 -138q-64 93 -148.5 135t-205.5 42q-199 0 -312.5 -101.5t-113.5 -263.5
q0 -168 113 -269.5t313 -101.5q131 0 231.5 49t155.5 134l203 -134q-85 -137 -238.5 -219t-351.5 -82z" />
    <glyph glyph-name="ccaron.sc" horiz-adv-x="1384" 
d="M375 1479v137l362 -127l350 127v-137l-301 -183h-92zM756 -25q-155 0 -286 47.5t-220.5 131t-140 198t-50.5 246.5q0 129 50.5 242t140 195t221 129.5t285.5 47.5q199 0 344.5 -75t226.5 -213l-217 -138q-64 93 -148.5 135t-205.5 42q-199 0 -312.5 -101.5t-113.5 -263.5
q0 -168 113 -269.5t313 -101.5q131 0 231.5 49t155.5 134l203 -134q-85 -137 -238.5 -219t-351.5 -82z" />
    <glyph glyph-name="ccedilla.sc" horiz-adv-x="1384" 
d="M1143 410l203 -134q-77 -127 -215 -207t-316 -92l80 -141q-195 -52 -195 -127q0 -29 26 -48t81 -19q48 0 121 18v-190q-93 -17 -154 -17q-145 0 -228 51.5t-83 153.5q0 137 229 225l-55 101q-262 34 -420 203.5t-158 410.5q0 129 50.5 242t140 195t221 129.5t285.5 47.5
q199 0 344.5 -75t226.5 -213l-217 -138q-64 93 -148.5 135t-205.5 42q-199 0 -312.5 -101.5t-113.5 -263.5q0 -168 113 -269.5t313 -101.5q131 0 231.5 49t155.5 134z" />
    <glyph glyph-name="ccircumflex.sc" horiz-adv-x="1384" 
d="M737 1407l-362 -127v137l319 185h92l301 -185v-137zM756 -25q-155 0 -286 47.5t-220.5 131t-140 198t-50.5 246.5q0 129 50.5 242t140 195t221 129.5t285.5 47.5q199 0 344.5 -75t226.5 -213l-217 -138q-64 93 -148.5 135t-205.5 42q-199 0 -312.5 -101.5t-113.5 -263.5
q0 -168 113 -269.5t313 -101.5q131 0 231.5 49t155.5 134l203 -134q-85 -137 -238.5 -219t-351.5 -82z" />
    <glyph glyph-name="cdotaccent.sc" horiz-adv-x="1384" 
d="M852 1296h-246v236h246v-236zM756 -25q-155 0 -286 47.5t-220.5 131t-140 198t-50.5 246.5q0 129 50.5 242t140 195t221 129.5t285.5 47.5q199 0 344.5 -75t226.5 -213l-217 -138q-64 93 -148.5 135t-205.5 42q-199 0 -312.5 -101.5t-113.5 -263.5q0 -168 113 -269.5
t313 -101.5q131 0 231.5 49t155.5 134l203 -134q-85 -137 -238.5 -219t-351.5 -82z" />
    <glyph glyph-name="d.sc" horiz-adv-x="1452" 
d="M672 0h-525v1190h525q340 0 530.5 -157t190.5 -437t-190 -438t-531 -158zM414 944v-700h250q213 0 335.5 93t122.5 257t-122.5 257t-335.5 93h-250z" />
    <glyph glyph-name="eth.sc" horiz-adv-x="1452" 
d="M147 1190h525q340 0 530.5 -157t190.5 -437t-190 -438t-531 -158h-525v506h-145v186h145v498zM414 244h250q213 0 335.5 93t122.5 257t-122.5 257t-335.5 93h-250v-252h368v-186h-368v-262z" />
    <glyph glyph-name="dcaron.sc" horiz-adv-x="1452" 
d="M336 1479v137l362 -127l351 127v-137l-301 -183h-93zM672 0h-525v1190h525q340 0 530.5 -157t190.5 -437t-190 -438t-531 -158zM414 944v-700h250q213 0 335.5 93t122.5 257t-122.5 257t-335.5 93h-250z" />
    <glyph glyph-name="dcroat.sc" horiz-adv-x="1452" 
d="M147 1190h525q340 0 530.5 -157t190.5 -437t-190 -438t-531 -158h-525v506h-145v186h145v498zM414 244h250q213 0 335.5 93t122.5 257t-122.5 257t-335.5 93h-250v-252h368v-186h-368v-262z" />
    <glyph glyph-name="e.sc" horiz-adv-x="1284" 
d="M1214 0h-1067v1190h1049v-246h-782v-170h708v-246h-708v-284h800v-244z" />
    <glyph glyph-name="eacute.sc" horiz-adv-x="1284" 
d="M973 1386l-615 -106v150l615 192v-236zM1214 0h-1067v1190h1049v-246h-782v-170h708v-246h-708v-284h800v-244z" />
    <glyph glyph-name="ebreve.sc" horiz-adv-x="1284" 
d="M668 1280q-168 0 -269 94t-94 250h168q11 -75 58.5 -111t136.5 -36q173 0 192 147h168q9 -156 -91.5 -250t-268.5 -94zM1214 0h-1067v1190h1049v-246h-782v-170h708v-246h-708v-284h800v-244z" />
    <glyph glyph-name="ecaron.sc" horiz-adv-x="1284" 
d="M309 1479v137l363 -127l350 127v-137l-301 -183h-92zM1214 0h-1067v1190h1049v-246h-782v-170h708v-246h-708v-284h800v-244z" />
    <glyph glyph-name="ecircumflex.sc" horiz-adv-x="1284" 
d="M672 1407l-363 -127v137l320 185h92l301 -185v-137zM1214 0h-1067v1190h1049v-246h-782v-170h708v-246h-708v-284h800v-244z" />
    <glyph glyph-name="edieresis.sc" horiz-adv-x="1284" 
d="M545 1296h-246v236h246v-236zM1034 1296h-243v236h243v-236zM1214 0h-1067v1190h1049v-246h-782v-170h708v-246h-708v-284h800v-244z" />
    <glyph glyph-name="edotaccent.sc" horiz-adv-x="1284" 
d="M788 1296h-245v236h245v-236zM1214 0h-1067v1190h1049v-246h-782v-170h708v-246h-708v-284h800v-244z" />
    <glyph glyph-name="egrave.sc" horiz-adv-x="1284" 
d="M975 1430v-150l-615 106v236zM1214 0h-1067v1190h1049v-246h-782v-170h708v-246h-708v-284h800v-244z" />
    <glyph glyph-name="emacron.sc" horiz-adv-x="1284" 
d="M989 1296h-645v185h645v-185zM1214 0h-1067v1190h1049v-246h-782v-170h708v-246h-708v-284h800v-244z" />
    <glyph glyph-name="eogonek.sc" horiz-adv-x="1284" 
d="M1214 0h-206q-103 -39 -152 -82t-49 -96q0 -103 162 -103q85 0 149 15v-191q-97 -26 -217 -26q-86 0 -155 25t-113.5 80t-44.5 134q0 145 164 244h-605v1190h1049v-246h-782v-170h708v-246h-708v-284h800v-244z" />
    <glyph glyph-name="f.sc" horiz-adv-x="1204" 
d="M414 0h-267v1190h1049v-246h-782v-199h710v-245h-710v-500z" />
    <glyph glyph-name="g.sc" horiz-adv-x="1490" 
d="M772 -25q-158 0 -292 46t-226 126t-143.5 190.5t-51.5 237.5q0 290 193 463.5t502 173.5q175 0 330.5 -63t242.5 -193l-215 -137q-118 148 -360 148q-107 0 -189 -29.5t-132.5 -81.5t-75.5 -120t-25 -150q0 -159 114.5 -260t315.5 -101q228 0 358 68v229h-366v221h622
v-591q-260 -177 -602 -177z" />
    <glyph glyph-name="gbreve.sc" horiz-adv-x="1490" 
d="M743 1280q-168 0 -268.5 94t-93.5 250h168q11 -75 58 -111t136 -36q174 0 193 147h168q9 -156 -92 -250t-269 -94zM772 -25q-158 0 -292 46t-226 126t-143.5 190.5t-51.5 237.5q0 290 193 463.5t502 173.5q175 0 330.5 -63t242.5 -193l-215 -137q-118 148 -360 148
q-107 0 -189 -29.5t-132.5 -81.5t-75.5 -120t-25 -150q0 -159 114.5 -260t315.5 -101q228 0 358 68v229h-366v221h622v-591q-260 -177 -602 -177z" />
    <glyph glyph-name="gcircumflex.sc" horiz-adv-x="1490" 
d="M748 1407l-363 -127v137l320 185h92l301 -185v-137zM772 -25q-158 0 -292 46t-226 126t-143.5 190.5t-51.5 237.5q0 290 193 463.5t502 173.5q175 0 330.5 -63t242.5 -193l-215 -137q-118 148 -360 148q-107 0 -189 -29.5t-132.5 -81.5t-75.5 -120t-25 -150
q0 -159 114.5 -260t315.5 -101q228 0 358 68v229h-366v221h622v-591q-260 -177 -602 -177z" />
    <glyph glyph-name="uni0123.sc" horiz-adv-x="1490" 
d="M772 -25q-158 0 -292 46t-226 126t-143.5 190.5t-51.5 237.5q0 290 193 463.5t502 173.5q175 0 330.5 -63t242.5 -193l-215 -137q-118 148 -360 148q-107 0 -189 -29.5t-132.5 -81.5t-75.5 -120t-25 -150q0 -159 114.5 -260t315.5 -101q228 0 358 68v229h-366v221h622
v-591q-260 -177 -602 -177zM713 -571h-101v96h64q69 0 95 14.5t26 63.5v63h-185v203h303v-252q0 -99 -43.5 -143.5t-158.5 -44.5z" />
    <glyph glyph-name="gdotaccent.sc" horiz-adv-x="1490" 
d="M862 1296h-246v236h246v-236zM772 -25q-158 0 -292 46t-226 126t-143.5 190.5t-51.5 237.5q0 290 193 463.5t502 173.5q175 0 330.5 -63t242.5 -193l-215 -137q-118 148 -360 148q-107 0 -189 -29.5t-132.5 -81.5t-75.5 -120t-25 -150q0 -159 114.5 -260t315.5 -101
q228 0 358 68v229h-366v221h622v-591q-260 -177 -602 -177z" />
    <glyph glyph-name="h.sc" horiz-adv-x="1513" 
d="M414 0h-267v1190h267v-414h686v414h266v-1190h-266v528h-686v-528z" />
    <glyph glyph-name="hbar.sc" horiz-adv-x="1513" 
d="M1366 1057h145v-176h-145v-881h-266v528h-686v-528h-267v881h-145v176h145v133h267v-133h686v133h266v-133zM414 776h686v105h-686v-105z" />
    <glyph glyph-name="hcircumflex.sc" horiz-adv-x="1513" 
d="M762 1407l-363 -127v137l320 185h92l301 -185v-137zM414 0h-267v1190h267v-414h686v414h266v-1190h-266v528h-686v-528z" />
    <glyph glyph-name="i.sc" horiz-adv-x="559" 
d="M147 0v1190h267v-1190h-267z" />
    <glyph glyph-name="dotlessi.sc" horiz-adv-x="559" 
d="M147 0v1190h267v-1190h-267z" />
    <glyph glyph-name="iacute.sc" horiz-adv-x="559" 
d="M588 1386l-615 -106v150l615 192v-236zM147 0v1190h267v-1190h-267z" />
    <glyph glyph-name="ibreve.sc" horiz-adv-x="559" 
d="M281 1280q-168 0 -269 94t-94 250h168q11 -75 58.5 -111t136.5 -36q173 0 192 147h168q9 -156 -91.5 -250t-268.5 -94zM147 0v1190h267v-1190h-267z" />
    <glyph glyph-name="icircumflex.sc" horiz-adv-x="559" 
d="M285 1407l-363 -127v137l320 185h92l301 -185v-137zM147 0v1190h267v-1190h-267z" />
    <glyph glyph-name="idieresis.sc" horiz-adv-x="559" 
d="M160 1296h-246v236h246v-236zM649 1296h-243v236h243v-236zM147 0v1190h267v-1190h-267z" />
    <glyph glyph-name="i.sc.loclTRK" horiz-adv-x="559" 
d="M401 1296h-245v236h245v-236zM147 0v1190h267v-1190h-267z" />
    <glyph glyph-name="igrave.sc" horiz-adv-x="559" 
d="M588 1430v-150l-615 106v236zM147 0v1190h267v-1190h-267z" />
    <glyph glyph-name="ij.sc" horiz-adv-x="1355" 
d="M393 655h-266v535h266v-535zM676 -23q-246 0 -390.5 131.5t-154.5 387.5h268q12 -142 82 -204.5t203 -62.5q279 0 279 297v664h266v-664q0 -260 -150.5 -404.5t-402.5 -144.5z" />
    <glyph glyph-name="imacron.sc" horiz-adv-x="559" 
d="M602 1296h-645v185h645v-185zM147 0v1190h267v-1190h-267z" />
    <glyph glyph-name="iogonek.sc" horiz-adv-x="559" 
d="M346 -281q86 0 150 15v-191q-97 -26 -217 -26q-86 0 -155.5 25t-114 80t-44.5 134q0 157 182 254v1180h267v-1190h-29q-103 -39 -152 -82t-49 -96q0 -103 162 -103z" />
    <glyph glyph-name="itilde.sc" horiz-adv-x="559" 
d="M451 1282q-45 0 -74 10t-70 37l-104 64q-52 30 -82 30q-31 0 -49.5 -24.5t-22.5 -102.5h-153q-6 142 51.5 230t163.5 88q42 0 72 -11.5t73 -39.5l102 -62q46 -28 80 -28q21 0 33.5 6.5t24 35.5t14.5 84h154q8 -140 -49.5 -228.5t-163.5 -88.5zM147 0v1190h267v-1190h-267
z" />
    <glyph glyph-name="j.sc" horiz-adv-x="1245" 
d="M565 -25q-252 0 -397 147t-145 419h268q0 -314 282 -314q279 0 279 297v666h266v-666q0 -260 -150.5 -404.5t-402.5 -144.5z" />
    <glyph glyph-name="jcircumflex.sc" horiz-adv-x="1245" 
d="M991 1407l-362 -127v137l319 185h92l301 -185v-137zM565 -25q-252 0 -397 147t-145 419h268q0 -314 282 -314q279 0 279 297v666h266v-666q0 -260 -150.5 -404.5t-402.5 -144.5z" />
    <glyph glyph-name="k.sc" horiz-adv-x="1439" 
d="M915 838l566 -838h-314l-456 672l-297 -244v-428h-267v1190h267v-432h26l521 432h385z" />
    <glyph glyph-name="uni0137.sc" horiz-adv-x="1439" 
d="M1346 1190l-431 -352l566 -838h-314l-456 672l-297 -244v-428h-267v1190h267v-432h26l521 432h385zM803 -334h-185v203h304v-252q0 -99 -44 -143.5t-159 -44.5h-101v96h64q69 0 95 14.5t26 63.5v63z" />
    <glyph glyph-name="l.sc" horiz-adv-x="1138" 
d="M1139 0h-992v1190h267v-944h725v-246z" />
    <glyph glyph-name="lacute.sc" horiz-adv-x="1138" 
d="M692 1386l-614 -106v150l614 192v-236zM1139 0h-992v1190h267v-944h725v-246z" />
    <glyph glyph-name="lcaron.sc" horiz-adv-x="1138" 
d="M1139 0h-992v1190h267v-944h725v-246zM844 721h-172l-21 469h213z" />
    <glyph glyph-name="uni013C.sc" horiz-adv-x="1138" 
d="M1139 0h-992v1190h267v-944h725v-246zM610 -571h-100v96h63q69 0 95 14.5t26 63.5v63h-184v203h303v-252q0 -99 -44 -143.5t-159 -44.5z" />
    <glyph glyph-name="ldot.sc" horiz-adv-x="1138" 
d="M1139 0h-992v1190h267v-944h725v-246zM909 494h-245v245h245v-245z" />
    <glyph glyph-name="lslash.sc" horiz-adv-x="1138" 
d="M414 635v-389h725v-246h-992v489l-122 -67v205l122 67v496h267v-350l239 131v-205z" />
    <glyph glyph-name="m.sc" horiz-adv-x="1835" 
d="M414 0h-267v1190h398l364 -690h17l366 690h396v-1190h-265v891h-16l-367 -684h-245l-367 684h-14v-891z" />
    <glyph glyph-name="n.sc" horiz-adv-x="1548" 
d="M414 0h-267v1190h351l624 -854h15v854h266v-1190h-352l-623 858h-14v-858z" />
    <glyph glyph-name="nacute.sc" horiz-adv-x="1548" 
d="M1120 1386l-614 -106v150l614 192v-236zM414 0h-267v1190h351l624 -854h15v854h266v-1190h-352l-623 858h-14v-858z" />
    <glyph glyph-name="ncaron.sc" horiz-adv-x="1548" 
d="M455 1479v137l362 -127l350 127v-137l-301 -183h-92zM414 0h-267v1190h351l624 -854h15v854h266v-1190h-352l-623 858h-14v-858z" />
    <glyph glyph-name="uni0146.sc" horiz-adv-x="1548" 
d="M414 0h-267v1190h351l624 -854h15v854h266v-1190h-352l-623 858h-14v-858zM723 -571h-100v96h63q69 0 95 14.5t26 63.5v63h-184v203h303v-252q0 -99 -44 -143.5t-159 -44.5z" />
    <glyph glyph-name="eng.sc" horiz-adv-x="1548" 
d="M1178 -246h-349v213h226q35 0 54.5 9.5t23.5 19t4 24.5v17l-709 823h-14v-860h-267v1190h351l624 -739h15v739h266v-1215q0 -37 -4.5 -65.5t-18.5 -59t-37.5 -50.5t-65.5 -33t-99 -13z" />
    <glyph glyph-name="ntilde.sc" horiz-adv-x="1548" 
d="M983 1282q-45 0 -73.5 10t-69.5 37l-105 64q-52 30 -82 30q-31 0 -49 -24.5t-22 -102.5h-154q-6 142 51.5 230t163.5 88q42 0 72 -11.5t73 -39.5l103 -62q46 -28 80 -28q21 0 33.5 6.5t23.5 35.5t14 84h154q8 -140 -49.5 -228.5t-163.5 -88.5zM414 0h-267v1190h351
l624 -854h15v854h266v-1190h-352l-623 858h-14v-858z" />
    <glyph glyph-name="o.sc" horiz-adv-x="1521" 
d="M762 -25q-158 0 -290.5 47.5t-222.5 131t-140 198t-50 246.5q0 129 49.5 241.5t139.5 195t222.5 130t291.5 47.5q155 0 287 -47.5t222 -129.5t140.5 -195t50.5 -242q0 -132 -49 -246.5t-138.5 -198t-221.5 -131t-291 -47.5zM762 227q207 0 319.5 101.5t112.5 269.5
q0 163 -113 264t-319 101t-319 -101t-113 -264q0 -168 112 -269.5t320 -101.5z" />
    <glyph glyph-name="oacute.sc" horiz-adv-x="1521" 
d="M1069 1386l-614 -106v150l614 192v-236zM762 -25q-158 0 -290.5 47.5t-222.5 131t-140 198t-50 246.5q0 129 49.5 241.5t139.5 195t222.5 130t291.5 47.5q155 0 287 -47.5t222 -129.5t140.5 -195t50.5 -242q0 -132 -49 -246.5t-138.5 -198t-221.5 -131t-291 -47.5z
M762 227q207 0 319.5 101.5t112.5 269.5q0 163 -113 264t-319 101t-319 -101t-113 -264q0 -168 112 -269.5t320 -101.5z" />
    <glyph glyph-name="obreve.sc" horiz-adv-x="1521" 
d="M762 1280q-168 0 -269 94t-94 250h168q11 -75 58.5 -111t136.5 -36q173 0 192 147h168q9 -156 -91.5 -250t-268.5 -94zM762 -25q-158 0 -290.5 47.5t-222.5 131t-140 198t-50 246.5q0 129 49.5 241.5t139.5 195t222.5 130t291.5 47.5q155 0 287 -47.5t222 -129.5
t140.5 -195t50.5 -242q0 -132 -49 -246.5t-138.5 -198t-221.5 -131t-291 -47.5zM762 227q207 0 319.5 101.5t112.5 269.5q0 163 -113 264t-319 101t-319 -101t-113 -264q0 -168 112 -269.5t320 -101.5z" />
    <glyph glyph-name="ocircumflex.sc" horiz-adv-x="1521" 
d="M766 1407l-363 -127v137l320 185h92l301 -185v-137zM762 -25q-158 0 -290.5 47.5t-222.5 131t-140 198t-50 246.5q0 129 49.5 241.5t139.5 195t222.5 130t291.5 47.5q155 0 287 -47.5t222 -129.5t140.5 -195t50.5 -242q0 -132 -49 -246.5t-138.5 -198t-221.5 -131
t-291 -47.5zM762 227q207 0 319.5 101.5t112.5 269.5q0 163 -113 264t-319 101t-319 -101t-113 -264q0 -168 112 -269.5t320 -101.5z" />
    <glyph glyph-name="odieresis.sc" horiz-adv-x="1521" 
d="M639 1296h-246v236h246v-236zM1128 1296h-243v236h243v-236zM762 -25q-158 0 -290.5 47.5t-222.5 131t-140 198t-50 246.5q0 129 49.5 241.5t139.5 195t222.5 130t291.5 47.5q155 0 287 -47.5t222 -129.5t140.5 -195t50.5 -242q0 -132 -49 -246.5t-138.5 -198
t-221.5 -131t-291 -47.5zM762 227q207 0 319.5 101.5t112.5 269.5q0 163 -113 264t-319 101t-319 -101t-113 -264q0 -168 112 -269.5t320 -101.5z" />
    <glyph glyph-name="ograve.sc" horiz-adv-x="1521" 
d="M1069 1430v-150l-614 106v236zM762 -25q-158 0 -290.5 47.5t-222.5 131t-140 198t-50 246.5q0 129 49.5 241.5t139.5 195t222.5 130t291.5 47.5q155 0 287 -47.5t222 -129.5t140.5 -195t50.5 -242q0 -132 -49 -246.5t-138.5 -198t-221.5 -131t-291 -47.5zM762 227
q207 0 319.5 101.5t112.5 269.5q0 163 -113 264t-319 101t-319 -101t-113 -264q0 -168 112 -269.5t320 -101.5z" />
    <glyph glyph-name="ohungarumlaut.sc" horiz-adv-x="1521" 
d="M829 1495l-520 -221v166l520 307v-252zM1366 1495l-520 -221v166l520 307v-252zM762 -25q-158 0 -290.5 47.5t-222.5 131t-140 198t-50 246.5q0 129 49.5 241.5t139.5 195t222.5 130t291.5 47.5q155 0 287 -47.5t222 -129.5t140.5 -195t50.5 -242q0 -132 -49 -246.5
t-138.5 -198t-221.5 -131t-291 -47.5zM762 227q207 0 319.5 101.5t112.5 269.5q0 163 -113 264t-319 101t-319 -101t-113 -264q0 -168 112 -269.5t320 -101.5z" />
    <glyph glyph-name="omacron.sc" horiz-adv-x="1521" 
d="M1083 1296h-645v185h645v-185zM762 -25q-158 0 -290.5 47.5t-222.5 131t-140 198t-50 246.5q0 129 49.5 241.5t139.5 195t222.5 130t291.5 47.5q155 0 287 -47.5t222 -129.5t140.5 -195t50.5 -242q0 -132 -49 -246.5t-138.5 -198t-221.5 -131t-291 -47.5zM762 227
q207 0 319.5 101.5t112.5 269.5q0 163 -113 264t-319 101t-319 -101t-113 -264q0 -168 112 -269.5t320 -101.5z" />
    <glyph glyph-name="oslash.sc" horiz-adv-x="1521" 
d="M1300 1331l-131 -223q139 -82 216 -215.5t77 -294.5q0 -132 -49 -246.5t-138.5 -198t-221.5 -131t-291 -47.5q-127 0 -242 31l-82 -139h-215l125 213q-137 84 -213 218.5t-76 299.5q0 129 49.5 241.5t139.5 195t222.5 130t291.5 47.5q125 0 233 -30l88 149h217zM330 598
q0 -198 147 -297l385 653q-47 9 -100 9q-206 0 -319 -101t-113 -264zM762 227q207 0 319.5 101.5t112.5 269.5q0 95 -39 170.5t-113 122.5l-387 -655q50 -9 107 -9z" />
    <glyph glyph-name="otilde.sc" horiz-adv-x="1521" 
d="M932 1282q-45 0 -74 10t-70 37l-104 64q-52 30 -82 30q-31 0 -49.5 -24.5t-22.5 -102.5h-153q-6 142 51.5 230t163.5 88q42 0 72 -11.5t73 -39.5l103 -62q46 -28 80 -28q21 0 33.5 6.5t23.5 35.5t14 84h154q8 -140 -49.5 -228.5t-163.5 -88.5zM762 -25
q-158 0 -290.5 47.5t-222.5 131t-140 198t-50 246.5q0 129 49.5 241.5t139.5 195t222.5 130t291.5 47.5q155 0 287 -47.5t222 -129.5t140.5 -195t50.5 -242q0 -132 -49 -246.5t-138.5 -198t-221.5 -131t-291 -47.5zM762 227q207 0 319.5 101.5t112.5 269.5q0 163 -113 264
t-319 101t-319 -101t-113 -264q0 -168 112 -269.5t320 -101.5z" />
    <glyph glyph-name="oe.sc" horiz-adv-x="2332" 
d="M1462 528v-284h801v-244h-1067v127q-160 -150 -434 -150q-207 0 -368 81.5t-248 222.5t-87 315q0 129 51 242t141.5 195t223 129.5t287.5 47.5q275 0 434 -149v129h1047v-246h-781v-170h711v-246h-711zM762 229q200 0 316 101.5t116 265.5q0 162 -116 263.5t-316 101.5
t-315 -101.5t-115 -263.5q0 -164 114.5 -265.5t315.5 -101.5z" />
    <glyph glyph-name="p.sc" horiz-adv-x="1275" 
d="M414 0h-267v1190h727q182 0 295 -96.5t113 -255.5t-112.5 -254t-295.5 -95h-460v-489zM414 944v-207h463q135 0 135 103q0 104 -135 104h-463z" />
    <glyph glyph-name="thorn.sc" horiz-adv-x="1275" 
d="M414 948h460q182 0 295 -96.5t113 -255.5t-113 -255.5t-295 -96.5h-460v-244h-267v1190h267v-242zM414 494h463q63 0 99 27t36 77q0 47 -36.5 74.5t-98.5 27.5h-463v-206z" />
    <glyph glyph-name="q.sc" horiz-adv-x="1521" 
d="M1462 598q0 -248 -160.5 -417.5t-435.5 -198.5v-21q0 -43 10.5 -58.5t53.5 -15.5h192v-227h-272q-120 0 -179 47.5t-59 159.5v121q-254 39 -403.5 206.5t-149.5 403.5q0 129 49.5 241.5t139.5 195t222.5 130t291.5 47.5q155 0 287 -47.5t222 -129.5t140.5 -195t50.5 -242
zM330 598q0 -168 112 -269.5t320 -101.5q207 0 319.5 101.5t112.5 269.5q0 163 -113 264t-319 101t-319 -101t-113 -264z" />
    <glyph glyph-name="r.sc" horiz-adv-x="1359" 
d="M1049 528l256 -528h-289l-234 496h-368v-496h-267v1190h727q184 0 296 -92.5t112 -253.5q0 -115 -59.5 -195.5t-173.5 -120.5zM877 944h-463v-209h463q63 0 99 27.5t36 77.5t-36.5 77t-98.5 27z" />
    <glyph glyph-name="racute.sc" horiz-adv-x="1359" 
d="M362 1430l615 192v-236l-615 -106v150zM1049 528l256 -528h-289l-234 496h-368v-496h-267v1190h727q184 0 296 -92.5t112 -253.5q0 -115 -59.5 -195.5t-173.5 -120.5zM877 944h-463v-209h463q63 0 99 27.5t36 77.5t-36.5 77t-98.5 27z" />
    <glyph glyph-name="rcaron.sc" horiz-adv-x="1359" 
d="M1026 1479l-301 -183h-92l-320 183v137l363 -127l350 127v-137zM1049 528l256 -528h-289l-234 496h-368v-496h-267v1190h727q184 0 296 -92.5t112 -253.5q0 -115 -59.5 -195.5t-173.5 -120.5zM877 944h-463v-209h463q63 0 99 27.5t36 77.5t-36.5 77t-98.5 27z" />
    <glyph glyph-name="uni0157.sc" horiz-adv-x="1359" 
d="M1049 528l256 -528h-289l-234 496h-368v-496h-267v1190h727q184 0 296 -92.5t112 -253.5q0 -115 -59.5 -195.5t-173.5 -120.5zM877 944h-463v-209h463q63 0 99 27.5t36 77.5t-36.5 77t-98.5 27zM719 -334h-184v203h303v-252q0 -99 -44 -143.5t-159 -44.5h-100v96h63
q69 0 95 14.5t26 63.5v63z" />
    <glyph glyph-name="s.sc" horiz-adv-x="1282" 
d="M643 -25q-421 0 -594 261l184 159q58 -86 164.5 -134t249.5 -48q102 0 175 33t73 94q0 71 -71 104.5t-249 61.5q-53 9 -94 18t-91.5 23.5t-88 31.5t-75 42.5t-61.5 55.5t-39 70.5t-15 88.5q0 96 44.5 171t118.5 118t160.5 65t179.5 22q375 0 560 -260l-213 -135
q-52 73 -146 117.5t-205 44.5q-107 0 -167 -28.5t-60 -76.5q0 -42 55 -65t221 -51q88 -15 154 -31t138 -46.5t118.5 -69.5t76.5 -100t30 -138q0 -94 -48.5 -172t-126.5 -126t-170.5 -74t-187.5 -26z" />
    <glyph glyph-name="sacute.sc" horiz-adv-x="1282" 
d="M938 1386l-614 -106v150l614 192v-236zM643 -25q-421 0 -594 261l184 159q58 -86 164.5 -134t249.5 -48q102 0 175 33t73 94q0 71 -71 104.5t-249 61.5q-53 9 -94 18t-91.5 23.5t-88 31.5t-75 42.5t-61.5 55.5t-39 70.5t-15 88.5q0 96 44.5 171t118.5 118t160.5 65
t179.5 22q375 0 560 -260l-213 -135q-52 73 -146 117.5t-205 44.5q-107 0 -167 -28.5t-60 -76.5q0 -42 55 -65t221 -51q88 -15 154 -31t138 -46.5t118.5 -69.5t76.5 -100t30 -138q0 -94 -48.5 -172t-126.5 -126t-170.5 -74t-187.5 -26z" />
    <glyph glyph-name="scaron.sc" horiz-adv-x="1282" 
d="M274 1479v137l363 -127l350 127v-137l-301 -183h-92zM643 -25q-421 0 -594 261l184 159q58 -86 164.5 -134t249.5 -48q102 0 175 33t73 94q0 71 -71 104.5t-249 61.5q-53 9 -94 18t-91.5 23.5t-88 31.5t-75 42.5t-61.5 55.5t-39 70.5t-15 88.5q0 96 44.5 171t118.5 118
t160.5 65t179.5 22q375 0 560 -260l-213 -135q-52 73 -146 117.5t-205 44.5q-107 0 -167 -28.5t-60 -76.5q0 -42 55 -65t221 -51q88 -15 154 -31t138 -46.5t118.5 -69.5t76.5 -100t30 -138q0 -94 -48.5 -172t-126.5 -126t-170.5 -74t-187.5 -26z" />
    <glyph glyph-name="scedilla.sc" horiz-adv-x="1282" 
d="M1176 373q0 -81 -36.5 -150.5t-98 -117t-137 -78.5t-159.5 -43l84 -148q-196 -53 -196 -127q0 -29 25.5 -48t80.5 -19q49 0 125 18v-188q-90 -19 -153 -19q-149 0 -230.5 51t-81.5 154q0 137 228 225l-54 94q-370 22 -524 259l184 159q58 -86 164.5 -134t249.5 -48
q102 0 175 33t73 94q0 71 -71 104.5t-249 61.5q-53 9 -94 18t-91.5 23.5t-88 31.5t-75 42.5t-61.5 55.5t-39 70.5t-15 88.5q0 96 44.5 171t118.5 118t160.5 65t179.5 22q375 0 560 -260l-213 -135q-52 73 -146 117.5t-205 44.5q-107 0 -167 -28.5t-60 -76.5q0 -42 55 -65
t221 -51q88 -15 154 -31t138 -46.5t118.5 -69.5t76.5 -100t30 -138z" />
    <glyph glyph-name="scircumflex.sc" horiz-adv-x="1282" 
d="M637 1407l-363 -127v137l320 185h92l301 -185v-137zM643 -25q-421 0 -594 261l184 159q58 -86 164.5 -134t249.5 -48q102 0 175 33t73 94q0 71 -71 104.5t-249 61.5q-53 9 -94 18t-91.5 23.5t-88 31.5t-75 42.5t-61.5 55.5t-39 70.5t-15 88.5q0 96 44.5 171t118.5 118
t160.5 65t179.5 22q375 0 560 -260l-213 -135q-52 73 -146 117.5t-205 44.5q-107 0 -167 -28.5t-60 -76.5q0 -42 55 -65t221 -51q88 -15 154 -31t138 -46.5t118.5 -69.5t76.5 -100t30 -138q0 -94 -48.5 -172t-126.5 -126t-170.5 -74t-187.5 -26z" />
    <glyph glyph-name="uni0219.sc" horiz-adv-x="1282" 
d="M643 -25q-421 0 -594 261l184 159q58 -86 164.5 -134t249.5 -48q102 0 175 33t73 94q0 71 -71 104.5t-249 61.5q-53 9 -94 18t-91.5 23.5t-88 31.5t-75 42.5t-61.5 55.5t-39 70.5t-15 88.5q0 96 44.5 171t118.5 118t160.5 65t179.5 22q375 0 560 -260l-213 -135
q-52 73 -146 117.5t-205 44.5q-107 0 -167 -28.5t-60 -76.5q0 -42 55 -65t221 -51q88 -15 154 -31t138 -46.5t118.5 -69.5t76.5 -100t30 -138q0 -94 -48.5 -172t-126.5 -126t-170.5 -74t-187.5 -26zM590 -571h-101v96h64q69 0 95 14.5t26 63.5v63h-185v203h304v-252
q0 -99 -44 -143.5t-159 -44.5z" />
    <glyph glyph-name="germandbls.sc" horiz-adv-x="1470" 
d="M414 0h-267v1190h1141v-242l-379 -248v-8h56q224 0 341 -89t117 -251q0 -70 -28 -132t-82.5 -112t-144 -79t-203.5 -29h-338v242h317q205 0 205 147q0 146 -215 146h-268v192l329 221h-581v-948z" />
    <glyph glyph-name="t.sc" horiz-adv-x="1280" 
d="M774 0h-266v946h-504v244h1272v-244h-502v-946z" />
    <glyph glyph-name="tbar.sc" horiz-adv-x="1280" 
d="M1276 1190v-244h-502v-256h268v-186h-268v-504h-266v504h-246v186h246v256h-504v244h1272z" />
    <glyph glyph-name="tcaron.sc" horiz-adv-x="1280" 
d="M285 1479v137l362 -127l350 127v-137l-301 -183h-92zM774 0h-266v946h-504v244h1272v-244h-502v-946z" />
    <glyph glyph-name="uni0163.sc" horiz-adv-x="1280" 
d="M1276 946h-502v-946h-49l94 -166q-196 -50 -196 -125q0 -29 25.5 -48t80.5 -19q50 0 123 18v-188q-86 -19 -154 -19q-147 0 -229 51t-82 154q0 136 231 225l-69 117h-41v946h-504v244h1272v-244z" />
    <glyph glyph-name="uni021B.sc" horiz-adv-x="1280" 
d="M774 0h-266v946h-504v244h1272v-244h-502v-946zM588 -571h-101v96h64q69 0 95 14.5t26 63.5v63h-185v203h304v-252q0 -99 -44 -143.5t-159 -44.5z" />
    <glyph glyph-name="u.sc" horiz-adv-x="1476" 
d="M739 -25q-179 0 -315 61t-216.5 187.5t-80.5 304.5v662h266v-643q0 -165 85.5 -242.5t258.5 -77.5q174 0 260 80t86 250v633h267v-660q0 -135 -46.5 -242t-129 -174.5t-193 -103t-242.5 -35.5z" />
    <glyph glyph-name="uacute.sc" horiz-adv-x="1476" 
d="M1047 1386l-615 -106v150l615 192v-236zM739 -25q-179 0 -315 61t-216.5 187.5t-80.5 304.5v662h266v-643q0 -165 85.5 -242.5t258.5 -77.5q174 0 260 80t86 250v633h267v-660q0 -135 -46.5 -242t-129 -174.5t-193 -103t-242.5 -35.5z" />
    <glyph glyph-name="ubreve.sc" horiz-adv-x="1476" 
d="M741 1280q-168 0 -268.5 94t-93.5 250h168q11 -75 58 -111t136 -36q174 0 193 147h168q9 -156 -92 -250t-269 -94zM739 -25q-179 0 -315 61t-216.5 187.5t-80.5 304.5v662h266v-643q0 -165 85.5 -242.5t258.5 -77.5q174 0 260 80t86 250v633h267v-660q0 -135 -46.5 -242
t-129 -174.5t-193 -103t-242.5 -35.5z" />
    <glyph glyph-name="ucircumflex.sc" horiz-adv-x="1476" 
d="M745 1407l-362 -127v137l319 185h93l301 -185v-137zM739 -25q-179 0 -315 61t-216.5 187.5t-80.5 304.5v662h266v-643q0 -165 85.5 -242.5t258.5 -77.5q174 0 260 80t86 250v633h267v-660q0 -135 -46.5 -242t-129 -174.5t-193 -103t-242.5 -35.5z" />
    <glyph glyph-name="udieresis.sc" horiz-adv-x="1476" 
d="M618 1296h-245v236h245v-236zM1108 1296h-244v236h244v-236zM739 -25q-179 0 -315 61t-216.5 187.5t-80.5 304.5v662h266v-643q0 -165 85.5 -242.5t258.5 -77.5q174 0 260 80t86 250v633h267v-660q0 -135 -46.5 -242t-129 -174.5t-193 -103t-242.5 -35.5z" />
    <glyph glyph-name="ugrave.sc" horiz-adv-x="1476" 
d="M1047 1430v-150l-615 106v236zM739 -25q-179 0 -315 61t-216.5 187.5t-80.5 304.5v662h266v-643q0 -165 85.5 -242.5t258.5 -77.5q174 0 260 80t86 250v633h267v-660q0 -135 -46.5 -242t-129 -174.5t-193 -103t-242.5 -35.5z" />
    <glyph glyph-name="uhungarumlaut.sc" horiz-adv-x="1476" 
d="M809 1495l-520 -221v166l520 307v-252zM1346 1495l-521 -221v166l521 307v-252zM739 -25q-179 0 -315 61t-216.5 187.5t-80.5 304.5v662h266v-643q0 -165 85.5 -242.5t258.5 -77.5q174 0 260 80t86 250v633h267v-660q0 -135 -46.5 -242t-129 -174.5t-193 -103
t-242.5 -35.5z" />
    <glyph glyph-name="umacron.sc" horiz-adv-x="1476" 
d="M1063 1296h-645v185h645v-185zM739 -25q-179 0 -315 61t-216.5 187.5t-80.5 304.5v662h266v-643q0 -165 85.5 -242.5t258.5 -77.5q174 0 260 80t86 250v633h267v-660q0 -135 -46.5 -242t-129 -174.5t-193 -103t-242.5 -35.5z" />
    <glyph glyph-name="uogonek.sc" horiz-adv-x="1476" 
d="M1083 557v633h267v-660q0 -234 -131.5 -374t-352.5 -172q-161 -66 -161 -162q0 -103 161 -103q86 0 150 15v-191q-97 -26 -217 -26q-86 0 -155.5 25t-114 80t-44.5 134q0 136 138 228q-226 29 -361 168.5t-135 375.5v662h266v-643q0 -165 85.5 -242.5t258.5 -77.5
q174 0 260 80t86 250z" />
    <glyph glyph-name="uring.sc" horiz-adv-x="1476" 
d="M739 1280q-119 0 -192.5 62.5t-73.5 158.5t73.5 158.5t192.5 62.5t192 -62.5t73 -158.5t-73 -158.5t-192 -62.5zM739 1417q45 0 74 24t29 60t-29 61t-74 25q-46 0 -74 -25t-28 -61t28 -60t74 -24zM739 -25q-179 0 -315 61t-216.5 187.5t-80.5 304.5v662h266v-643
q0 -165 85.5 -242.5t258.5 -77.5q174 0 260 80t86 250v633h267v-660q0 -135 -46.5 -242t-129 -174.5t-193 -103t-242.5 -35.5z" />
    <glyph glyph-name="utilde.sc" horiz-adv-x="1476" 
d="M909 1282q-45 0 -73.5 10t-69.5 37l-104 64q-52 30 -82 30q-31 0 -49.5 -24.5t-22.5 -102.5h-154q-6 142 51.5 230t163.5 88q43 0 73 -11.5t73 -39.5l102 -62q46 -28 80 -28q21 0 33.5 6.5t24 35.5t14.5 84h153q8 -140 -49.5 -228.5t-163.5 -88.5zM739 -25
q-179 0 -315 61t-216.5 187.5t-80.5 304.5v662h266v-643q0 -165 85.5 -242.5t258.5 -77.5q174 0 260 80t86 250v633h267v-660q0 -135 -46.5 -242t-129 -174.5t-193 -103t-242.5 -35.5z" />
    <glyph glyph-name="v.sc" horiz-adv-x="1355" 
d="M838 0h-320l-555 1190h297l418 -924h14l418 924h283z" />
    <glyph glyph-name="w.sc" horiz-adv-x="2041" 
d="M719 0h-320l-436 1190h297l295 -879h18l310 879h293l303 -881h16l305 881h279l-439 -1190h-319l-291 788h-14z" />
    <glyph glyph-name="wacute.sc" horiz-adv-x="2041" 
d="M1333 1386l-614 -106v150l614 192v-236zM719 0h-320l-436 1190h297l295 -879h18l310 879h293l303 -881h16l305 881h279l-439 -1190h-319l-291 788h-14z" />
    <glyph glyph-name="wcircumflex.sc" horiz-adv-x="2041" 
d="M1032 1407l-362 -127v137l319 185h92l301 -185v-137zM719 0h-320l-436 1190h297l295 -879h18l310 879h293l303 -881h16l305 881h279l-439 -1190h-319l-291 788h-14z" />
    <glyph glyph-name="wdieresis.sc" horiz-adv-x="2041" 
d="M905 1296h-246v236h246v-236zM1395 1296h-244v236h244v-236zM719 0h-320l-436 1190h297l295 -879h18l310 879h293l303 -881h16l305 881h279l-439 -1190h-319l-291 788h-14z" />
    <glyph glyph-name="wgrave.sc" horiz-adv-x="2041" 
d="M1335 1430v-150l-614 106v236zM719 0h-320l-436 1190h297l295 -879h18l310 879h293l303 -881h16l305 881h279l-439 -1190h-319l-291 788h-14z" />
    <glyph glyph-name="x.sc" horiz-adv-x="1298" 
d="M285 0h-340l538 649l-495 541h331l322 -367h16l322 367h334l-496 -539l539 -651h-344l-355 473h-16z" />
    <glyph glyph-name="y.sc" horiz-adv-x="1230" 
d="M752 0h-267v485l-532 705h321l347 -477h16l344 477h295l-524 -705v-485z" />
    <glyph glyph-name="yacute.sc" horiz-adv-x="1230" 
d="M940 1386l-614 -106v150l614 192v-236zM752 0h-267v485l-532 705h321l347 -477h16l344 477h295l-524 -705v-485z" />
    <glyph glyph-name="ycircumflex.sc" horiz-adv-x="1230" 
d="M639 1407l-363 -127v137l320 185h92l301 -185v-137zM752 0h-267v485l-532 705h321l347 -477h16l344 477h295l-524 -705v-485z" />
    <glyph glyph-name="ydieresis.sc" horiz-adv-x="1230" 
d="M512 1296h-246v236h246v-236zM1001 1296h-243v236h243v-236zM752 0h-267v485l-532 705h321l347 -477h16l344 477h295l-524 -705v-485z" />
    <glyph glyph-name="ygrave.sc" horiz-adv-x="1230" 
d="M940 1430v-150l-614 106v236zM752 0h-267v485l-532 705h321l347 -477h16l344 477h295l-524 -705v-485z" />
    <glyph glyph-name="z.sc" horiz-adv-x="1155" 
d="M1108 0h-1088v221l719 707v16h-700v246h1091v-219l-722 -713v-14h700v-244z" />
    <glyph glyph-name="zacute.sc" horiz-adv-x="1155" 
d="M885 1386l-615 -106v150l615 192v-236zM1108 0h-1088v221l719 707v16h-700v246h1091v-219l-722 -713v-14h700v-244z" />
    <glyph glyph-name="zcaron.sc" horiz-adv-x="1155" 
d="M221 1479v137l363 -127l350 127v-137l-301 -183h-92zM1108 0h-1088v221l719 707v16h-700v246h1091v-219l-722 -713v-14h700v-244z" />
    <glyph glyph-name="zdotaccent.sc" horiz-adv-x="1155" 
d="M698 1296h-245v236h245v-236zM1108 0h-1088v221l719 707v16h-700v246h1091v-219l-722 -713v-14h700v-244z" />
    <glyph glyph-name="g.sc.ss01" horiz-adv-x="1490" 
d="M772 -25q-158 0 -292 46t-226 126t-143.5 190.5t-51.5 237.5q0 290 193 463.5t502 173.5q175 0 330.5 -63t242.5 -193l-215 -137q-118 148 -360 148q-107 0 -189 -29.5t-132.5 -81.5t-75.5 -120t-25 -150q0 -159 114.5 -260t315.5 -101q228 0 358 68v393h256v-534
q-260 -177 -602 -177z" />
    <glyph glyph-name="gbreve.sc.ss01" horiz-adv-x="1490" 
d="M743 1280q-168 0 -268.5 94t-93.5 250h168q11 -75 58 -111t136 -36q174 0 193 147h168q9 -156 -92 -250t-269 -94zM772 -25q-158 0 -292 46t-226 126t-143.5 190.5t-51.5 237.5q0 290 193 463.5t502 173.5q175 0 330.5 -63t242.5 -193l-215 -137q-118 148 -360 148
q-107 0 -189 -29.5t-132.5 -81.5t-75.5 -120t-25 -150q0 -159 114.5 -260t315.5 -101q228 0 358 68v393h256v-534q-260 -177 -602 -177z" />
    <glyph glyph-name="gcircumflex.sc.ss01" horiz-adv-x="1490" 
d="M748 1407l-363 -127v137l320 185h92l301 -185v-137zM772 -25q-158 0 -292 46t-226 126t-143.5 190.5t-51.5 237.5q0 290 193 463.5t502 173.5q175 0 330.5 -63t242.5 -193l-215 -137q-118 148 -360 148q-107 0 -189 -29.5t-132.5 -81.5t-75.5 -120t-25 -150
q0 -159 114.5 -260t315.5 -101q228 0 358 68v393h256v-534q-260 -177 -602 -177z" />
    <glyph glyph-name="uni0123.sc.ss01" horiz-adv-x="1490" 
d="M772 -25q-158 0 -292 46t-226 126t-143.5 190.5t-51.5 237.5q0 290 193 463.5t502 173.5q175 0 330.5 -63t242.5 -193l-215 -137q-118 148 -360 148q-107 0 -189 -29.5t-132.5 -81.5t-75.5 -120t-25 -150q0 -159 114.5 -260t315.5 -101q228 0 358 68v393h256v-534
q-260 -177 -602 -177zM713 -571h-101v96h64q69 0 95 14.5t26 63.5v63h-185v203h303v-252q0 -99 -43.5 -143.5t-158.5 -44.5z" />
    <glyph glyph-name="gdotaccent.sc.ss01" horiz-adv-x="1490" 
d="M862 1296h-246v236h246v-236zM772 -25q-158 0 -292 46t-226 126t-143.5 190.5t-51.5 237.5q0 290 193 463.5t502 173.5q175 0 330.5 -63t242.5 -193l-215 -137q-118 148 -360 148q-107 0 -189 -29.5t-132.5 -81.5t-75.5 -120t-25 -150q0 -159 114.5 -260t315.5 -101
q228 0 358 68v393h256v-534q-260 -177 -602 -177z" />
    <glyph glyph-name="q.sc.ss02" horiz-adv-x="1521" 
d="M1462 598q0 -194 -102.5 -344.5t-284.5 -222.5l76 -207h-244l-57 156q-72 -5 -88 -5q-158 0 -290.5 47.5t-222.5 131t-140 198t-50 246.5q0 129 49.5 241.5t139.5 195t222.5 130t291.5 47.5q155 0 287 -47.5t222 -129.5t140.5 -195t50.5 -242zM862 612l125 -342
q101 44 154 129t53 199q0 163 -113 264t-319 101t-319 -101t-113 -264q0 -168 111.5 -269.5t318.5 -101.5l-139 385h241z" />
    <glyph glyph-name="adieresis.sc.ss09" horiz-adv-x="1376" 
d="M1413 0h-297l-88 193h-692l-88 -193h-285l567 1190h318zM96 1190h246v-234h-246v234zM1034 1190h246v-234h-246v234zM674 924l-228 -492h472l-228 492h-16z" />
    <glyph glyph-name="odieresis.sc.ss09" horiz-adv-x="1521" 
d="M762 -25q-158 0 -290.5 47.5t-222.5 131t-140 198t-50 246.5q0 129 49.5 241.5t139.5 195t222.5 130t291.5 47.5q155 0 287 -47.5t222 -129.5t140.5 -195t50.5 -242q0 -132 -49 -246.5t-138.5 -198t-221.5 -131t-291 -47.5zM762 227q207 0 319.5 101.5t112.5 269.5
q0 163 -113 264t-319 101t-319 -101t-113 -264q0 -168 112 -269.5t320 -101.5zM872 639h-223v215h223v-215zM872 336h-223v215h223v-215z" />
    <glyph glyph-name="udieresis.sc.ss09" horiz-adv-x="1476" 
d="M739 -25q-179 0 -315 61t-216.5 187.5t-80.5 304.5v662h266v-643q0 -165 85.5 -242.5t258.5 -77.5q174 0 260 80t86 250v633h267v-660q0 -135 -46.5 -242t-129 -174.5t-193 -103t-242.5 -35.5zM856 770h-233v223h233v-223zM856 432h-233v225h233v-225z" />
    <glyph glyph-name="a.dnom" horiz-adv-x="647" 
d="M311 561q267 0 267 -215v-346h-158l-6 72h-13q-32 -37 -81 -61.5t-105 -24.5q-89 0 -138.5 44t-49.5 122q0 88 58.5 129t178.5 41h144v12q0 46 -28 65t-85 19q-86 0 -182 -60l-58 127q124 76 256 76zM199 160q0 -47 73 -47q54 0 136 39v57h-125q-44 0 -64 -11.5
t-20 -37.5z" />
    <glyph glyph-name="b.dnom" horiz-adv-x="706" 
d="M428 565q115 0 183.5 -82.5t68.5 -206.5q0 -125 -68 -207.5t-184 -82.5q-117 0 -182 90h-13l-4 -76h-161v707h170v-226h12q65 84 178 84zM377 125q60 0 95.5 42.5t35.5 108.5t-35.5 110t-95.5 44q-104 0 -139 -76v-155q34 -74 139 -74z" />
    <glyph glyph-name="c.dnom" horiz-adv-x="624" 
d="M332 -14q-132 0 -218.5 82t-86.5 208q0 127 85.5 208t219.5 81q89 0 159.5 -38.5t104.5 -104.5l-123 -80q-29 38 -60.5 55t-80.5 17q-56 0 -94.5 -37t-38.5 -101q0 -63 39 -100t94 -37q90 0 141 74l123 -80q-36 -69 -104.5 -108t-159.5 -39z" />
    <glyph glyph-name="d.dnom" horiz-adv-x="708" 
d="M471 479v228h170v-707h-160l-6 74h-12q-66 -88 -180 -88q-117 0 -186.5 82.5t-69.5 207.5q0 124 69.5 206.5t186.5 82.5q113 0 180 -86h8zM199 276q0 -66 36.5 -108.5t96.5 -42.5q100 0 139 72v159q-40 74 -139 74q-60 0 -96.5 -44t-36.5 -110z" />
    <glyph glyph-name="e.dnom" horiz-adv-x="636" 
d="M326 565q145 0 219 -90t59 -237h-405q11 -48 47.5 -75.5t95.5 -27.5q81 0 125 62l125 -74q-37 -67 -109 -102t-147 -35q-145 0 -227 80.5t-82 209.5q0 128 83.5 208.5t215.5 80.5zM205 354h231q-20 74 -110 74q-94 0 -121 -74z" />
    <glyph glyph-name="f.dnom" horiz-adv-x="430" 
d="M291 539h151v-121h-151v-418h-172v418h-92v121h92v14q0 36 4.5 59.5t19 47.5t45.5 35.5t80 11.5h172v-111h-102q-28 0 -37.5 -6.5t-9.5 -24.5v-26z" />
    <glyph glyph-name="g.dnom" horiz-adv-x="696" 
d="M225 182h269q85 0 129.5 -38t44.5 -107q0 -197 -349 -197q-292 0 -292 123q0 68 73 92v11q-57 33 -57 102q0 42 26.5 73.5t82.5 41.5v6q-46 46 -46 104q0 78 62.5 125t187.5 47q60 0 115 -10v78q0 98 90 98h92v-139h-61q-22 0 -29.5 -9.5t-7.5 -29.5v-27q78 -44 78 -133
q0 -77 -67 -123.5t-210 -46.5q-72 0 -127 19q-25 -3 -36 -13.5t-11 -21.5q0 -25 43 -25zM369 449q-109 0 -109 -54q0 -53 109 -53q62 0 85 14t23 39q0 54 -108 54zM334 -33q111 0 153.5 11t42.5 36q0 23 -32 23h-262h-46q-14 -8 -14 -27q0 -12 8.5 -20.5t45.5 -15.5t104 -7z
" />
    <glyph glyph-name="h.dnom" horiz-adv-x="708" 
d="M426 565q215 0 215 -225v-340h-172v297q0 78 -23.5 104.5t-76.5 26.5q-35 0 -72 -17.5t-59 -48.5v-362h-170v707h170v-232h8q70 90 180 90z" />
    <glyph glyph-name="i.dnom" horiz-adv-x="305" 
d="M238 596h-170v162h170v-162zM238 0h-170v553h170v-553z" />
    <glyph glyph-name="j.dnom" horiz-adv-x="325" 
d="M281 596h-170v162h170v-162zM145 -145h-223v135h148q25 0 33 9.5t8 27.5v526h170v-563q0 -28 -5 -49.5t-18 -42.5t-41.5 -32t-71.5 -11z" />
    <glyph glyph-name="k.dnom" horiz-adv-x="714" 
d="M711 0h-199l-174 262l-100 -82v-180h-170v707h170v-334h10l213 180h231l-225 -184z" />
    <glyph glyph-name="l.dnom" horiz-adv-x="305" 
d="M238 0h-170v707h170v-707z" />
    <glyph glyph-name="m.dnom" horiz-adv-x="1110" 
d="M827 565q215 0 215 -225v-340h-170v297q0 78 -23.5 104.5t-76.5 26.5q-36 0 -72.5 -18t-58.5 -50v-20v-340h-172v297q0 78 -23.5 104.5t-76.5 26.5q-35 0 -72 -17.5t-59 -48.5v-362h-170v553h161l4 -82h11q67 94 182 94q153 0 199 -116h6q69 116 196 116z" />
    <glyph glyph-name="n.dnom" horiz-adv-x="708" 
d="M426 565q215 0 215 -225v-340h-172v297q0 78 -23.5 104.5t-76.5 26.5q-35 0 -72 -17.5t-59 -48.5v-362h-170v553h161l4 -82h11q67 94 182 94z" />
    <glyph glyph-name="o.dnom" horiz-adv-x="675" 
d="M338 -14q-138 0 -224.5 82t-86.5 208t86.5 207.5t224.5 81.5t223.5 -81.5t85.5 -207.5t-85.5 -208t-223.5 -82zM338 139q63 0 100 37.5t37 99.5t-37 100t-100 38t-101 -38t-38 -100t38 -99.5t101 -37.5z" />
    <glyph glyph-name="p.dnom" horiz-adv-x="710" 
d="M432 565q115 0 183.5 -82.5t68.5 -206.5q0 -125 -68 -207.5t-184 -82.5q-115 0 -182 86h-10v-217h-172v698h163l5 -76h12q66 88 184 88zM379 125q60 0 96.5 42.5t36.5 108.5t-36.5 110t-96.5 44q-100 0 -139 -76v-157q39 -72 139 -72z" />
    <glyph glyph-name="q.dnom" horiz-adv-x="708" 
d="M473 477l6 76h162v-698h-172v217h-8q-67 -86 -178 -86q-117 0 -186.5 82.5t-69.5 207.5q0 124 69.5 206.5t186.5 82.5q114 0 180 -88h10zM199 276q0 -66 36.5 -108.5t96.5 -42.5q98 0 137 68v165q-38 70 -137 70q-60 0 -96.5 -43t-36.5 -109z" />
    <glyph glyph-name="r.dnom" horiz-adv-x="450" 
d="M236 444h8q67 134 221 123v-159q-72 4 -133.5 -16t-93.5 -58v-334h-170v553h161z" />
    <glyph glyph-name="s.dnom" horiz-adv-x="589" 
d="M299 -14q-79 0 -154 28.5t-118 79.5l90 107q32 -36 86 -56t102 -20q80 0 80 35q0 22 -26.5 32.5t-129.5 30.5q-85 15 -128.5 58.5t-43.5 107.5q0 87 72.5 130.5t189.5 43.5q68 0 134 -22.5t104 -59.5l-78 -114q-27 24 -83 41.5t-101 17.5q-72 0 -72 -33q0 -20 23 -31
t96 -24q36 -7 60 -13t57.5 -19.5t53.5 -30t35 -45t15 -64.5q0 -85 -74.5 -132.5t-189.5 -47.5z" />
    <glyph glyph-name="t.dnom" horiz-adv-x="430" 
d="M401 539v-121h-151v-246q0 -18 7 -27.5t28 -9.5h114v-135h-190q-41 0 -68.5 12t-39.5 33.5t-16.5 42.5t-4.5 49v281h-94v121h94v149h170v-149h151z" />
    <glyph glyph-name="u.dnom" horiz-adv-x="710" 
d="M471 193v360h172v-553h-162l-6 82h-8q-68 -96 -182 -96q-46 0 -83 11t-68 36t-48.5 70.5t-17.5 109.5v340h172v-299q0 -77 24 -103t76 -26q36 0 72.5 18t58.5 50z" />
    <glyph glyph-name="v.dnom" horiz-adv-x="688" 
d="M455 0h-222l-206 553h194l121 -395h8l123 395h189z" />
    <glyph glyph-name="w.dnom" horiz-adv-x="1120" 
d="M438 0h-221l-190 553h192l111 -389h6l125 389h205l127 -389h10l100 389h191l-191 -553h-219l-123 360h-12z" />
    <glyph glyph-name="x.dnom" horiz-adv-x="688" 
d="M248 0h-217l205 272l-209 281h215l96 -162h10l96 162h215l-206 -281l204 -272h-217l-92 154h-10z" />
    <glyph glyph-name="y.dnom" horiz-adv-x="733" 
d="M377 186l139 367h191l-252 -580q-51 -118 -166 -118h-213v135h166q26 0 41 6l-256 557h194l148 -367h8z" />
    <glyph glyph-name="z.dnom" horiz-adv-x="579" 
d="M553 0h-526v152l288 245v9h-280v147h510v-143l-295 -252v-8h303v-150z" />
    <glyph glyph-name="a.numr" horiz-adv-x="647" 
d="M311 1280q267 0 267 -215v-346h-158l-6 72h-13q-32 -37 -81 -61.5t-105 -24.5q-89 0 -138.5 43.5t-49.5 121.5q0 88 58.5 129t178.5 41h144v13q0 46 -28 65t-85 19q-86 0 -182 -60l-58 127q124 76 256 76zM199 879q0 -48 73 -48q54 0 136 39v58h-125q-44 0 -64 -11.5
t-20 -37.5z" />
    <glyph glyph-name="b.numr" horiz-adv-x="706" 
d="M428 1284q115 0 183.5 -82.5t68.5 -206.5q0 -125 -68 -207.5t-184 -82.5q-117 0 -182 90h-13l-4 -76h-161v706h170v-225h12q65 84 178 84zM377 844q60 0 95.5 42.5t35.5 108.5t-35.5 110t-95.5 44q-104 0 -139 -76v-155q34 -74 139 -74z" />
    <glyph glyph-name="c.numr" horiz-adv-x="624" 
d="M332 705q-132 0 -218.5 82t-86.5 208q0 127 85.5 208t219.5 81q89 0 159.5 -38.5t104.5 -104.5l-123 -80q-29 38 -60.5 55t-80.5 17q-56 0 -94.5 -37t-38.5 -101q0 -63 39 -100t94 -37q90 0 141 74l123 -80q-36 -69 -104.5 -108t-159.5 -39z" />
    <glyph glyph-name="d.numr" horiz-adv-x="708" 
d="M471 1198v227h170v-706h-160l-6 74h-12q-66 -88 -180 -88q-117 0 -186.5 82.5t-69.5 207.5q0 124 69.5 206.5t186.5 82.5q113 0 180 -86h8zM199 995q0 -66 36.5 -108.5t96.5 -42.5q101 0 139 71v160q-40 74 -139 74q-60 0 -96.5 -44t-36.5 -110z" />
    <glyph glyph-name="e.numr" horiz-adv-x="634" 
d="M326 1284q145 0 219 -90.5t59 -237.5h-405q11 -48 47.5 -75t95.5 -27q82 0 125 61l125 -73q-37 -67 -109 -102t-147 -35q-145 0 -227 80.5t-82 209.5q0 128 83.5 208.5t215.5 80.5zM205 1073h231q-20 74 -110 74q-94 0 -121 -74z" />
    <glyph glyph-name="f.numr" horiz-adv-x="430" 
d="M291 1257h151v-120h-151v-418h-172v418h-92v120h92v15q0 36 4.5 59.5t19 47t45.5 35t80 11.5h172v-110h-102q-28 0 -37.5 -6.5t-9.5 -24.5v-27z" />
    <glyph glyph-name="g.numr" horiz-adv-x="696" 
d="M225 901h269q85 0 129.5 -38t44.5 -107q0 -197 -349 -197q-292 0 -292 123q0 68 73 92v10q-57 33 -57 103q0 42 26.5 73t82.5 41v7q-46 46 -46 104q0 78 62.5 125t187.5 47q60 0 115 -10v78q0 98 90 98h92v-139h-61q-22 0 -29.5 -9.5t-7.5 -29.5v-27q78 -44 78 -133
q0 -77 -67 -123.5t-210 -46.5q-72 0 -127 19q-25 -3 -36 -13.5t-11 -21.5q0 -25 43 -25zM369 1167q-109 0 -109 -53t109 -53q62 0 85 14t23 39q0 53 -108 53zM334 686q111 0 153.5 11t42.5 36q0 23 -32 23h-262h-46q-14 -8 -14 -27q0 -12 8.5 -20.5t45.5 -15.5t104 -7z" />
    <glyph glyph-name="h.numr" horiz-adv-x="708" 
d="M426 1284q215 0 215 -225v-340h-172v297q0 78 -23.5 104.5t-76.5 26.5q-35 0 -72 -17.5t-59 -48.5v-362h-170v706h170v-231h8q70 90 180 90z" />
    <glyph glyph-name="i.numr" horiz-adv-x="305" 
d="M68 1315v162h170v-162h-170zM238 1272v-553h-170v553h170z" />
    <glyph glyph-name="j.numr" horiz-adv-x="325" 
d="M281 1315h-170v162h170v-162zM145 573h-223v136h148q25 0 33 9t8 27v527h170v-563q0 -28 -5 -49.5t-18 -42.5t-41.5 -32.5t-71.5 -11.5z" />
    <glyph glyph-name="k.numr" horiz-adv-x="714" 
d="M711 719h-199l-174 262l-100 -82v-180h-170v706h170v-333h10l213 180h231l-225 -185z" />
    <glyph glyph-name="l.numr" horiz-adv-x="305" 
d="M238 719h-170v706h170v-706z" />
    <glyph glyph-name="m.numr" horiz-adv-x="1110" 
d="M827 1284q215 0 215 -225v-340h-170v297q0 78 -23.5 104.5t-76.5 26.5q-36 0 -72.5 -18t-58.5 -50v-20v-340h-172v297q0 78 -23.5 104.5t-76.5 26.5q-35 0 -72 -17.5t-59 -48.5v-362h-170v553h161l4 -82h11q67 94 182 94q152 0 199 -117h6q31 53 81.5 85t114.5 32z" />
    <glyph glyph-name="n.numr" horiz-adv-x="708" 
d="M426 1284q215 0 215 -225v-340h-172v297q0 78 -23.5 104.5t-76.5 26.5q-35 0 -72 -17.5t-59 -48.5v-362h-170v553h161l4 -82h11q67 94 182 94z" />
    <glyph glyph-name="o.numr" horiz-adv-x="675" 
d="M338 705q-138 0 -224.5 82t-86.5 208t86.5 207.5t224.5 81.5t223.5 -81.5t85.5 -207.5t-85.5 -208t-223.5 -82zM338 858q63 0 100 37.5t37 99.5t-37 100t-100 38t-101 -38t-38 -100t38 -99.5t101 -37.5z" />
    <glyph glyph-name="p.numr" horiz-adv-x="710" 
d="M432 1284q115 0 183.5 -82.5t68.5 -206.5q0 -125 -68 -207.5t-184 -82.5q-115 0 -182 86h-10v-218h-172v699h163l5 -76h12q66 88 184 88zM379 844q60 0 96.5 42.5t36.5 108.5t-36.5 110t-96.5 44q-100 0 -139 -76v-158q38 -71 139 -71z" />
    <glyph glyph-name="q.numr" horiz-adv-x="708" 
d="M473 1196l6 76h162v-699h-172v218h-8q-67 -86 -178 -86q-117 0 -186.5 82.5t-69.5 207.5q0 124 69.5 206.5t186.5 82.5q114 0 180 -88h10zM199 995q0 -66 36.5 -108.5t96.5 -42.5q99 0 137 67v166q-38 70 -137 70q-60 0 -96.5 -43t-36.5 -109z" />
    <glyph glyph-name="r.numr" horiz-adv-x="450" 
d="M236 1163h8q67 134 221 123v-160q-72 5 -133.5 -15t-93.5 -58v-334h-170v553h161z" />
    <glyph glyph-name="s.numr" horiz-adv-x="589" 
d="M299 705q-79 0 -154 28.5t-118 79.5l90 107q32 -36 86 -56t102 -20q80 0 80 35q0 22 -26.5 32.5t-129.5 30.5q-85 15 -128.5 58.5t-43.5 107.5q0 87 72.5 130.5t189.5 43.5q68 0 134 -22.5t104 -59.5l-78 -115q-27 24 -83 42t-101 18q-72 0 -72 -33q0 -20 23 -31t96 -24
q36 -7 60 -13t57.5 -19.5t53.5 -30t35 -45t15 -64.5q0 -85 -74.5 -132.5t-189.5 -47.5z" />
    <glyph glyph-name="t.numr" horiz-adv-x="430" 
d="M401 1257v-120h-151v-246q0 -18 7 -27.5t28 -9.5h114v-135h-190q-41 0 -68.5 12t-39.5 33.5t-16.5 42.5t-4.5 49v281h-94v120h94v150h170v-150h151z" />
    </font>
</defs>
</svg>
