<?xml version="1.0" encoding="UTF-8"?>
<svg id="Artwork" xmlns="http://www.w3.org/2000/svg" viewBox="0 0 592.08 500">
  <path d="m69.84,375.38v-25.48h.93c10.19,15.14,20.54,22.7,31.04,22.7,7.72,0,13.82-2.39,18.3-7.18,4.47-4.78,6.72-11.19,6.72-19.22,0-9.26-1.78-18.76-5.33-28.49-3.55-9.73-9.19-22.77-16.91-39.15l-8.8-19.46c-8.65-17.91-14.83-31.88-18.53-41.93-3.71-10.03-5.56-20.15-5.56-30.34,0-14.51,4.09-25.78,12.27-33.82,8.18-8.03,18.45-12.04,30.81-12.04,4.63,0,10.03.62,16.21,1.85v19.92h-.46c-8.96-10.49-17.3-15.75-25.02-15.75-7.11,0-12.67,2.55-16.68,7.64-4.02,5.1-6.02,11.35-6.02,18.76,0,6.8,1.93,14.9,5.79,24.32,3.86,9.42,9.65,21.54,17.37,36.37l7.41,15.29c8.64,17.91,15.21,33.12,19.69,45.63,4.48,12.51,6.72,24.78,6.72,36.83,0,14.21-3.94,25.48-11.81,33.82-7.87,8.34-19.23,12.51-34.05,12.51-6.18,0-14.21-.93-24.09-2.78"/>
  <path d="m151.83,374.92c2.47-1.54,3.71-3.71,3.71-6.49v-213.56c0-3.71-1.55-6.33-4.63-7.87v-.46l23.16-5.56v227.46c0,3.4,1.23,5.56,3.71,6.49v.46h-25.94v-.46Z"/>
  <path d="m344.23,356.39v-176.5c0-12.14-2.67-25.74-13.29-33.13-13.97-9.72-34.37-10.2-49.09-1.91-16.83,9.48-22.16,27.03-26.02,44.76-5.72,26.26-9.5,58.53-11.35,96.82.3-20.07-1.32-40.61-4.86-61.62-3.55-21-8.96-39.06-16.21-54.2-7.26-15.13-15.98-24.24-26.17-27.33-3.09-.61-5.26-.93-6.49-.93-3.4,0-6.64.77-9.73,2.32v.46c9.57,3.4,18.68,15.68,27.33,36.83,8.64,21.16,15.52,46.41,20.61,75.74,5.1,29.35,7.48,57.14,7.18,83.39-.31,16.38-3.24,29.5-8.8,39.38-5.56,9.88-11.89,16.83-18.99,20.85-7.11,4.01-13.6,6.02-19.46,6.02v22.7c18.22-6.18,31.11-17.14,38.68-32.89,7.56-15.75,12.89-38.91,15.98-69.49,4.38-43.46,12.22-84.2,22.01-129.75,2.09-9.71,3.44-17.86,7.09-27.02,7.09-17.84,26.57-28.28,44.16-17.9,6.75,3.98,9.35,12.96,9.35,20.41,0,4.94-.69,9.34-2.08,13.2-1.39,3.86-4.25,10.27-8.57,19.22l-32.89,68.56c-13.28,26.57-19.92,47.72-19.92,63.47,0,11.43,2.85,21.01,8.57,28.72,5.71,7.72,13.51,11.58,23.39,11.58,6.18,0,11.97-1.62,17.37-4.86,5.4-3.24,9.96-7.64,13.67-13.2v15.29h26.41v-.46c-5.26-3.09-7.88-9.27-7.88-18.53m-18.53-.93c-5.25,6.18-11.74,9.26-19.46,9.26-8.34,0-14.75-3.94-19.22-11.81-4.48-7.87-6.72-18.3-6.72-31.27,0-8.96,1.16-18.22,3.48-27.8,2.31-9.57,5.17-18.37,8.57-26.41l33.36-75.05v163.07Z"/>
  <path d="m517.96,368.43c0,3.09,1.39,5.25,4.17,6.49v.46h-26.41v-.46c2.47-1.54,3.71-3.71,3.71-6.49v-184.84c0-11.12-1.47-19.46-4.4-25.01-2.94-5.56-7.8-8.34-14.59-8.34-5.25,0-10.42,1.62-15.52,4.86-5.1,3.24-9.66,8.11-13.66,14.59.61,5.56.92,10.19.92,13.9v184.84c0,3.4,1.23,5.56,3.71,6.49v.46h-25.94v-.46c2.47-1.54,3.71-3.71,3.71-6.49v-184.84c0-11.12-1.47-19.46-4.4-25.01-2.94-5.56-7.64-8.34-14.13-8.34-10.81,0-20.38,6.02-28.72,18.07v200.13c0,3.4,1.23,5.56,3.7,6.49v.46h-25.94v-.46c2.47-1.54,3.71-3.71,3.71-6.49v-212.64c0-4.32-1.55-7.25-4.63-8.8v-.46l23.17-5.56v23.62c9.88-15.75,22.07-23.62,36.6-23.62s24.09,8.34,27.8,25.01c9.57-16.68,22.24-25.01,37.99-25.01,19.46,0,29.19,14.21,29.19,42.62v184.84Z"/>
  <path d="m227.94,95.96l3.95-3.39c2.03,3.53,6.21,5.32,10.54,5.32,3.81,0,7.43-1.37,7.43-4.47s-2.54-4.33-8.79-5.41c-5.88-1.03-11.53-2.78-11.53-8.51,0-6.92,6.73-9.55,12.94-9.55,5.64,0,10.35,2.3,13.17,6.54l-4.52,2.92c-1.79-2.87-5.36-4.47-9.13-4.47s-6.68,1.18-6.68,3.71c0,2.21,1.74,3.01,7.53,4,7.01,1.22,12.94,3.39,12.94,10.11s-7.06,10.12-13.41,10.12-11.57-2.12-14.44-6.92"/>
  <path d="m275.09,88.34v-17.83h5.64v17.45c0,6.86,3.81,9.6,9.45,9.6s9.46-2.78,9.46-9.78v-17.26h5.64v17.78c0,9.55-6.35,14.58-15.05,14.58s-15.15-5.04-15.15-14.53"/>
  <polygon points="326.02 102.31 326.02 70.51 333.41 70.51 351.04 95.02 351.38 95.02 351.38 70.51 357.06 70.51 357.06 102.31 349.68 102.31 332.05 77.71 331.67 77.71 331.67 102.31 326.02 102.31"/>
</svg>