<svg xmlns="http://www.w3.org/2000/svg" xmlns:xlink="http://www.w3.org/1999/xlink" width="26.606" height="29.078" viewBox="0 0 26.606 29.078">
  <path d="M121.045,46.544v2.518a6.082,6.082,0,0,1,0,9.21v2.518a8.16,8.16,0,0,0,0-14.247" transform="translate(-101.759 -39.128)" fill="#fff" stroke="rgba(0,0,0,0)" stroke-width="1"/>
  <path d="M121.045,24.857v2.249a9.233,9.233,0,0,1,0,16.659v2.249a11.3,11.3,0,0,0,0-21.157" transform="translate(-101.759 -20.897)" fill="#fff" stroke="rgba(0,0,0,0)" stroke-width="1"/>
  <path d="M15.7,2.8V26.279L7.976,19.933,7.4,19.461H2.071V9.617H7.4l.573-.471ZM16.337,0a1.4,1.4,0,0,0-.9.326L6.661,7.545H1.281A1.281,1.281,0,0,0,0,8.826V20.252a1.281,1.281,0,0,0,1.281,1.281h5.38l8.78,7.219a1.4,1.4,0,0,0,.9.326,1.423,1.423,0,0,0,1.43-1.425V1.425A1.423,1.423,0,0,0,16.337,0" fill="#fff" stroke="rgba(0,0,0,0)" stroke-width="1"/>
</svg>