<svg width="177" height="177" viewBox="0 0 177 177" fill="none" xmlns="http://www.w3.org/2000/svg">
<mask id="mask0_7_233" style="mask-type:luminance" maskUnits="userSpaceOnUse" x="0" y="0" width="177" height="177">
<path d="M0.613007 176.344H176.16V0.795898H0.613007V176.344Z" fill="white"/>
</mask>
<g mask="url(#mask0_7_233)">
<path d="M88.386 176.344C65.1153 176.317 42.8053 167.061 26.3504 150.607C9.89546 134.152 0.639474 111.842 0.613007 88.5709C0.639209 65.2999 9.89504 42.9895 26.3499 26.5342C42.8048 10.079 65.115 0.822631 88.386 0.795898C111.657 0.822631 133.967 10.079 150.422 26.5342C166.877 42.9895 176.133 65.2999 176.159 88.5709C176.133 111.842 166.877 134.152 150.422 150.607C133.967 167.061 111.657 176.317 88.386 176.344ZM88.386 3.0509C65.7125 3.07631 43.9749 12.0946 27.9423 28.1272C11.9097 44.1598 2.89141 65.8974 2.866 88.5709C2.89168 111.244 11.9101 132.981 27.9427 149.014C43.9753 165.046 65.7128 174.064 88.386 174.089C111.059 174.064 132.797 165.046 148.829 149.014C164.862 132.981 173.88 111.244 173.906 88.5709C173.881 65.8974 164.862 44.1598 148.83 28.1272C132.797 12.0946 111.06 3.07631 88.386 3.0509Z" fill="#211E2B"/>
<path d="M86.516 59.867C86.575 59.795 86.632 59.721 86.689 59.6469C85.889 58.069 85.181 56.438 84.274 54.926C83.0808 52.9133 81.7857 50.9628 80.394 49.082C78.637 46.738 76.744 44.4869 74.856 42.239C73.54 40.671 72.1723 39.1393 70.753 37.644C68.9326 35.7727 66.9799 34.0348 64.91 32.444C63.2442 31.1918 61.4565 30.1107 59.574 29.217C59.436 29.147 59.219 29.24 59.04 29.258C59.0653 29.4217 59.1034 29.5832 59.154 29.741C59.2039 29.8263 59.2744 29.8978 59.359 29.949C60.159 30.586 60.971 31.206 61.759 31.859C63.607 33.397 65.48 34.904 67.259 36.514C68.682 37.799 69.982 39.206 71.332 40.562C73.2009 42.4274 74.9327 44.4252 76.514 46.54C78.458 49.146 80.362 51.787 82.276 54.411C83.4373 56.2197 84.7182 57.9489 86.11 59.587C86.2346 59.6921 86.3709 59.7827 86.516 59.857V59.867ZM88.598 59.687C88.628 59.705 88.661 59.72 88.692 59.739C88.8206 59.5854 88.9402 59.4245 89.05 59.257C90.102 57.48 91.134 55.69 92.204 53.925C94.3173 50.4804 96.7854 47.2665 99.568 44.336C100.014 43.861 100.424 43.352 100.868 42.878C101.868 41.821 102.819 40.707 103.901 39.739C105.524 38.293 107.236 36.939 108.928 35.569C110.809 34.05 112.716 32.561 114.602 31.046C115.019 30.7065 115.416 30.344 115.792 29.96C115.887 29.869 115.883 29.682 115.926 29.539C115.779 29.4915 115.624 29.4725 115.469 29.483C115.271 29.5499 115.082 29.6423 114.907 29.758C112.289 31.1979 109.776 32.8205 107.386 34.614C105.836 35.821 104.31 37.061 102.828 38.348C101.927 39.1542 101.071 40.0084 100.262 40.907C99.162 42.09 98.034 43.254 97.055 44.532C95.247 46.889 93.51 49.3 91.805 51.732C90.8501 52.8333 90.1601 54.1386 89.788 55.548C89.708 55.9732 89.6028 56.3932 89.473 56.806C89.187 57.767 88.889 58.727 88.599 59.683L88.598 59.687ZM104.698 57.702C103.675 57.78 102.553 57.844 101.438 57.957C100.323 58.07 99.219 58.198 98.116 58.369C96.1751 58.6667 94.2748 59.1858 92.452 59.916C91.664 60.234 90.873 60.542 90.095 60.892C89.948 60.959 89.869 61.187 89.759 61.341C89.924 61.3506 90.0895 61.3436 90.253 61.32C91.385 61.02 92.499 60.6399 93.644 60.4249C95.404 60.0949 97.178 59.845 98.953 59.625C100.575 59.4199 102.204 59.246 103.836 59.151C104.906 59.092 105.988 59.194 107.066 59.238C107.537 59.256 108.009 59.292 108.476 59.338C110.009 59.492 111.54 59.6536 113.068 59.823C114.194 59.948 115.323 60.053 116.438 60.243C118.138 60.527 119.838 60.818 121.516 61.212C124.052 61.812 126.616 62.353 129.077 63.178C132.823 64.431 136.499 65.901 140.2 67.2929C140.333 67.3661 140.489 67.3861 140.636 67.349C140.783 67.3119 140.911 67.2204 140.993 67.093C141.047 67.001 140.793 66.639 140.609 66.5149C140.194 66.236 139.753 65.9966 139.293 65.7999C134.58 63.6406 129.692 61.8843 124.682 60.5499C121.882 59.895 119.065 59.2789 116.235 58.767C114.345 58.424 112.421 58.242 110.505 58.067C108.605 57.898 106.705 57.823 104.694 57.706L104.698 57.702ZM52.248 93.476L52.3 93.519C52.5335 93.2729 52.7531 93.0142 52.958 92.7439C54.365 90.6689 55.772 88.597 57.158 86.507C58.4578 84.4285 59.9768 82.4954 61.689 80.741C62.463 79.988 63.209 79.2029 64.039 78.5219C64.974 77.7231 65.9693 76.9976 67.016 76.352C69.4077 75.0145 71.8752 73.8175 74.406 72.767C78.1814 71.2851 81.5374 68.903 84.182 65.8279C84.4957 65.5391 84.7488 65.1906 84.9265 64.803C85.1041 64.4153 85.2029 63.9962 85.217 63.57C84.555 63.8439 83.93 64.1 83.305 64.37C83.2055 64.4165 83.1153 64.4809 83.039 64.56C82.309 65.302 81.606 66.074 80.851 66.789C79.0812 68.4309 77.0697 69.7914 74.887 70.823C72.187 72.141 69.435 73.351 66.741 74.679C64.8367 75.5947 63.1099 76.841 61.641 78.36C60.42 79.643 59.2 80.941 58.089 82.324C57.0212 83.5626 56.0864 84.91 55.3 86.3439C54.145 88.6579 53.246 91.099 52.238 93.487L52.248 93.476ZM34.055 67.269C34.1 67.32 34.149 67.3689 34.195 67.423C34.4054 67.3798 34.6121 67.32 34.813 67.2439C35.398 66.977 35.956 66.6339 36.56 66.417C37.997 65.895 39.442 65.394 40.902 64.938C44.215 63.9039 47.524 62.847 50.866 61.912C52.92 61.339 55.025 60.921 57.123 60.532C58.534 60.272 59.974 60.152 61.408 60.021C63.154 59.861 64.908 59.74 66.658 59.634C67.541 59.58 68.423 59.571 69.308 59.573C70.568 59.573 71.834 59.536 73.089 59.649C74.889 59.809 76.689 60.04 78.475 60.325C80.275 60.614 82.063 61.037 83.865 61.338C84.578 61.456 85.3 61.938 86.076 61.429C85.876 61.246 85.708 61.0009 85.484 60.917C84.2273 60.3888 82.9412 59.9337 81.632 59.554C80.2227 59.2327 78.7955 58.996 77.358 58.845C75.548 58.611 73.732 58.3449 71.911 58.278C69.756 58.198 67.596 58.266 65.444 58.362C63.406 58.457 61.366 58.644 59.337 58.848C57.846 58.997 56.354 59.188 54.876 59.448C51.7644 60.0341 48.6934 60.8187 45.682 61.797C43.0282 62.5838 40.4384 63.572 37.935 64.753C36.78 65.315 35.659 65.96 34.551 66.606C34.332 66.734 34.221 67.044 34.059 67.268L34.055 67.269ZM94.591 57.956C95.4106 57.6139 96.247 57.3135 97.097 57.056C99.0303 56.562 100.971 56.1103 102.919 55.701C105.411 55.2111 107.949 55.0002 110.487 55.072C112.376 55.0914 114.264 55.2083 116.141 55.422C118.3 55.673 120.453 56.035 122.593 56.446C125.364 57.0218 128.085 57.8211 130.727 58.836C133.87 59.9263 136.861 61.4133 139.627 63.261C141.603 64.5709 143.418 66.1084 145.035 67.8419C145.845 68.742 146.515 69.768 147.25 70.742C147.216 70.782 147.18 70.818 147.15 70.8559C147.037 70.82 146.884 70.817 146.815 70.742C146.175 70.1637 145.359 69.8187 144.498 69.763C143.085 69.504 141.669 69.249 140.242 69.09C139.488 69.0029 138.707 69.159 137.942 69.1189C136.844 69.0898 135.749 68.9869 134.665 68.811C132.172 68.226 129.76 67.3395 127.482 66.171C126.98 65.9301 126.458 65.733 125.922 65.582C126.076 65.7464 126.214 65.9249 126.335 66.115C126.657 66.726 126.972 67.338 127.251 67.965C127.351 68.194 126.918 68.5309 126.527 68.5359C125.355 68.554 124.182 68.6119 123.013 68.5569C120.814 68.495 118.627 68.218 116.482 67.7299C114.798 67.313 113.082 67.017 111.438 66.483C108.931 65.7114 106.638 64.3689 104.738 62.561C104.313 62.0765 103.926 61.5592 103.582 61.014C103.512 60.9412 103.434 60.8771 103.349 60.823L103.206 60.896C103.579 61.854 103.995 62.801 104.296 63.78C104.329 64.1532 104.277 64.529 104.146 64.88C104.146 64.895 103.946 64.862 103.846 64.865C103.381 64.8271 102.913 64.8564 102.457 64.952C101.096 65.3383 99.6638 65.4019 98.274 65.138C97.124 65.011 95.98 64.812 94.833 64.631C94.54 64.586 94.251 64.492 93.959 64.422C93.948 64.469 93.933 64.513 93.92 64.558C95.553 65.107 97.168 65.7119 98.82 66.1959C103.075 67.4852 107.057 69.5446 110.568 72.2719C113.061 74.1909 115.235 76.4908 117.012 79.087C118.647 81.3686 120.071 83.7938 121.268 86.333C122.328 88.4797 123.165 90.729 123.768 93.046C123.83 93.5346 123.923 94.0189 124.046 94.4959C124.272 94.9893 124.527 95.4685 124.811 95.931C125.053 96.406 125.271 96.895 125.497 97.381C125.512 97.417 125.482 97.472 125.446 97.666C125.153 97.3908 124.893 97.082 124.672 96.7459C123.154 93.5679 121.399 90.5089 119.421 87.595C117.964 85.4729 116.442 83.395 114.847 81.373C113.889 80.1361 112.811 78.9972 111.629 77.9729C110.309 76.8536 108.887 75.8602 107.382 75.006C104.87 73.587 102.251 72.3489 99.704 70.9869C97.884 70.0255 96.1797 68.8597 94.624 67.512C93.124 66.204 91.599 64.929 90.079 63.65C89.8631 63.4922 89.6362 63.3502 89.4 63.225C89.352 63.25 89.3 63.2729 89.251 63.299C89.2733 63.49 89.3267 63.6761 89.409 63.85C89.924 64.56 90.436 65.2719 91.009 65.937C91.945 67.026 92.895 68.108 93.903 69.13C95.4829 70.6445 97.3504 71.8271 99.395 72.608C102.419 73.731 105.328 75.1425 108.082 76.823C109.828 77.8976 111.433 79.1863 112.859 80.659C114.464 82.4484 115.919 84.3676 117.208 86.3969C118.208 87.9669 119.343 89.448 120.355 91.012C121.136 92.212 121.819 93.479 122.497 94.782C122.381 94.672 122.27 94.564 122.151 94.457C121.017 93.451 119.937 92.374 118.737 91.457C117.237 90.316 115.664 89.2509 114.059 88.257C111.22 86.5 108.308 84.8569 105.472 83.091C104.378 82.4023 103.346 81.6189 102.388 80.75C101.054 79.4376 100.108 77.7825 99.655 75.9669C99.6126 75.7865 99.5485 75.6119 99.464 75.4469C99.394 76.0029 99.313 76.558 99.264 77.116C99.206 77.802 98.964 77.974 98.284 77.816C97.3549 77.5188 96.5146 76.9946 95.839 76.291C94.3685 74.8863 93.1626 73.2285 92.279 71.3969C91.9801 70.8253 91.6524 70.2693 91.297 69.7309C91.373 70.313 91.447 70.893 91.527 71.475C91.648 72.386 91.775 73.298 91.888 74.211C92.022 75.285 92.152 76.359 92.264 77.434C92.352 78.271 92.4 79.1119 92.48 79.949C92.6 81.22 92.737 82.491 92.859 83.763C92.935 84.568 92.993 85.375 93.068 86.1819C93.189 87.4869 93.324 88.79 93.447 90.095C93.491 90.548 93.527 90.9949 93.557 91.4539C93.6563 93.0099 93.7563 94.5653 93.857 96.1199C93.957 97.5929 94.057 99.068 94.147 100.542C94.247 102.194 94.347 103.852 94.447 105.507C94.542 106.999 94.631 108.489 94.742 109.977C94.8633 111.628 94.9947 113.276 95.136 114.921C95.257 116.321 95.391 117.721 95.528 119.121C95.684 120.713 95.839 122.308 96.018 123.897C96.197 125.486 96.418 127.07 96.598 128.657C96.744 129.892 96.853 131.132 96.998 132.369C97.177 133.859 97.483 135.34 97.56 136.835C97.695 139.509 98.681 141.976 99.285 144.535C99.7105 145.958 99.9637 147.426 100.039 148.909C100.01 149.407 99.8269 149.884 99.516 150.275C99.205 150.665 98.781 150.95 98.302 151.09C97.227 151.277 96.134 151.4 95.046 151.49C93.523 151.618 91.998 151.731 90.468 151.767C89.5457 151.777 88.6241 151.71 87.713 151.567C87.277 151.5 86.744 151.323 86.691 150.748C86.6901 150.489 86.7503 150.233 86.8667 150.001C86.9831 149.77 87.1525 149.569 87.361 149.415C87.998 148.815 88.632 148.209 89.232 147.572C89.8031 146.807 90.1385 145.893 90.197 144.94C90.384 143.99 90.476 143.022 90.597 142.063C90.6249 141.346 90.4368 140.636 90.057 140.027C89.6332 139.138 89.1522 138.278 88.617 137.451C88.131 136.591 87.9787 135.581 88.189 134.616C88.36 133.093 88.632 131.586 88.829 130.066C89.015 128.625 89.181 127.179 89.309 125.732C89.3211 125.212 89.2913 124.691 89.22 124.176C89.164 123.413 89.086 122.656 89.033 121.897C88.933 120.472 88.833 119.043 88.741 117.618C88.698 116.95 88.663 116.283 88.641 115.618C88.602 114.395 88.556 113.17 88.541 111.943C88.4697 104.926 88.405 97.9063 88.347 90.8849C88.335 89.4279 88.432 87.9729 88.432 86.5179C88.432 85.1619 88.387 83.8029 88.338 82.4469C88.29 81.1609 88.222 79.875 88.144 78.5919C88.044 76.8919 87.917 75.1919 87.798 73.4109C87.2307 75.3401 86.7831 77.3025 86.458 79.2869C86.331 80.577 85.958 81.841 85.734 83.124C85.534 84.2649 85.342 85.4109 85.216 86.563C85.045 88.124 84.916 89.691 84.816 91.263C84.716 92.7729 84.674 94.2859 84.616 95.8009C84.575 96.9409 84.553 98.081 84.516 99.225C84.453 101.144 84.396 103.068 84.316 104.987C84.288 105.634 84.176 106.274 84.14 106.92C84.122 107.239 84.217 107.566 84.217 107.886C84.217 109.361 84.199 110.832 84.178 112.305C84.178 112.6 84.127 112.894 84.127 113.186C84.121 114.873 84.137 116.559 84.121 118.244C84.096 121.025 84.073 123.81 84.021 126.591C83.985 128.465 83.915 130.343 83.821 132.214C83.778 133.066 83.63 133.914 83.554 134.765C83.533 135.002 83.638 135.247 83.624 135.488C83.576 136.23 83.486 136.969 83.435 137.714C83.361 138.784 83.289 139.854 83.241 140.926C83.165 142.603 83.161 144.284 83.026 145.955C82.905 147.431 82.652 148.896 82.426 150.365C82.4108 150.482 82.3705 150.595 82.3078 150.695C82.2452 150.795 82.1617 150.881 82.063 150.946C81.8976 151.003 81.717 150.998 81.5549 150.932C81.3928 150.866 81.2602 150.744 81.182 150.587C80.7184 150.02 80.4964 149.293 80.564 148.563C80.764 147.199 80.846 145.819 80.984 144.445C81.076 143.558 81.215 142.679 81.263 141.793C81.296 141.176 81.168 140.553 81.189 139.934C81.296 136.96 81.434 133.989 81.558 131.015C81.598 130.099 81.636 129.187 81.658 128.271C81.731 125.702 81.807 123.133 81.858 120.562C81.936 116.93 81.987 113.295 82.067 109.662C82.108 107.781 82.18 105.902 82.257 104.024C82.341 102.083 82.4383 100.142 82.549 98.2029C82.63 96.7369 82.735 95.2759 82.844 93.8139C82.9653 92.1753 83.0957 90.5383 83.235 88.903C83.391 87.0929 83.56 85.285 83.727 83.4739C83.858 82.055 84.011 80.635 84.115 79.213C84.236 77.526 84.348 75.8369 84.403 74.1479C84.451 72.6639 84.418 71.177 84.403 69.694C84.3818 69.4195 84.34 69.1471 84.278 68.879C83.864 69.658 83.467 70.3929 83.078 71.1259C82.1411 73.078 80.8487 74.8383 79.267 76.317C78.5917 77.0212 77.7482 77.5419 76.816 77.83C76.17 77.975 75.916 77.808 75.866 77.144C75.851 76.935 75.815 76.728 75.794 76.519C75.773 76.31 75.761 76.1189 75.729 75.7729C75.466 76.4339 75.262 76.964 75.043 77.491C74.0632 79.6471 72.4292 81.4399 70.373 82.615C68.699 83.679 66.927 84.588 65.243 85.6399C62.572 87.3089 59.902 88.983 57.299 90.756C55.4217 92.0561 53.7113 93.5818 52.206 95.299C51.535 95.9889 50.8252 96.6399 50.08 97.249C49.9494 97.3419 49.8089 97.4201 49.661 97.4819L49.536 97.402C50.007 96.602 50.48 95.81 50.942 95.002C51.0231 94.8363 51.0784 94.6593 51.106 94.477C51.226 93.867 51.285 93.241 51.461 92.646C52.6752 88.5697 54.4649 84.6876 56.776 81.117C58.4466 78.4253 60.456 75.9595 62.755 73.7799C64.7695 71.98 66.9711 70.401 69.322 69.07C72.3762 67.4338 75.604 66.1448 78.945 65.227C79.6049 65.0141 80.2488 64.7548 80.872 64.451C79.852 64.63 78.84 64.825 77.817 64.985C76.4116 65.3044 74.9718 65.4468 73.531 65.409C72.9915 65.3205 72.4591 65.1932 71.938 65.028C71.638 64.958 71.343 64.897 70.932 64.81C70.8329 64.6514 70.7779 64.4694 70.7726 64.2825C70.7674 64.0957 70.812 63.9108 70.902 63.747C71.2514 62.8099 71.5518 61.8552 71.802 60.887C71.436 61.3549 71.093 61.841 70.702 62.28C69.524 63.485 68.148 64.479 66.634 65.219C64.3372 66.425 61.8504 67.228 59.282 67.593C58.187 67.768 57.111 68.047 56.016 68.233C55.297 68.354 54.568 68.408 53.841 68.459C53.041 68.514 52.241 68.551 51.448 68.559C50.508 68.57 49.565 68.552 48.624 68.534C48.072 68.526 47.81 68.16 48.036 67.663C48.366 66.935 48.748 66.233 49.103 65.532C48.32 65.878 47.455 66.241 46.61 66.638C44.4812 67.6719 42.2362 68.4471 39.923 68.9469C38.6356 69.129 37.3323 69.1702 36.036 69.07C33.8675 69.113 31.7129 69.4264 29.622 70.003C29.205 70.1615 28.8103 70.3736 28.448 70.6339C28.309 70.7119 28.169 70.795 28.029 70.874L27.923 70.76C28.368 70.123 28.772 69.449 29.269 68.86C29.9917 67.9785 30.7654 67.14 31.586 66.349C33.575 64.471 35.7909 62.8487 38.182 61.52C42.3778 59.2799 46.8492 57.5999 51.482 56.523C53.463 56.031 55.495 55.7229 57.515 55.409C58.8448 55.2026 60.1853 55.072 61.53 55.018C63.603 54.933 65.686 54.842 67.754 54.935C69.5149 55.0349 71.2664 55.2609 72.995 55.611C74.905 55.979 76.781 56.511 78.667 56.977C78.8661 57.0509 79.0757 57.0927 79.288 57.101C78.549 56.535 77.8 55.982 77.071 55.401C75.9 54.459 74.749 53.487 73.562 52.558C73.0316 52.1633 72.4801 51.7978 71.91 51.463C71.2502 51.1743 70.7137 50.6618 70.395 50.016C70.3186 49.8718 70.2757 49.7123 70.2693 49.5493C70.263 49.3864 70.2934 49.224 70.3583 49.0744C70.4233 48.9248 70.521 48.7916 70.6444 48.6849C70.7678 48.5782 70.9136 48.5006 71.071 48.458C71.171 48.4179 71.271 48.391 71.406 48.345C70.668 48.035 69.962 47.787 69.302 47.45C67.7772 46.6199 66.5265 45.3647 65.702 43.837C64.789 42.248 64.102 40.531 63.33 38.863C63.157 38.484 63.652 38.063 64.159 38.133C64.3853 38.1775 64.6184 38.1734 64.843 38.121C64.391 37.755 63.943 37.386 63.488 37.021C61.4272 35.5306 59.6427 33.6917 58.215 31.587C57.455 30.374 56.789 29.102 56.067 27.838C56.2439 27.6448 56.4733 27.5073 56.727 27.4423C56.9808 27.3773 57.248 27.3876 57.496 27.472C58.363 27.641 59.267 27.63 60.137 27.797C61.537 28.065 62.947 28.36 64.314 28.757C66.039 29.257 67.761 29.795 69.427 30.464C71.7288 31.3983 73.7682 32.8793 75.369 34.779C76.622 36.241 77.96 37.633 79.169 39.123C80.0061 40.1539 80.7665 41.2448 81.444 42.387C82.9774 44.989 84.318 47.6999 85.455 50.498C86.3342 52.6052 87.0243 54.7864 87.517 57.016C87.739 56.282 87.952 55.601 88.149 54.916C89.3026 50.6758 91.1481 46.6551 93.611 43.016C94.275 42.059 94.842 41.038 95.538 40.108C96.298 39.092 97.145 38.143 97.975 37.182C98.628 36.43 99.328 35.716 99.975 34.959C101.502 33.149 103.43 31.719 105.605 30.782C108.394 29.6133 111.289 28.7174 114.251 28.107C115.412 27.9002 116.585 27.7627 117.762 27.695C118.193 27.652 118.629 27.688 119.062 27.688C119.087 27.746 119.107 27.804 119.131 27.861C118.908 28.201 118.67 28.531 118.465 28.883C117.81 29.994 117.222 31.149 116.506 32.22C115.525 33.5871 114.362 34.8144 113.05 35.868C112.067 36.713 111.05 37.509 109.95 38.4C110.326 38.4 110.626 38.425 110.923 38.394C111.874 38.3 112.002 38.405 111.616 39.281C110.977 40.817 110.256 42.3178 109.456 43.777C108.505 45.5733 106.974 46.995 105.112 47.811C104.567 48.035 103.994 48.202 103.35 48.421C103.645 48.499 103.879 48.572 104.114 48.621C104.253 48.6451 104.384 48.7013 104.497 48.7851C104.611 48.8688 104.703 48.9778 104.767 49.1034C104.831 49.2289 104.864 49.3677 104.865 49.5085C104.866 49.6494 104.834 49.7886 104.772 49.915C104.662 50.2323 104.487 50.523 104.258 50.7682C104.029 51.0134 103.75 51.2075 103.441 51.338C101.541 52.3508 99.763 53.5771 98.141 54.993C96.9683 55.9456 95.7937 56.898 94.617 57.85C94.599 57.865 94.596 57.902 94.576 57.963L94.591 57.956Z" fill="#211E2B"/>
<path d="M85.81 118.62C85.876 119.32 85.974 120.027 86.004 120.735C86.058 122.023 86.117 123.316 86.102 124.599C86.051 128.637 86.007 132.675 85.898 136.709C85.858 138.209 85.631 139.709 85.53 141.209C85.434 142.669 85.379 144.134 85.331 145.599C85.3325 145.728 85.3649 145.855 85.4255 145.968C85.4862 146.082 85.5733 146.18 85.6796 146.253C85.7858 146.326 85.9081 146.373 86.0361 146.389C86.1641 146.405 86.294 146.39 86.415 146.345C86.715 146.253 87.033 146.181 87.336 146.081C87.666 145.972 87.691 146.118 87.636 146.381C87.442 147.298 87.136 147.681 86.451 147.765C86.079 147.806 85.7028 147.744 85.3639 147.585C85.0249 147.426 84.7364 147.177 84.53 146.865C84.2618 146.459 84.1253 145.98 84.139 145.494C84.195 144.189 84.132 142.875 84.26 141.581C84.582 138.363 84.633 135.142 84.66 131.915C84.672 130.198 84.901 128.481 85.028 126.764C85.068 126.245 85.111 125.727 85.128 125.208C85.193 123.188 85.251 121.167 85.331 119.147C85.3804 118.934 85.4656 118.731 85.583 118.547C85.658 118.569 85.731 118.599 85.807 118.62H85.81Z" fill="#211E2B"/>
<path d="M86.292 108.868C86.3445 109.492 86.1814 110.115 85.83 110.633C85.746 110.767 85.439 110.921 85.388 110.879C85.2131 110.748 85.0932 110.557 85.052 110.343C85.09 110.002 85.2283 109.68 85.4494 109.417C85.6704 109.155 85.9644 108.963 86.294 108.868H86.292Z" fill="#211E2B"/>
<path d="M85.918 106.329C86.041 106.617 86.0735 106.935 86.0113 107.242C85.9492 107.548 85.7953 107.829 85.57 108.046C85.47 108.104 85.224 108.108 85.197 108.054C85.0275 107.819 84.9239 107.542 84.897 107.254C84.945 106.754 85.237 106.553 85.918 106.329Z" fill="#211E2B"/>
<path d="M86.692 111.625C86.397 112.162 86.129 112.71 85.792 113.219C85.704 113.353 85.418 113.357 85.225 113.419C85.18 113.199 85.039 112.948 85.107 112.769C85.354 112.107 85.983 111.837 86.513 111.479L86.692 111.622V111.625Z" fill="#211E2B"/>
<path d="M86.789 114.036C86.7294 114.825 86.432 115.577 85.936 116.193C85.8814 116.224 85.8199 116.242 85.7569 116.244C85.6939 116.246 85.6314 116.232 85.575 116.204C85.4689 116.065 85.4208 115.89 85.441 115.717C85.5345 115.358 85.703 115.022 85.9353 114.732C86.1676 114.443 86.4585 114.205 86.789 114.036Z" fill="#211E2B"/>
<path d="M85.921 104.409C85.9104 104.517 85.8831 104.623 85.84 104.722C85.7521 104.902 85.6314 105.065 85.484 105.201C85.453 105.231 85.167 105.083 85.132 104.972C85.0485 104.744 85.0346 104.496 85.092 104.26C85.1417 104.166 85.2107 104.084 85.2945 104.019C85.3783 103.954 85.4749 103.907 85.578 103.882C85.978 103.782 85.897 104.117 85.921 104.409Z" fill="#211E2B"/>
</g>
</svg>
